<?xml version="1.0" encoding="utf-8"?>
<!-- Generator: Adobe Illustrator 24.1.0, SVG Export Plug-In . SVG Version: 6.00 Build 0)  -->
<svg version="1.1" id="Layer_1" xmlns="http://www.w3.org/2000/svg" xmlns:xlink="http://www.w3.org/1999/xlink" x="0px" y="0px"
	 viewBox="0 0 500 500" style="enable-background:new 0 0 500 500;" xml:space="preserve">
<style type="text/css">
	.st0{opacity:0.3;fill:#7FE4FF;}
	.st1{fill:#FFFFFF;}
	.st2{opacity:0.3;fill:none;stroke:#7FE4FF;stroke-width:2;stroke-miterlimit:10;}
	.st3{fill:none;stroke:#7FE4FF;stroke-width:2;stroke-miterlimit:10;}
	.st4{opacity:0.3;fill:#7FE4FF;stroke:#7FE4FF;stroke-width:2;stroke-miterlimit:10;}
</style>
<rect y="163.3" width="500" height="197"/>
<path class="st0" d="M75.9,279.4c-6.3,4.4-7.9,13.2-3.4,19.5c4.4,6.3,13.2,7.9,19.5,3.4c6.3-4.4,7.9-13.2,3.4-19.5
	C91,276.5,82.2,274.9,75.9,279.4z M88.9,287.4c1.9,2.7,1.3,6.5-1.5,8.4S81,297,79,294.3c-1.9-2.7-1.3-6.5,1.5-8.4
	S87,284.7,88.9,287.4z"/>
<path class="st0" d="M121.2,281.1c-5.5,5.4-5.5,14.3-0.1,19.8s14.3,5.5,19.8,0.1c5.5-5.4,5.5-14.3,0.1-19.8
	C135.5,275.6,126.7,275.6,121.2,281.1z M135.3,295.3c-2.4,2.3-6.2,2.3-8.5,0c-2.3-2.4-2.3-6.2,0-8.5c2.4-2.3,6.2-2.3,8.5,0
	C137.6,289.1,137.6,292.9,135.3,295.3z"/>
<path class="st1" d="M145.5,276.6c-1.2-1.2-2.5-2.2-3.9-3l1.4-2.3c-2.2-1.3-4.5-2.3-7-2.8l-0.6,2.6c-2.5-0.6-5.2-0.6-7.7-0.2
	l-0.4-2.6c-2.5,0.4-4.9,1.2-7.1,2.4l1.2,2.3c-1.7,0.9-3.4,2.1-4.8,3.6l-1.8-1.9c-1.8,1.8-3.3,3.8-4.4,6.1l2.4,1.2
	c-1.2,2.4-1.9,4.9-2.1,7.5l-2.6-0.2c-0.2,2.5,0,5,0.6,7.5l2.6-0.6c0.6,2.5,1.7,4.9,3.3,7l-2.1,1.6c0.7,1,1.5,1.9,2.3,2.7
	c0.9,0.9,1.9,1.8,3,2.6l1.5-2.1c2.2,1.5,4.6,2.6,7,3.2l-0.6,2.6c2.4,0.6,5,0.8,7.5,0.5l-0.2-2.6c2.6-0.2,5.1-0.9,7.4-2.1l1.2,2.3
	c2.1-1.1,4.1-2.5,5.8-4.2c0.1-0.1,0.2-0.2,0.3-0.3l-1.9-1.8c1.9-1.9,3.3-4.1,4.3-6.5l2.4,1c1-2.3,1.5-4.8,1.7-7.3l-2.6-0.2
	c0.2-2.6-0.2-5.2-1-7.7l2.5-0.8c-0.8-2.4-1.9-4.6-3.5-6.7l-2.1,1.6C146.8,278,146.2,277.3,145.5,276.6z M142.2,302.3
	c-6.2,6.2-16.3,6.1-22.5-0.1c-6.2-6.2-6.1-16.3,0.1-22.5c6.2-6.2,16.3-6.1,22.5,0.1C148.5,286,148.5,296.1,142.2,302.3z"/>
<path class="st1" d="M103.8,295.6c0.6-2.5,0.7-5.1,0.3-7.7l2.6-0.4c-0.4-2.5-1.1-4.9-2.3-7.1l-2.4,1.2c-0.4-0.8-0.9-1.7-1.5-2.4
	c-1-1.4-2.1-2.6-3.3-3.6l1.7-2c-1.9-1.7-4-3-6.4-3.9l-1,2.4c-2.4-1-5-1.5-7.6-1.5l0-2.6c-2.5,0-5,0.4-7.4,1.1l0.8,2.5
	c-1.9,0.6-3.7,1.5-5.4,2.7l-1.5-2.1c-2.1,1.5-3.9,3.2-5.4,5.2l2.1,1.6c-1.6,2.1-2.7,4.5-3.3,7l-2.6-0.7c-0.6,2.4-0.8,5-0.7,7.5
	l2.6-0.2c0.2,2.5,0.9,5.1,2,7.5l-2.4,1.2c0.5,1.1,1.1,2.1,1.8,3.1c0.8,1.1,1.6,2.1,2.5,3l1.9-1.9c1.9,1.9,4,3.3,6.4,4.3l-1,2.4
	c2.3,1,4.8,1.6,7.3,1.8l0.2-2.6c2.6,0.2,5.2-0.1,7.7-0.9l0.8,2.5c2.3-0.7,4.4-1.8,6.4-3.2c0.1-0.1,0.2-0.1,0.3-0.2l-1.5-2.1
	c2.2-1.6,4-3.5,5.3-5.6l2.2,1.4c1.3-2.1,2.3-4.5,2.9-6.9L103.8,295.6z M93.2,303.9c-7.2,5.1-17.2,3.3-22.3-3.9
	c-5.1-7.2-3.3-17.2,3.9-22.3c7.2-5.1,17.2-3.3,22.3,3.9C102.2,288.9,100.4,298.9,93.2,303.9z"/>
<g>
	<path class="st1" d="M26,291.3c0-12.6,7.4-20.4,17.6-20.4c4.7,0,8.4,2.3,10.8,4.8l-2.9,3.2c-2-2.2-4.6-3.5-7.9-3.5
		c-7.5,0-12.4,6-12.4,15.8c0,9.9,4.9,16,12.4,16c3.6,0,6.3-1.6,8.8-4.3l2.9,3.1c-3.1,3.6-6.9,5.7-12.2,5.7
		C33.4,311.7,26,304.1,26,291.3z"/>
</g>
<g>
	<path class="st1" d="M160,271.7h12.3c8,0,13.8,2.9,13.8,11.1c0,7.8-5.8,11.6-13.8,11.6H165v16.6H160V271.7z M171.5,290.3
		c6.1,0,9.5-2.5,9.5-7.5c0-5.1-3.4-7-9.5-7H165v14.5H171.5z M175.2,290.4l12,20.6h-5.7l-10.2-18L175.2,290.4z"/>
	<path class="st1" d="M195.2,271.7h9.7c11.8,0,18.2,7,18.2,19.5c0,12.5-6.4,19.8-18,19.8h-9.9V271.7z M204.5,306.8
		c8.9,0,13.3-5.7,13.3-15.7c0-9.9-4.4-15.3-13.3-15.3h-4.3v31H204.5z"/>
	<path class="st1" d="M231.6,306.7h9.8v-30.8h-9.8v-4.2h24.5v4.2h-9.8v30.8h9.8v4.2h-24.5V306.7z"/>
	<path class="st1" d="M266.7,271.7h5.5l12.6,24.7l3.8,8.1h0.1c-0.2-3.9-0.7-8.3-0.7-12.5v-20.4h4.8v39.3h-5.5l-12.6-24.7l-3.8-8.1
		h-0.1c0.2,4,0.7,8.2,0.7,12.3v20.5h-4.8V271.7z"/>
	<path class="st1" d="M312.8,271.7h5.7l13.2,39.3h-5.4l-6.8-21.9c-1.4-4.4-2.7-8.7-3.9-13.2h-0.2c-1.3,4.5-2.5,8.9-3.9,13.2
		l-6.9,21.9h-5.1L312.8,271.7z M306.6,295h18v4.1h-18V295z"/>
	<path class="st1" d="M349.1,275.9h-13v-4.2h31v4.2h-13v35h-5V275.9z"/>
	<path class="st1" d="M375.2,306.7h9.8v-30.8h-9.8v-4.2h24.5v4.2H390v30.8h9.8v4.2h-24.5V306.7z"/>
	<path class="st1" d="M408.3,291.1c0-12.7,6.2-20.2,15.1-20.2s15.1,7.5,15.1,20.2c0,12.9-6.2,20.5-15.1,20.5S408.3,304,408.3,291.1z
		 M433.3,291.1c0-9.9-4-15.7-9.9-15.7s-9.9,5.9-9.9,15.7c0,10.1,4,16.1,9.9,16.1S433.3,301.2,433.3,291.1z"/>
	<path class="st1" d="M446.3,271.7h5.5l12.6,24.7l3.8,8.1h0.1c-0.2-3.9-0.7-8.3-0.7-12.5v-20.4h4.8v39.3h-5.5l-12.6-24.7l-3.8-8.1
		h-0.1c0.2,4,0.7,8.2,0.7,12.3v20.5h-4.8V271.7z"/>
</g>
<g>
	<path class="st1" d="M29.3,245.9h9.5v-29.8h-9.5V212H53v4.1h-9.5v29.8H53v4.1H29.3V245.9z"/>
	<path class="st1" d="M108.3,216.1H95.7V212h30v4.1h-12.6V250h-4.9V216.1z"/>
	<path class="st1" d="M175.5,227c3.9-2.3,6.1-5.6,6.1-10l-1.2-4.5l3.2,3.9c-1,1-2.3,1.9-3.6,1.9c-2.4,0-4.1-1.7-4.1-4.2
		c0-2.7,1.8-4.5,4.3-4.5c3.1,0,5.2,2.6,5.2,7.1c0,5.8-3.1,10.6-8.3,13.2L175.5,227z"/>
	<path class="st1" d="M201.6,245.1l2.9-3.4c2.9,2.8,6.8,4.7,11.1,4.7c5.2,0,8.2-2.5,8.2-6c0-4.1-3-5.2-6.8-6.8l-5.5-2.4
		c-3.8-1.5-8.2-4.2-8.2-9.8c0-5.8,5.2-10.1,12.5-10.1c4.8,0,8.9,1.9,11.7,4.7l-2.6,3.1c-2.5-2.2-5.4-3.5-9.3-3.5
		c-4.4,0-7.4,2.1-7.4,5.5c0,3.7,3.5,5,6.8,6.3l5.3,2.4c4.7,1.9,8.4,4.5,8.4,10.2c0,6-5.1,10.8-13.5,10.8
		C209.9,250.7,205.1,248.5,201.6,245.1z"/>
	<path class="st1" d="M316.8,212h5.6l12.8,38h-5.2l-6.6-21.2c-1.3-4.2-2.6-8.4-3.8-12.8h-0.2c-1.2,4.4-2.4,8.6-3.8,12.8l-6.7,21.2
		h-5L316.8,212z M310.7,234.5h17.5v3.9h-17.5V234.5z"/>
	<path class="st1" d="M379.5,212h4.8v33.9h18.8v4.1h-23.6V212z"/>
	<path class="st1" d="M449.1,212h4.8v33.9h18.8v4.1h-23.6V212z"/>
</g>
<circle class="st0" cx="31.5" cy="179.5" r="4.8"/>
<circle class="st0" cx="104.5" cy="196.7" r="2.5"/>
<circle class="st0" cx="180.6" cy="182.2" r="4.8"/>
<circle class="st0" cx="102" cy="335" r="4.8"/>
<circle class="st0" cx="254.8" cy="217.4" r="4.8"/>
<circle class="st0" cx="308.7" cy="179.5" r="4.8"/>
<circle class="st0" cx="354.9" cy="236.5" r="4.8"/>
<circle class="st0" cx="245.2" cy="328.7" r="4.8"/>
<circle class="st0" cx="427.4" cy="212.6" r="4.8"/>
<circle class="st0" cx="46.6" cy="339.8" r="2.5"/>
<circle class="st0" cx="156.6" cy="349.3" r="2.5"/>
<circle class="st0" cx="137" cy="229.2" r="2.5"/>
<circle class="st0" cx="303.9" cy="349.3" r="2.5"/>
<circle class="st0" cx="370" cy="194.5" r="2.5"/>
<circle class="st0" cx="476.7" cy="174.8" r="2.5"/>
<polyline class="st2" points="104.5,196.7 180.6,182.2 254.8,217.4 308.7,179.5 "/>
<circle class="st0" cx="370" cy="299.6" r="2.5"/>
<circle class="st0" cx="185.3" cy="254.8" r="2.5"/>
<circle class="st0" cx="259.6" cy="254.8" r="4.8"/>
<circle class="st0" cx="479.2" cy="349.3" r="4.8"/>
<circle class="st0" cx="420.1" cy="259.3" r="2.5"/>
<circle class="st0" cx="70.5" cy="234" r="2.5"/>
<polyline class="st2" points="420.1,259.3 427.4,212.6 476.7,174.8 370,194.5 308.7,179.5 354.9,236.5 "/>
<path class="st2" d="M159.1,349.3"/>
<path class="st2" d="M254.8,217.4"/>
<path class="st2" d="M31.5,179.5c24.4,5.7,48.7,11.4,73.1,17.1l32.5,32.5L70.5,234c-18.7,18.9-37.4,37.9-56.1,56.8
	c10.7,16.3,21.4,32.6,32.1,49c18.5-1.6,36.9-3.2,55.4-4.8c18.2,4.8,36.4,9.6,54.6,14.4c29.5-6.9,59.1-13.8,88.6-20.6
	c19.6,6.9,39.1,13.8,58.7,20.6"/>
<line class="st2" x1="254.8" y1="217.4" x2="185.3" y2="254.8"/>
<polyline class="st2" points="245.2,328.7 259.6,254.8 301.3,274.8 "/>
<circle class="st0" cx="422.6" cy="328.7" r="4.8"/>
<polyline class="st2" points="479.2,349.3 422.6,328.7 303.9,349.3 370,299.6 "/>
<circle class="st0" cx="201.8" cy="291.1" r="4.8"/>
<circle class="st0" cx="301.3" cy="274.8" r="2.5"/>
<circle class="st0" cx="14.5" cy="290.8" r="2.5"/>
<circle class="st0" cx="107.1" cy="264.7" r="2.5"/>
<path class="st3" d="M93.1,362.8"/>
<path class="st3" d="M49.1,339.8"/>
<line class="st2" x1="70.5" y1="234" x2="107.1" y2="264.7"/>
<circle class="st0" cx="476.7" cy="229.2" r="2.5"/>
<line class="st4" x1="427.4" y1="212.6" x2="476.7" y2="229.2"/>
<line class="st4" x1="156.6" y1="349.3" x2="201.8" y2="291.1"/>
</svg>
