<?xml version="1.0" encoding="utf-8"?>
<!-- Generator: Adobe Illustrator 24.1.0, SVG Export Plug-In . SVG Version: 6.00 Build 0)  -->
<svg version="1.1" id="Layer_1" xmlns="http://www.w3.org/2000/svg" xmlns:xlink="http://www.w3.org/1999/xlink" x="0px" y="0px"
	 viewBox="0 0 500 500" style="enable-background:new 0 0 500 500;" xml:space="preserve">
<style type="text/css">
	.st0{opacity:0.3;fill:#7FE4FF;}
	.st1{fill:#FFFFFF;}
	.st2{fill-rule:evenodd;clip-rule:evenodd;fill:#F0393C;}
	.st3{fill-rule:evenodd;clip-rule:evenodd;fill:#F9B317;}
	.st4{fill-rule:evenodd;clip-rule:evenodd;fill:#43BB4E;}
	.st5{fill-rule:evenodd;clip-rule:evenodd;fill:#5B7FC9;}
	.st6{fill-rule:evenodd;clip-rule:evenodd;fill:#4267BA;}
	.st7{fill-rule:evenodd;clip-rule:evenodd;fill:none;stroke:#465DA9;stroke-width:6;stroke-linecap:round;stroke-miterlimit:10;}
	.st8{fill-rule:evenodd;clip-rule:evenodd;fill:#6759B2;}
	.st9{fill-rule:evenodd;clip-rule:evenodd;fill:#32A940;}
	.st10{fill-rule:evenodd;clip-rule:evenodd;fill:#CB3325;}
	.st11{fill-rule:evenodd;clip-rule:evenodd;fill:#DB8E19;}
</style>
<g>
	<path d="M606.5,364.4c0,11-9,20-20,20H20c-11,0-20-9-20-20V174.6c0-11,9-20,20-20h566.5c11,0,20,9,20,20V364.4z"/>
</g>
<path class="st0" d="M76.6,238.1c-6.3,4.4-7.9,13.2-3.4,19.5c4.4,6.3,13.2,7.9,19.5,3.4c6.3-4.4,7.9-13.2,3.4-19.5
	C91.7,235.1,82.9,233.6,76.6,238.1z M89.6,246.1c1.9,2.7,1.3,6.5-1.5,8.4c-2.7,1.9-6.5,1.3-8.4-1.5s-1.3-6.5,1.5-8.4
	S87.7,243.3,89.6,246.1z"/>
<path class="st0" d="M121.8,239.7c-5.5,5.4-5.5,14.3-0.1,19.8c5.4,5.5,14.3,5.5,19.8,0.1c5.5-5.4,5.5-14.3,0.1-19.8
	C136.2,234.3,127.3,234.3,121.8,239.7z M135.9,253.9c-2.4,2.3-6.2,2.3-8.5,0c-2.3-2.4-2.3-6.2,0-8.5c2.4-2.3,6.2-2.3,8.5,0
	C138.3,247.8,138.3,251.6,135.9,253.9z"/>
<path class="st1" d="M146.2,235.3c-1.2-1.2-2.5-2.2-3.9-3l1.4-2.3c-2.2-1.3-4.5-2.3-7-2.8l-0.6,2.6c-2.5-0.6-5.2-0.6-7.7-0.2
	l-0.4-2.6c-2.5,0.4-4.9,1.2-7.1,2.4l1.2,2.3c-1.7,0.9-3.4,2.1-4.8,3.6l-1.8-1.9c-1.8,1.8-3.3,3.8-4.4,6.1l2.4,1.2
	c-1.2,2.4-1.9,4.9-2.1,7.5l-2.6-0.2c-0.2,2.5,0,5,0.6,7.5l2.6-0.6c0.6,2.5,1.7,4.9,3.3,7l-2.1,1.6c0.7,1,1.5,1.9,2.3,2.7
	c0.9,0.9,1.9,1.8,3,2.6l1.5-2.1c2.2,1.5,4.6,2.6,7,3.2l-0.6,2.6c2.4,0.6,5,0.8,7.5,0.5l-0.2-2.6c2.6-0.2,5.1-0.9,7.4-2.1l1.2,2.3
	c2.1-1.1,4.1-2.5,5.8-4.2c0.1-0.1,0.2-0.2,0.3-0.3l-1.9-1.8c1.9-1.9,3.3-4.1,4.3-6.5l2.4,1c1-2.3,1.5-4.8,1.7-7.3l-2.6-0.2
	c0.2-2.6-0.2-5.2-1-7.7l2.5-0.8c-0.8-2.4-1.9-4.6-3.5-6.7l-2.1,1.6C147.5,236.7,146.9,236,146.2,235.3z M142.9,261
	c-6.2,6.2-16.3,6.1-22.5-0.1c-6.2-6.2-6.1-16.3,0.1-22.5c6.2-6.2,16.3-6.1,22.5,0.1C149.2,244.7,149.1,254.8,142.9,261z"/>
<path class="st1" d="M104.5,254.3c0.6-2.5,0.7-5.1,0.3-7.7l2.6-0.4c-0.4-2.5-1.1-4.9-2.3-7.1l-2.4,1.2c-0.4-0.8-0.9-1.7-1.5-2.4
	c-1-1.4-2.1-2.6-3.3-3.6l1.7-2c-1.9-1.7-4-3-6.4-3.9l-1,2.4c-2.4-1-5-1.5-7.6-1.5l0-2.6c-2.5,0-5,0.4-7.4,1.1l0.8,2.5
	c-1.9,0.6-3.7,1.5-5.4,2.7l-1.5-2.1c-2.1,1.5-3.9,3.2-5.4,5.2l2.1,1.6c-1.6,2.1-2.7,4.5-3.3,7l-2.6-0.7c-0.6,2.4-0.8,5-0.7,7.5
	l2.6-0.2c0.2,2.5,0.9,5.1,2,7.5l-2.4,1.2c0.5,1.1,1.1,2.1,1.8,3.1c0.8,1.1,1.6,2.1,2.5,3l1.9-1.9c1.9,1.9,4,3.3,6.4,4.3l-1,2.4
	c2.3,1,4.8,1.6,7.3,1.8l0.2-2.6c2.6,0.2,5.2-0.1,7.7-0.9l0.8,2.5c2.3-0.7,4.4-1.8,6.4-3.2c0.1-0.1,0.2-0.1,0.3-0.2l-1.5-2.1
	c2.2-1.6,4-3.5,5.3-5.6l2.2,1.4c1.3-2.1,2.3-4.5,2.9-6.9L104.5,254.3z M93.8,262.6c-7.2,5.1-17.2,3.3-22.3-3.9
	c-5.1-7.2-3.3-17.2,3.9-22.3c7.2-5.1,17.2-3.3,22.3,3.9C102.8,247.5,101.1,257.5,93.8,262.6z"/>
<g>
	<path class="st1" d="M26.7,250c0-12.6,7.4-20.4,17.6-20.4c4.7,0,8.4,2.3,10.8,4.8l-2.9,3.2c-2-2.2-4.6-3.5-7.9-3.5
		c-7.5,0-12.4,6-12.4,15.8c0,9.9,4.9,16,12.4,16c3.6,0,6.3-1.6,8.8-4.3l2.9,3.1c-3.1,3.6-6.9,5.7-12.2,5.7
		C34.1,270.3,26.7,262.8,26.7,250z"/>
</g>
<g>
	<path class="st1" d="M160.6,230.4h12.3c8,0,13.8,2.9,13.8,11.1c0,7.8-5.8,11.6-13.8,11.6h-7.2v16.6h-5.1V230.4z M172.2,249
		c6.1,0,9.5-2.5,9.5-7.5c0-5.1-3.4-7-9.5-7h-6.5V249H172.2z M175.8,249l12,20.6h-5.7l-10.2-18L175.8,249z"/>
	<path class="st1" d="M195.8,230.4h9.7c11.8,0,18.2,7,18.2,19.5c0,12.5-6.4,19.8-18,19.8h-9.9V230.4z M205.2,265.5
		c8.9,0,13.3-5.7,13.3-15.7c0-9.9-4.4-15.3-13.3-15.3h-4.3v31H205.2z"/>
	<path class="st1" d="M232.2,265.4h9.8v-30.8h-9.8v-4.2h24.5v4.2H247v30.8h9.8v4.2h-24.5V265.4z"/>
	<path class="st1" d="M267.4,230.4h5.5l12.6,24.7l3.8,8.1h0.1c-0.2-3.9-0.7-8.3-0.7-12.5v-20.4h4.8v39.3H288L275.4,245l-3.8-8.1
		h-0.1c0.2,4,0.7,8.2,0.7,12.3v20.5h-4.8V230.4z"/>
	<path class="st1" d="M313.5,230.4h5.7l13.2,39.3H327l-6.8-21.9c-1.4-4.4-2.7-8.7-3.9-13.2h-0.2c-1.3,4.5-2.5,8.9-3.9,13.2
		l-6.9,21.9h-5.1L313.5,230.4z M307.2,253.6h18v4.1h-18V253.6z"/>
	<path class="st1" d="M349.7,234.6h-13v-4.2h31v4.2h-13v35h-5V234.6z"/>
	<path class="st1" d="M375.9,265.4h9.8v-30.8h-9.8v-4.2h24.5v4.2h-9.8v30.8h9.8v4.2h-24.5V265.4z"/>
	<path class="st1" d="M409,249.8c0-12.7,6.2-20.2,15.1-20.2s15.1,7.5,15.1,20.2c0,12.9-6.2,20.5-15.1,20.5S409,262.7,409,249.8z
		 M434,249.8c0-9.9-4-15.7-9.9-15.7s-9.9,5.9-9.9,15.7c0,10.1,4,16.1,9.9,16.1S434,259.9,434,249.8z"/>
	<path class="st1" d="M447,230.4h5.5L465,255l3.8,8.1h0.1c-0.2-3.9-0.7-8.3-0.7-12.5v-20.4h4.8v39.3h-5.5L455,245l-3.8-8.1h-0.1
		c0.2,4,0.7,8.2,0.7,12.3v20.5H447V230.4z"/>
</g>
<path id="path234" class="st2" d="M140.6,358.8l13.5-9.7c2.3-1.7,5.4-1.5,7.5,0.4l12.1,11.2c1.7,1.6,4.1,2,6.2,1.1
	c2.1-0.8,3.6-2.8,3.7-5.1l3.8-57.6c0.2-3.2-2.2-6-5.5-6.2c0,0,0,0,0,0l-40.6-2.4c-3.3-0.2-6.1,2.3-6.3,5.6l-3.8,57.6
	c-0.2,2.3,1,4.4,3,5.5C136.3,360.3,138.8,360.1,140.6,358.8"/>
<path id="path236" class="st3" d="M231.3,362.6l12.8-10.6c2.2-1.8,5.3-1.8,7.5-0.1l12.9,10.4c1.8,1.5,4.2,1.7,6.3,0.7
	c2.1-1,3.4-3.1,3.4-5.4l-0.1-57.6c0-3.2-2.7-5.9-5.9-5.8c0,0,0,0,0,0l-40.7,0.4c-3.3,0-5.9,2.7-5.9,6l0.1,57.6
	c0,2.3,1.3,4.4,3.4,5.3C227.1,364.4,229.6,364.1,231.3,362.6"/>
<path id="path238" class="st4" d="M50.3,350l14.1-8.9c2.4-1.5,5.5-1.1,7.4,0.9l11.4,12c1.6,1.7,4,2.3,6.1,1.5c2.2-0.7,3.8-2.6,4-4.9
	l7.5-57.4c0.4-3.2-1.8-6.2-5.1-6.6c0,0,0,0,0,0l-40.3-5c-3.2-0.4-6.2,1.9-6.6,5.2l-7.5,57.4c-0.3,2.3,0.7,4.5,2.7,5.7
	C45.9,351.2,48.4,351.2,50.3,350"/>
<g>
	<path id="path252" class="st5" d="M570.6,321.7c3-0.4,6,0.5,8.3,2.5c0.3,0.2,0.6,0.3,0.9,0.1c0.3-0.2,0.5-0.5,0.4-0.8
		c-0.3-3,0.6-6,2.5-8.3c0.2-0.2,0.3-0.6,0.1-0.9c-0.2-0.3-0.5-0.5-0.8-0.4c-3,0.4-6-0.5-8.3-2.5c-0.3-0.2-0.6-0.3-0.9-0.1
		c-0.3,0.2-0.5,0.5-0.4,0.8c0.3,3-0.6,6-2.5,8.3c-0.2,0.2-0.3,0.6-0.1,0.9C569.9,321.6,570.3,321.8,570.6,321.7"/>
	<path id="path254" class="st6" d="M580.6,319.1c-3.4,1.4-6.3,0.6-8.6-2.6c-0.4,1.4-1.2,2.8-2.1,3.9c-0.2,0.2-0.3,0.6-0.1,0.9
		c0.2,0.3,0.5,0.5,0.8,0.4c3-0.4,6,0.5,8.3,2.5c0.3,0.2,0.6,0.3,0.9,0.1c0.3-0.2,0.5-0.5,0.4-0.8C580.1,322,580.2,320.5,580.6,319.1
		"/>
</g>
<path id="path234_1_" class="st2" d="M354.1,357.8c1.8,1.4,4.3,1.5,6.3,0.4c2-1.1,3.2-3.2,3-5.5l-3.8-57.6c-0.2-3.3-3-5.7-6.3-5.6
	l-40.6,2.4c0,0,0,0,0,0c-3.2,0.2-5.7,3-5.5,6.2l3.8,57.6c0.1,2.3,1.6,4.3,3.7,5.1c2.1,0.9,4.6,0.4,6.2-1.1l12.1-11.2
	c2.1-1.9,5.2-2.1,7.5-0.4L354.1,357.8"/>
<path id="path238_1_" class="st4" d="M444.4,349c1.9,1.3,4.4,1.2,6.3,0c1.9-1.2,3-3.5,2.7-5.7l-7.5-57.4c-0.4-3.2-3.4-5.5-6.6-5.2
	l-40.3,5c0,0,0,0,0,0c-3.2,0.4-5.5,3.4-5.1,6.6l7.5,57.4c0.3,2.3,1.9,4.2,4,4.9c2.2,0.8,4.6,0.2,6.1-1.5l11.4-12
	c1.9-2.1,5-2.4,7.4-0.9L444.4,349"/>
<path class="st7" d="M13.7,279.2c64.3,12.2,143.5,22.1,234.1,22.2c92.3,0.1,172.7-9.8,237.9-22.2"/>
<path id="path244_1_" class="st5" d="M502.9,311.5c0.7-0.5,1.7-0.4,2.2,0.3c0.5,0.7,0.4,1.7-0.3,2.2c0,0,0,0,0,0l-5.7,4.2
	c-0.7,0.5-1.7,0.4-2.2-0.3c-0.5-0.7-0.4-1.7,0.3-2.2c0,0,0,0,0,0L502.9,311.5"/>
<path id="path246_1_" class="st5" d="M492.1,319.5c0.7-0.5,1.7-0.4,2.2,0.3c0,0,0,0,0,0c0.5,0.7,0.4,1.7-0.3,2.2l-5.7,4.2
	c-0.7,0.5-1.7,0.4-2.2-0.3c-0.5-0.7-0.4-1.7,0.3-2.2c0,0,0,0,0,0L492.1,319.5"/>
<path id="path248_1_" class="st5" d="M488.2,311.6c-0.5-0.7-0.4-1.7,0.3-2.2c0,0,0,0,0,0c0.7-0.5,1.7-0.4,2.2,0.3c0,0,0,0,0,0
	l4.2,5.6c0.5,0.7,0.4,1.7-0.3,2.2c0,0,0,0,0,0c-0.7,0.5-1.7,0.4-2.2-0.3L488.2,311.6"/>
<path id="path250_1_" class="st5" d="M496.2,322.4c-0.5-0.7-0.4-1.7,0.3-2.2c0,0,0,0,0,0c0.7-0.5,1.7-0.4,2.2,0.3l4.2,5.6
	c0.5,0.7,0.4,1.7-0.3,2.2c0,0,0,0,0,0c-0.7,0.5-1.7,0.4-2.2-0.3L496.2,322.4"/>
<path id="path282" class="st2" d="M538.6,267.8c0,1.2-0.9,2.2-2.1,2.2c0,0,0,0,0,0c-1.2,0-2.2-1-2.2-2.2c0-1.9,0.6-3.5,1.1-5.2
	c0.5-1.3,0.9-2.5,0.9-3.6l0,0c0-0.5-1.3-1.6-2.6-2.7c-2-1.8-4.1-3.5-4.1-6c0-2.8,3.2-4.6,6.5-6.4c2.1-1.2,4.3-2.3,4.3-2.5
	c0-0.1-2.2-1.3-4.3-2.4c-3.3-1.7-6.7-3.5-6.7-6.2l0,0c0-2.4,1.9-4.3,3.9-6.1c1.2-1.1,2.5-2.3,2.5-2.7c0-1.1-0.5-2.3-1-3.6
	c-0.6-1.6-1.3-3.3-1.3-5.1c0-1.2,0.9-2.2,2.1-2.2c0,0,0,0,0,0c1.2,0,2.2,1,2.2,2.2c0,1,0.5,2.3,1,3.6c0.6,1.6,1.3,3.3,1.3,5.1
	c0,2.4-1.9,4.3-3.9,6.1c-1.2,1.1-2.5,2.3-2.5,2.7l0,0l0,0c0,0.1,2.2,1.3,4.3,2.4c3.3,1.7,6.7,3.5,6.7,6.2c0,2.8-3.2,4.6-6.5,6.4
	c-2.1,1.2-4.3,2.3-4.3,2.5c0,0.5,1.3,1.6,2.6,2.7c2,1.8,4.1,3.5,4.1,6l0,0l0,0c0,1.9-0.6,3.5-1.1,5.2
	C539.1,265.5,538.6,266.7,538.6,267.8"/>
<path id="path284" class="st5" d="M521.9,267c0.3,1.2-0.3,2.4-1.5,2.7c0,0,0,0,0,0c-1.2,0.3-2.4-0.4-2.7-1.5c-0.6-2-0.5-4-0.5-6
	c0-1.8,0-3.5-0.5-4.8c-0.3-0.7-2.1-1.3-4-1.9c-2.5-0.8-5-1.7-6.1-3.7c-1.2-2.3,0.1-5.3,1.5-8.3c0.9-1.9,1.7-3.7,1.6-3.8
	c-0.1-0.2-2.1,0-4,0.2c-2.8,0.3-5.6,0.6-7.2-1c-1.5-1.4-1.7-3.5-2-5.6c-0.2-1.3-0.3-2.6-0.6-2.8c-0.8-0.6-2.2-0.8-3.5-1.1
	c-1.3-0.2-2.5-0.5-3.7-1c-1.1-0.5-1.7-1.8-1.2-2.9c0.5-1.1,1.7-1.6,2.9-1.2c0,0,0,0,0,0c0.9,0.3,1.9,0.6,2.8,0.7
	c1.8,0.3,3.6,0.7,5.2,1.7c2,1.3,2.2,3.6,2.5,5.9c0.2,1.3,0.3,2.6,0.7,3c0.2,0.2,1.9,0,3.7-0.2c3.1-0.3,6.4-0.6,8,1.6
	c1.6,2.2,0.2,5.2-1.2,8.3c-0.9,2-1.8,4-1.6,4.4c0.3,0.5,1.9,1.1,3.6,1.6c2.8,0.9,5.7,1.9,6.7,4.5c0.8,2.1,0.8,4.2,0.8,6.4
	C521.5,263.9,521.5,265.6,521.9,267"/>
<path id="path286" class="st8" d="M555.2,267.8c-0.3,1.2-1.5,1.9-2.6,1.6c0,0,0,0,0,0c-1.2-0.3-1.9-1.5-1.6-2.7
	c0.6-2.4,1.9-4.2,3.2-6c0.9-1.2,1.7-2.4,2.1-3.6c0.3-0.8-0.5-2.6-1.3-4.4c-1.2-2.7-2.3-5.3-1.1-7.6c1.3-2.6,4.8-2.7,8.3-2.9
	c2-0.1,4-0.2,4.2-0.4c0.2-0.3-0.4-2.1-0.9-3.9c-0.9-3-1.8-5.9,0-7.8c1.6-1.7,4.1-1.6,6.5-1.5c1.3,0.1,2.6,0.1,3-0.1
	c0.7-0.6,1.4-1.2,2-2c1.1-1.3,2.3-2.6,4-3.3c1.1-0.5,2.4,0,2.9,1.1c0.5,1.1,0,2.4-1.1,2.9c0,0,0,0,0,0c-0.9,0.4-1.7,1.3-2.5,2.3
	c-0.8,1-1.7,1.9-2.7,2.6c-1.6,1.1-3.6,1-5.7,0.9c-1.4-0.1-2.9-0.1-3.2,0.2c0,0,0.5,1.7,1,3.4c0.9,2.8,1.7,5.6,0.3,7.6
	c-1.4,2-4.4,2.1-7.6,2.2c-2.2,0.1-4.4,0.2-4.5,0.5c-0.2,0.5,0.5,2.2,1.2,3.9c1.1,2.6,2.2,5.2,1.4,7.6c-0.6,1.7-1.7,3.2-2.7,4.7
	C556.7,264.7,555.6,266.2,555.2,267.8"/>
<path id="path288" class="st2" d="M499.9,265.6c1.4-1.1,1.6-3.1,0.5-4.5c-1.1-1.4-3.1-1.6-4.5-0.5c-1.4,1.1-1.6,3.1-0.5,4.5
	C496.5,266.4,498.5,266.6,499.9,265.6"/>
<path id="path290" class="st8" d="M517.9,222.1c1.5-1.2,1.7-3.4,0.5-5c-1.2-1.5-3.4-1.8-5-0.6c-1.5,1.2-1.7,3.4-0.5,5
	C514.2,223,516.4,223.3,517.9,222.1"/>
<path id="path292" class="st9" d="M559.3,219c1.5-1.2,1.7-3.4,0.5-5c-1.2-1.5-3.4-1.8-5-0.6c-1.5,1.2-1.7,3.4-0.5,5
	C555.6,219.9,557.8,220.2,559.3,219"/>
<path id="path294" class="st3" d="M590.6,251.7c2.1-1.7,2.4-4.7,0.7-6.8c-1.7-2.1-4.7-2.4-6.8-0.8c-2.1,1.7-2.4,4.7-0.7,6.8
	C585.5,253,588.5,253.4,590.6,251.7"/>
<path id="path296" class="st5" d="M583.1,207.6c-1.2-3.6-0.9-7.5,0.8-10.8c0.2-0.4,0.1-0.8-0.1-1.1c-0.3-0.3-0.7-0.4-1.1-0.3
	c-3.6,1.2-7.5,0.9-10.8-0.9c-0.4-0.2-0.8-0.2-1.1,0.1c-0.3,0.3-0.4,0.7-0.3,1.1c1.2,3.6,0.9,7.5-0.8,10.8c-0.2,0.4-0.1,0.8,0.1,1.1
	c0.3,0.3,0.7,0.4,1.1,0.3c3.6-1.2,7.5-0.9,10.8,0.9c0.4,0.2,0.8,0.2,1.1-0.1C583.1,208.4,583.2,208,583.1,207.6"/>
<path id="path298" class="st6" d="M577.2,196c2.7,3.8,2.4,7.6-0.9,11.2c1.9,0.2,3.7,0.7,5.3,1.6c0.4,0.2,0.8,0.2,1.1-0.1
	c0.3-0.3,0.4-0.7,0.3-1.1c-1.2-3.6-0.9-7.5,0.8-10.8c0.2-0.4,0.1-0.8-0.1-1.1c-0.3-0.3-0.7-0.4-1.1-0.3
	C580.9,195.9,579.1,196.1,577.2,196"/>
<path id="path302" class="st10" d="M524.1,292.8c2,3.5,1.6,7.1-1.1,10.7l4,0.5c0.7,0.1,1.4-0.4,1.5-1.2c0,0,0,0,0,0l0.9-8
	c0.1-0.7-0.5-1.4-1.2-1.5L524.1,292.8"/>
<path id="path304" class="st4" d="M531.9,168.8l8,0.9c0.7,0.1,1.3,0.8,1.2,1.5l-0.9,8.1c-0.1,0.7-0.7,1.3-1.5,1.2c0,0,0,0,0,0
	l-8-0.9c-0.7-0.1-1.3-0.8-1.2-1.5l0.9-8.1C530.5,169.3,531.2,168.7,531.9,168.8C531.9,168.8,531.9,168.8,531.9,168.8"/>
<path id="path306" class="st9" d="M536,169.3c2,3.5,1.6,7.1-1.1,10.7l4,0.5c0.7,0.1,1.4-0.4,1.5-1.2c0,0,0,0,0,0l0.9-8.1
	c0.1-0.7-0.5-1.4-1.2-1.5L536,169.3"/>
<path id="path308" class="st5" d="M497,188.9c-0.4-0.5-0.3-1.3,0.2-1.7c0,0,0,0,0,0c0.5-0.4,1.3-0.3,1.7,0.2l3.2,4.2
	c0.4,0.5,0.3,1.3-0.2,1.7c0,0,0,0,0,0c-0.5,0.4-1.3,0.3-1.7-0.2L497,188.9"/>
<path id="path310" class="st5" d="M503.1,196.9c-0.4-0.5-0.3-1.3,0.2-1.7c0,0,0,0,0,0c0.5-0.4,1.3-0.3,1.7,0.2l3.2,4.2
	c0.4,0.5,0.3,1.3-0.2,1.7c0,0,0,0,0,0c-0.5,0.4-1.3,0.3-1.7-0.2c0,0,0,0,0,0L503.1,196.9"/>
<path id="path312" class="st5" d="M497.3,199.9c-0.5,0.4-1.3,0.3-1.7-0.2c-0.4-0.5-0.3-1.3,0.2-1.7c0,0,0,0,0,0l4.2-3.2
	c0.5-0.4,1.3-0.3,1.7,0.2c0.4,0.5,0.3,1.3-0.2,1.7c0,0,0,0,0,0L497.3,199.9"/>
<path id="path314" class="st5" d="M505.2,193.8c-0.5,0.4-1.3,0.3-1.7-0.2c-0.4-0.5-0.3-1.3,0.2-1.7c0,0,0,0,0,0l4.2-3.2
	c0.5-0.4,1.3-0.3,1.7,0.2c0.4,0.5,0.3,1.3-0.2,1.7c0,0,0,0,0,0L505.2,193.8"/>
<path id="path268" class="st3" d="M538.3,330.9l9.8-23.3l10.5-24.8c0.3-0.7,0.2-1.5-0.2-2.2c-0.4-0.6-1.1-1-1.9-1l-21.2,0.2
	l-21.2,0.2c-0.8,0-1.5,0.4-1.9,1.1c-0.4,0.6-0.5,1.5-0.1,2.2l11.3,24.5l10.7,23.1c0.4,0.8,1.2,1.3,2.1,1.3
	C537.2,332.3,538,331.8,538.3,330.9"/>
<path id="path270" class="st4" d="M520.1,288.5c3.1-1.9,7.8-1.3,10.8-3.2c1.9-1.2,3.2-3.4,4.7-5.4l-0.3,0l-21.2,0.2
	c-0.8,0-1.5,0.4-1.9,1.1c-0.4,0.6-0.5,1.5-0.1,2.2l4.2,9.1C517.5,290.9,518.6,289.4,520.1,288.5"/>
<path id="path272" class="st4" d="M535.4,295.4c-3.1,1.9-7.8,1.3-10.8,3.2c-1.4,0.9-2.5,2.3-3.6,3.8l2.6,5.6l2.4,5.2
	c1.2-1.7,2.4-3.4,4-4.4c3.1-1.9,7.8-1.3,10.8-3.2s4.6-6.4,7.6-8.3c1.4-0.9,3.1-1.2,4.8-1.5l5.4-12.8c0.3-0.7,0.2-1.5-0.2-2.2
	c-0.2-0.3-0.5-0.6-0.9-0.8c-1.1,1.5-2.2,3.1-3.7,4c-3.1,1.9-7.8,1.3-10.8,3.2S538.4,293.5,535.4,295.4"/>
<path id="path274" class="st11" d="M542.1,316.8c-0.8,3.7-1.7,7.6-2.7,11.7l5.3-12.6l3.5-8.2l5.1-11.9l5.4-12.8
	c0.3-0.7,0.2-1.5-0.2-2.2c-0.2-0.3-0.5-0.6-0.9-0.8c-0.3-0.2-0.7-0.2-1-0.2l-11.4,0.1c0.4,2,0.6,4.1,0.7,6.2
	c0.2,4.2-0.1,9.2-0.9,14.9C544.2,305.7,543.3,311,542.1,316.8"/>
<path id="path276" class="st4" d="M544.7,315.9c-3.1,1.5-7.4,1.1-10.3,2.9c-1.6,1-2.7,2.6-3.9,4.2l3.7,8c0.4,0.8,1.2,1.3,2.1,1.3
	c0.9,0,1.7-0.5,2-1.4L544.7,315.9"/>
<path id="path278" class="st9" d="M544.8,301c1.1-1.5,2.1-2.9,3.6-3.8c1.4-0.9,3.1-1.2,4.8-1.5l0,0l5.4-12.8c0,0,0-0.1,0.1-0.1l0,0
	l0,0l0,0c0,0,0-0.1,0-0.1l0,0c0,0,0-0.1,0-0.1l0,0l0-0.1l0,0l0,0l0,0l0,0l0,0l0,0l0,0l0,0l0,0l0,0l0,0l0,0l0,0l0,0l0,0l0,0l0,0l0,0
	l0,0l0,0l0,0l0,0l0,0l0,0l0,0c0,0,0-0.1,0-0.1l0,0l0,0l0,0l0,0l0,0l0,0l0,0l0,0l0,0l0,0l0-0.1l0,0l0,0l0,0l0,0l0,0l0,0l0,0l0,0l0,0
	l0,0l0,0l0,0l0,0l0,0l0,0l0,0l0,0l0,0l0,0l0,0l0,0l0,0l0,0l0,0l0,0l0,0l0,0l0,0l0,0l0,0l0,0l0,0l0,0l0,0l0,0l0,0l0,0l0,0l0,0l0,0
	l0,0l0,0l0,0l0,0l0-0.1l0,0l0,0l0,0l0,0l0,0l0,0l0,0l0,0l0,0l0,0l0,0l0,0l0,0l0,0l0,0l0,0l0,0l0,0l0,0l0,0l0,0l0,0l0,0l0,0l0,0l0,0
	l0,0l0,0l0,0l0,0l0,0l0,0l0,0l0,0l0,0l0,0l0,0l0,0l0,0l0,0l0,0l0,0l0,0l0,0l0,0l0,0l0,0l0,0l0,0l0,0l0,0l0,0l0,0l0,0l0,0l0,0l0,0
	l0,0l0,0l0,0l0,0l0,0l0,0l0,0l0,0l0,0l0,0l0,0l0,0l0,0l0,0l0,0l0,0l0,0l0,0l0,0l0,0l0,0l0,0l0,0l0,0l0,0l0,0l0,0l0,0l0,0l0,0l0,0
	l0,0l0,0l0,0l0,0l0,0l0,0l0,0l0,0l0,0l0,0l0,0l0,0c-1.1,1.5-2.2,3.1-3.7,4c-2.3,1.4-5.4,1.4-8.1,2.1l0,0
	C545.9,290.2,545.6,295.2,544.8,301L544.8,301"/>
<path id="path280" class="st9" d="M544.7,315.9c-0.8,0.4-1.7,0.7-2.6,0.9l0,0c-0.8,3.7-1.7,7.6-2.7,11.7L544.7,315.9"/>
<path id="path240_1_" class="st3" d="M529.8,349.9c1.6,3.2,5.5,4.5,8.7,2.9c3.2-1.6,4.5-5.5,3-8.7c-1.6-3.2-5.5-4.5-8.7-2.9
	C529.5,342.7,528.2,346.6,529.8,349.9"/>
<g>
	<path class="st1" d="M31.2,195.2H34v19.9h11v2.4H31.2V195.2z"/>
	<path class="st1" d="M71.3,195.2h13.8v2.4H74.2v7h9.2v2.4h-9.2v8.1h11.3v2.4H71.3V195.2z"/>
	<path class="st1" d="M117,197.6h-7.4v-2.4h17.6v2.4h-7.4v19.9H117V197.6z"/>
	<path class="st1" d="M156.4,204c2.3-1.3,3.6-3.3,3.6-5.9l-0.7-2.7l1.9,2.3c-0.6,0.6-1.4,1.1-2.1,1.1c-1.4,0-2.4-1-2.4-2.4
		c0-1.6,1.1-2.7,2.5-2.7c1.8,0,3.1,1.5,3.1,4.1c0,3.4-1.8,6.2-4.9,7.8L156.4,204z"/>
	<path class="st1" d="M171.7,214.6l1.7-2c1.7,1.7,4,2.8,6.5,2.8c3.1,0,4.8-1.5,4.8-3.5c0-2.4-1.7-3.1-4-4l-3.2-1.4
		c-2.2-0.9-4.8-2.4-4.8-5.7c0-3.4,3.1-5.9,7.3-5.9c2.8,0,5.2,1.1,6.9,2.8l-1.5,1.8c-1.5-1.3-3.2-2.1-5.5-2.1c-2.6,0-4.3,1.2-4.3,3.2
		c0,2.1,2.1,2.9,4,3.7l3.1,1.4c2.8,1.1,4.9,2.7,4.9,5.9c0,3.5-3,6.4-7.9,6.4C176.6,217.9,173.7,216.6,171.7,214.6z"/>
	<path class="st1" d="M239.4,197.6h-7.4v-2.4h17.6v2.4h-7.4v19.9h-2.9V197.6z"/>
	<path class="st1" d="M274.1,195.2h2.9v9.3h9.2v-9.3h2.9v22.3h-2.9V207H277v10.5h-2.9V195.2z"/>
	<path class="st1" d="M315.6,195.2h7c4.5,0,7.8,1.6,7.8,6.3c0,4.5-3.3,6.6-7.8,6.6h-4.1v9.4h-2.9V195.2z M322.2,205.7
		c3.5,0,5.4-1.4,5.4-4.3c0-2.9-1.9-4-5.4-4h-3.7v8.3H322.2z M324.3,205.8l6.8,11.7h-3.2l-5.8-10.2L324.3,205.8z"/>
	<path class="st1" d="M354.7,206.2c0-7.2,3.5-11.5,8.6-11.5s8.6,4.2,8.6,11.5c0,7.3-3.5,11.7-8.6,11.7S354.7,213.5,354.7,206.2z
		 M368.9,206.2c0-5.6-2.2-8.9-5.6-8.9c-3.4,0-5.6,3.3-5.6,8.9c0,5.7,2.2,9.1,5.6,9.1C366.6,215.4,368.9,211.9,368.9,206.2z"/>
	<path class="st1" d="M394.2,195.1h3.2l1.6,14c0.2,1.9,0.3,3,0.4,5.2h0.1c0.4-2.2,0.6-3.3,1.1-5.1l2.2-8.3h2.7l2.1,8.3
		c0.5,1.8,0.7,2.9,1.1,5.1h0.1c0.1-2.2,0.2-3.3,0.4-5.1l1.6-14h3.1l-3.3,22.3h-3.5l-2.2-9c-0.3-1.4-0.6-2.7-0.8-4H404
		c-0.2,1.4-0.4,2.7-0.8,4l-2.2,9h-3.5L394.2,195.1z"/>
	<path class="st1" d="M463.6,195.2h3.3l7.5,22.3h-3.1l-3.8-12.4c-0.8-2.5-1.5-4.9-2.2-7.5h-0.1c-0.7,2.6-1.4,5-2.2,7.5l-3.9,12.4
		h-2.9L463.6,195.2z M460.1,208.4h10.2v2.3h-10.2V208.4z"/>
</g>
<g>
	<path class="st1" d="M86.7,316c-2.5,8.9-6.9,12.8-13,11.7c-3.3-0.6-6-2-8.1-4.3l-0.4,0.2l-0.3,2.2c-0.3,2.1-0.3,3.7,0,4.7
		c0,0.1,0.2,0.5,0.5,1.2c0.3,0.7,0.4,1.1,0.4,1.2c-0.1,0.4-0.3,0.8-0.6,1.1c-0.4,0.3-0.8,0.5-1.2,0.4c-1.1-0.1-1.8-0.6-2.1-1.3
		c-0.2-0.6-0.3-1.4-0.2-2.6c0.1-1.8,0.3-3.7,0.5-5.5c0.1-1.1,0.4-2.7,0.8-4.8c0.4-2.1,0.7-3.7,0.8-4.9s0.4-2.8,0.8-4.9
		s0.7-3.8,0.8-4.9l0.6-5.1c0-0.2,0-0.6,0-1.2c-0.1-0.5-0.1-0.9,0-1.2c0.1-0.7,0.6-1,1.5-0.9c0.6,0.1,1.1,0.4,1.4,1
		c0.3,0.6,0.5,1.2,0.4,1.8c-0.1,0.5-0.2,1.1-0.5,1.9c-0.3,0.8-0.4,1.5-0.5,1.9l-0.2,1.4c1-1.3,2-2.7,3-4c2.2-2.4,4.9-3.5,8.1-3.1
		c3.4,0.4,5.8,2.1,7.2,5.1c1.1,2.5,1.5,5.5,1.1,9.1C87.2,313.6,87,314.8,86.7,316z M84.6,312.7c0.3-2.8,0.1-5.3-0.6-7.5
		c-0.9-2.9-2.6-4.5-5-4.8c-3.1-0.4-6,1.4-8.7,5.3c-2.3,3.3-3.6,6.7-4,10.2l-0.3,2.8c0.4-0.1,0.7-0.2,0.8-0.2c0.2,0,0.5,0.2,0.6,0.6
		c0.2,0.4,0.3,0.6,0.4,0.8c0,0.1-0.1,0.1-0.2,0.1c-0.1,0-0.1,0-0.1,0.1c0,0.2,0.1,0.5,0.3,1c1.1,2.3,3.1,3.7,6,4
		c2.7,0.3,4.8-0.3,6.4-2c1.2-1.2,2.2-3.2,3.2-6C84.1,315.2,84.5,313.7,84.6,312.7z"/>
</g>
<g>
	<path class="st1" d="M173,333.8c-0.1,1.1-0.5,1.7-1.4,1.6c-0.4,0-0.7-0.1-1.1-0.3c-0.1,1.8,0.2,3.9,1,6.2c-0.1,0.5-0.3,0.8-0.7,1.1
		c-0.4,0.3-0.9,0.4-1.4,0.4c-0.4,0-0.9-0.2-1.4-0.5c-0.3-0.6-0.3-1.5-0.3-2.7c0-0.3,0.1-0.9,0.1-1.8c0-0.9,0.1-1.5,0.1-1.8
		c0-0.6,0-1.1-0.1-1.3c-0.3-0.1-0.8-0.1-1.4,0c-0.6,0-1,0.1-1.3,0c-1.5-0.1-4,0-7.3,0.3c-3.8,0.3-6,0.7-6.6,1.2
		c-0.3,0.2-0.7,1.5-1.2,3.8c-0.4,1.9-0.6,3.3-0.7,4.2c-0.2,0.2-0.5,0.4-0.8,0.3c-0.5,0-1-0.3-1.5-0.8c-0.5-0.5-0.8-1-0.8-1.4
		c0-0.2,0.2-0.7,0.5-1.4c0.3-0.7,0.5-1.2,0.6-1.4c0.8-3.9,2.2-8.3,4.2-13c5.5-13.2,9.5-19.7,12.1-19.6c2.8,0.1,4.7,3.8,5.8,10.9
		c0.4,2.5,0.8,7.3,1.1,14.3c0.2,0.2,0.7,0.4,1.6,0.7C172.7,333.1,173,333.4,173,333.8z M167.9,332c-0.6-6.4-0.9-10.2-1.1-11.5
		c-0.9-6.1-1.9-9.1-3.3-9.2c-1.5,0-3.5,2.6-6,8c-1.4,3.4-2.9,6.7-4.3,10.1c-0.2,0.5-0.5,1.1-0.8,2.1c-0.2,0.9,0,1.3,0.7,1.3
		c0.2,0,1.3-0.1,3.3-0.4C158,332.2,161.8,332,167.9,332z"/>
</g>
<g>
	<path class="st1" d="M263.3,343.8l0,0.3c-0.2,0.4-0.5,0.5-0.9,0.6c-0.5,0-0.8-0.1-1-0.2c-0.3-1.5-2.8-3.8-7.4-6.9
		c-4.6-3.1-7.8-4.7-9.4-4.6l-3.1,0.1l0.1,3.3c0,0.5,0.2,1.5,0.5,3.2c0.3,1.8,0.5,2.8,0.6,2.9c0.6,1,1,1.4,1,1.3
		c0,0.8-0.4,1.2-1.4,1.3c-1,0-1.8-0.3-2.4-1.1c-0.6-0.7-0.9-4.3-1-10.5c0-0.5-0.6-0.9-1.9-1.3s-1.9-0.8-1.9-1.4
		c0-0.8,1.1-1.5,3.4-2.2c0.2-1.3,0.3-3,0.4-5.2c0.1-2.7,0.2-4.4,0.2-5.2c0-0.4,0.2-1.5,0.4-3.2c0.2-1.3,0.3-2.4,0.3-3.3
		c-0.2-0.1-0.7-0.1-1.4-0.1c-0.8,0-1.2-0.3-1.2-0.9c0-0.8,0.3-1.2,1-1.4c0.5-0.2,1-0.3,1.6-0.5c0.1-0.4,0.3-0.8,0.7-1.2
		c0.3-0.1,0.6-0.2,0.9-0.2c0.4,0,0.8,0.2,1.2,0.6c0.4,0.4,0.8,0.6,1.1,0.6c0.2,0,0.4,0,0.8-0.1c0.3-0.1,0.6-0.1,0.8-0.1
		c4-0.1,7.4,0.7,10.1,2.3c3.4,1.9,5.1,4.7,5.2,8.4c0.1,3.1-0.8,5.6-2.6,7.6c-1.1,1.3-3.3,2.8-6.6,4.7c-0.2,0-0.5,0.1-0.7,0.3
		c0.7,0.7,2.4,1.8,4.9,3.4s4.4,2.9,5.5,3.9C262.6,340.5,263.4,342.1,263.3,343.8z M257.6,318.8c-0.1-2.7-1.3-4.8-3.8-6.2
		c-2.1-1.2-4.5-1.7-7.4-1.7c-1,0-1.9,0.1-2.6,0.3l-0.7,1.1c-0.5,0.8-0.7,1.9-0.8,3.3c0,2-0.1,3.1-0.1,3.5c-0.4,2.1-0.6,5.3-0.7,9.8
		c2.7,0.9,4.3,1.4,5,1.4c0.5,0,1.2-0.2,2.1-0.5c2.6-0.8,4.7-2.2,6.4-4.1C256.8,323.7,257.7,321.4,257.6,318.8z"/>
</g>
<g>
	<path class="st1" d="M345.1,308.4c0.1,0.9-0.1,1.4-0.7,1.4c0.1,0-0.3-0.2-1.3-0.4c-0.6-0.2-2-0.2-4.2,0.1l-2.4,0.3
		c-0.9,0.1-1.4,0.3-1.6,0.6s-0.3,0.9-0.3,1.9c0,1,0,2.4-0.1,4.3c0,5.5,0.4,11.4,1.1,17.6c0.6,4.6,1.4,7.6,2.6,9.1
		c0.1,0.5-0.1,0.8-0.4,0.8c-1.9,0.2-3.2-0.7-4-2.8c-0.3-0.8-0.6-2.6-1-5.3c-0.5-4-0.8-7-0.8-9.1c-0.1-1-0.2-3.2-0.2-6.8
		c-0.1-2.8-0.2-5.1-0.4-6.8c-0.3-2-0.3-2.5-0.1-1.5c-0.1-0.5-0.4-0.8-0.8-0.7c-0.6,0.1-1.6,0.3-2.8,0.7c-1.2,0.4-2.2,0.6-2.8,0.7
		c-1.4,0.2-2.4-0.3-3-1.4c0.3-0.7,2.9-1.6,7.7-2.8c4.1-1,7.1-1.6,8.9-1.8C342.7,306.1,344.9,306.7,345.1,308.4z"/>
</g>
<g>
	<path class="st1" d="M434.3,297.7c-0.2,0.7-0.7,1.7-1.5,3c-0.7,1.3-1.2,2.3-1.4,3c-1.6,5.5-2.9,10.9-3.9,16.1
		c-1.4,7.6-1.7,12.9-0.9,15.9c-0.5,0.6-1.1,0.9-1.7,1c-1.1,0.2-2.2-0.6-3.3-2.5c0.2-0.2,0.5-0.6,0.8-1.2c0.4-0.6,0.8-2.4,1.3-5.5
		c0.3-2.1,0.6-4.1,0.9-6.2c-2.6-1.3-5.1-3.7-7.4-7.2c-3.9-5.8-6.1-9.8-6.5-12.1c-0.3-1.4,0.2-2.3,1.3-2.5c0.7-0.1,1.4,0.1,2,0.8
		c0.5,0.6,0.8,1.3,0.9,2.1c0,0.2,0,0.6-0.1,1c-0.1,0.4-0.1,0.7-0.1,0.9c0.3,1.6,1.7,4.2,4.2,7.8c2.7,3.9,4.8,5.7,6,5.4
		c0.5-0.7,1.5-4.6,3-11.5c1.4-6.2,2.6-9.4,3.8-9.6C433.3,296.4,434,296.7,434.3,297.7z"/>
</g>
</svg>
