<svg xmlns="http://www.w3.org/2000/svg" width="549.93" height="298.51" viewBox="0 0 549.93 298.51"><rect width="549.93" height="298.51"/><path d="M156.75,112.15a44.17,44.17,0,1,0,61.53,10.76A44.17,44.17,0,0,0,156.75,112.15Zm40.91,25.24a19,19,0,1,1-26.43-4.62A19,19,0,0,1,197.66,137.39Z" fill="#fff"/><path d="M299.5,117.44a44.17,44.17,0,1,0,62.46.24A44.15,44.15,0,0,0,299.5,117.44ZM344,162.26a19,19,0,1,1,.1-26.84A19,19,0,0,1,344,162.26Z" fill="#fff"/><path d="M376.38,103.37a64.56,64.56,0,0,0-12.23-9.59l4.35-7.11a72.45,72.45,0,0,0-21.95-8.87l-1.82,8.12a64.58,64.58,0,0,0-24.39-.74L319,77a72.18,72.18,0,0,0-22.45,7.51l3.88,7.32A64.69,64.69,0,0,0,285.19,103l-5.82-5.86a72.73,72.73,0,0,0-13.87,19.16l7.44,3.72a64.28,64.28,0,0,0-6.56,23.51l-8.28-.68A73,73,0,0,0,260,166.43l8.08-2a64.07,64.07,0,0,0,10.31,22.12l-6.75,4.9A73.59,73.59,0,0,0,279,200a72.49,72.49,0,0,0,9.47,8.05l4.84-6.78a63.9,63.9,0,0,0,22.21,10.11l-1.95,8.11a73,73,0,0,0,23.58,1.73L336.4,213a64.14,64.14,0,0,0,23.47-6.76l3.76,7.39a72.67,72.67,0,0,0,18.22-13.21l.82-.82-5.94-5.8a64.13,64.13,0,0,0,13.48-20.36l7.64,3.15a72.62,72.62,0,0,0,5.35-23l-8.3-.55a64.7,64.7,0,0,0-3-24.21l7.92-2.58a72.28,72.28,0,0,0-10.92-21l-6.66,5A65.71,65.71,0,0,0,376.38,103.37Zm-10.42,81a50.18,50.18,0,1,1,.27-71A50.17,50.17,0,0,1,366,184.41Z" fill="#fff"/><path d="M244.79,163.29a64.48,64.48,0,0,0,1.09-24.38l8.24-1.21a72.11,72.11,0,0,0-7.22-22.55l-7.41,3.8a60.91,60.91,0,0,0-15-19.23L230,93.44A72.7,72.7,0,0,0,209.8,81l-3.16,7.7a64.85,64.85,0,0,0-23.92-4.84l.09-8.31a71.85,71.85,0,0,0-23.39,3.62L162,87a64.47,64.47,0,0,0-16.93,8.49l-4.74-6.76a72.61,72.61,0,0,0-16.91,16.55l6.71,4.92a64.28,64.28,0,0,0-10.42,22.07l-8-2.06a73,73,0,0,0-2.08,23.55l8.31-.62a64.06,64.06,0,0,0,6.44,23.54l-7.48,3.69a73,73,0,0,0,5.75,9.7,73.79,73.79,0,0,0,8,9.53l5.91-5.87a64,64,0,0,0,20.19,13.71l-3.28,7.66a72.74,72.74,0,0,0,22.95,5.67l.66-8.24a64.18,64.18,0,0,0,24.28-2.71l2.46,7.93a72.77,72.77,0,0,0,20.19-9.95l.94-.67L220,200.44a64.43,64.43,0,0,0,16.72-17.8l7,4.4a72.65,72.65,0,0,0,9.15-21.81Zm-33.62,26.35a50.52,50.52,0,1,1,12.31-70.38A50.53,50.53,0,0,1,211.17,189.64Z" fill="#fff"/><path d="M251.63,230.48c4.88-7.65,12.32-9.48,18.52-5.52a10.53,10.53,0,0,1,4.67,7.06l-3,.81a7.57,7.57,0,0,0-3.42-5.19c-4.53-2.89-9.84-1.13-13.61,4.78s-3.23,11.61,1.3,14.5a8.11,8.11,0,0,0,7,.79l.56,3a10.88,10.88,0,0,1-9.55-1.26C248.26,245.67,246.68,238.23,251.63,230.48Z" fill="#fff"/><path d="M273.91,243.94c3.28-8.51,9.39-11.91,15.32-9.62s8.18,8.92,4.9,17.42-9.48,12.15-15.42,9.86S270.58,252.57,273.91,243.94Zm16.73,6.46c2.55-6.62,1.42-11.58-2.55-13.11s-8.14,1.38-10.69,8-1.52,11.81,2.45,13.34S288,257.14,290.64,250.4Z" fill="#fff"/><path d="M299.1,253.11c1.51-9,6.81-13.56,13.08-12.51s9.8,7.1,8.3,16.09-6.85,13.81-13.13,12.76S297.57,262.23,299.1,253.11Zm17.69,3c1.17-7-.93-11.62-5.13-12.33s-7.7,3-8.87,10,.89,11.87,5.09,12.58S315.59,263.2,316.79,256.07Z" fill="#fff"/><path d="M327.24,243l8.81-.37c5.71-.23,10,1.66,10.21,7.54.23,5.63-3.82,8.51-9.54,8.74l-5.15.22.49,11.9-3.65.15Zm8.85,13c4.38-.18,6.71-2.08,6.56-5.69s-2.61-4.93-7-4.74l-4.63.19.43,10.44Zm2.62-.06,9.2,14.42-4.08.17L336,257.94Z" fill="#fff"/><path d="M350.47,241.45l6.72-1.81c8.18-2.2,13.93,1.46,16.26,10.1s-.75,14.94-8.76,17.1l-6.9,1.85Zm13,22.63c6.19-1.66,8.19-6.48,6.33-13.37s-5.93-9.8-12.12-8.14l-3,.81,5.79,21.51Z" fill="#fff"/><path d="M385.66,256.55l6.12-3.42L381,233.84l-6.12,3.43-1.49-2.66L388.75,226l1.49,2.66-6.11,3.43,10.8,19.28,6.11-3.43,1.49,2.67-15.38,8.61Z" fill="#fff"/><path d="M392.8,223.07l2.79-2.81,18.94,6.05,6.06,2.19.06-.06c-2.08-1.87-4.58-3.87-6.69-6l-10.38-10.29,2.42-2.44,20,19.85-2.78,2.81-18.94-6-6.06-2.19-.06.06c2.14,1.93,4.52,3.81,6.59,5.86l10.48,10.38-2.42,2.45Z" fill="#fff"/><path d="M412.11,199.5l1.95-3.64,29.36,4.91-1.83,3.41-16.17-3.13c-3.23-.6-6.41-1.23-9.7-2l-.08.15c2.46,2.34,4.76,4.6,7.07,6.95l11.55,11.77-1.74,3.27Zm12.65,11.83,6.1-11.42,2.58,1.38-6.1,11.42Z" fill="#fff"/><path d="M423.94,178.25l-2.22,9.06-3-.73L424.06,165l3,.73-2.23,9.06,24.43,6-.86,3.5Z" fill="#fff"/><path d="M449.41,161.54l.13-7-22.1-.4-.13,7-3.05,0,.33-17.63,3.05.06-.13,7,22.09.41.13-7,3.06.05-.33,17.62Z" fill="#fff"/><path d="M438.13,136.54c-9,1.7-15.07-1.69-16.26-7.94s3.26-11.65,12.22-13.35,15.32,1.65,16.51,7.9S447.21,134.82,438.13,136.54Zm-3.34-17.61c-7,1.32-10.58,4.89-9.79,9.08s5.46,6.18,12.43,4.86,10.84-5,10.05-9.13S441.89,117.58,434.79,118.93Z" fill="#fff"/><path d="M417.92,114.63l-1.57-3.83L429.92,95l4.59-4.94,0-.09c-2.65,1.24-5.6,2.83-8.47,4l-14.16,5.81-1.36-3.34,27.31-11.19,1.57,3.83-13.57,15.77-4.58,5,0,.08c2.74-1.27,5.52-2.79,8.35-4l14.28-5.85,1.36,3.33Z" fill="#fff"/><path d="M78.41,124.43l2.38-6.59L60,110.33l-2.39,6.59-2.87-1,6-16.58,2.88,1-2.39,6.59L82,114.45l2.38-6.6,2.87,1-6,16.58Z" fill="#fff"/><path d="M72.62,83.48l-5,7.89-2.58-1.64L77,70.9l2.58,1.64-5,7.88L95.82,93.87l-1.93,3Z" fill="#fff"/><path d="M95.76,66.92A8.3,8.3,0,0,0,94,58.4l-2.92-1.86,3.69.49a3.9,3.9,0,0,1-1,2.83,2.94,2.94,0,0,1-4.34-.18,3.14,3.14,0,0,1,0-4.62c1.67-1.56,4.15-1.23,6.41,1.19a10.74,10.74,0,0,1,2.21,11.36Z" fill="#fff"/><path d="M118.87,64.68l.74-3.21a11.89,11.89,0,0,0,8.93-.75c3.43-1.8,4.55-4.48,3.35-6.76-1.4-2.67-3.74-2.41-6.82-2.16l-4.45.3c-3,.31-6.81.08-8.75-3.61s-.05-8.42,4.71-10.92a12.34,12.34,0,0,1,9.31-1l-.6,2.94a9.92,9.92,0,0,0-7.34.89c-2.9,1.52-4.12,3.91-2.94,6.16s4,2,6.61,1.77l4.32-.28c3.73-.4,7.08.07,9,3.77,2.08,4,.39,8.87-5.09,11.75A14.37,14.37,0,0,1,118.87,64.68Z" fill="#fff"/><path d="M189.06,24.69l4.11.32,7.28,28.86-3.86-.3L193,37.5c-.74-3.2-1.44-6.36-2-9.69h-.17c-1.16,3.19-2.3,6.2-3.53,9.25l-6.16,15.31-3.69-.29ZM183.3,41l12.9,1L196,44.94l-12.9-1Z" fill="#fff"/><path d="M213.32,28l3.45.9-6.39,24.33,13.47,3.55-.78,2.95-16.92-4.45Z" fill="#fff"/><path d="M241.51,36.8l3.23,1.51L234.11,61.1,246.73,67l-1.29,2.76-15.86-7.4Z" fill="#fff"/></svg>