<?xml version="1.0" encoding="utf-8"?>
<!-- Generator: Adobe Illustrator 24.1.0, SVG Export Plug-In . SVG Version: 6.00 Build 0)  -->
<svg version="1.1" id="Layer_1" xmlns="http://www.w3.org/2000/svg" xmlns:xlink="http://www.w3.org/1999/xlink" x="0px" y="0px"
	 viewBox="0 0 500 500" style="enable-background:new 0 0 500 500;" xml:space="preserve">
<style type="text/css">
	.st0{fill-rule:evenodd;clip-rule:evenodd;fill:#66DEAF;}
	.st1{fill-rule:evenodd;clip-rule:evenodd;fill:#6649EC;}
	.st2{opacity:0.3;fill-rule:evenodd;clip-rule:evenodd;fill:#FFFFFF;}
	.st3{fill:#FFFFFF;}
	.st4{fill:#6649EC;}
	.st5{opacity:0.3;fill:#7FE4FF;}
</style>
<path id="path268" class="st0" d="M239.4,42.3c-26.2,62-52.5,124.1-78.7,186.1L77,426.5c-2.5,5.6-1.8,12.2,1.7,17.2
	c3.4,5.2,9.2,8.2,15.3,8.1c21.9,6.6,46.7,12.8,74.1,17.6c35.4,6.2,67.7,8.8,95.8,9.4c25.1,1.1,57.5,0.1,94.5-7.4
	c29.3-6,54.2-14.6,74-23c0.7,0,9.8-0.3,15-8.4c3.3-5.2,3.7-11.7,1.1-17.3l-90.7-196.4L272.5,42c-3-6.5-9.6-10.7-16.8-10.6
	C248.7,31.4,242.2,35.7,239.4,42.3z"/>
<path class="st1" d="M212.2,108.6c12.1,3.2,28.8,6.2,48.7,5.8c16.8-0.3,31.1-3,42-5.8c6.8,14.7,13.6,29.5,20.4,44.2
	c-17.8,4.4-42,8.4-70.7,7.6c-23.3-0.6-43.3-4.3-58.8-8.3"/>
<path class="st1" d="M179.1,184.9c19.1,5.9,47,12.3,81.1,12.2c32.8-0.1,59.8-6.1,78.5-11.7c7.5,16.2,15,32.4,22.5,48.6
	c-22.4,7.6-56.3,16.4-98.3,16.5c-44.9,0.1-81-9.6-104-17.8C165.7,216.7,172.4,200.8,179.1,184.9z"/>
<path class="st1" d="M142.7,271c24.9,9.8,66.6,22.6,119.5,22.5c51.2-0.1,91.8-12.3,116.5-21.9c7.7,16.8,15.5,33.5,23.2,50.3
	c-30.5,10.9-77.3,23.5-135.4,24.1c-63.1,0.6-113.6-13.2-145.2-24.6C128.5,304.7,135.6,287.9,142.7,271z"/>
<path class="st1" d="M105.7,358.6c32.3,13.4,89,32.1,161.6,31.2c67.3-0.8,120.1-18.1,151.6-31.1c8.1,17.4,16.1,34.9,24.2,52.3
	c-37.9,15-101.2,34.8-181.6,35c-78.8,0.2-141.1-18.3-178.9-32.8C90.3,395,98,376.8,105.7,358.6z"/>
<path id="path274" class="st2" d="M209.6,155.1c3.2-15,6.6-30.2,10.1-45.6c3.8-16.3,7.7-32.4,11.6-48.1L188.8,162L161,227.8
	l-40.3,95.3L77.5,425.3c-0.8,1.5-2.4,5.2-2,10c0.1,0.9,0.5,4.6,3.1,8.4c3,4.4,6.9,6.2,7.8,6.6c3.1,1.4,5.9,1.5,7.6,1.5
	c9.6,2.9,19.6,5.7,30.1,8.3c21.8,5.4,42.5,9.4,61.9,12.2c-2.3-17.8-4.8-42.5-5.5-72.1c-1.2-48.5,3-84.9,7.1-119.1
	C191.5,247.9,198.1,204.9,209.6,155.1z"/>
<g>
	<g>
		<path class="st3" d="M221.7,149.4c-4.5-0.9-9-2.1-13.5-3.4c2.1-7.1,4.1-14.1,6.2-21.2c0.8,0.2,1.7,0.5,2.5,0.7
			c-1.7,6.4-3.5,12.7-5.2,19.1c3.5,1,7,1.8,10.5,2.5C222.1,148,221.9,148.7,221.7,149.4z"/>
		<path class="st3" d="M243.1,152.6c-4.4-0.4-8.8-0.9-13.2-1.6c1.2-7.3,2.3-14.5,3.5-21.8c3.8,0.6,7.7,1.1,11.5,1.4
			c-0.1,0.7-0.1,1.5-0.2,2.2c-3-0.3-6-0.6-9.1-1.1c-0.3,2.3-0.7,4.5-1,6.8c3,0.4,6,0.8,9.1,1.1c-0.1,0.7-0.1,1.5-0.2,2.2
			c-3.1-0.3-6.1-0.6-9.2-1.1c-0.4,2.8-0.8,5.6-1.2,8.4c3.4,0.5,6.8,0.9,10.1,1.2C243.3,151.1,243.2,151.9,243.1,152.6z"/>
		<path class="st3" d="M266.8,133.1c-2.3,0.1-4.6,0.2-7,0.2c0,6.7,0.1,13.3,0.1,20c-1,0-2,0-2.9,0c0.1-6.7,0.1-13.3,0.2-20
			c-2.3,0-4.7-0.1-7-0.2c0-0.7,0.1-1.4,0.1-2.1c5.5,0.3,10.9,0.3,16.4,0C266.7,131.7,266.8,132.4,266.8,133.1z"/>
		<path class="st3" d="M278.1,133.6c-0.6,0-1.1-0.2-1.5-0.5c-0.4-0.3-0.6-0.8-0.7-1.3c-0.1-0.5,0.1-1,0.4-1.4
			c0.3-0.4,0.7-0.6,1.3-0.7c0.6-0.1,1.1,0.1,1.6,0.5c0.5,0.4,0.8,1,0.9,1.6c0.3,2-0.7,3.8-2.9,5.2c-0.3-0.3-0.5-0.7-0.8-1
			C277.6,135.2,278.2,134.4,278.1,133.6z"/>
		<path class="st3" d="M302.4,127.7c-1.4-0.1-2.7,0-3.9,0.3c-1.3,0.3-2.4,0.9-3.1,1.7c-0.7,0.8-0.9,1.7-0.7,2.8
			c0.3,1.3,1.7,2.2,4.2,2.6c1.9,0.3,3.1,0.5,3.8,0.6c0.6,0.1,1.3,0.4,2,0.7c0.7,0.3,1.3,0.8,1.9,1.3c0.5,0.6,0.9,1.3,1.2,2.1
			c0.6,2.1,0.3,3.9-1,5.5c-1.3,1.6-3.1,2.7-5.3,3.2c-2.1,0.5-4.1,0.6-5.9,0.2c0.1-0.8,0.1-1.5,0.1-2.3c2,0.3,3.8,0.3,5.2,0
			c1.6-0.4,2.8-1.1,3.6-2.1c0.8-1,1-2.1,0.6-3.4c-0.3-0.9-0.8-1.7-1.6-2.2c-0.8-0.5-2.1-0.9-3.9-1.2c-1.9-0.3-3-0.5-3.6-0.7
			c-0.5-0.1-1.1-0.4-1.7-0.8c-0.6-0.4-1.1-0.8-1.4-1.3c-0.4-0.5-0.6-1.1-0.8-1.8c-0.4-1.8,0-3.3,1.1-4.6c1.1-1.3,2.6-2.2,4.6-2.7
			c1.4-0.4,2.9-0.5,4.5-0.5C302.4,126.2,302.4,127,302.4,127.7z"/>
	</g>
</g>
<g>
	<g>
		<path class="st3" d="M204.1,211.5c-2.3-0.7-4.5-1.4-6.8-2.2c-2.2,6.3-4.4,12.6-6.6,18.8c-0.9-0.3-1.9-0.7-2.8-1
			c2.3-6.2,4.6-12.5,6.9-18.7c-2.2-0.8-4.5-1.7-6.7-2.6c0.3-0.6,0.5-1.3,0.8-1.9c5.2,2.1,10.5,4,15.8,5.7
			C204.5,210.2,204.3,210.9,204.1,211.5z"/>
		<path class="st3" d="M217.9,235.5c-1-0.2-1.9-0.4-2.9-0.6c0.7-3.6,1.5-7.1,2.2-10.7c-2.7-0.6-5.4-1.2-8-1.9
			c-0.9,3.5-1.8,7.1-2.7,10.6c-1-0.2-1.9-0.5-2.9-0.8c1.9-7.1,3.9-14.2,5.8-21.3c0.8,0.2,1.7,0.5,2.6,0.7c-0.7,2.9-1.5,5.7-2.2,8.6
			c2.6,0.7,5.3,1.3,7.9,1.9c0.6-2.9,1.2-5.8,1.8-8.7c0.9,0.2,1.7,0.4,2.6,0.5C220.7,221.1,219.3,228.3,217.9,235.5z"/>
		<path class="st3" d="M242.7,238.7c-1.2-0.1-2.5-0.2-3.7-0.3c-2.2-3.5-4.3-7.1-6.2-10.7c-1-0.1-2.1-0.3-3.1-0.4
			c-0.5,3.3-0.9,6.6-1.4,9.9c-1-0.1-2-0.3-2.9-0.4c1.1-7.3,2.2-14.5,3.4-21.8c2.1,0.3,4.2,0.6,6.3,0.9c2.1,0.2,3.8,0.9,4.9,2
			c1.2,1.1,1.7,2.6,1.5,4.4c-0.1,1.3-0.7,2.5-1.7,3.5c-1,1-2.4,1.6-4.2,1.7C237.9,231.3,240.2,235,242.7,238.7z M230,225.1
			c1.2,0.2,2.3,0.3,3.5,0.4c1.5,0.2,2.7-0.1,3.7-0.7c1-0.6,1.5-1.5,1.6-2.6c0.2-2.5-1.2-3.8-4.3-4.2c-1.1-0.1-2.3-0.3-3.4-0.4
			C230.7,220.1,230.3,222.6,230,225.1z"/>
		<path class="st3" d="M254.7,216.6c2.5,0,4.4,0.9,5.9,2.8c1.4,1.9,2.2,4.7,2.4,8.4c0.2,3.7-0.4,6.6-1.8,8.6c-1.4,2-3.6,3-6.4,3
			c-2.8,0-5-1-6.4-3.1c-1.4-2-2-4.9-1.8-8.6c0.2-3.7,1-6.5,2.4-8.4C250.3,217.5,252.2,216.6,254.7,216.6z M254.7,237.3
			c3.7,0,5.5-3.1,5.3-9.3c-0.2-6.1-1.9-9.1-5.3-9.1c-1.6,0-2.9,0.8-3.8,2.3c-0.9,1.6-1.4,3.8-1.5,6.8c-0.1,3,0.3,5.3,1.2,6.9
			C251.5,236.4,252.9,237.2,254.7,237.3z"/>
		<path class="st3" d="M283.4,214.7c0.3,7.4,0.4,14.8,0.4,22.3c-0.9,0.1-1.8,0.3-2.7,0.4c-2-3.9-3.9-7.9-5.7-11.8
			c-0.9,4.3-1.8,8.5-2.9,12.8c-0.9,0.1-1.9,0.2-2.8,0.2c-1.6-7.2-3.1-14.5-4.5-21.8c0.9-0.1,1.7-0.1,2.6-0.2
			c1.1,5.9,2.2,11.8,3.4,17.7c0.9-3.7,1.8-7.4,2.5-11.1c0.9-0.1,1.8-0.2,2.7-0.3c1.6,3.5,3.2,6.9,5,10.3c-0.1-6-0.3-12-0.6-18.1
			C281.7,215,282.6,214.8,283.4,214.7z"/>
		<path class="st3" d="M329.8,224.2c-1,0.4-1.9,0.8-2.9,1.2c-1.8-2-3.6-4.1-5.4-6.2c-2.5,1-5.1,1.9-7.7,2.7
			c-0.1,2.7-0.2,5.5-0.3,8.2c-1,0.3-2,0.6-3,0.9c0.6-7.8,0.9-15.6,0.8-23.4c1-0.3,2-0.7,3-1.1C319.2,212.6,324.3,218.5,329.8,224.2z
			 M319.9,217.4c-2.1-2.5-4.1-5-6.1-7.5c0.1,3.2,0.1,6.4,0,9.6C315.9,218.9,317.9,218.2,319.9,217.4z"/>
	</g>
</g>
<g>
	<g>
		<path class="st3" d="M149.3,314.4c-2.1,0.5-4.4,0.3-6.7-0.6c-2.9-1.1-4.7-2.9-5.5-5.2c-0.8-2.4-0.4-5.2,0.9-8.5
			c1.3-3.2,3.1-5.4,5.1-6.7c2.1-1.3,4.5-1.4,7.3-0.3c1,0.4,1.9,0.9,2.8,1.5c0.9,0.6,1.6,1.2,2,1.8c-0.5,0.5-1,1-1.5,1.5
			c-1.1-1.3-2.5-2.2-4.2-2.8c-1.9-0.7-3.6-0.6-5.1,0.3c-1.5,1-2.8,2.9-3.9,5.7c-2.2,5.5-1.4,9.1,2.7,10.6c1.7,0.6,3.6,0.8,5.7,0.5
			C149.2,313,149.2,313.7,149.3,314.4z"/>
		<path class="st3" d="M230.1,333.7c-1.1-0.1-2.2-0.2-3.4-0.3c-1.9-3.5-3.8-6.9-5.6-10.4c-1-0.1-1.9-0.2-2.9-0.4
			c-0.4,3.2-0.9,6.4-1.3,9.6c-0.9-0.1-1.8-0.2-2.7-0.4c1-7,2-14.1,3-21.1c2,0.3,4.1,0.6,6.1,0.8c2.1,0.3,3.6,0.9,4.7,2
			c1.1,1.1,1.6,2.5,1.4,4.3c-0.1,1.3-0.7,2.4-1.7,3.3c-1,0.9-2.3,1.5-3.9,1.6C225.8,326.5,227.9,330.1,230.1,333.7z M218.5,320.5
			c1.1,0.1,2.2,0.3,3.3,0.4c1.4,0.2,2.5-0.1,3.5-0.7c0.9-0.6,1.5-1.5,1.6-2.5c0.3-2.4-1.1-3.7-4.1-4.1c-1.1-0.1-2.2-0.3-3.3-0.4
			C219.1,315.7,218.8,318.1,218.5,320.5z"/>
		<path class="st3" d="M236.1,312.8c1.4,0.1,2.9,0.2,4.3,0.3c2.8,0.2,5.1,1.3,6.7,3.2c1.7,2,2.4,4.6,2.3,7.9c-0.1,3.4-1.1,6-3.1,7.8
			c-1.9,1.8-4.4,2.6-7.3,2.4c-1.6-0.1-3.1-0.2-4.7-0.3C235,327,235.5,319.9,236.1,312.8z M237.3,332.2c0.6,0,1.3,0.1,1.9,0.1
			c2.2,0.1,4-0.5,5.3-2c1.3-1.4,2.1-3.5,2.2-6.2c0.1-2.6-0.4-4.7-1.6-6.3c-1.2-1.6-2.8-2.4-4.8-2.6c-0.6,0-1.2-0.1-1.8-0.1
			C238.1,320.8,237.7,326.5,237.3,332.2z"/>
		<path class="st3" d="M266.6,335.1c-3.5,0.1-7.1,0.1-10.6,0c0-0.7,0-1.4,0-2.2c1.3,0,2.7,0,4,0c0-5.7,0-11.4,0-17
			c-1.3,0-2.5,0-3.8,0c0-0.7,0-1.4,0-2.2c3.3,0,6.6,0,9.9,0c0,0.7,0,1.4,0,2.2c-1.2,0-2.4,0-3.6,0c0,5.7,0.1,11.4,0.1,17
			c1.3,0,2.6,0,3.8,0C266.5,333.7,266.6,334.4,266.6,335.1z"/>
		<path class="st3" d="M288.7,334c-1,0.1-2,0.2-3,0.2c-3.2-5.4-6.3-10.8-9.2-16.3c0.3,5.6,0.6,11.2,0.8,16.8c-0.9,0-1.8,0.1-2.7,0.1
			c-0.3-7.1-0.6-14.2-0.9-21.3c0.9,0,1.9-0.1,2.8-0.1c2.9,5.4,5.9,10.8,9.1,16.2c-0.4-5.6-0.8-11.1-1.3-16.7
			c0.8-0.1,1.7-0.1,2.5-0.2C287.5,319.8,288.1,326.9,288.7,334z"/>
		<path class="st3" d="M311.1,331.4c-0.9,0.1-1.9,0.3-2.8,0.4c-1.2-2.3-2.4-4.7-3.6-7c-2.5,0.3-5,0.6-7.4,0.9
			c-0.6,2.6-1.2,5.1-1.8,7.7c-0.9,0.1-1.9,0.2-2.8,0.3c1.8-7.3,3.5-14.7,5-22c1-0.1,2-0.2,3-0.4C304.1,318,307.5,324.7,311.1,331.4z
			 M303.7,322.7c-1.4-2.8-2.7-5.6-4-8.4c-0.6,3-1.2,6.1-1.8,9.1C299.8,323.2,301.7,322.9,303.7,322.7z"/>
		<path class="st3" d="M326.4,308.9c-2.2,0.5-4.4,0.9-6.7,1.4c1.2,6.3,2.4,12.7,3.6,19c-0.9,0.2-1.8,0.3-2.7,0.5
			c-1.2-6.3-2.3-12.7-3.5-19c-2.2,0.4-4.5,0.8-6.7,1.2c-0.1-0.7-0.2-1.3-0.3-2c5.3-0.9,10.5-1.8,15.8-3
			C326.1,307.6,326.3,308.2,326.4,308.9z"/>
		<path class="st3" d="M347,323.8c-3.4,0.9-6.9,1.8-10.3,2.6c-0.2-0.7-0.3-1.4-0.5-2.1c1.3-0.3,2.6-0.6,3.9-0.9
			c-1.4-5.5-2.7-11-4.1-16.5c-1.2,0.3-2.5,0.6-3.7,0.9c-0.2-0.7-0.3-1.4-0.5-2.1c3.2-0.8,6.5-1.6,9.7-2.4c0.2,0.7,0.4,1.4,0.6,2.1
			c-1.2,0.3-2.4,0.6-3.6,0.9c1.4,5.5,2.8,11,4.2,16.5c1.2-0.3,2.5-0.6,3.7-1C346.7,322.4,346.8,323.1,347,323.8z"/>
		<path class="st3" d="M355,298.8c2.3-0.8,4.4-0.4,6.3,0.9c1.8,1.4,3.4,3.8,4.6,7.2c1.2,3.4,1.4,6.2,0.7,8.4
			c-0.7,2.2-2.3,3.8-4.8,4.6c-2.5,0.8-4.7,0.5-6.6-0.9c-1.9-1.4-3.3-3.9-4.3-7.3c-1-3.5-1.1-6.3-0.4-8.5
			C351.2,301,352.7,299.5,355,298.8z M361.1,317.8c3.3-1.1,4-4.4,2.1-10.1c-1.9-5.6-4.4-7.9-7.5-6.9c-1.5,0.5-2.4,1.6-2.8,3.3
			c-0.4,1.7-0.1,3.9,0.7,6.7c0.8,2.8,1.9,4.8,3.2,6C358,318,359.5,318.3,361.1,317.8z"/>
		<path class="st3" d="M387.7,310c-0.9,0.4-1.9,0.8-2.8,1.2c-4.7-4.2-9.3-8.4-13.8-12.7c2,5.3,3.9,10.5,5.9,15.8
			c-0.9,0.3-1.7,0.6-2.6,1c-2.4-6.7-4.9-13.4-7.3-20.1c0.9-0.3,1.8-0.7,2.7-1c4.4,4.3,9,8.5,13.7,12.6c-2.1-5.2-4.2-10.3-6.3-15.5
			c0.8-0.3,1.6-0.6,2.3-1C382.3,296.8,385,303.4,387.7,310z"/>
	</g>
</g>
<g>
	<g>
		<path class="st3" d="M212.8,403c1.8,0.5,3.7,1,5.5,1.5c2.1,0.5,3.6,1.4,4.7,2.8c1,1.3,1.4,2.9,1,4.7c-0.4,1.8-1.4,3.2-2.9,3.9
			c-1.6,0.8-3.5,0.9-5.6,0.4c-1.1-0.3-2.2-0.6-3.3-0.9c-0.9,3.2-1.8,6.4-2.6,9.5c-0.9-0.3-1.9-0.5-2.8-0.8
			C208.7,417.1,210.7,410.1,212.8,403z M212.6,413.3c1,0.3,1.9,0.5,2.9,0.8c3.1,0.8,5-0.1,5.6-2.5c0.3-1.1,0.1-2.2-0.6-3
			c-0.7-0.9-1.6-1.5-2.9-1.8c-1-0.2-1.9-0.5-2.9-0.8C214,408.3,213.3,410.8,212.6,413.3z"/>
		<path class="st3" d="M244,431.4c-1-0.1-2-0.2-3-0.3c-0.6-2.7-1.2-5.3-1.8-8c-2.6-0.3-5.2-0.7-7.8-1.2c-1.3,2.4-2.7,4.8-4,7.1
			c-1-0.2-2-0.4-3-0.6c4.1-6.7,7.9-13.5,11.5-20.4c1,0.2,2.1,0.3,3.1,0.5C240.3,416.2,242,423.8,244,431.4z M238.7,420.8
			c-0.6-3.2-1.2-6.3-1.8-9.5c-1.4,2.9-2.9,5.7-4.4,8.5C234.6,420.2,236.7,420.5,238.7,420.8z"/>
		<path class="st3" d="M265.7,432.4c-1.2,0-2.4,0-3.6,0c-2.4-3.4-4.7-6.8-6.8-10.2c-1,0-2-0.1-3.1-0.2c-0.2,3.3-0.4,6.7-0.6,10
			c-1-0.1-1.9-0.1-2.9-0.2c0.6-7.3,1.1-14.7,1.7-22c2.1,0.2,4.2,0.3,6.3,0.4c2.1,0.1,3.8,0.6,5,1.7c1.2,1,1.8,2.4,1.8,4.3
			c0,1.3-0.5,2.5-1.4,3.6c-1,1-2.3,1.7-3.9,2C260.4,425.3,263,428.9,265.7,432.4z M252.3,419.8c1.1,0.1,2.3,0.1,3.4,0.2
			c1.4,0.1,2.6-0.3,3.5-1c0.9-0.7,1.4-1.6,1.4-2.7c0-2.5-1.5-3.7-4.5-3.8c-1.1,0-2.2-0.1-3.4-0.2
			C252.6,414.8,252.4,417.3,252.3,419.8z"/>
		<path class="st3" d="M284.5,411.4c-2.3,0.2-4.6,0.5-6.9,0.6c0.5,6.6,0.9,13.3,1.4,19.9c-1,0.1-1.9,0.1-2.9,0.2
			c-0.4-6.6-0.7-13.3-1.1-19.9c-2.3,0.1-4.6,0.2-7,0.3c0-0.7,0-1.4,0-2.1c5.4-0.1,10.9-0.4,16.3-1
			C284.3,410,284.4,410.7,284.5,411.4z"/>
		<path class="st3" d="M303.5,406.2c-1.4,4.6-2.9,9.2-4.7,13.8c0.5,3.1,1.1,6.2,1.6,9.3c-0.9,0.2-1.9,0.3-2.8,0.5
			c-0.5-3.1-1-6.2-1.5-9.3c-3.1-3.8-6.1-7.6-8.9-11.5c1-0.1,1.9-0.2,2.9-0.4c2.2,3,4.5,6,6.9,9c1.3-3.6,2.5-7.2,3.6-10.8
			C301.6,406.6,302.6,406.4,303.5,406.2z"/>
		<path class="st3" d="M319.2,421.3c0.6-0.2,1.1-0.1,1.7,0.1c0.5,0.2,0.8,0.6,1,1.2c0.2,0.5,0.1,1.1-0.2,1.6c-0.3,0.5-0.8,0.8-1.4,1
			c-0.6,0.2-1.1,0.1-1.7-0.2c-0.5-0.3-0.8-0.7-1-1.2c-0.1-0.5-0.1-1,0.2-1.5C318.2,421.8,318.6,421.5,319.2,421.3z M317.5,410.1
			c0.5,2.7,1,5.4,1.5,8.2c-0.5,0.1-1,0.3-1.4,0.4c-1-2.6-2-5.2-2.9-7.8c-0.6-2.3-1.2-4.6-1.9-6.9c0.9-0.2,1.8-0.5,2.8-0.8
			C316.2,405.5,316.9,407.8,317.5,410.1z"/>
	</g>
</g>
<path class="st4" d="M294.9,7.5l7.7-7.5l-7.7-7.5l4.2-9.9l-10-4l0.1-10.7L278.5-32l-4-10l-9.9,4.2l-7.5-7.7v39.6h3.2v2.3h-3.2v2.5
	h2.3v2.2h-2.3v44.2l7.5-7.7l9.9,4.2l4-10l10.7,0.1l-0.1-10.7l10-4L294.9,7.5z M270.5-3.4h-5.2v2.5h4.3v2.2h-4.3v4.6h-2.7V-5.8h7.8
	V-3.4z M275.6,5.8H273V3.1h2.6V5.8L275.6,5.8z M275.6,1.2H273v-7.1h2.6V1.2L275.6,1.2z"/>
<rect x="257.2" y="-15.2" class="st4" width="24.5" height="24.5"/>
<path class="st4" d="M215.2,17.4l10,4l-0.1,10.7l10.7-0.1l4,10l9.9-4.2l7.5,7.7V1.2h-2.3v-2.2h2.3v-2.5h-3.2v-2.3h3.2v-39.6
	l-7.5,7.7l-9.9-4.2l-4,10l-10.7-0.1l0.1,10.7l-10,4l4.2,9.9L211.8,0l7.7,7.5L215.2,17.4z M243.9-5.8h7.8V5.8H249V1.2h-4.3v-2.2h4.3
	v-2.5h-5.2V-5.8z M238.7,5.8V3.1h2.6v2.7H238.7L238.7,5.8z M238.7,1.2v-7.1h2.6v7.1H238.7L238.7,1.2z"/>
<rect x="232.7" y="-14.1" transform="matrix(-1 -4.488377e-11 4.488377e-11 -1 489.8623 -3.6462)" class="st4" width="24.5" height="24.5"/>
<path class="st5" d="M166.8,301.8c-4.5,1.5-6.9,6.4-5.4,10.9c1.5,4.5,6.4,6.9,10.9,5.4c4.5-1.5,6.9-6.4,5.4-10.9
	C176.1,302.7,171.2,300.3,166.8,301.8z M173,308.8c0.7,1.9-0.4,4-2.3,4.7c-1.9,0.7-4-0.4-4.7-2.3s0.4-4,2.3-4.7
	S172.3,306.8,173,308.8z"/>
<path class="st5" d="M193,310.6c-4.2,2.3-5.7,7.4-3.5,11.6c2.3,4.2,7.4,5.7,11.6,3.5c4.2-2.3,5.7-7.4,3.5-11.6
	C202.4,309.9,197.2,308.4,193,310.6z M198.8,321.4c-1.8,1-4,0.3-5-1.5c-1-1.8-0.3-4,1.5-5c1.8-1,4-0.3,5,1.5
	C201.3,318.2,200.6,320.4,198.8,321.4z"/>
<path class="st3" d="M208.1,312.2c-0.5-0.9-1.1-1.7-1.8-2.4l1.2-1.1c-1-1.1-2.2-2.1-3.6-2.8l-0.8,1.4c-1.4-0.8-2.9-1.3-4.5-1.5
	l0.2-1.6c-1.5-0.2-3.1-0.1-4.6,0.2l0.3,1.6c-1.2,0.2-2.3,0.7-3.4,1.3l-0.8-1.4c-1.4,0.7-2.6,1.7-3.6,2.8l1.2,1.1
	c-1.1,1.2-1.9,2.5-2.5,4l-1.5-0.6c-0.6,1.4-0.9,2.9-0.9,4.5l1.6,0.1c-0.1,1.6,0.2,3.1,0.7,4.7l-1.5,0.5c0.2,0.7,0.5,1.4,0.9,2
	c0.4,0.7,0.8,1.4,1.3,2l1.3-1c1,1.3,2.2,2.3,3.6,3.1l-0.8,1.4c1.3,0.8,2.8,1.3,4.3,1.6l0.3-1.6c1.5,0.3,3.1,0.3,4.7,0l0.3,1.6
	c1.4-0.3,2.8-0.8,4.1-1.5c0.1,0,0.1-0.1,0.2-0.1l-0.8-1.4c1.4-0.8,2.6-1.8,3.6-3.1l1.2,1c1-1.2,1.7-2.5,2.3-4l-1.5-0.6
	c0.5-1.5,0.8-3.1,0.8-4.7l1.6,0c0-1.5-0.3-3.1-0.9-4.5l-1.5,0.6C208.6,313.2,208.4,312.7,208.1,312.2z M201.7,326.7
	c-4.7,2.6-10.6,0.8-13.2-3.9c-2.6-4.7-0.8-10.6,3.9-13.2s10.6-0.8,13.2,3.9C208.2,318.2,206.4,324.1,201.7,326.7z"/>
<path class="st3" d="M180.3,316.2c0.8-1.4,1.3-2.9,1.5-4.5l1.6,0.2c0.2-1.5,0.2-3.1-0.1-4.6l-1.6,0.3c-0.1-0.6-0.2-1.1-0.4-1.7
	c-0.3-1-0.8-1.9-1.3-2.7l1.4-0.9c-0.8-1.3-1.9-2.4-3.1-3.4l-1,1.3c-1.2-1-2.7-1.7-4.2-2.2l0.5-1.5c-1.5-0.4-3-0.7-4.5-0.6l0.1,1.6
	c-1.2,0-2.4,0.2-3.6,0.7l-0.5-1.5c-1.5,0.5-2.8,1.2-4,2.2l1,1.3c-1.3,1-2.3,2.2-3.1,3.5l-1.4-0.8c-0.8,1.3-1.3,2.8-1.7,4.3l1.6,0.3
	c-0.3,1.5-0.4,3.1-0.1,4.7l-1.6,0.3c0.1,0.7,0.3,1.4,0.5,2.1c0.3,0.8,0.6,1.5,1,2.2l1.4-0.8c0.8,1.4,1.8,2.7,3,3.7l-1,1.2
	c1.2,1,2.5,1.8,4,2.3l0.6-1.5c1.5,0.6,3.1,0.8,4.7,0.8l0,1.6c1.5,0,2.9-0.3,4.3-0.7c0.1,0,0.1,0,0.2-0.1l-0.5-1.5
	c1.5-0.6,2.9-1.4,4.1-2.4l1.1,1.2c1.2-1,2.1-2.2,2.9-3.6L180.3,316.2z M172.7,319.2c-5.1,1.7-10.7-1-12.4-6.1
	c-1.7-5.1,1-10.7,6.1-12.4c5.1-1.7,10.7,1,12.4,6.1C180.5,311.9,177.8,317.5,172.7,319.2z"/>
<g>
	<path class="st4" d="M89.8,449.4l2.5-2.4l-2.5-2.4l1.4-3.2l-3.3-1.3l0-3.5l-3.5,0l-1.3-3.3l-3.2,1.4l-2.4-2.5v12.9h1.1v0.8h-1.1
		v0.8h0.8v0.7h-0.8v14.4l2.4-2.5l3.2,1.4l1.3-3.3l3.5,0l0-3.5l3.3-1.3L89.8,449.4z M81.8,445.9h-1.7v0.8h1.4v0.7h-1.4v1.5h-0.9v-3.8
		h2.6V445.9z M83.5,448.9h-0.8V448h0.8V448.9L83.5,448.9z M83.5,447.4h-0.8v-2.3h0.8V447.4L83.5,447.4z"/>
	<rect x="77.5" y="442" class="st4" width="8" height="8"/>
	<path class="st4" d="M63.8,452.6l3.3,1.3l0,3.5l3.5,0l1.3,3.3l3.2-1.4l2.4,2.5v-14.4h-0.8v-0.7h0.8v-0.8h-1.1v-0.8h1.1v-12.9
		l-2.4,2.5l-3.2-1.4l-1.3,3.3l-3.5,0l0,3.5l-3.3,1.3l1.4,3.2l-2.5,2.4l2.5,2.4L63.8,452.6z M73.1,445.1h2.6v3.8h-0.9v-1.5h-1.4v-0.7
		h1.4v-0.8h-1.7V445.1z M71.5,448.9V448h0.8v0.9H71.5L71.5,448.9z M71.5,447.4v-2.3h0.8v2.3H71.5L71.5,447.4z"/>
	
		<rect x="69.5" y="442.4" transform="matrix(-1 -4.492641e-11 4.492641e-11 -1 146.9901 892.7914)" class="st4" width="8" height="8"/>
</g>
<g>
	<path class="st4" d="M108.5,456.9l2.5-2.4l-2.5-2.4l1.4-3.2l-3.3-1.3l0-3.5l-3.5,0l-1.3-3.3l-3.2,1.4l-2.4-2.5v12.9h1.1v0.8h-1.1
		v0.8H97v0.7h-0.8v14.4l2.4-2.5l3.2,1.4l1.3-3.3l3.5,0l0-3.5l3.3-1.3L108.5,456.9z M100.6,453.3h-1.7v0.8h1.4v0.7h-1.4v1.5H98v-3.8
		h2.6V453.3z M102.3,456.3h-0.8v-0.9h0.8V456.3L102.3,456.3z M102.3,454.8h-0.8v-2.3h0.8V454.8L102.3,454.8z"/>
	<rect x="96.3" y="449.5" class="st4" width="8" height="8"/>
	<path class="st4" d="M82.6,460.1l3.3,1.3l0,3.5l3.5,0l1.3,3.3l3.2-1.4l2.4,2.5v-14.4h-0.8v-0.7h0.8v-0.8h-1.1v-0.8h1.1v-12.9
		l-2.4,2.5l-3.2-1.4l-1.3,3.3l-3.5,0l0,3.5l-3.3,1.3L84,452l-2.5,2.4l2.5,2.4L82.6,460.1z M91.9,452.6h2.6v3.8h-0.9v-1.5h-1.4v-0.7
		h1.4v-0.8h-1.7V452.6z M90.3,456.3v-0.9h0.8v0.9H90.3L90.3,456.3z M90.3,454.8v-2.3h0.8v2.3H90.3L90.3,454.8z"/>
	
		<rect x="88.3" y="449.8" transform="matrix(-1 -4.492641e-11 4.492641e-11 -1 184.5363 907.6757)" class="st4" width="8" height="8"/>
</g>
<g>
	<path class="st4" d="M126.5,462.3l2.5-2.4l-2.5-2.4l1.4-3.2l-3.3-1.3l0-3.5l-3.5,0l-1.3-3.3l-3.2,1.4l-2.4-2.5V458h1.1v0.8h-1.1
		v0.8h0.8v0.7h-0.8v14.4l2.4-2.5l3.2,1.4l1.3-3.3l3.5,0l0-3.5l3.3-1.3L126.5,462.3z M118.5,458.8h-1.7v0.8h1.4v0.7h-1.4v1.5H116V458
		h2.6V458.8z M120.2,461.8h-0.8v-0.9h0.8V461.8L120.2,461.8z M120.2,460.3h-0.8V458h0.8V460.3L120.2,460.3z"/>
	<rect x="114.2" y="454.9" class="st4" width="8" height="8"/>
	<path class="st4" d="M100.5,465.6l3.3,1.3l0,3.5l3.5,0l1.3,3.3l3.2-1.4l2.4,2.5v-14.4h-0.8v-0.7h0.8v-0.8h-1.1V458h1.1v-12.9
		l-2.4,2.5l-3.2-1.4l-1.3,3.3l-3.5,0l0,3.5l-3.3,1.3l1.4,3.2l-2.5,2.4l2.5,2.4L100.5,465.6z M109.8,458h2.6v3.8h-0.9v-1.5h-1.4v-0.7
		h1.4v-0.8h-1.7V458z M108.2,461.8v-0.9h0.8v0.9H108.2L108.2,461.8z M108.2,460.3V458h0.8v2.3H108.2L108.2,460.3z"/>
	
		<rect x="106.2" y="455.3" transform="matrix(-1 -4.492641e-11 4.492641e-11 -1 220.3737 918.6116)" class="st4" width="8" height="8"/>
</g>
<g>
	<path class="st4" d="M144.7,464.5l1.9-2.9l-3-1.9l0.7-3.4l-3.5-0.6l-0.7-3.4l-3.4,0.8l-2-2.9l-2.8,2l-2.9-1.9l2.7,12.6l1-0.2
		l0.2,0.7l-1,0.2l0.2,0.8l0.7-0.2l0.1,0.7l-0.7,0.2l3.1,14.1l1.9-3l3.4,0.7l0.6-3.5l3.4-0.7l-0.8-3.4l2.9-2L144.7,464.5z
		 M136.2,462.8l-1.6,0.4l0.2,0.8l1.4-0.3l0.1,0.7l-1.4,0.3l0.3,1.4l-0.8,0.2l-0.8-3.7l2.5-0.5L136.2,462.8z M138.5,465.3l-0.8,0.2
		l-0.2-0.9l0.8-0.2L138.5,465.3L138.5,465.3z M138.2,463.9l-0.8,0.2l-0.5-2.3l0.8-0.2L138.2,463.9L138.2,463.9z"/>
	<rect x="131.9" y="459" transform="matrix(0.9771 -0.2128 0.2128 0.9771 -95.4288 39.5354)" class="st4" width="8" height="8"/>
	<path class="st4" d="M120.1,473.2l3.5,0.6l0.7,3.4l3.4-0.8l2,2.9l2.8-2l2.9,1.9l-3.1-14.1l-0.7,0.2l-0.1-0.7l0.7-0.2l-0.2-0.8
		l-1,0.2l-0.2-0.7l1-0.2l-2.7-12.6l-1.9,3l-3.4-0.7l-0.6,3.5l-3.4,0.7l0.8,3.4l-2.9,2l2,2.8l-1.9,2.9l3,1.9L120.1,473.2z
		 M127.6,463.9l2.5-0.5l0.8,3.7l-0.8,0.2l-0.3-1.4l-1.4,0.3l-0.1-0.7l1.4-0.3l-0.2-0.8l-1.6,0.4L127.6,463.9z M126.7,467.9l-0.2-0.9
		l0.8-0.2l0.2,0.9L126.7,467.9L126.7,467.9z M126.4,466.4l-0.5-2.3l0.8-0.2l0.5,2.3L126.4,466.4L126.4,466.4z"/>
	
		<rect x="124.2" y="461.1" transform="matrix(-0.9771 0.2128 -0.2128 -0.9771 352.4255 892.1418)" class="st4" width="8" height="8"/>
</g>
<g>
	<path class="st4" d="M164.7,467.8l1.9-2.9l-3-1.9l0.7-3.4l-3.5-0.6l-0.7-3.4l-3.4,0.8l-2-2.9l-2.8,2l-2.9-1.9l2.7,12.6l1-0.2
		l0.2,0.7l-1,0.2l0.2,0.8l0.7-0.2l0.1,0.7l-0.7,0.2l3.1,14.1l1.9-3l3.4,0.7l0.6-3.5l3.4-0.7l-0.8-3.4l2.9-2L164.7,467.8z M156.1,466
		l-1.6,0.4l0.2,0.8l1.4-0.3l0.1,0.7l-1.4,0.3l0.3,1.4l-0.8,0.2l-0.8-3.7l2.5-0.5L156.1,466z M158.4,468.6l-0.8,0.2l-0.2-0.9l0.8-0.2
		L158.4,468.6L158.4,468.6z M158.1,467.2l-0.8,0.2l-0.5-2.3l0.8-0.2L158.1,467.2L158.1,467.2z"/>
	<rect x="151.8" y="462.3" transform="matrix(0.9771 -0.2128 0.2128 0.9771 -95.6695 43.8518)" class="st4" width="8" height="8"/>
	<path class="st4" d="M140,476.5l3.5,0.6l0.7,3.4l3.4-0.8l2,2.9l2.8-2l2.9,1.9l-3.1-14.1l-0.7,0.2l-0.1-0.7l0.7-0.2l-0.2-0.8l-1,0.2
		l-0.2-0.7l1-0.2l-2.7-12.6l-1.9,3l-3.4-0.7l-0.6,3.5l-3.4,0.7l0.8,3.4l-2.9,2l2,2.8l-1.9,2.9l3,1.9L140,476.5z M147.5,467.1
		l2.5-0.5l0.8,3.7l-0.8,0.2l-0.3-1.4l-1.4,0.3l-0.1-0.7l1.4-0.3l-0.2-0.8l-1.6,0.4L147.5,467.1z M146.7,471.2l-0.2-0.9l0.8-0.2
		l0.2,0.9L146.7,471.2L146.7,471.2z M146.4,469.7l-0.5-2.3l0.8-0.2l0.5,2.3L146.4,469.7L146.4,469.7z"/>
	<rect x="144.1" y="464.3" transform="matrix(-0.9771 0.2128 -0.2128 -0.9771 392.52 894.377)" class="st4" width="8" height="8"/>
</g>
<g>
	<path class="st4" d="M183.3,471.3l1.9-2.9l-3-1.9l0.7-3.4l-3.5-0.6l-0.7-3.4l-3.4,0.8l-2-2.9l-2.8,2l-2.9-1.9l2.7,12.6l1-0.2
		l0.2,0.7l-1,0.2l0.2,0.8l0.7-0.2l0.1,0.7l-0.7,0.2L174,486l1.9-3l3.4,0.7l0.6-3.5l3.4-0.7l-0.8-3.4l2.9-2L183.3,471.3z
		 M174.8,469.6l-1.6,0.4l0.2,0.8l1.4-0.3l0.1,0.7l-1.4,0.3l0.3,1.4L173,473l-0.8-3.7l2.5-0.5L174.8,469.6z M177.1,472.1l-0.8,0.2
		l-0.2-0.9l0.8-0.2L177.1,472.1L177.1,472.1z M176.8,470.7l-0.8,0.2l-0.5-2.3l0.8-0.2L176.8,470.7L176.8,470.7z"/>
	<rect x="170.5" y="465.8" transform="matrix(0.9771 -0.2128 0.2128 0.9771 -95.9927 47.907)" class="st4" width="8" height="8"/>
	<path class="st4" d="M158.7,480l3.5,0.6l0.7,3.4l3.4-0.8l2,2.9l2.8-2l2.9,1.9l-3.1-14.1l-0.7,0.2l-0.1-0.7l0.7-0.2l-0.2-0.8l-1,0.2
		l-0.2-0.7l1-0.2l-2.7-12.6l-1.9,3l-3.4-0.7l-0.6,3.5l-3.4,0.7l0.8,3.4l-2.9,2l2,2.8l-1.9,2.9l3,1.9L158.7,480z M166.2,470.7
		l2.5-0.5l0.8,3.7l-0.8,0.2l-0.3-1.4l-1.4,0.3l-0.1-0.7l1.4-0.3l-0.2-0.8l-1.6,0.4L166.2,470.7z M165.3,474.7l-0.2-0.9l0.8-0.2
		l0.2,0.9L165.3,474.7L165.3,474.7z M165,473.2l-0.5-2.3l0.8-0.2l0.5,2.3L165,473.2L165,473.2z"/>
	
		<rect x="162.8" y="467.9" transform="matrix(-0.9771 0.2128 -0.2128 -0.9771 430.1871 897.3793)" class="st4" width="8" height="8"/>
</g>
<g>
	<path class="st4" d="M201.8,472.9l1.7-3l-3.1-1.7l0.4-3.5l-3.5-0.4l-0.9-3.4l-3.4,1l-2.1-2.8l-2.7,2.2l-3-1.7l3.5,12.4l1-0.3
		l0.2,0.7l-1,0.3l0.2,0.8l0.7-0.2l0.2,0.7l-0.7,0.2l3.9,13.8l1.7-3.1l3.5,0.4l0.4-3.5l3.4-0.9l-1-3.4l2.8-2.1L201.8,472.9z
		 M193.1,471.6l-1.6,0.5l0.2,0.8l1.3-0.4l0.2,0.7l-1.3,0.4l0.4,1.4l-0.8,0.2l-1-3.6l2.5-0.7L193.1,471.6z M195.6,474.1l-0.8,0.2
		l-0.2-0.8l0.8-0.2L195.6,474.1L195.6,474.1z M195.2,472.6l-0.8,0.2l-0.6-2.2l0.8-0.2L195.2,472.6L195.2,472.6z"/>
	<rect x="188.9" y="467.9" transform="matrix(0.9616 -0.2745 0.2745 0.9616 -122.1068 71.0515)" class="st4" width="8" height="8"/>
	<path class="st4" d="M177.7,483.1l3.5,0.4l0.9,3.4l3.4-1l2.1,2.8l2.7-2.2l3,1.7l-3.9-13.8l-0.7,0.2l-0.2-0.7l0.7-0.2l-0.2-0.8
		l-1,0.3l-0.2-0.7l1-0.3l-3.5-12.4l-1.7,3.1l-3.5-0.4l-0.4,3.5l-3.4,0.9l1,3.4l-2.8,2.1l2.2,2.7l-1.7,3l3.1,1.7L177.7,483.1z
		 M184.6,473.3l2.5-0.7l1,3.6l-0.8,0.2l-0.4-1.4l-1.3,0.4l-0.2-0.7l1.3-0.4l-0.2-0.8l-1.6,0.5L184.6,473.3z M184,477.4l-0.2-0.8
		l0.8-0.2l0.2,0.8L184,477.4L184,477.4z M183.6,475.9l-0.6-2.2l0.8-0.2l0.6,2.2L183.6,475.9L183.6,475.9z"/>
	
		<rect x="181.3" y="470.4" transform="matrix(-0.9616 0.2745 -0.2745 -0.9616 493.6676 879.7864)" class="st4" width="8" height="8"/>
</g>
<g>
	<path class="st4" d="M221.9,474.9l1.7-3l-3.1-1.7l0.4-3.5l-3.5-0.4l-0.9-3.4l-3.4,1l-2.1-2.8l-2.7,2.2l-3-1.7l3.5,12.4l1-0.3
		l0.2,0.7l-1,0.3l0.2,0.8l0.7-0.2l0.2,0.7l-0.7,0.2l3.9,13.8l1.7-3.1l3.5,0.4l0.4-3.5l3.4-0.9l-1-3.4l2.8-2.1L221.9,474.9z
		 M213.2,473.6l-1.6,0.5l0.2,0.8l1.3-0.4l0.2,0.7l-1.3,0.4l0.4,1.4l-0.8,0.2l-1-3.6l2.5-0.7L213.2,473.6z M215.7,476.1l-0.8,0.2
		l-0.2-0.8l0.8-0.2L215.7,476.1L215.7,476.1z M215.3,474.6l-0.8,0.2l-0.6-2.2l0.8-0.2L215.3,474.6L215.3,474.6z"/>
	<rect x="209" y="469.9" transform="matrix(0.9616 -0.2745 0.2745 0.9616 -121.8851 76.6436)" class="st4" width="8" height="8"/>
	<path class="st4" d="M197.8,485.1l3.5,0.4l0.9,3.4l3.4-1l2.1,2.8l2.7-2.2l3,1.7l-3.9-13.8l-0.7,0.2l-0.2-0.7l0.7-0.2l-0.2-0.8
		l-1,0.3l-0.2-0.7l1-0.3l-3.5-12.4l-1.7,3.1l-3.5-0.4l-0.4,3.5l-3.4,0.9l1,3.4l-2.8,2.1l2.2,2.7l-1.7,3l3.1,1.7L197.8,485.1z
		 M204.7,475.3l2.5-0.7l1,3.6l-0.8,0.2l-0.4-1.4l-1.3,0.4l-0.2-0.7l1.3-0.4l-0.2-0.8l-1.6,0.5L204.7,475.3z M204.1,479.4l-0.2-0.8
		l0.8-0.2l0.2,0.8L204.1,479.4L204.1,479.4z M203.7,477.9l-0.6-2.2l0.8-0.2l0.6,2.2L203.7,477.9L203.7,477.9z"/>
	
		<rect x="201.4" y="472.4" transform="matrix(-0.9616 0.2745 -0.2745 -0.9616 533.6354 878.2019)" class="st4" width="8" height="8"/>
</g>
<g>
	<path class="st4" d="M241.6,476.2l1.7-3l-3.1-1.7l0.4-3.5l-3.5-0.4l-0.9-3.4l-3.4,1l-2.1-2.8l-2.7,2.2l-3-1.7l3.5,12.4l1-0.3
		l0.2,0.7l-1,0.3l0.2,0.8l0.7-0.2l0.2,0.7l-0.7,0.2l3.9,13.8l1.7-3.1l3.5,0.4l0.4-3.5l3.4-0.9l-1-3.4l2.8-2.1L241.6,476.2z M233,475
		l-1.6,0.5l0.2,0.8l1.3-0.4l0.2,0.7l-1.3,0.4l0.4,1.4l-0.8,0.2l-1-3.6l2.5-0.7L233,475z M235.4,477.4l-0.8,0.2l-0.2-0.8l0.8-0.2
		L235.4,477.4L235.4,477.4z M235,476l-0.8,0.2l-0.6-2.2l0.8-0.2L235,476L235,476z"/>
	<rect x="228.7" y="471.2" transform="matrix(0.9616 -0.2745 0.2745 0.9616 -121.4952 82.1106)" class="st4" width="8" height="8"/>
	<path class="st4" d="M217.5,486.4l3.5,0.4l0.9,3.4l3.4-1l2.1,2.8l2.7-2.2l3,1.7l-3.9-13.8l-0.7,0.2l-0.2-0.7l0.7-0.2l-0.2-0.8
		l-1,0.3l-0.2-0.7l1-0.3l-3.5-12.4l-1.7,3.1l-3.5-0.4l-0.4,3.5l-3.4,0.9l1,3.4l-2.8,2.1l2.2,2.7l-1.7,3l3.1,1.7L217.5,486.4z
		 M224.4,476.6l2.5-0.7l1,3.6l-0.8,0.2l-0.4-1.4l-1.3,0.4l-0.2-0.7l1.3-0.4l-0.2-0.8l-1.6,0.5L224.4,476.6z M223.9,480.7l-0.2-0.8
		l0.8-0.2l0.2,0.8L223.9,480.7L223.9,480.7z M223.4,479.3l-0.6-2.2l0.8-0.2l0.6,2.2L223.4,479.3L223.4,479.3z"/>
	
		<rect x="221.1" y="473.8" transform="matrix(-0.9616 0.2745 -0.2745 -0.9616 572.7081 875.4149)" class="st4" width="8" height="8"/>
</g>
<g>
	<path class="st4" d="M260.1,475.3l1.5-3.1l-3.2-1.4l0.2-3.5l-3.5-0.1l-1.1-3.3l-3.3,1.2l-2.3-2.6l-2.6,2.4l-3.1-1.5l4.4,12.1l1-0.4
		l0.3,0.7l-1,0.4l0.3,0.8l0.7-0.3l0.2,0.7l-0.7,0.3l4.9,13.5l1.4-3.2l3.5,0.2l0.1-3.5l3.3-1.1l-1.2-3.3l2.6-2.3L260.1,475.3z
		 M251.4,474.6l-1.6,0.6l0.3,0.8l1.3-0.5l0.2,0.7l-1.3,0.5l0.5,1.4l-0.8,0.3l-1.3-3.5l2.4-0.9L251.4,474.6z M254,476.9l-0.8,0.3
		l-0.3-0.8l0.8-0.3L254,476.9L254,476.9z M253.5,475.5l-0.8,0.3l-0.8-2.2l0.8-0.3L253.5,475.5L253.5,475.5z"/>
	
		<rect x="247.1" y="470.9" transform="matrix(0.9409 -0.3388 0.3388 0.9409 -146.0406 113.1705)" class="st4" width="8" height="8"/>
	<path class="st4" d="M236.8,487.1l3.5,0.1l1.1,3.3l3.3-1.2l2.3,2.6l2.6-2.4l3.1,1.5l-4.9-13.5l-0.7,0.3l-0.2-0.7l0.7-0.3l-0.3-0.8
		l-1,0.4l-0.3-0.7l1-0.4l-4.4-12.1l-1.4,3.2l-3.5-0.2l-0.1,3.5l-3.3,1.1l1.2,3.3l-2.6,2.3l2.4,2.6l-1.5,3.1l3.2,1.4L236.8,487.1z
		 M243,476.8l2.4-0.9l1.3,3.5l-0.8,0.3l-0.5-1.4l-1.3,0.5l-0.2-0.7l1.3-0.5l-0.3-0.8l-1.6,0.6L243,476.8z M242.7,480.9l-0.3-0.8
		l0.8-0.3l0.3,0.8L242.7,480.9L242.7,480.9z M242.2,479.5l-0.8-2.2l0.8-0.3l0.8,2.2L242.2,479.5L242.2,479.5z"/>
	
		<rect x="239.8" y="473.9" transform="matrix(-0.9409 0.3388 -0.3388 -0.9409 634.9894 844.9909)" class="st4" width="8" height="8"/>
</g>
<g>
	<path class="st4" d="M280.3,475.8l1.5-3.1l-3.2-1.4l0.2-3.5l-3.5-0.1l-1.1-3.3l-3.3,1.2l-2.3-2.6l-2.6,2.4l-3.1-1.5l4.4,12.1l1-0.4
		l0.3,0.7l-1,0.4l0.3,0.8l0.7-0.3l0.2,0.7l-0.7,0.3l4.9,13.5l1.4-3.2l3.5,0.2l0.1-3.5l3.3-1.1l-1.2-3.3l2.6-2.3L280.3,475.8z
		 M271.6,475.2l-1.6,0.6l0.3,0.8l1.3-0.5l0.2,0.7l-1.3,0.5l0.5,1.4l-0.8,0.3l-1.3-3.5l2.4-0.9L271.6,475.2z M274.2,477.4l-0.8,0.3
		l-0.3-0.8l0.8-0.3L274.2,477.4L274.2,477.4z M273.7,476l-0.8,0.3l-0.8-2.2l0.8-0.3L273.7,476L273.7,476z"/>
	<rect x="267.3" y="471.4" transform="matrix(0.9409 -0.3388 0.3388 0.9409 -145.034 120.0403)" class="st4" width="8" height="8"/>
	<path class="st4" d="M256.9,487.6l3.5,0.1l1.1,3.3l3.3-1.2l2.3,2.6l2.6-2.4l3.1,1.5l-4.9-13.5l-0.7,0.3l-0.2-0.7l0.7-0.3l-0.3-0.8
		l-1,0.4l-0.3-0.7l1-0.4l-4.4-12.1l-1.4,3.2l-3.5-0.2l-0.1,3.5l-3.3,1.1l1.2,3.3l-2.6,2.3l2.4,2.6l-1.5,3.1l3.2,1.4L256.9,487.6z
		 M263.2,477.4l2.4-0.9l1.3,3.5l-0.8,0.3l-0.5-1.4l-1.3,0.5l-0.2-0.7l1.3-0.5l-0.3-0.8l-1.6,0.6L263.2,477.4z M262.9,481.5l-0.3-0.8
		l0.8-0.3l0.3,0.8L262.9,481.5L262.9,481.5z M262.4,480.1l-0.8-2.2l0.8-0.3l0.8,2.2L262.4,480.1L262.4,480.1z"/>
	
		<rect x="259.9" y="474.5" transform="matrix(-0.9409 0.3388 -0.3388 -0.9409 674.3416 839.2247)" class="st4" width="8" height="8"/>
</g>
<g>
	<path class="st4" d="M299,476l1.5-3.1l-3.2-1.4l0.2-3.5l-3.5-0.1l-1.1-3.3l-3.3,1.2l-2.3-2.6l-2.6,2.4l-3.1-1.5l4.4,12.1l1-0.4
		l0.3,0.7l-1,0.4l0.3,0.8l0.7-0.3l0.2,0.7l-0.7,0.3l4.9,13.5l1.4-3.2l3.5,0.2l0.1-3.5l3.3-1.1l-1.2-3.3l2.6-2.3L299,476z
		 M290.3,475.3l-1.6,0.6l0.3,0.8l1.3-0.5l0.2,0.7l-1.3,0.5l0.5,1.4l-0.8,0.3l-1.3-3.5l2.4-0.9L290.3,475.3z M292.9,477.6l-0.8,0.3
		l-0.3-0.8l0.8-0.3L292.9,477.6L292.9,477.6z M292.4,476.2l-0.8,0.3l-0.8-2.2l0.8-0.3L292.4,476.2L292.4,476.2z"/>
	<rect x="286" y="471.6" transform="matrix(0.9409 -0.3388 0.3388 0.9409 -143.9821 126.3914)" class="st4" width="8" height="8"/>
	<path class="st4" d="M275.7,487.8l3.5,0.1l1.1,3.3l3.3-1.2l2.3,2.6l2.6-2.4l3.1,1.5l-4.9-13.5l-0.7,0.3l-0.2-0.7l0.7-0.3l-0.3-0.8
		l-1,0.4l-0.3-0.7l1-0.4l-4.4-12.1l-1.4,3.2l-3.5-0.2l-0.1,3.5l-3.3,1.1l1.2,3.3l-2.6,2.3l2.4,2.6l-1.5,3.1l3.2,1.4L275.7,487.8z
		 M281.9,477.5l2.4-0.9l1.3,3.5l-0.8,0.3l-0.5-1.4l-1.3,0.5l-0.2-0.7l1.3-0.5l-0.3-0.8l-1.6,0.6L281.9,477.5z M281.6,481.6l-0.3-0.8
		l0.8-0.3l0.3,0.8L281.6,481.6L281.6,481.6z M281.1,480.2l-0.8-2.2l0.8-0.3l0.8,2.2L281.1,480.2L281.1,480.2z"/>
	
		<rect x="278.6" y="474.6" transform="matrix(-0.9409 0.3388 -0.3388 -0.9409 710.7224 833.1992)" class="st4" width="8" height="8"/>
</g>
<g>
	<path class="st4" d="M317.3,475.1l1.3-3.3l-3.3-1.2l-0.1-3.5l-3.5,0.2l-1.4-3.2l-3.2,1.5l-2.5-2.4l-2.4,2.6l-3.3-1.3l5.4,11.7
		l1-0.4l0.3,0.7l-1,0.4l0.3,0.7l0.7-0.3l0.3,0.6l-0.7,0.3l6,13.1l1.2-3.3l3.5-0.1l-0.2-3.5l3.2-1.4l-1.5-3.2l2.4-2.5L317.3,475.1z
		 M308.6,475.1l-1.5,0.7l0.3,0.7l1.3-0.6l0.3,0.6l-1.3,0.6l0.6,1.3l-0.8,0.4l-1.6-3.4l2.3-1.1L308.6,475.1z M311.4,477.2l-0.8,0.4
		l-0.4-0.8l0.8-0.4L311.4,477.2L311.4,477.2z M310.8,475.8l-0.8,0.4l-1-2.1l0.8-0.4L310.8,475.8L310.8,475.8z"/>
	
		<rect x="304.4" y="471.4" transform="matrix(0.9095 -0.4158 0.4158 0.9095 -169.7498 171.2575)" class="st4" width="8" height="8"/>
	<path class="st4" d="M295.1,488.8l3.5-0.2l1.4,3.2l3.2-1.5l2.5,2.4l2.4-2.6l3.3,1.3l-6-13.1l-0.7,0.3l-0.3-0.6l0.7-0.3l-0.3-0.7
		l-1,0.4l-0.3-0.7l1-0.4l-5.4-11.7l-1.2,3.3l-3.5,0.1l0.2,3.5l-3.2,1.4l1.5,3.2l-2.4,2.5l2.6,2.4l-1.3,3.3l3.3,1.2L295.1,488.8z
		 M300.4,478l2.3-1.1l1.6,3.4l-0.8,0.4l-0.6-1.3l-1.3,0.6l-0.3-0.6l1.3-0.6l-0.3-0.7l-1.5,0.7L300.4,478z M300.5,482.2l-0.4-0.8
		l0.8-0.4l0.4,0.8L300.5,482.2L300.5,482.2z M299.8,480.8l-1-2.1l0.8-0.4l1,2.1L299.8,480.8L299.8,480.8z"/>
	
		<rect x="297.3" y="475.1" transform="matrix(-0.9095 0.4158 -0.4158 -0.9095 774.443 789.4871)" class="st4" width="8" height="8"/>
</g>
<g>
	<path class="st4" d="M337.5,474l1.3-3.3l-3.3-1.2l-0.1-3.5l-3.5,0.2l-1.4-3.2l-3.2,1.5l-2.5-2.4l-2.4,2.6l-3.3-1.3l5.4,11.7l1-0.4
		l0.3,0.7l-1,0.4l0.3,0.7l0.7-0.3l0.3,0.6l-0.7,0.3l6,13.1l1.2-3.3l3.5-0.1l-0.2-3.5l3.2-1.4l-1.5-3.2l2.4-2.5L337.5,474z
		 M328.8,474.1l-1.5,0.7l0.3,0.7l1.3-0.6l0.3,0.6l-1.3,0.6l0.6,1.3l-0.8,0.4l-1.6-3.4l2.3-1.1L328.8,474.1z M331.6,476.1l-0.8,0.4
		l-0.4-0.8l0.8-0.4L331.6,476.1L331.6,476.1z M330.9,474.8l-0.8,0.4l-1-2.1l0.8-0.4L330.9,474.8L330.9,474.8z"/>
	
		<rect x="324.5" y="470.4" transform="matrix(0.9095 -0.4158 0.4158 0.9095 -167.4925 179.5491)" class="st4" width="8" height="8"/>
	<path class="st4" d="M315.2,487.7l3.5-0.2l1.4,3.2l3.2-1.5l2.5,2.4l2.4-2.6l3.3,1.3l-6-13.1l-0.7,0.3l-0.3-0.6l0.7-0.3l-0.3-0.7
		l-1,0.4l-0.3-0.7l1-0.4l-5.4-11.7l-1.2,3.3l-3.5,0.1l0.2,3.5l-3.2,1.4l1.5,3.2l-2.4,2.5l2.6,2.4l-1.3,3.3l3.3,1.2L315.2,487.7z
		 M320.6,477l2.3-1.1l1.6,3.4l-0.8,0.4l-0.6-1.3l-1.3,0.6l-0.3-0.6l1.3-0.6l-0.3-0.7l-1.5,0.7L320.6,477z M320.6,481.1l-0.4-0.8
		l0.8-0.4l0.4,0.8L320.6,481.1L320.6,481.1z M320,479.8l-1-2.1l0.8-0.4l1,2.1L320,479.8L320,479.8z"/>
	<rect x="317.4" y="474" transform="matrix(-0.9095 0.4158 -0.4158 -0.9095 812.5212 779.1207)" class="st4" width="8" height="8"/>
</g>
<g>
	<path class="st4" d="M356.1,471.5l1.3-3.3l-3.3-1.2l-0.1-3.5l-3.5,0.2l-1.4-3.2l-3.2,1.5l-2.5-2.4l-2.4,2.6l-3.3-1.3l5.4,11.7
		l1-0.4l0.3,0.7l-1,0.4l0.3,0.7l0.7-0.3l0.3,0.6l-0.7,0.3l6,13.1l1.2-3.3l3.5-0.1l-0.2-3.5l3.2-1.4l-1.5-3.2l2.4-2.5L356.1,471.5z
		 M347.4,471.6l-1.5,0.7l0.3,0.7l1.3-0.6l0.3,0.6l-1.3,0.6l0.6,1.3l-0.8,0.4l-1.6-3.4l2.3-1.1L347.4,471.6z M350.1,473.6l-0.8,0.4
		l-0.4-0.8l0.8-0.4L350.1,473.6L350.1,473.6z M349.5,472.3l-0.8,0.4l-1-2.1l0.8-0.4L349.5,472.3L349.5,472.3z"/>
	<rect x="343.1" y="467.9" transform="matrix(0.9095 -0.4158 0.4158 0.9095 -164.7811 187.046)" class="st4" width="8" height="8"/>
	<path class="st4" d="M333.8,485.3l3.5-0.2l1.4,3.2l3.2-1.5l2.5,2.4l2.4-2.6l3.3,1.3l-6-13.1l-0.7,0.3l-0.3-0.6l0.7-0.3l-0.3-0.7
		l-1,0.4l-0.3-0.7l1-0.4l-5.4-11.7l-1.2,3.3l-3.5,0.1l0.2,3.5l-3.2,1.4l1.5,3.2l-2.4,2.5l2.6,2.4l-1.3,3.3l3.3,1.2L333.8,485.3z
		 M339.2,474.5l2.3-1.1l1.6,3.4l-0.8,0.4l-0.6-1.3l-1.3,0.6l-0.3-0.6l1.3-0.6l-0.3-0.7l-1.5,0.7L339.2,474.5z M339.2,478.6l-0.4-0.8
		l0.8-0.4l0.4,0.8L339.2,478.6L339.2,478.6z M338.6,477.3l-1-2.1l0.8-0.4l1,2.1L338.6,477.3L338.6,477.3z"/>
	<rect x="336" y="471.6" transform="matrix(-0.9095 0.4158 -0.4158 -0.9095 846.9495 766.6687)" class="st4" width="8" height="8"/>
</g>
<g>
	<path class="st4" d="M374.1,466.6l0.9-3.4l-3.4-0.8l-0.4-3.5l-3.5,0.5l-1.7-3l-3,1.8l-2.8-2.1l-2.1,2.8l-3.4-0.9l6.6,11.1l0.9-0.5
		l0.4,0.7l-0.9,0.5l0.4,0.7l0.7-0.4l0.4,0.6l-0.7,0.4l7.3,12.4l0.8-3.4l3.5-0.4l-0.5-3.5l3-1.7l-1.8-3l2.1-2.8L374.1,466.6z
		 M365.4,467.6l-1.5,0.9l0.4,0.7l1.2-0.7l0.4,0.6l-1.2,0.7l0.8,1.3l-0.7,0.4l-1.9-3.2l2.2-1.3L365.4,467.6z M368.4,469.3l-0.7,0.4
		l-0.4-0.8l0.7-0.4L368.4,469.3L368.4,469.3z M367.6,468l-0.7,0.4l-1.2-2l0.7-0.4L367.6,468L367.6,468z"/>
	<rect x="361.2" y="463.9" transform="matrix(0.8606 -0.5092 0.5092 0.8606 -187.3424 251.167)" class="st4" width="8" height="8"/>
	<path class="st4" d="M353.4,482.6l3.5-0.5l1.7,3l3-1.8l2.8,2.1l2.1-2.8l3.4,0.9l-7.3-12.4l-0.7,0.4l-0.4-0.6l0.7-0.4l-0.4-0.7
		l-0.9,0.5l-0.4-0.7l0.9-0.5l-6.6-11.1l-0.8,3.4l-3.5,0.4l0.5,3.5l-3,1.7l1.8,3l-2.1,2.8l2.8,2.1l-0.9,3.4l3.4,0.8L353.4,482.6z
		 M357.6,471.3l2.2-1.3l1.9,3.2l-0.7,0.4l-0.8-1.3l-1.2,0.7l-0.4-0.6l1.2-0.7l-0.4-0.7L358,472L357.6,471.3z M358.1,475.4l-0.4-0.8
		l0.7-0.4l0.4,0.8L358.1,475.4L358.1,475.4z M357.3,474.1l-1.2-2l0.7-0.4l1.2,2L357.3,474.1L357.3,474.1z"/>
	
		<rect x="354.6" y="468.3" transform="matrix(-0.8606 0.5092 -0.5092 -0.8606 907.5895 696.1122)" class="st4" width="8" height="8"/>
</g>
<g>
	<path class="st4" d="M392.1,463.2l0.6-3.4l-3.5-0.5l-0.7-3.4l-3.4,0.8l-2-2.9l-2.8,2.1l-2.9-1.9l-1.8,3l-3.4-0.6l7.5,10.5l0.9-0.6
		l0.4,0.6l-0.9,0.6l0.5,0.7l0.6-0.4l0.4,0.6l-0.6,0.4l8.3,11.7l0.5-3.5l3.4-0.7l-0.8-3.4l2.9-2l-2.1-2.8l1.9-2.9L392.1,463.2z
		 M383.6,464.9l-1.4,1l0.5,0.7l1.1-0.8l0.4,0.6l-1.1,0.8l0.9,1.2l-0.7,0.5l-2.2-3.1l2.1-1.5L383.6,464.9z M386.7,466.4l-0.7,0.5
		l-0.5-0.7l0.7-0.5L386.7,466.4L386.7,466.4z M385.8,465.2l-0.7,0.5l-1.3-1.9l0.7-0.5L385.8,465.2L385.8,465.2z"/>
	
		<rect x="379.4" y="461.2" transform="matrix(0.8154 -0.5789 0.5789 0.8154 -198.5513 307.8477)" class="st4" width="8" height="8"/>
	<path class="st4" d="M372.8,480.9l3.4-0.8l2,2.9l2.8-2.1l2.9,1.9l1.8-3l3.4,0.6l-8.3-11.7l-0.6,0.4l-0.4-0.6l0.6-0.4l-0.5-0.7
		l-0.9,0.6l-0.4-0.6l0.9-0.6l-7.5-10.5l-0.5,3.5l-3.4,0.7l0.8,3.4l-2.9,2l2.1,2.8l-1.9,2.9l3,1.8l-0.6,3.4l3.5,0.5L372.8,480.9z
		 M376.1,469.3l2.1-1.5l2.2,3.1l-0.7,0.5l-0.9-1.2l-1.1,0.8l-0.4-0.6l1.1-0.8l-0.5-0.7l-1.4,1L376.1,469.3z M376.9,473.3l-0.5-0.7
		l0.7-0.5l0.5,0.7L376.9,473.3L376.9,473.3z M376,472.1l-1.3-1.9l0.7-0.5l1.3,1.9L376,472.1L376,472.1z"/>
	
		<rect x="373.1" y="466.2" transform="matrix(-0.8154 0.5789 -0.5789 -0.8154 956.7819 635.1911)" class="st4" width="8" height="8"/>
</g>
<g>
	<path class="st4" d="M411.7,458.4l0.6-3.4l-3.5-0.5l-0.7-3.4l-3.4,0.8l-2-2.9L400,451l-2.9-1.9l-1.8,3l-3.4-0.6l7.5,10.5l0.9-0.6
		l0.4,0.6l-0.9,0.6l0.5,0.7l0.6-0.4l0.4,0.6l-0.6,0.4l8.3,11.7l0.5-3.5l3.4-0.7L412,468l2.9-2l-2.1-2.8l1.9-2.9L411.7,458.4z
		 M403.2,460.1l-1.4,1l0.5,0.7l1.1-0.8l0.4,0.6l-1.1,0.8l0.9,1.2l-0.7,0.5l-2.2-3.1l2.1-1.5L403.2,460.1z M406.3,461.6l-0.7,0.5
		l-0.5-0.7l0.7-0.5L406.3,461.6L406.3,461.6z M405.4,460.4l-0.7,0.5l-1.3-1.9l0.7-0.5L405.4,460.4L405.4,460.4z"/>
	<rect x="399" y="456.4" transform="matrix(0.8154 -0.5789 0.5789 0.8154 -192.151 318.3175)" class="st4" width="8" height="8"/>
	<path class="st4" d="M392.5,476.1l3.4-0.8l2,2.9l2.8-2.1l2.9,1.9l1.8-3l3.4,0.6l-8.3-11.7l-0.6,0.4l-0.4-0.6l0.6-0.4l-0.5-0.7
		l-0.9,0.6l-0.4-0.6l0.9-0.6l-7.5-10.5l-0.5,3.5l-3.4,0.7l0.8,3.4l-2.9,2l2.1,2.8l-1.9,2.9l3,1.8l-0.6,3.4l3.5,0.5L392.5,476.1z
		 M395.7,464.5l2.1-1.5l2.2,3.1l-0.7,0.5l-0.9-1.2l-1.1,0.8l-0.4-0.6l1.1-0.8l-0.5-0.7l-1.4,1L395.7,464.5z M396.5,468.5l-0.5-0.7
		l0.7-0.5l0.5,0.7L396.5,468.5L396.5,468.5z M395.6,467.3l-1.3-1.9l0.7-0.5l1.3,1.9L395.6,467.3L395.6,467.3z"/>
	
		<rect x="392.7" y="461.4" transform="matrix(-0.8154 0.5789 -0.5789 -0.8154 989.613 615.1212)" class="st4" width="8" height="8"/>
</g>
<g>
	<path class="st4" d="M429.5,452.5l0.6-3.4l-3.5-0.5l-0.7-3.4l-3.4,0.8l-2-2.9l-2.8,2.1l-2.9-1.9l-1.8,3l-3.4-0.6l7.5,10.5l0.9-0.6
		l0.4,0.6l-0.9,0.6l0.5,0.7l0.6-0.4l0.4,0.6l-0.6,0.4l8.3,11.7l0.5-3.5l3.4-0.7l-0.8-3.4l2.9-2l-2.1-2.8l1.9-2.9L429.5,452.5z
		 M421,454.2l-1.4,1l0.5,0.7l1.1-0.8l0.4,0.6l-1.1,0.8l0.9,1.2l-0.7,0.5l-2.2-3.1l2.1-1.5L421,454.2z M424.1,455.7l-0.7,0.5
		l-0.5-0.7l0.7-0.5L424.1,455.7L424.1,455.7z M423.2,454.5l-0.7,0.5l-1.3-1.9l0.7-0.5L423.2,454.5L423.2,454.5z"/>
	
		<rect x="416.8" y="450.5" transform="matrix(0.8154 -0.5789 0.5789 0.8154 -185.4448 327.5165)" class="st4" width="8" height="8"/>
	<path class="st4" d="M410.2,470.1l3.4-0.8l2,2.9l2.8-2.1l2.9,1.9l1.8-3l3.4,0.6l-8.3-11.7l-0.6,0.4l-0.4-0.6l0.6-0.4l-0.5-0.7
		l-0.9,0.6l-0.4-0.6l0.9-0.6l-7.5-10.5L409,449l-3.4,0.7l0.8,3.4l-2.9,2l2.1,2.8l-1.9,2.9l3,1.8l-0.6,3.4l3.5,0.5L410.2,470.1z
		 M413.5,458.6l2.1-1.5l2.2,3.1l-0.7,0.5l-0.9-1.2l-1.1,0.8l-0.4-0.6l1.1-0.8l-0.5-0.7l-1.4,1L413.5,458.6z M414.3,462.6l-0.5-0.7
		l0.7-0.5l0.5,0.7L414.3,462.6L414.3,462.6z M413.4,461.4l-1.3-1.9l0.7-0.5l1.3,1.9L413.4,461.4L413.4,461.4z"/>
	
		<rect x="410.5" y="455.5" transform="matrix(-0.8154 0.5789 -0.5789 -0.8154 1018.459 594.092)" class="st4" width="8" height="8"/>
</g>
<g>
	<path class="st4" d="M444.7,443.4l0.6-3.4l-3.5-0.5l-0.7-3.4l-3.4,0.8l-2-2.9l-2.8,2.1l-2.9-1.9l-1.8,3l-3.4-0.6l7.5,10.5l0.9-0.6
		l0.4,0.6l-0.9,0.6l0.5,0.7l0.6-0.4l0.4,0.6l-0.6,0.4l8.3,11.7l0.5-3.5l3.4-0.7L445,453l2.9-2l-2.1-2.8l1.9-2.9L444.7,443.4z
		 M436.2,445.1l-1.4,1l0.5,0.7l1.1-0.8l0.4,0.6l-1.1,0.8l0.9,1.2l-0.7,0.5l-2.2-3.1l2.1-1.5L436.2,445.1z M439.3,446.6l-0.7,0.5
		l-0.5-0.7l0.7-0.5L439.3,446.6L439.3,446.6z M438.4,445.4l-0.7,0.5l-1.3-1.9l0.7-0.5L438.4,445.4L438.4,445.4z"/>
	<rect x="432" y="441.5" transform="matrix(0.8154 -0.5789 0.5789 0.8154 -177.3951 334.6258)" class="st4" width="8" height="8"/>
	<path class="st4" d="M425.4,461.1l3.4-0.8l2,2.9l2.8-2.1l2.9,1.9l1.8-3l3.4,0.6l-8.3-11.7l-0.6,0.4l-0.4-0.6l0.6-0.4l-0.5-0.7
		l-0.9,0.6l-0.4-0.6l0.9-0.6l-7.5-10.5l-0.5,3.5l-3.4,0.7l0.8,3.4l-2.9,2l2.1,2.8l-1.9,2.9l3,1.8l-0.6,3.4l3.5,0.5L425.4,461.1z
		 M428.6,449.5l2.1-1.5l2.2,3.1l-0.7,0.5l-0.9-1.2l-1.1,0.8l-0.4-0.6l1.1-0.8l-0.5-0.7l-1.4,1L428.6,449.5z M429.5,453.6l-0.5-0.7
		l0.7-0.5l0.5,0.7L429.5,453.6L429.5,453.6z M428.6,452.3l-1.3-1.9l0.7-0.5l1.3,1.9L428.6,452.3L428.6,452.3z"/>
	
		<rect x="425.7" y="446.4" transform="matrix(-0.8154 0.5789 -0.5789 -0.8154 1040.7524 568.8499)" class="st4" width="8" height="8"/>
</g>
<g>
	<path class="st4" d="M462.7,434.5l0.6-3.4l-3.5-0.5l-0.7-3.4l-3.4,0.8l-2-2.9l-2.8,2.1l-2.9-1.9l-1.8,3l-3.4-0.6l7.5,10.5l0.9-0.6
		l0.4,0.6l-0.9,0.6l0.5,0.7l0.6-0.4l0.4,0.6l-0.6,0.4l8.3,11.7l0.5-3.5l3.4-0.7l-0.8-3.4l2.9-2l-2.1-2.8l1.9-2.9L462.7,434.5z
		 M454.2,436.2l-1.4,1l0.5,0.7l1.1-0.8l0.4,0.6l-1.1,0.8l0.9,1.2l-0.7,0.5l-2.2-3.1l2.1-1.5L454.2,436.2z M457.3,437.7l-0.7,0.5
		l-0.5-0.7l0.7-0.5L457.3,437.7L457.3,437.7z M456.4,436.4l-0.7,0.5l-1.3-1.9l0.7-0.5L456.4,436.4L456.4,436.4z"/>
	<rect x="450" y="432.5" transform="matrix(0.8154 -0.5789 0.5789 0.8154 -168.8889 343.418)" class="st4" width="8" height="8"/>
	<path class="st4" d="M443.4,452.1l3.4-0.8l2,2.9l2.8-2.1l2.9,1.9l1.8-3l3.4,0.6l-8.3-11.7l-0.6,0.4l-0.4-0.6l0.6-0.4l-0.5-0.7
		l-0.9,0.6l-0.4-0.6l0.9-0.6l-7.5-10.5l-0.5,3.5l-3.4,0.7l0.8,3.4l-2.9,2l2.1,2.8l-1.9,2.9l3,1.8l-0.6,3.4l3.5,0.5L443.4,452.1z
		 M446.7,440.6l2.1-1.5l2.2,3.1l-0.7,0.5l-0.9-1.2l-1.1,0.8l-0.4-0.6l1.1-0.8l-0.5-0.7l-1.4,1L446.7,440.6z M447.5,444.6l-0.5-0.7
		l0.7-0.5l0.5,0.7L447.5,444.6L447.5,444.6z M446.6,443.4l-1.3-1.9l0.7-0.5l1.3,1.9L446.6,443.4L446.6,443.4z"/>
	
		<rect x="443.7" y="437.4" transform="matrix(-0.8154 0.5789 -0.5789 -0.8154 1068.323 542.1761)" class="st4" width="8" height="8"/>
</g>
</svg>
