<svg xmlns="http://www.w3.org/2000/svg" width="606.45" height="229.8" viewBox="0 0 606.45 229.8"><rect width="606.45" height="229.8" rx="20"/><path d="M76.59,238.05a14,14,0,1,0,19.5,3.42A14,14,0,0,0,76.59,238.05Zm13,8a6,6,0,1,1-8.38-1.47A6,6,0,0,1,89.56,246.06Z" transform="translate(0 -154.6)" fill="#7fe4ff" opacity="0.3"/><path d="M121.83,239.73a14,14,0,1,0,19.8.08A14,14,0,0,0,121.83,239.73Zm14.1,14.21a6,6,0,1,1,0-8.51A6,6,0,0,1,135.93,253.94Z" transform="translate(0 -154.6)" fill="#7fe4ff" opacity="0.3"/><path d="M146.2,235.27a21.12,21.12,0,0,0-3.88-3L143.7,230a23,23,0,0,0-6.95-2.81l-.58,2.57a20.52,20.52,0,0,0-7.73-.23l-.42-2.6a22.77,22.77,0,0,0-7.11,2.38l1.22,2.31a20.76,20.76,0,0,0-4.83,3.56l-1.84-1.86a23,23,0,0,0-4.4,6.08l2.36,1.17a20.37,20.37,0,0,0-2.08,7.45l-2.63-.21a23.47,23.47,0,0,0,.61,7.47l2.57-.64a20.1,20.1,0,0,0,3.26,7L113,263.18a23.25,23.25,0,0,0,5.32,5.28l1.54-2.15a20.3,20.3,0,0,0,7,3.21l-.62,2.56a22.9,22.9,0,0,0,7.47.55l-.23-2.61a20.36,20.36,0,0,0,7.44-2.14l1.19,2.34a23,23,0,0,0,5.78-4.19l.25-.26-1.88-1.83a20.08,20.08,0,0,0,4.27-6.46l2.43,1a22.85,22.85,0,0,0,1.69-7.3l-2.63-.17a20.46,20.46,0,0,0-1-7.68l2.51-.81a23,23,0,0,0-3.46-6.66l-2.11,1.58A22.12,22.12,0,0,0,146.2,235.27ZM142.9,261a15.91,15.91,0,1,1,.08-22.5A15.91,15.91,0,0,1,142.9,261Z" transform="translate(0 -154.6)" fill="#fff"/><path d="M104.49,254.26a20.26,20.26,0,0,0,.35-7.72l2.61-.39a22.52,22.52,0,0,0-2.29-7.14l-2.35,1.2a19.21,19.21,0,0,0-1.45-2.45,20.23,20.23,0,0,0-3.31-3.64l1.74-2a23,23,0,0,0-6.38-3.95l-1,2.44a20.81,20.81,0,0,0-7.59-1.53l0-2.64a23.24,23.24,0,0,0-7.41,1.15l.82,2.49a20.79,20.79,0,0,0-5.37,2.69l-1.5-2.14A23,23,0,0,0,66,235.89l2.13,1.56a20.33,20.33,0,0,0-3.31,7l-2.55-.65a23.43,23.43,0,0,0-.66,7.46l2.64-.19a20.23,20.23,0,0,0,2,7.46L64,259.69a22.74,22.74,0,0,0,1.82,3.07,23.67,23.67,0,0,0,2.53,3l1.87-1.86a20.36,20.36,0,0,0,6.4,4.35l-1,2.42a22.83,22.83,0,0,0,7.27,1.8l.21-2.61a20.41,20.41,0,0,0,7.7-.86l.78,2.51a23.12,23.12,0,0,0,6.4-3.15l.3-.21L96.64,266a20.53,20.53,0,0,0,5.3-5.64l2.22,1.39a23.11,23.11,0,0,0,2.9-6.91Zm-10.65,8.35a16,16,0,1,1,3.9-22.3A16,16,0,0,1,93.84,262.61Z" transform="translate(0 -154.6)" fill="#fff"/><path d="M26.66,250c0-12.63,7.37-20.36,17.6-20.36A14.75,14.75,0,0,1,55,234.42l-2.88,3.17a10.53,10.53,0,0,0-7.9-3.53c-7.48,0-12.39,6.05-12.39,15.81s4.91,16,12.39,16c3.59,0,6.35-1.56,8.8-4.31l2.87,3a15.17,15.17,0,0,1-12.15,5.69C34.08,270.34,26.66,262.8,26.66,250Z" transform="translate(0 -154.6)" fill="#fff"/><path d="M160.63,230.35H172.9c8,0,13.77,2.88,13.77,11.08,0,7.84-5.81,11.61-13.77,11.61h-7.18v16.58h-5.09ZM172.18,249c6.11,0,9.46-2.52,9.46-7.54s-3.35-7-9.46-7h-6.46V249Zm3.65.06,12,20.59h-5.68l-10.24-18Z" transform="translate(0 -154.6)" fill="#fff"/><path d="M195.83,230.35h9.7c11.79,0,18.19,7,18.19,19.46s-6.4,19.81-18,19.81h-9.93Zm9.34,35.14c8.92,0,13.35-5.75,13.35-15.68s-4.43-15.33-13.35-15.33h-4.31v31Z" transform="translate(0 -154.6)" fill="#fff"/><path d="M232.22,265.37H242V234.6h-9.76v-4.25h24.55v4.25H247v30.77h9.76v4.25H232.22Z" transform="translate(0 -154.6)" fill="#fff"/><path d="M267.36,230.35h5.51L285.44,255l3.77,8.15h.12c-.18-3.9-.66-8.32-.66-12.46V230.35h4.79v39.27H288L275.38,245l-3.77-8.14h-.12c.18,4,.66,8.2.66,12.27v20.53h-4.79Z" transform="translate(0 -154.6)" fill="#fff"/><path d="M313.46,230.35h5.74l13.23,39.27h-5.38l-6.77-21.91c-1.37-4.37-2.69-8.68-3.89-13.23h-.24c-1.26,4.55-2.51,8.86-3.89,13.23l-6.88,21.91h-5.15Zm-6.23,23.29h18v4.07h-18Z" transform="translate(0 -154.6)" fill="#fff"/><path d="M349.74,234.6h-13v-4.25h31v4.25h-13v35h-5Z" transform="translate(0 -154.6)" fill="#fff"/><path d="M375.9,265.37h9.75V234.6H375.9v-4.25h24.54v4.25h-9.76v30.77h9.76v4.25H375.9Z" transform="translate(0 -154.6)" fill="#fff"/><path d="M409,249.81c0-12.69,6.22-20.18,15.08-20.18s15.09,7.49,15.09,20.18c0,12.87-6.23,20.53-15.09,20.53S409,262.68,409,249.81Zm25,0c0-9.88-3.95-15.75-9.88-15.75s-9.87,5.87-9.87,15.75c0,10.05,4,16.1,9.87,16.1S434,259.86,434,249.81Z" transform="translate(0 -154.6)" fill="#fff"/><path d="M447,230.35h5.51L465,255l3.77,8.15h.12c-.18-3.9-.66-8.32-.66-12.46V230.35h4.79v39.27h-5.51L455,245l-3.77-8.14h-.12c.18,4,.66,8.2.66,12.27v20.53H447Z" transform="translate(0 -154.6)" fill="#fff"/><path d="M140.63,358.78l13.52-9.73a5.88,5.88,0,0,1,7.47.43l12.14,11.21a5.78,5.78,0,0,0,6.22,1.13,5.86,5.86,0,0,0,3.73-5.13l3.8-57.61a5.87,5.87,0,0,0-5.48-6.24h0l-40.6-2.35a6,6,0,0,0-6.3,5.56l-3.8,57.61a5.74,5.74,0,0,0,3,5.52,5.82,5.82,0,0,0,6.32-.39" transform="translate(0 -154.6)" fill="#f0393c" fill-rule="evenodd"/><path d="M231.34,362.58,244.19,352a5.9,5.9,0,0,1,7.5-.06l12.89,10.35a6,6,0,0,0,9.67-4.66L274.13,300a5.87,5.87,0,0,0-5.9-5.84h0l-40.73.36a6,6,0,0,0-5.91,6l.1,57.65a5.76,5.76,0,0,0,3.4,5.3,5.82,5.82,0,0,0,6.28-.82" transform="translate(0 -154.6)" fill="#f9b317" fill-rule="evenodd"/><path d="M50.34,350l14.08-8.85a5.85,5.85,0,0,1,7.42.91l11.37,12a5.78,5.78,0,0,0,6.12,1.52,5.87,5.87,0,0,0,4-4.89l7.48-57.36a5.87,5.87,0,0,0-5.06-6.59h0l-40.3-4.95a6,6,0,0,0-6.62,5.15l-7.49,57.36a5.87,5.87,0,0,0,9,5.71" transform="translate(0 -154.6)" fill="#43bb4e" fill-rule="evenodd"/><path d="M570.59,321.72a10.92,10.92,0,0,1,8.32,2.47.8.8,0,0,0,.9.1.82.82,0,0,0,.42-.81,10.87,10.87,0,0,1,2.54-8.29.8.8,0,0,0-.71-1.31,10.9,10.9,0,0,1-8.31-2.48.8.8,0,0,0-.9-.09.78.78,0,0,0-.42.8,11,11,0,0,1-2.54,8.3.77.77,0,0,0-.1.89.78.78,0,0,0,.8.42" transform="translate(0 -154.6)" fill="#5b7fc9" fill-rule="evenodd"/><path d="M580.64,319.08q-5.17,2.15-8.62-2.56a11,11,0,0,1-2.13,3.89.77.77,0,0,0-.1.89.78.78,0,0,0,.8.42,10.92,10.92,0,0,1,8.32,2.47.79.79,0,0,0,.9.09.79.79,0,0,0,.42-.8,10.73,10.73,0,0,1,.41-4.4" transform="translate(0 -154.6)" fill="#4267ba" fill-rule="evenodd"/><path d="M354.12,357.8a5.83,5.83,0,0,0,6.32.4,5.75,5.75,0,0,0,3-5.52l-3.8-57.61a6,6,0,0,0-6.3-5.56l-40.6,2.35h0a5.88,5.88,0,0,0-5.48,6.24l3.81,57.61a5.94,5.94,0,0,0,9.94,4l12.14-11.21a5.86,5.86,0,0,1,7.47-.43l13.52,9.72" transform="translate(0 -154.6)" fill="#f0393c" fill-rule="evenodd"/><path d="M444.42,349a5.87,5.87,0,0,0,9-5.72l-7.49-57.35a6,6,0,0,0-6.63-5.16L399,285.71h0a5.88,5.88,0,0,0-5.07,6.59l7.49,57.35a5.85,5.85,0,0,0,4,4.89,5.75,5.75,0,0,0,6.12-1.52l11.37-12a5.83,5.83,0,0,1,7.42-.91L444.42,349" transform="translate(0 -154.6)" fill="#43bb4e" fill-rule="evenodd"/><path d="M13.65,279.21a1264.58,1264.58,0,0,0,234.06,22.22,1263.74,1263.74,0,0,0,237.86-22.22" transform="translate(0 -154.6)" fill="none" stroke="#465da9" stroke-linecap="round" stroke-miterlimit="10" stroke-width="6" fill-rule="evenodd"/><path d="M502.93,311.51a1.61,1.61,0,0,1,2.24.33,1.58,1.58,0,0,1-.33,2.22h0l-5.69,4.19a1.6,1.6,0,1,1-1.9-2.57h0l5.69-4.18" transform="translate(0 -154.6)" fill="#5b7fc9" fill-rule="evenodd"/><path d="M492.06,319.5a1.61,1.61,0,0,1,2.25.33h0a1.6,1.6,0,0,1-.35,2.23l-5.69,4.19a1.62,1.62,0,0,1-2.24-.33,1.6,1.6,0,0,1,.34-2.23h0l5.68-4.18" transform="translate(0 -154.6)" fill="#5b7fc9" fill-rule="evenodd"/><path d="M488.25,311.63a1.57,1.57,0,0,1,.33-2.22h0a1.61,1.61,0,0,1,2.24.32h0l4.17,5.63a1.6,1.6,0,0,1-.34,2.23h0a1.61,1.61,0,0,1-2.24-.34l-4.16-5.63" transform="translate(0 -154.6)" fill="#5b7fc9" fill-rule="evenodd"/><path d="M496.2,322.39a1.6,1.6,0,0,1,.35-2.23h0a1.6,1.6,0,0,1,2.24.33l4.17,5.63a1.6,1.6,0,0,1-.34,2.23h0a1.62,1.62,0,0,1-2.25-.32l-4.17-5.64" transform="translate(0 -154.6)" fill="#5b7fc9" fill-rule="evenodd"/><path d="M538.65,267.79a2.18,2.18,0,0,1-2.14,2.23h0a2.22,2.22,0,0,1-2.24-2.18,14.58,14.58,0,0,1,1.15-5.17,11.29,11.29,0,0,0,.88-3.6h0c0-.48-1.3-1.6-2.58-2.71-2-1.77-4.07-3.53-4.12-6-.05-2.78,3.23-4.58,6.5-6.38a38.92,38.92,0,0,0,4.26-2.48,40.56,40.56,0,0,0-4.34-2.38c-3.33-1.74-6.67-3.47-6.73-6.25h0c0-2.44,1.93-4.25,3.91-6.06,1.24-1.14,2.49-2.28,2.48-2.75a11.67,11.67,0,0,0-1-3.59,14.34,14.34,0,0,1-1.32-5.14,2.17,2.17,0,0,1,2.13-2.21h0a2.22,2.22,0,0,1,2.23,2.17,11.27,11.27,0,0,0,1,3.59,14.46,14.46,0,0,1,1.33,5.13c0,2.45-1.94,4.26-3.91,6.07-1.25,1.13-2.49,2.27-2.48,2.74h0a41.71,41.71,0,0,0,4.34,2.39c3.33,1.73,6.68,3.47,6.72,6.25s-3.22,4.57-6.49,6.37a38.92,38.92,0,0,0-4.26,2.48c0,.47,1.3,1.59,2.59,2.7,2,1.77,4.07,3.54,4.12,6h0a14.43,14.43,0,0,1-1.14,5.16,11.29,11.29,0,0,0-.88,3.6" transform="translate(0 -154.6)" fill="#f0393c" fill-rule="evenodd"/><path d="M521.92,267a2.18,2.18,0,0,1-1.51,2.7h0a2.23,2.23,0,0,1-2.72-1.55,21.54,21.54,0,0,1-.53-6,14.2,14.2,0,0,0-.47-4.81c-.28-.7-2.15-1.33-4-1.94-2.51-.85-5-1.67-6.08-3.74-1.24-2.34.14-5.35,1.5-8.3a32.61,32.61,0,0,0,1.63-3.79,17,17,0,0,0-4,.21c-2.82.29-5.6.56-7.25-1-1.47-1.44-1.72-3.54-2-5.62a7.73,7.73,0,0,0-.56-2.78,10.65,10.65,0,0,0-3.54-1.07,17.63,17.63,0,0,1-3.71-1,2.22,2.22,0,0,1-1.2-2.88,2.18,2.18,0,0,1,2.85-1.19h0a14.39,14.39,0,0,0,2.82.71,13.44,13.44,0,0,1,5.18,1.75c1.95,1.31,2.23,3.61,2.5,5.94.16,1.29.31,2.6.67,3a15.42,15.42,0,0,0,3.71-.19c3.15-.32,6.35-.64,8,1.58s.23,5.2-1.18,8.26c-.9,2-1.82,4-1.61,4.36s1.91,1.07,3.58,1.63c2.8.94,5.68,1.91,6.71,4.53a17.24,17.24,0,0,1,.77,6.45,18.35,18.35,0,0,0,.37,4.78" transform="translate(0 -154.6)" fill="#5b7fc9" fill-rule="evenodd"/><path d="M555.21,267.8a2.17,2.17,0,0,1-2.63,1.6h0a2.21,2.21,0,0,1-1.61-2.67,17.24,17.24,0,0,1,3.22-6.05,15.1,15.1,0,0,0,2.14-3.55c.27-.77-.52-2.6-1.29-4.38-1.15-2.67-2.28-5.28-1.15-7.58,1.28-2.6,4.81-2.73,8.27-2.86,2-.08,4-.16,4.15-.37s-.36-2.09-.9-3.86c-.91-3-1.8-5.87,0-7.76,1.64-1.7,4.08-1.59,6.48-1.49a8.08,8.08,0,0,0,3-.15,12.72,12.72,0,0,0,2-2,11.79,11.79,0,0,1,4-3.35,2.2,2.2,0,0,1,1.81,4h0a8.51,8.51,0,0,0-2.54,2.27,16.93,16.93,0,0,1-2.73,2.62c-1.59,1.11-3.64,1-5.71.94-1.43-.06-2.88-.12-3.18.19,0,0,.48,1.7,1,3.41.86,2.78,1.72,5.62.33,7.64s-4.44,2.12-7.57,2.24c-2.17.09-4.39.17-4.53.45-.23.47.5,2.16,1.24,3.88,1.1,2.57,2.24,5.19,1.4,7.59a18.33,18.33,0,0,1-2.73,4.66,14.13,14.13,0,0,0-2.51,4.52" transform="translate(0 -154.6)" fill="#6759b2" fill-rule="evenodd"/><path d="M499.89,265.55a3.18,3.18,0,1,0-4.46-.51,3.18,3.18,0,0,0,4.46.51" transform="translate(0 -154.6)" fill="#f0393c" fill-rule="evenodd"/><path d="M517.93,222.08a3.54,3.54,0,1,0-4.95-.57,3.54,3.54,0,0,0,4.95.57" transform="translate(0 -154.6)" fill="#6759b2" fill-rule="evenodd"/><path d="M559.31,219a3.54,3.54,0,1,0-5-.57,3.53,3.53,0,0,0,5,.57" transform="translate(0 -154.6)" fill="#32a940" fill-rule="evenodd"/><path d="M590.61,251.73a4.87,4.87,0,1,0-6.82-.78,4.85,4.85,0,0,0,6.82.78" transform="translate(0 -154.6)" fill="#f9b317" fill-rule="evenodd"/><path d="M583.07,207.58a13.66,13.66,0,0,1,.84-10.84,1,1,0,0,0-.13-1.13,1,1,0,0,0-1.09-.3,13.62,13.62,0,0,1-10.82-.93,1,1,0,0,0-1.42,1.21,13.66,13.66,0,0,1-.84,10.84,1,1,0,0,0,.13,1.12,1,1,0,0,0,1.09.31,13.62,13.62,0,0,1,10.82.92,1,1,0,0,0,1.42-1.2" transform="translate(0 -154.6)" fill="#5b7fc9" fill-rule="evenodd"/><path d="M577.19,196q4,5.76-.86,11.23a13.49,13.49,0,0,1,5.32,1.58,1,1,0,0,0,1.42-1.2,13.66,13.66,0,0,1,.84-10.84,1,1,0,0,0-.13-1.13,1,1,0,0,0-1.09-.3,13.51,13.51,0,0,1-5.5.66" transform="translate(0 -154.6)" fill="#4267ba" fill-rule="evenodd"/><path d="M524.08,292.77q3,5.24-1.14,10.73l4,.46a1.33,1.33,0,0,0,1.48-1.18h0l.86-8a1.37,1.37,0,0,0-1.2-1.5l-4-.46" transform="translate(0 -154.6)" fill="#cb3325" fill-rule="evenodd"/><path d="M531.94,168.83l8,.92a1.35,1.35,0,0,1,1.19,1.49l-.85,8a1.34,1.34,0,0,1-1.47,1.19h0l-8.05-.92a1.36,1.36,0,0,1-1.19-1.5l.85-8.05a1.34,1.34,0,0,1,1.48-1.18h0" transform="translate(0 -154.6)" fill="#43bb4e" fill-rule="evenodd"/><path d="M536,169.29q3,5.24-1.15,10.73l4,.46a1.35,1.35,0,0,0,1.48-1.18h0l.85-8a1.35,1.35,0,0,0-1.19-1.49l-4-.46" transform="translate(0 -154.6)" fill="#32a940" fill-rule="evenodd"/><path d="M497,188.85a1.19,1.19,0,0,1,.22-1.68h0a1.2,1.2,0,0,1,1.68.23l3.22,4.21a1.21,1.21,0,0,1-.22,1.69h0a1.2,1.2,0,0,1-1.68-.24L497,188.85" transform="translate(0 -154.6)" fill="#5b7fc9" fill-rule="evenodd"/><path d="M503.12,196.9a1.21,1.21,0,0,1,.21-1.69h0a1.22,1.22,0,0,1,1.69.23l3.21,4.21a1.21,1.21,0,0,1-.21,1.69h0a1.21,1.21,0,0,1-1.69-.23h0l-3.21-4.21" transform="translate(0 -154.6)" fill="#5b7fc9" fill-rule="evenodd"/><path d="M497.25,199.86a1.21,1.21,0,0,1-1.46-1.92h0l4.18-3.19a1.21,1.21,0,0,1,1.46,1.92h0l-4.18,3.19" transform="translate(0 -154.6)" fill="#5b7fc9" fill-rule="evenodd"/><path d="M505.24,193.76a1.21,1.21,0,0,1-1.47-1.92h0l4.18-3.19a1.21,1.21,0,0,1,1.47,1.92h0l-4.17,3.19" transform="translate(0 -154.6)" fill="#5b7fc9" fill-rule="evenodd"/><path d="M538.33,330.93l9.83-23.26,10.48-24.77a2.29,2.29,0,0,0-2.13-3.17l-21.15.21-21.16.21a2.25,2.25,0,0,0-2,3.21l11.34,24.55L534.19,331a2.26,2.26,0,0,0,4.14,0" transform="translate(0 -154.6)" fill="#f9b317" fill-rule="evenodd"/><path d="M520.08,288.49c3.09-1.91,7.76-1.26,10.84-3.17,1.94-1.21,3.25-3.43,4.72-5.38h-.28l-21.16.21a2.25,2.25,0,0,0-2,3.21l4.2,9.1a14.1,14.1,0,0,1,3.69-4" transform="translate(0 -154.6)" fill="#43bb4e" fill-rule="evenodd"/><path d="M535.36,295.42c-3.08,1.91-7.76,1.26-10.84,3.17a13.38,13.38,0,0,0-3.55,3.77l2.56,5.55,2.38,5.15a15.52,15.52,0,0,1,4-4.38c3.08-1.91,7.75-1.26,10.83-3.17s4.57-6.39,7.65-8.3a13.2,13.2,0,0,1,4.83-1.49l5.42-12.82a2.31,2.31,0,0,0-1.1-2.94,14,14,0,0,1-3.7,4c-3.08,1.92-7.76,1.27-10.84,3.18s-4.56,6.38-7.64,8.3" transform="translate(0 -154.6)" fill="#43bb4e" fill-rule="evenodd"/><path d="M542.07,316.78q-1.17,5.55-2.72,11.74l5.33-12.61,3.48-8.24,5.06-11.95,5.42-12.82a2.31,2.31,0,0,0-1.1-2.94,2.42,2.42,0,0,0-1-.23l-11.45.12a41.41,41.41,0,0,1,.67,6.19,92.05,92.05,0,0,1-.89,14.93q-.92,7.13-2.77,15.81" transform="translate(0 -154.6)" fill="#db8e19" fill-rule="evenodd"/><path d="M544.68,315.91c-3.07,1.54-7.39,1.07-10.29,2.87a14.81,14.81,0,0,0-3.88,4.23l3.68,8a2.26,2.26,0,0,0,4.14,0l6.35-15" transform="translate(0 -154.6)" fill="#43bb4e" fill-rule="evenodd"/><path d="M544.84,301a13.38,13.38,0,0,1,3.55-3.77,13.2,13.2,0,0,1,4.83-1.49h0l5.42-12.82a.78.78,0,0,1,.05-.14h0v0h0l0-.1h0l0-.11h0l0-.06h0v0h0v0h0v0h0v0h0v0h0v0h0v-.11h0v0h0V282h0V282h0a.34.34,0,0,0,0-.1v0h0v0h0v0h0v-.07h0v-.1h0v-.07h0v-.1h0v-.14l0,0v-.1h0l0,0v0l0,0v0l0,0,0,0h0v0l0,0,0,0,0,0,0,0,0,0,0,0v0h0v0h0l0,0h0v0h0v0h0l-.05-.06h0v0h0l0,0h0v0h0v0h0l0,0h0l0,0h0l0,0h0l0,0h-.07v0h-.35a14.2,14.2,0,0,1-3.71,4c-2.26,1.41-5.39,1.43-8.11,2.1h0a92.05,92.05,0,0,1-.89,14.93h0" transform="translate(0 -154.6)" fill="#32a940" fill-rule="evenodd"/><path d="M544.68,315.91a11.28,11.28,0,0,1-2.61.87h0q-1.17,5.55-2.72,11.74l5.33-12.61" transform="translate(0 -154.6)" fill="#32a940" fill-rule="evenodd"/><path d="M529.79,349.86a6.54,6.54,0,1,0,3-8.72,6.52,6.52,0,0,0-3,8.72" transform="translate(0 -154.6)" fill="#f9b317" fill-rule="evenodd"/><path d="M31.22,195.17H34v19.89h11v2.41H31.22Z" transform="translate(0 -154.6)" fill="#fff"/><path d="M71.34,195.17h13.8v2.41h-11v7h9.25V207H74.19v8.09H85.48v2.41H71.34Z" transform="translate(0 -154.6)" fill="#fff"/><path d="M117,197.58h-7.37v-2.41h17.61v2.41h-7.38v19.89H117Z" transform="translate(0 -154.6)" fill="#fff"/><path d="M156.44,204a6.54,6.54,0,0,0,3.57-5.88l-.68-2.65,1.87,2.28a3.14,3.14,0,0,1-2.11,1.09,2.33,2.33,0,0,1-2.41-2.45,2.48,2.48,0,0,1,2.51-2.65c1.8,0,3.06,1.53,3.06,4.14a8.51,8.51,0,0,1-4.86,7.76Z" transform="translate(0 -154.6)" fill="#fff"/><path d="M171.74,214.58l1.7-2a9.4,9.4,0,0,0,6.53,2.75c3.05,0,4.82-1.46,4.82-3.5,0-2.38-1.73-3.06-4-4l-3.23-1.43c-2.21-.88-4.8-2.45-4.8-5.74s3.06-5.92,7.31-5.92a9.73,9.73,0,0,1,6.87,2.75l-1.5,1.84a7.83,7.83,0,0,0-5.47-2.07c-2.58,0-4.32,1.22-4.32,3.23s2.08,2.92,4,3.67l3.13,1.39c2.75,1.09,4.93,2.65,4.93,6,0,3.54-3,6.36-7.89,6.36A11.31,11.31,0,0,1,171.74,214.58Z" transform="translate(0 -154.6)" fill="#fff"/><path d="M239.43,197.58h-7.38v-2.41h17.61v2.41h-7.37v19.89h-2.86Z" transform="translate(0 -154.6)" fill="#fff"/><path d="M274.14,195.17H277v9.31h9.25v-9.31h2.89v22.3h-2.89V207H277v10.47h-2.89Z" transform="translate(0 -154.6)" fill="#fff"/><path d="M315.62,195.17h7c4.52,0,7.82,1.63,7.82,6.29,0,4.45-3.3,6.59-7.82,6.59h-4.08v9.42h-2.89Zm6.56,10.57c3.47,0,5.38-1.43,5.38-4.28s-1.91-4-5.38-4h-3.67v8.26Zm2.08,0,6.8,11.69h-3.23L322,207.27Z" transform="translate(0 -154.6)" fill="#fff"/><path d="M354.69,206.22c0-7.21,3.53-11.46,8.57-11.46s8.56,4.25,8.56,11.46-3.53,11.66-8.56,11.66S354.69,213.53,354.69,206.22Zm14.18,0c0-5.61-2.25-8.94-5.61-8.94s-5.61,3.33-5.61,8.94,2.24,9.14,5.61,9.14S368.87,211.93,368.87,206.22Z" transform="translate(0 -154.6)" fill="#fff"/><path d="M394.2,195.13h3.19l1.64,14c.2,1.87.34,3,.44,5.17h.1c.41-2.21.64-3.3,1.09-5.13l2.17-8.3h2.72l2.11,8.3c.48,1.83.68,2.92,1.09,5.13h.13c.14-2.21.21-3.3.41-5.13l1.57-14.05h3.06l-3.27,22.34h-3.53l-2.18-9c-.34-1.36-.61-2.66-.82-4H404c-.24,1.36-.44,2.66-.78,4l-2.18,9H397.6Z" transform="translate(0 -154.6)" fill="#fff"/><path d="M463.62,195.17h3.27l7.51,22.3h-3.06L467.5,205c-.78-2.48-1.53-4.93-2.21-7.52h-.14c-.71,2.59-1.43,5-2.21,7.52L459,217.47h-2.92Zm-3.53,13.22h10.23v2.32H460.09Z" transform="translate(0 -154.6)" fill="#fff"/><path d="M86.68,316q-3.78,13.32-13,11.69a14.09,14.09,0,0,1-8.11-4.32l-.4.22-.26,2.19a13.1,13.1,0,0,0,0,4.72c0,.11.18.5.46,1.16a3.73,3.73,0,0,1,.4,1.21,1.86,1.86,0,0,1-.62,1.15,1.47,1.47,0,0,1-1.24.42,2.42,2.42,0,0,1-2.12-1.33,6.67,6.67,0,0,1-.23-2.63c.1-1.83.27-3.67.49-5.52.12-1.07.39-2.67.8-4.78s.68-3.74.79-4.87.39-2.77.83-4.94.72-3.79.84-4.86l.6-5.07a6,6,0,0,0-.05-1.2,6.89,6.89,0,0,1,0-1.2c.08-.68.59-1,1.51-.85a1.85,1.85,0,0,1,1.43,1,2.7,2.7,0,0,1,.41,1.78,11,11,0,0,1-.47,1.95,11.39,11.39,0,0,0-.47,2L68,305.24l3-4a9,9,0,0,1,8.09-3.11,8.6,8.6,0,0,1,7.23,5.14,16.67,16.67,0,0,1,1.1,9.06A26,26,0,0,1,86.68,316Zm-2-3.3a17.82,17.82,0,0,0-.58-7.51q-1.38-4.35-5-4.77-4.69-.56-8.68,5.32a23,23,0,0,0-4,10.2L66,318.77a2,2,0,0,1,.83-.17c.25,0,.45.23.61.61a2.15,2.15,0,0,0,.42.76c-.05.11-.1.14-.17.09s-.11,0-.12.1a2.44,2.44,0,0,0,.31,1,7.12,7.12,0,0,0,6,4,7.19,7.19,0,0,0,6.39-2,15.85,15.85,0,0,0,3.19-6A27.37,27.37,0,0,0,84.64,312.7Z" transform="translate(0 -154.6)" fill="#fff"/><path d="M173,333.81c-.06,1.15-.54,1.7-1.43,1.65a3.23,3.23,0,0,1-1.12-.28,16.89,16.89,0,0,0,1,6.2,1.47,1.47,0,0,1-.73,1.09,2.39,2.39,0,0,1-1.4.36,3.64,3.64,0,0,1-1.43-.46,6.36,6.36,0,0,1-.28-2.71q0-.48.15-1.77c.05-.86.08-1.45.1-1.77a3.6,3.6,0,0,0-.09-1.3,6.61,6.61,0,0,0-1.38,0c-.59,0-1,.05-1.27,0a61.31,61.31,0,0,0-7.28.25q-5.69.45-6.59,1.15c-.33.23-.74,1.51-1.23,3.81-.39,1.89-.62,3.27-.71,4.17a.86.86,0,0,1-.77.33,2.53,2.53,0,0,1-1.52-.78,1.89,1.89,0,0,1-.79-1.39,5.7,5.7,0,0,1,.51-1.43,12.92,12.92,0,0,0,.56-1.37,71.51,71.51,0,0,1,4.21-13q8.19-19.77,12.05-19.55,4.14.22,5.82,10.87.61,3.75,1.11,14.29a4.89,4.89,0,0,0,1.58.68C172.74,333.08,173.05,333.38,173,333.81ZM167.9,332q-.84-9.53-1.1-11.54-1.29-9.12-3.28-9.17-2.21,0-6,8-2.16,5.06-4.27,10.11a14.2,14.2,0,0,0-.81,2.06c-.19.85,0,1.3.69,1.33q.32,0,3.3-.36C158,332.17,161.82,332,167.9,332Z" transform="translate(0 -154.6)" fill="#fff"/><path d="M263.34,343.79v.27a1,1,0,0,1-.91.56,1.3,1.3,0,0,1-1-.25q-.46-2.19-7.42-6.87c-4.63-3.11-7.76-4.66-9.38-4.62l-3.07.06.07,3.34a29.83,29.83,0,0,0,.45,3.22,11.2,11.2,0,0,0,.62,2.94,7,7,0,0,0,1,1.33c0,.82-.45,1.25-1.38,1.27a2.74,2.74,0,0,1-2.39-1.08q-.83-1.12-1-10.53c0-.5-.65-.94-1.91-1.31s-1.9-.82-1.92-1.36c0-.79,1.12-1.53,3.4-2.22a33.81,33.81,0,0,0,.38-5.18c.09-2.69.16-4.43.22-5.22,0-.4.16-1.47.41-3.24a15.49,15.49,0,0,0,.26-3.29,3.9,3.9,0,0,0-1.43-.13c-.77,0-1.16-.28-1.18-.89a1.31,1.31,0,0,1,1.05-1.42l1.55-.46a3.56,3.56,0,0,1,.68-1.2,2.4,2.4,0,0,1,.85-.18,1.8,1.8,0,0,1,1.23.57,1.79,1.79,0,0,0,1.11.57,6,6,0,0,0,.75-.1,6,6,0,0,1,.75-.1,19.16,19.16,0,0,1,10.11,2.27,9.26,9.26,0,0,1,5.18,8.39,10.52,10.52,0,0,1-2.58,7.59,27.52,27.52,0,0,1-6.58,4.71,2.9,2.9,0,0,0-.75.29,41.42,41.42,0,0,0,4.92,3.4,38.92,38.92,0,0,1,5.46,3.92A6.74,6.74,0,0,1,263.34,343.79Zm-5.74-25a7,7,0,0,0-3.83-6.22,15.75,15.75,0,0,0-10-1.41l-.67,1.09a7,7,0,0,0-.79,3.3c0,2-.08,3.14-.14,3.5a61.75,61.75,0,0,0-.66,9.76,20.75,20.75,0,0,0,5,1.4,7.66,7.66,0,0,0,2.13-.47,13.72,13.72,0,0,0,6.35-4.06A9.68,9.68,0,0,0,257.6,318.78Z" transform="translate(0 -154.6)" fill="#fff"/><path d="M345.11,308.4q.17,1.34-.75,1.44a8.13,8.13,0,0,0-1.25-.44,11.6,11.6,0,0,0-4.19.09l-2.41.29q-1.29.17-1.56.6a4.17,4.17,0,0,0-.28,1.88c0,1-.05,2.38-.1,4.27a142.76,142.76,0,0,0,1.13,17.59c.57,4.59,1.45,7.63,2.64,9.1.07.5-.08.77-.44.82q-2.82.34-4-2.76a27.89,27.89,0,0,1-1-5.31c-.49-4-.78-7-.85-9.05q-.12-1.46-.24-6.8c-.06-2.85-.2-5.11-.4-6.79-.25-2-.3-2.53-.13-1.5-.11-.53-.37-.77-.8-.71a16.7,16.7,0,0,0-2.81.72,16,16,0,0,1-2.81.73,2.67,2.67,0,0,1-3-1.36q.42-1,7.74-2.8a88.5,88.5,0,0,1,8.94-1.81C342.72,306.09,344.9,306.69,345.11,308.4Z" transform="translate(0 -154.6)" fill="#fff"/><path d="M434.34,297.69a18,18,0,0,1-1.46,3,13.85,13.85,0,0,0-1.41,3Q429,312,427.55,319.82q-2.16,11.46-.9,15.88a3.18,3.18,0,0,1-1.67,1q-1.69.31-3.25-2.46c.18-.21.46-.6.85-1.17s.81-2.39,1.29-5.47q.4-3.09.87-6.18a21.34,21.34,0,0,1-7.43-7.2q-5.91-8.7-6.54-12.08c-.28-1.44.15-2.27,1.28-2.48a2.08,2.08,0,0,1,2,.82,5,5,0,0,1,.94,2.12,2.56,2.56,0,0,1-.06,1,2.72,2.72,0,0,0-.06.94q.45,2.44,4.2,7.81,4.1,5.79,6.05,5.38.72-1.12,3-11.52,2-9.32,3.83-9.65C433.27,296.35,434.05,296.72,434.34,297.69Z" transform="translate(0 -154.6)" fill="#fff"/></svg>