<svg xmlns="http://www.w3.org/2000/svg" width="398.03" height="246.47" viewBox="0 0 398.03 246.47"><path d="M102,87.46a44.17,44.17,0,1,0,61.53,10.76A44.17,44.17,0,0,0,102,87.46Zm40.91,25.24a19,19,0,1,1-26.43-4.62A19,19,0,0,1,142.91,112.7Z"/><path d="M244.75,92.75a44.17,44.17,0,1,0,62.46.24A44.16,44.16,0,0,0,244.75,92.75Zm44.48,44.82a19,19,0,1,1,.1-26.84A19,19,0,0,1,289.23,137.57Z"/><path d="M321.63,78.68a64.56,64.56,0,0,0-12.23-9.59L313.75,62a72.45,72.45,0,0,0-21.95-8.87L290,61.23a64.8,64.8,0,0,0-24.39-.74l-1.32-8.21a72.18,72.18,0,0,0-22.45,7.51l3.88,7.32a64.26,64.26,0,0,0-15.26,11.22l-5.82-5.87a72.93,72.93,0,0,0-13.88,19.16l7.45,3.72a64.28,64.28,0,0,0-6.56,23.51l-8.28-.67a72.67,72.67,0,0,0,1.93,23.56l8.08-2a64.07,64.07,0,0,0,10.31,22.12l-6.75,4.9a73.59,73.59,0,0,0,7.31,8.59,72.49,72.49,0,0,0,9.47,8l4.84-6.78a63.82,63.82,0,0,0,22.21,10.11l-1.95,8.11a72.77,72.77,0,0,0,23.58,1.73l-.74-8.24a64.13,64.13,0,0,0,23.48-6.76l3.75,7.39a72.54,72.54,0,0,0,18.23-13.21l.82-.82-5.94-5.8a64.29,64.29,0,0,0,13.48-20.36l7.64,3.15a72.62,72.62,0,0,0,5.35-23l-8.31-.55a64.49,64.49,0,0,0-3-24.21l7.92-2.58a72.28,72.28,0,0,0-10.92-21l-6.67,5A64.41,64.41,0,0,0,321.63,78.68Zm-10.42,81a50.18,50.18,0,1,1,.27-71A50.18,50.18,0,0,1,311.21,159.72Z"/><path d="M190,138.6a64.48,64.48,0,0,0,1.09-24.38l8.24-1.21a72.11,72.11,0,0,0-7.22-22.55l-7.42,3.8a60.61,60.61,0,0,0-15-19.23l5.48-6.27a72.3,72.3,0,0,0-20.14-12.45L151.89,64A64.85,64.85,0,0,0,128,59.17l.09-8.31a72,72,0,0,0-23.4,3.62l2.59,7.86a64.32,64.32,0,0,0-16.93,8.49l-4.74-6.76A72.61,72.61,0,0,0,68.67,80.62l6.71,4.92A64.28,64.28,0,0,0,65,107.61l-8-2.06a73.05,73.05,0,0,0-2.08,23.56l8.31-.63A64,64,0,0,0,69.57,152l-7.47,3.69a73,73,0,0,0,5.75,9.7,73.79,73.79,0,0,0,8,9.53l5.91-5.87a63.87,63.87,0,0,0,20.19,13.71l-3.28,7.66a72.74,72.74,0,0,0,22.95,5.67l.66-8.24a64.37,64.37,0,0,0,24.28-2.7l2.46,7.92a72.77,72.77,0,0,0,20.19-10l.94-.67-4.87-6.72A64.24,64.24,0,0,0,182,158l7,4.4a72.42,72.42,0,0,0,9.16-21.81ZM156.42,165a50.52,50.52,0,1,1,12.31-70.38A50.52,50.52,0,0,1,156.42,165Z"/><path d="M196.88,205.79c4.88-7.65,12.32-9.48,18.52-5.52a10.56,10.56,0,0,1,4.67,7.06l-3,.81a7.56,7.56,0,0,0-3.41-5.19c-4.54-2.89-9.84-1.13-13.61,4.78s-3.23,11.61,1.3,14.5a8.11,8.11,0,0,0,7,.79l.56,3a10.88,10.88,0,0,1-9.55-1.26C193.5,221,191.92,213.54,196.88,205.79Z"/><path d="M219.15,219.25c3.29-8.5,9.39-11.91,15.33-9.62s8.18,8.92,4.89,17.42-9.48,12.16-15.42,9.87S215.83,227.88,219.15,219.25Zm16.73,6.46c2.56-6.62,1.43-11.58-2.54-13.11s-8.14,1.38-10.7,8-1.51,11.81,2.46,13.35S233.28,232.45,235.88,225.71Z"/><path d="M244.35,228.42c1.5-9,6.8-13.56,13.08-12.5s9.8,7.09,8.29,16.08-6.84,13.81-13.12,12.75S242.82,237.54,244.35,228.42Zm17.68,3c1.18-7-.93-11.62-5.12-12.33s-7.7,3-8.87,10,.89,11.87,5.08,12.58S260.84,238.51,262,231.38Z"/><path d="M272.49,218.29l8.81-.37c5.71-.23,10,1.66,10.21,7.54.23,5.63-3.82,8.51-9.54,8.75l-5.15.21.49,11.9-3.65.15Zm8.85,13c4.38-.18,6.71-2.08,6.56-5.69s-2.62-4.93-7-4.74l-4.64.19.43,10.44Zm2.62-.06,9.2,14.42-4.08.17-7.88-12.58Z"/><path d="M295.71,216.76l6.73-1.81c8.18-2.2,13.93,1.46,16.25,10.1s-.74,14.94-8.76,17.1L303,244Zm13,22.63c6.18-1.66,8.19-6.47,6.33-13.37s-5.93-9.8-12.12-8.14l-3,.81,5.79,21.51Z"/><path d="M330.91,231.86l6.11-3.43-10.8-19.28-6.11,3.43-1.49-2.66L334,201.3l1.49,2.66-6.12,3.43,10.81,19.28,6.11-3.43,1.49,2.67-15.38,8.61Z"/><path d="M338.05,198.38l2.78-2.81,18.94,6.05,6.06,2.19.06-.06c-2.07-1.88-4.57-3.87-6.68-6L348.82,187.5l2.42-2.44,20,19.85-2.78,2.81-18.94-6.05-6.06-2.2-.06.07c2.13,1.93,4.51,3.81,6.59,5.86l10.48,10.38-2.42,2.45Z"/><path d="M357.37,174.8l1.94-3.64,29.36,4.92-1.82,3.41-16.17-3.13c-3.24-.61-6.41-1.23-9.7-2l-.08.16c2.45,2.33,4.76,4.59,7.06,6.94l11.55,11.78-1.74,3.26ZM370,186.63l6.1-11.41,2.58,1.38L372.59,188Z"/><path d="M369.19,153.56,367,162.62l-3-.73,5.31-21.63,3,.73-2.22,9.06,24.43,6-.86,3.5Z"/><path d="M394.66,136.85l.12-7-22.09-.41-.13,7-3.05-.05.32-17.63,3.06.06-.13,7,22.09.41.13-7,3,0-.32,17.63Z"/><path d="M383.38,111.85c-9,1.7-15.07-1.69-16.26-7.94s3.26-11.65,12.22-13.35,15.32,1.65,16.51,7.9S392.46,110.13,383.38,111.85ZM380,94.24c-7,1.32-10.59,4.89-9.79,9.07s5.46,6.19,12.43,4.87,10.84-5,10-9.13S387.13,92.89,380,94.24Z"/><path d="M363.17,89.94l-1.57-3.83,13.57-15.78,4.58-4.94,0-.09c-2.66,1.24-5.6,2.83-8.47,4l-14.16,5.81-1.37-3.33L383,60.59l1.57,3.83L371,80.19l-4.59,5,0,.08c2.74-1.27,5.51-2.79,8.35-4l14.28-5.85,1.36,3.33Z"/><path d="M23.66,99.74,26,93.15,5.25,85.64,2.87,92.23,0,91.19,6,74.61l2.87,1L6.48,82.24l20.79,7.51,2.38-6.59,2.87,1-6,16.58Z"/><path d="M17.87,58.79l-5,7.89L10.3,65,22.2,46.21l2.59,1.64-5,7.88L41.06,69.18l-1.93,3Z"/><path d="M41,42.23a8.28,8.28,0,0,0-1.78-8.52l-2.91-1.86,3.69.49a4,4,0,0,1-1,2.83A2.94,2.94,0,0,1,34.65,35a3.14,3.14,0,0,1,0-4.62c1.67-1.56,4.15-1.23,6.41,1.19a10.71,10.71,0,0,1,2.2,11.35Z"/><path d="M64.12,40l.74-3.21A11.94,11.94,0,0,0,73.79,36c3.42-1.8,4.54-4.48,3.35-6.76-1.4-2.67-3.75-2.41-6.82-2.16l-4.45.3c-3,.31-6.81.08-8.75-3.61s0-8.42,4.71-10.92a12.29,12.29,0,0,1,9.31-1l-.6,2.94a9.9,9.9,0,0,0-7.35.89c-2.89,1.52-4.11,3.91-2.93,6.16s4,2.05,6.61,1.77l4.32-.28c3.72-.4,7.08.07,9,3.77,2.08,3.95.39,8.87-5.09,11.75A14.37,14.37,0,0,1,64.12,40Z"/><path d="M134.31,0l4.11.32,7.28,28.86-3.86-.3-3.62-16.07c-.74-3.2-1.44-6.36-2-9.69H136c-1.15,3.19-2.29,6.2-3.52,9.25l-6.16,15.31-3.69-.29Zm-5.77,16.33,12.91,1-.23,2.91-12.9-1Z"/><path d="M158.57,3.27l3.45.91-6.4,24.32,13.48,3.55-.78,3-16.93-4.45Z"/><path d="M186.76,12.12l3.23,1.5-10.63,22.8L192,42.31l-1.29,2.76-15.86-7.4Z"/></svg>