<svg xmlns="http://www.w3.org/2000/svg" width="403.19" height="538.13" viewBox="0 0 403.19 538.13"><path d="M239.41,42.27,160.72,228.4,77,426.5a18.29,18.29,0,0,0,17,25.34,637.75,637.75,0,0,0,74.13,17.61,635.47,635.47,0,0,0,95.83,9.36A387.2,387.2,0,0,0,432.4,448.5c.65,0,9.82-.34,15-8.4a17.68,17.68,0,0,0,1.07-17.27L357.77,226.44,272.53,42a18.1,18.1,0,0,0-33.12.32Z" transform="translate(-62.7 45.41)" fill="#66deaf" fill-rule="evenodd"/><path d="M212.21,108.64A178.8,178.8,0,0,0,261,114.47a178.65,178.65,0,0,0,42-5.83q10.21,22.12,20.44,44.23a265.38,265.38,0,0,1-70.72,7.58,264.61,264.61,0,0,1-58.84-8.3" transform="translate(-62.7 45.41)" fill="#6649ec" fill-rule="evenodd"/><path d="M179.13,184.91a272.67,272.67,0,0,0,81.15,12.18,272.75,272.75,0,0,0,78.49-11.75l22.46,48.6a307.87,307.87,0,0,1-98.34,16.5,307.81,307.81,0,0,1-103.95-17.77Z" transform="translate(-62.7 45.41)" fill="#6649ec" fill-rule="evenodd"/><path d="M142.69,271a325.77,325.77,0,0,0,119.47,22.48,325.87,325.87,0,0,0,116.5-21.85L401.89,322a416.71,416.71,0,0,1-135.35,24.1A416.82,416.82,0,0,1,121.35,321.5Q132,296.27,142.69,271Z" transform="translate(-62.7 45.41)" fill="#6649ec" fill-rule="evenodd"/><path d="M105.7,358.6a409.15,409.15,0,0,0,161.57,31.25,409.21,409.21,0,0,0,151.61-31.14Q431,384.87,443,411a496.86,496.86,0,0,1-181.61,35A497,497,0,0,1,82.55,413.27Q94.12,385.94,105.7,358.6Z" transform="translate(-62.7 45.41)" fill="#6649ec" fill-rule="evenodd"/><path d="M209.59,155.1q4.78-22.47,10.13-45.55Q225.39,85,231.35,61.43L188.8,162,161,227.76l-40.28,95.29L77.5,425.27a18.22,18.22,0,0,0-2,10,18.75,18.75,0,0,0,10.86,15A17.87,17.87,0,0,0,94,451.84c9.61,2.9,19.63,5.68,30.06,8.27,21.8,5.44,42.54,9.37,61.93,12.2a697.27,697.27,0,0,1-5.48-72.11c-1.17-48.48,3-84.85,7.06-119.07A1167.43,1167.43,0,0,1,209.59,155.1Z" transform="translate(-62.7 45.41)" fill="#fff" fill-rule="evenodd" opacity="0.3"/><path d="M221.75,149.44q-6.81-1.41-13.52-3.37l6.15-21.17,2.52.71q-2.61,9.55-5.21,19.11,5.22,1.44,10.51,2.54Z" transform="translate(-62.7 45.41)" fill="#fff"/><path d="M243.14,152.6q-6.62-.58-13.2-1.64,1.77-10.87,3.52-21.76,5.73.92,11.5,1.43c-.07.74-.13,1.48-.2,2.22q-4.53-.39-9-1c-.33,2.25-.65,4.51-1,6.76q4.53.66,9.07,1.06c-.07.74-.13,1.49-.2,2.23q-4.6-.42-9.19-1.08-.6,4.22-1.22,8.43c3.37.49,6.76.88,10.14,1.17C243.27,151.11,243.21,151.86,243.14,152.6Z" transform="translate(-62.7 45.41)" fill="#fff"/><path d="M266.8,133.12c-2.32.11-4.64.18-7,.19l.12,20H257l.21-20q-3.51,0-7-.22c0-.69.07-1.38.11-2.07a159.62,159.62,0,0,0,16.37,0Z" transform="translate(-62.7 45.41)" fill="#fff"/><path d="M278.09,133.55a2.15,2.15,0,0,1-1.47-.5,1.81,1.81,0,0,1-.68-1.25,1.84,1.84,0,0,1,.38-1.39,1.75,1.75,0,0,1,1.25-.7,2,2,0,0,1,1.61.52,2.54,2.54,0,0,1,.86,1.63c.27,2-.68,3.75-2.93,5.16l-.76-1.05C277.62,135.2,278.19,134.39,278.09,133.55Z" transform="translate(-62.7 45.41)" fill="#fff"/><path d="M302.41,127.72a13.18,13.18,0,0,0-3.91.34,5.92,5.92,0,0,0-3.06,1.68,3,3,0,0,0-.71,2.83c.29,1.3,1.68,2.2,4.22,2.62,1.88.32,3.14.52,3.77.65a9.87,9.87,0,0,1,2,.7,6.38,6.38,0,0,1,1.87,1.35,5.05,5.05,0,0,1,1.18,2.09,5.67,5.67,0,0,1-1,5.48,9.44,9.44,0,0,1-5.28,3.19,12.82,12.82,0,0,1-5.88.16l.15-2.28a13,13,0,0,0,5.15,0,6.35,6.35,0,0,0,3.62-2.08,3.65,3.65,0,0,0,.64-3.4,3.57,3.57,0,0,0-1.58-2.16,11.24,11.24,0,0,0-3.9-1.15c-1.85-.3-3-.54-3.59-.69a6.7,6.7,0,0,1-1.69-.75A5,5,0,0,1,293,135a4.53,4.53,0,0,1-.78-1.79,5.1,5.1,0,0,1,1.12-4.59,8.52,8.52,0,0,1,4.6-2.66,16.73,16.73,0,0,1,4.49-.51C302.4,126.2,302.4,127,302.41,127.72Z" transform="translate(-62.7 45.41)" fill="#fff"/><path d="M204.11,211.51c-2.26-.69-4.52-1.42-6.76-2.21q-3.3,9.42-6.59,18.85l-2.81-1q3.45-9.37,6.88-18.75c-2.24-.82-4.48-1.7-6.69-2.61l.79-1.92q7.78,3.23,15.79,5.66C204.52,210.19,204.31,210.85,204.11,211.51Z" transform="translate(-62.7 45.41)" fill="#fff"/><path d="M217.93,235.5c-1-.19-1.94-.38-2.91-.59l2.25-10.7c-2.69-.57-5.37-1.19-8-1.88l-2.73,10.59-2.88-.76,5.82-21.27,2.56.68q-1.11,4.29-2.21,8.58,3.94,1,7.94,1.86l1.83-8.67,2.58.52Q220,224.68,217.93,235.5Z" transform="translate(-62.7 45.41)" fill="#fff"/><path d="M242.67,238.68l-3.69-.27q-3.3-5.29-6.21-10.7l-3.09-.4-1.38,9.92-2.93-.43q1.68-10.91,3.37-21.79,3.15.48,6.32.86a8.15,8.15,0,0,1,4.92,2,5.21,5.21,0,0,1,1.55,4.38,5.09,5.09,0,0,1-1.7,3.46,7.14,7.14,0,0,1-4.15,1.75Q239,233.15,242.67,238.68ZM230,225.09c1.15.16,2.31.31,3.47.45a5.34,5.34,0,0,0,3.65-.71,3.37,3.37,0,0,0,1.61-2.63c.22-2.45-1.22-3.8-4.3-4.16-1.13-.14-2.26-.28-3.39-.44Q230.51,221.35,230,225.09Z" transform="translate(-62.7 45.41)" fill="#fff"/><path d="M254.73,216.61a6.81,6.81,0,0,1,5.85,2.85c1.4,1.91,2.21,4.71,2.38,8.44s-.44,6.57-1.85,8.57a8.3,8.3,0,0,1-12.84,0c-1.41-2-2-4.88-1.81-8.59s1-6.51,2.41-8.42A6.8,6.8,0,0,1,254.73,216.61Zm0,20.64c3.73,0,5.5-3.13,5.32-9.25s-1.94-9.14-5.28-9.14a4.17,4.17,0,0,0-3.79,2.33,14.61,14.61,0,0,0-1.51,6.79c-.1,3,.28,5.28,1.18,6.87A4.41,4.41,0,0,0,254.68,237.25Z" transform="translate(-62.7 45.41)" fill="#fff"/><path d="M283.43,214.7q.38,11.12.39,22.26l-2.71.38q-3-5.86-5.68-11.81-1.32,6.39-2.91,12.77c-.93.09-1.87.16-2.8.23q-2.42-10.87-4.46-21.79c.86-.06,1.73-.11,2.59-.18q1.61,8.88,3.41,17.71,1.37-5.55,2.53-11.13c.9-.09,1.81-.19,2.71-.3q2.37,5.19,4.95,10.32-.18-9-.56-18.06C281.74,215,282.58,214.84,283.43,214.7Z" transform="translate(-62.7 45.41)" fill="#fff"/><path d="M329.75,224.23c-1,.41-1.94.8-2.92,1.19-1.83-2-3.63-4.11-5.4-6.19q-3.81,1.44-7.65,2.71c-.08,2.73-.18,5.47-.33,8.21l-3,.91q.9-11.77.84-23.41c1-.35,2-.7,3-1.07Q321.62,215.65,329.75,224.23Zm-9.87-6.8q-3.11-3.72-6.06-7.51.09,4.82,0,9.64Q316.88,218.55,319.88,217.43Z" transform="translate(-62.7 45.41)" fill="#fff"/><path d="M149.27,314.41a11.53,11.53,0,0,1-6.66-.6c-2.87-1.1-4.7-2.85-5.45-5.21s-.43-5.19,1-8.51,3-5.43,5.14-6.7,4.5-1.36,7.26-.3a13.39,13.39,0,0,1,2.83,1.48,8,8,0,0,1,2,1.85c-.48.52-1,1-1.46,1.54a10.55,10.55,0,0,0-4.16-2.84,5.33,5.33,0,0,0-5.07.33c-1.46.95-2.78,2.85-3.94,5.72-2.23,5.49-1.36,9.06,2.66,10.6a11.41,11.41,0,0,0,5.74.52C149.17,313,149.22,313.71,149.27,314.41Z" transform="translate(-62.7 45.41)" fill="#fff"/><path d="M230.06,333.75l-3.37-.33c-1.94-3.46-3.81-6.92-5.61-10.41l-2.9-.37-1.29,9.61-2.69-.37q1.52-10.58,3-21.14,3.06.43,6.13.81a7.72,7.72,0,0,1,4.73,2,5.37,5.37,0,0,1-.3,7.59,6.78,6.78,0,0,1-4,1.65Q226.82,328.3,230.06,333.75Zm-11.59-13.26c1.09.15,2.18.29,3.28.42a5,5,0,0,0,3.46-.66,3.35,3.35,0,0,0,1.57-2.53c.25-2.37-1.11-3.71-4.08-4.07l-3.26-.42C219.12,315.65,218.79,318.07,218.47,320.49Z" transform="translate(-62.7 45.41)" fill="#fff"/><path d="M236.12,312.84c1.43.11,2.85.22,4.28.31a9.1,9.1,0,0,1,6.73,3.23,11.29,11.29,0,0,1,2.33,7.93c-.12,3.39-1.12,6-3.06,7.76a9.42,9.42,0,0,1-7.29,2.4c-1.57-.1-3.13-.22-4.7-.34Zm1.15,19.33,1.9.13a6.34,6.34,0,0,0,5.33-1.95,9.32,9.32,0,0,0,2.18-6.15,9.81,9.81,0,0,0-1.57-6.33,6.18,6.18,0,0,0-4.82-2.56l-1.8-.12Q237.88,323.68,237.27,332.17Z" transform="translate(-62.7 45.41)" fill="#fff"/><path d="M266.57,335.14q-5.29.09-10.59,0l0-2.17c1.33,0,2.66,0,4,0l.05-17-3.79,0c0-.72,0-1.45,0-2.17q4.95.07,9.9,0c0,.72,0,1.44,0,2.16-1.21,0-2.43,0-3.64.05l.09,17,3.84,0C266.55,333.69,266.56,334.41,266.57,335.14Z" transform="translate(-62.7 45.41)" fill="#fff"/><path d="M288.7,334l-3,.23q-4.8-8.08-9.18-16.32.42,8.43.83,16.84l-2.7.13q-.45-10.66-.89-21.34l2.83-.13q4.34,8.15,9.1,16.16l-1.26-16.66,2.48-.2Q287.81,323.38,288.7,334Z" transform="translate(-62.7 45.41)" fill="#fff"/><path d="M311.13,331.35l-2.82.42q-1.81-3.51-3.57-7-3.71.5-7.43.92c-.57,2.58-1.15,5.15-1.76,7.72l-2.8.28q2.78-11,5-22l3-.37Q305.74,321.38,311.13,331.35Zm-7.43-8.67q-2.06-4.19-4-8.39-.89,4.57-1.84,9.13C299.78,323.19,301.74,323,303.7,322.68Z" transform="translate(-62.7 45.41)" fill="#fff"/><path d="M326.41,308.88c-2.21.48-4.44.93-6.66,1.36q1.83,9.5,3.65,19l-2.66.5q-1.74-9.53-3.49-19-3.36.62-6.73,1.16c-.1-.66-.21-1.33-.32-2q7.94-1.28,15.79-3Z" transform="translate(-62.7 45.41)" fill="#fff"/><path d="M347,323.8q-5.16,1.38-10.35,2.6c-.16-.7-.33-1.4-.49-2.1,1.3-.31,2.6-.62,3.9-.95q-2-8.27-4.09-16.53c-1.24.31-2.47.61-3.71.9-.16-.7-.33-1.41-.49-2.11q4.86-1.14,9.68-2.44c.18.7.37,1.4.56,2.09l-3.55.94,4.23,16.49,3.75-1C346.65,322.4,346.84,323.1,347,323.8Z" transform="translate(-62.7 45.41)" fill="#fff"/><path d="M355,298.76a6.57,6.57,0,0,1,6.27.92c1.85,1.38,3.38,3.76,4.57,7.17s1.43,6.21.74,8.45A7.65,7.65,0,0,1,355.19,319c-1.86-1.42-3.28-3.87-4.29-7.32s-1.14-6.29-.44-8.48A6.54,6.54,0,0,1,355,298.76Zm6.07,19.05c3.31-1.05,4-4.43,2.1-10.05s-4.41-7.91-7.51-6.92a4,4,0,0,0-2.8,3.29,14.13,14.13,0,0,0,.71,6.69,13.37,13.37,0,0,0,3.16,6A4.13,4.13,0,0,0,361.1,317.81Z" transform="translate(-62.7 45.41)" fill="#fff"/><path d="M387.74,310l-2.84,1.16q-7.09-6.23-13.83-12.71L377,314.19l-2.58.95-7.32-20.06,2.7-1q6.66,6.42,13.71,12.59l-6.27-15.49,2.34-1Z" transform="translate(-62.7 45.41)" fill="#fff"/><path d="M212.77,403q2.74.8,5.5,1.51a8.2,8.2,0,0,1,4.66,2.77,5.94,5.94,0,0,1-2,8.66,7.92,7.92,0,0,1-5.62.37c-1.1-.28-2.2-.57-3.29-.88L209.43,425c-.94-.26-1.88-.52-2.81-.8Zm-.12,10.28,2.88.77c3.14.81,5-.08,5.56-2.53a3.58,3.58,0,0,0-.59-3,5,5,0,0,0-2.91-1.84l-2.9-.77Z" transform="translate(-62.7 45.41)" fill="#fff"/><path d="M244,431.4c-1-.1-2-.2-3-.32-.63-2.66-1.21-5.32-1.77-8q-3.91-.49-7.81-1.15-2,3.58-4,7.13c-1-.18-2-.36-3-.56q6.14-10,11.45-20.36c1,.16,2,.31,3.08.45Q241.05,420,244,431.4Zm-5.29-10.62c-.63-3.15-1.22-6.31-1.75-9.46q-2.13,4.29-4.4,8.55C234.61,420.2,236.67,420.51,238.72,420.78Z" transform="translate(-62.7 45.41)" fill="#fff"/><path d="M265.66,432.41c-1.21,0-2.42,0-3.62,0q-3.6-5.06-6.84-10.22c-1-.05-2-.1-3.06-.17q-.31,5-.62,10l-2.89-.2,1.68-22q3.13.24,6.29.37a8,8,0,0,1,5,1.67,5.25,5.25,0,0,1,1.83,4.26A5.12,5.12,0,0,1,262,419.7a7,7,0,0,1-3.95,2.05Q261.64,427.15,265.66,432.41Zm-13.38-12.63c1.15.08,2.29.14,3.44.19a5.21,5.21,0,0,0,3.53-1,3.4,3.4,0,0,0,1.39-2.74c.05-2.46-1.46-3.7-4.52-3.83-1.12-.05-2.25-.11-3.37-.18C252.6,414.75,252.44,417.27,252.28,419.78Z" transform="translate(-62.7 45.41)" fill="#fff"/><path d="M284.47,411.37q-3.45.38-6.92.62.7,10,1.4,19.92c-1,.06-1.92.13-2.88.18q-.56-10-1.12-19.94-3.48.19-7,.26c0-.69,0-1.38,0-2.07q8.18-.16,16.31-1C284.33,410,284.4,410.68,284.47,411.37Z" transform="translate(-62.7 45.41)" fill="#fff"/><path d="M303.55,406.2q-2.1,6.9-4.67,13.76.83,4.65,1.64,9.29l-2.85.49c-.5-3.11-1-6.21-1.51-9.32q-4.68-5.62-8.93-11.46l2.91-.38q3.32,4.55,6.92,9,2-5.37,3.61-10.76Z" transform="translate(-62.7 45.41)" fill="#fff"/><path d="M319.19,421.35a2.3,2.3,0,0,1,1.66.11,1.81,1.81,0,0,1,1,1.16,1.89,1.89,0,0,1-.22,1.56,2.24,2.24,0,0,1-1.36,1,2.15,2.15,0,0,1-1.65-.17,1.87,1.87,0,0,1-1-1.23,1.76,1.76,0,0,1,.24-1.51A2.18,2.18,0,0,1,319.19,421.35Zm-1.67-11.27q.76,4.07,1.5,8.15l-1.43.4c-1-2.58-2-5.17-2.93-7.75-.63-2.31-1.25-4.62-1.88-6.93.93-.25,1.85-.5,2.77-.77C316.21,405.48,316.86,407.78,317.52,410.08Z" transform="translate(-62.7 45.41)" fill="#fff"/><path d="M294.89,7.5l7.7-7.5-7.7-7.5,4.25-9.88-10-4,.14-10.75L278.54-32l-4-10-9.88,4.25-7.5-7.7V-5.77h3.25v2.34h-3.25V-.94h2.34V1.23h-2.34V45.41l7.5-7.7L274.56,42l4-10,10.75.14-.14-10.75,10-4ZM270.5-3.43h-5.18V-.94h4.27V1.23h-4.27V5.78h-2.66V-5.77h7.84Zm5.13,9.21H273V3.08h2.61v2.7Zm0-4.58H273V-5.88h2.61V1.2Z" transform="translate(-62.7 45.41)" fill="#6649ec"/><rect x="194.48" y="30.19" width="24.5" height="24.5" fill="#6649ec"/><path d="M215.23,17.38l10,4-.14,10.75L235.82,32l4,10,9.88-4.24,7.5,7.7V1.23h-2.34V-.94h2.34V-3.43h-3.25V-5.77h3.25V-45.41l-7.5,7.7L239.8-42l-4,10-10.75-.14.14,10.75-10,4,4.24,9.88L211.77,0l7.7,7.5ZM243.86-5.77h7.84V5.78H249V1.23h-4.27V-.94H249V-3.43h-5.18ZM238.74,5.78V3.08h2.6v2.7Zm0-4.58V-5.88h2.6V1.2Z" transform="translate(-62.7 45.41)" fill="#6649ec"/><rect x="232.68" y="-14.07" width="24.5" height="24.5" transform="translate(427.16 41.77) rotate(-180)" fill="#6649ec"/><path d="M166.76,301.84a8.56,8.56,0,1,0,10.85,5.36A8.56,8.56,0,0,0,166.76,301.84Zm6.23,6.93a3.67,3.67,0,1,1-4.66-2.3A3.68,3.68,0,0,1,173,308.77Z" transform="translate(-62.7 45.41)" fill="#7fe4ff" opacity="0.3"/><path d="M193,310.61a8.56,8.56,0,1,0,11.6,3.45A8.56,8.56,0,0,0,193,310.61Zm5.83,10.76a3.68,3.68,0,1,1,1.48-5A3.68,3.68,0,0,1,198.84,321.37Z" transform="translate(-62.7 45.41)" fill="#7fe4ff" opacity="0.3"/><path d="M208.07,312.19a12.48,12.48,0,0,0-1.75-2.45l1.2-1.09a13.94,13.94,0,0,0-3.6-2.84l-.78,1.41a12.55,12.55,0,0,0-4.5-1.47l.21-1.6a14.14,14.14,0,0,0-4.59.17l.32,1.57a12.87,12.87,0,0,0-3.44,1.26l-.77-1.41a14,14,0,0,0-3.62,2.81l1.18,1.09a12.5,12.5,0,0,0-2.5,4l-1.5-.58a14.11,14.11,0,0,0-.93,4.49l1.61.06a12.58,12.58,0,0,0,.71,4.68l-1.52.54a16.24,16.24,0,0,0,.89,2,14.28,14.28,0,0,0,1.33,2l1.26-1a12.56,12.56,0,0,0,3.58,3.1l-.8,1.4a14.24,14.24,0,0,0,4.29,1.6l.31-1.57a12.34,12.34,0,0,0,4.73,0l.3,1.58a14.22,14.22,0,0,0,4.11-1.46l.19-.11-.78-1.4a12.32,12.32,0,0,0,3.61-3l1.25,1a14.16,14.16,0,0,0,2.25-4l-1.51-.55a12.54,12.54,0,0,0,.75-4.67l1.62-.05a14.12,14.12,0,0,0-.89-4.5l-1.51.57A12.46,12.46,0,0,0,208.07,312.19Zm-6.35,14.5a9.73,9.73,0,1,1,3.92-13.18A9.74,9.74,0,0,1,201.72,326.69Z" transform="translate(-62.7 45.41)" fill="#fff"/><path d="M180.34,316.15a12.56,12.56,0,0,0,1.53-4.47l1.6.22a14.08,14.08,0,0,0-.11-4.58l-1.59.3a12.55,12.55,0,0,0-.43-1.68,12.35,12.35,0,0,0-1.31-2.71l1.36-.87a13.86,13.86,0,0,0-3.07-3.41l-1,1.26a12.54,12.54,0,0,0-4.18-2.21l.47-1.54a14,14,0,0,0-4.55-.6l0,1.6a12.4,12.4,0,0,0-3.61.66L165,296.6a14.22,14.22,0,0,0-4,2.16l1,1.28a12.73,12.73,0,0,0-3.14,3.53l-1.38-.82a14,14,0,0,0-1.67,4.27l1.58.33a12.32,12.32,0,0,0-.09,4.73l-1.59.28a14.17,14.17,0,0,0,1.5,4.32l1.42-.77a12.31,12.31,0,0,0,3,3.65l-1,1.25a14.18,14.18,0,0,0,4,2.31l.57-1.5a12.44,12.44,0,0,0,4.66.82l0,1.61a14.39,14.39,0,0,0,4.3-.75l.21-.08-.54-1.51a12.43,12.43,0,0,0,4.08-2.4l1.06,1.2a14.2,14.2,0,0,0,2.89-3.56Zm-7.69,3.07a9.79,9.79,0,1,1,6.13-12.41A9.78,9.78,0,0,1,172.65,319.22Z" transform="translate(-62.7 45.41)" fill="#fff"/><path d="M89.76,449.43,92.27,447l-2.51-2.44,1.38-3.22L87.89,440l0-3.5-3.5.05-1.3-3.25-3.21,1.38-2.45-2.51v12.91h1.06v.76H77.48v.81h.76v.71h-.76v14.38l2.45-2.5,3.21,1.38,1.3-3.25,3.5,0,0-3.5,3.25-1.29Zm-7.94-3.56H80.13v.81h1.39v.71H80.13v1.48h-.86v-3.76h2.55Zm1.67,3h-.85V448h.85v.88Zm0-1.49h-.85v-2.31h.85v2.31Z" transform="translate(-62.7 45.41)" fill="#6649ec"/><rect x="14.79" y="487.44" width="7.98" height="7.98" fill="#6649ec"/><path d="M63.82,452.65l3.25,1.29,0,3.5,3.5,0,1.3,3.25L75,459.27l2.44,2.5V447.39h-.76v-.71h.76v-.81h-1v-.76h1V432.2L75,434.71l-3.21-1.38-1.3,3.25-3.5-.05,0,3.5-3.25,1.3,1.38,3.22L62.7,447l2.5,2.44Zm9.33-7.54H75.7v3.76h-.87v-1.48H73.44v-.71h1.39v-.81H73.15Zm-1.67,3.76V448h.85v.88Zm0-1.49v-2.31h.85v2.31Z" transform="translate(-62.7 45.41)" fill="#6649ec"/><rect x="69.51" y="442.41" width="7.98" height="7.98" transform="translate(84.29 938.2) rotate(-180)" fill="#6649ec"/><path d="M108.53,456.87l2.51-2.44L108.53,452l1.39-3.22-3.25-1.29,0-3.5-3.5,0-1.3-3.25-3.21,1.38-2.44-2.5v12.9h1v.77h-1v.81H97v.7h-.76v14.39l2.44-2.51,3.21,1.38,1.3-3.25,3.5.05,0-3.5,3.25-1.3Zm-7.94-3.55H98.91v.81h1.39v.7H98.91v1.48H98v-3.76h2.55Zm1.67,3h-.85v-.87h.85v.87Zm0-1.49h-.85v-2.3h.85v2.3Z" transform="translate(-62.7 45.41)" fill="#6649ec"/><rect x="33.56" y="494.89" width="7.98" height="7.98" fill="#6649ec"/><path d="M82.6,460.09l3.25,1.3,0,3.5,3.5-.05,1.3,3.25,3.21-1.38,2.45,2.51V454.83H95.5v-.7h.76v-.81H95.2v-.77h1.06v-12.9l-2.45,2.5-3.21-1.38L89.3,444l-3.5,0,0,3.5-3.25,1.29L84,452l-2.51,2.44L84,456.87Zm9.32-7.54h2.55v3.76H93.6v-1.48H92.22v-.7H93.6v-.81H91.92Zm-1.67,3.76v-.87h.85v.87Zm0-1.49v-2.3h.85v2.3Z" transform="translate(-62.7 45.41)" fill="#6649ec"/><rect x="88.28" y="449.85" width="7.98" height="7.98" transform="translate(121.84 953.09) rotate(-180)" fill="#6649ec"/><path d="M126.45,462.34,129,459.9l-2.51-2.44,1.38-3.22-3.25-1.3,0-3.5-3.5.05-1.3-3.25-3.21,1.38-2.45-2.51V458h1.06v.76h-1.06v.81h.77v.71h-.77v14.38l2.45-2.5,3.21,1.38,1.3-3.25,3.5,0,0-3.5,3.25-1.29Zm-7.94-3.56h-1.68v.81h1.38v.71h-1.38v1.48H116V458h2.55Zm1.67,3h-.85v-.88h.85v.88Zm0-1.49h-.85V458h.85v2.31Z" transform="translate(-62.7 45.41)" fill="#6649ec"/><rect x="51.48" y="500.36" width="7.98" height="7.98" fill="#6649ec"/><path d="M100.52,465.56l3.25,1.29,0,3.5,3.5,0,1.3,3.25,3.21-1.38,2.44,2.5V460.3h-.76v-.71h.76v-.81h-1V458h1V445.11l-2.44,2.51-3.21-1.38-1.3,3.25-3.5-.05,0,3.5-3.25,1.3,1.38,3.22-2.51,2.44,2.51,2.44Zm9.32-7.54h2.55v3.76h-.87V460.3h-1.38v-.71h1.38v-.81h-1.68Zm-1.67,3.76v-.88H109v.88Zm0-1.49V458H109v2.31Z" transform="translate(-62.7 45.41)" fill="#6649ec"/><rect x="106.2" y="455.32" width="7.98" height="7.98" transform="translate(157.68 964.02) rotate(-180)" fill="#6649ec"/><path d="M144.73,464.55l1.93-2.92-3-1.86.67-3.43-3.46-.58-.7-3.43-3.41.79-2-2.9-2.84,2-2.92-1.93,2.74,12.61,1-.23.16.75-1,.22.17.79.74-.16.15.69-.74.16,3.06,14.06,1.85-3,3.44.66.57-3.45,3.43-.7-.79-3.41,2.9-2Zm-8.52-1.79-1.64.36.17.79,1.36-.3.15.69-1.36.3.32,1.45-.85.18-.8-3.67,2.49-.55Zm2.27,2.57-.83.18-.18-.85.82-.18.19.85Zm-.32-1.46-.82.19-.49-2.26.82-.18.49,2.25Z" transform="translate(-62.7 45.41)" fill="#6649ec"/><rect x="131.92" y="458.99" width="7.98" height="7.98" transform="translate(-158.13 84.95) rotate(-12.29)" fill="#6649ec"/><path d="M120.07,473.21l3.45.57.7,3.43,3.41-.79,2,2.9,2.85-2,2.92,1.93-3.06-14.06-.74.17-.15-.69.74-.17-.17-.79-1,.23-.16-.75,1-.22-2.74-12.61-1.86,3-3.43-.66-.58,3.45-3.43.7.79,3.41-2.9,2,2,2.85-1.93,2.92,3,1.85Zm7.51-9.35,2.49-.54.8,3.67-.85.19-.31-1.45-1.36.29-.15-.69,1.36-.29-.17-.79-1.65.36Zm-.83,4-.19-.86.83-.18.18.86-.82.18Zm-.32-1.46-.49-2.25.83-.18.49,2.25-.83.18Z" transform="translate(-62.7 45.41)" fill="#6649ec"/><rect x="124.2" y="461.05" width="7.98" height="7.98" transform="translate(289.73 937.55) rotate(167.71)" fill="#6649ec"/><path d="M164.66,467.82l1.93-2.92-3-1.85.66-3.44-3.45-.57-.7-3.43-3.41.79-2-2.9-2.85,2L149,453.6l2.75,12.61,1-.22.17.74-1,.23.18.79.74-.16.15.69-.74.16,3.06,14.05,1.85-3,3.44.66.57-3.45,3.43-.7-.79-3.41,2.9-2ZM156.14,466l-1.65.35.18.8,1.35-.3.15.69-1.35.29.31,1.45-.85.19-.8-3.68,2.5-.54Zm2.27,2.57-.83.18-.19-.86.83-.18.19.86Zm-.32-1.46-.83.18-.49-2.25.83-.18.49,2.25Z" transform="translate(-62.7 45.41)" fill="#6649ec"/><rect x="151.84" y="462.27" width="7.98" height="7.98" transform="translate(-158.37 89.26) rotate(-12.29)" fill="#6649ec"/><path d="M140,476.48l3.45.58.7,3.43,3.41-.79,2,2.9,2.85-2,2.92,1.92-3.06-14.05-.75.16-.15-.69.75-.16-.18-.79-1,.22-.16-.74,1-.23L149,453.6l-1.85,3-3.44-.66-.57,3.45-3.43.7.79,3.41-2.9,2,2,2.85-1.93,2.92,3,1.85Zm7.5-9.34,2.5-.55.8,3.68-.85.18-.32-1.45-1.35.3-.15-.69,1.35-.3-.17-.79-1.64.36Zm-.83,4-.18-.86.82-.18.19.86-.83.18Zm-.31-1.46-.5-2.25.83-.19.49,2.26-.82.18Z" transform="translate(-62.7 45.41)" fill="#6649ec"/><rect x="144.13" y="464.33" width="7.98" height="7.98" transform="translate(329.82 939.79) rotate(167.71)" fill="#6649ec"/><path d="M183.33,471.35l1.93-2.92-3-1.85.66-3.44-3.45-.57-.7-3.43-3.41.79-2-2.9-2.84,2-2.92-1.93,2.74,12.61,1-.22.16.74-1,.23.18.79.74-.16.15.69-.74.16L174,486l1.85-3,3.44.67.57-3.45,3.43-.7-.79-3.41,2.9-2Zm-8.52-1.79-1.64.36.17.79,1.35-.29.15.69-1.35.29.31,1.45L173,473l-.81-3.68,2.5-.54Zm2.27,2.58-.83.18-.18-.86.82-.18.19.86Zm-.32-1.46-.83.18-.49-2.25.83-.18.49,2.25Z" transform="translate(-62.7 45.41)" fill="#6649ec"/><rect x="170.51" y="465.79" width="7.98" height="7.98" transform="translate(-158.69 93.32) rotate(-12.29)" fill="#6649ec"/><path d="M158.67,480l3.45.58.7,3.43,3.41-.79,2,2.9,2.85-2L174,486l-3.06-14-.75.16-.15-.69.75-.16-.18-.79-1,.22-.16-.74,1-.23-2.74-12.61-1.86,3-3.43-.67-.58,3.46-3.43.7.79,3.41-2.9,2,2,2.84-1.92,2.92,3,1.86Zm7.51-9.35,2.49-.54.8,3.68-.85.18-.31-1.45-1.36.3-.15-.69,1.36-.3-.18-.79-1.64.36Zm-.83,4-.19-.86.83-.18.18.86-.82.18Zm-.32-1.46-.49-2.26.83-.18.49,2.26-.83.18Z" transform="translate(-62.7 45.41)" fill="#6649ec"/><rect x="162.8" y="467.86" width="7.98" height="7.98" transform="translate(367.49 942.79) rotate(167.71)" fill="#6649ec"/><path d="M201.76,472.88l1.74-3-3.08-1.66.45-3.47-3.49-.36-.91-3.38-3.36,1L191,459.22l-2.71,2.21-3-1.74,3.54,12.41,1-.29.21.73-1,.29.22.78.73-.21.19.68-.73.21,4,13.83L195,485l3.47.45.36-3.48,3.38-.92-1-3.35L204,475.6Zm-8.61-1.24-1.62.47.22.77,1.33-.38.2.68-1.34.38.41,1.43-.84.24-1-3.62,2.46-.7Zm2.42,2.43-.81.23-.24-.84.81-.24.24.85Zm-.41-1.44-.81.23-.63-2.21.81-.23.63,2.21Z" transform="translate(-62.7 45.41)" fill="#6649ec"/><rect x="188.86" y="467.89" width="7.98" height="7.98" transform="translate(-184.8 116.46) rotate(-15.93)" fill="#6649ec"/><path d="M177.7,483.1l3.48.35.92,3.38,3.35-1,2.14,2.77,2.71-2.21,3,1.74-4-13.83-.73.21-.19-.68.73-.21-.22-.78-1,.29-.21-.73,1-.29-3.54-12.41-1.67,3.08-3.47-.45-.35,3.48-3.38.92,1,3.35-2.76,2.14,2.21,2.72-1.74,3,3.08,1.66Zm6.9-9.81,2.45-.7,1,3.62-.84.23-.41-1.42-1.33.38-.2-.68,1.34-.38-.22-.78-1.62.46Zm-.57,4.07-.25-.84.82-.23.24.84-.81.23Zm-.41-1.43-.64-2.22.82-.23.63,2.22-.81.23Z" transform="translate(-62.7 45.41)" fill="#6649ec"/><rect x="181.3" y="470.44" width="7.98" height="7.98" transform="translate(430.97 925.2) rotate(164.07)" fill="#6649ec"/><path d="M221.86,474.89l1.74-3-3.09-1.66.45-3.47-3.48-.36-.92-3.37-3.35,1-2.14-2.77-2.71,2.21-3-1.74,3.54,12.41,1-.29.21.74-1,.29.22.78.74-.21.19.68-.73.2,3.95,13.84,1.66-3.08,3.47.44.35-3.48,3.38-.92-1-3.35,2.77-2.14Zm-8.62-1.24-1.62.46.22.78,1.34-.38.19.68-1.33.38.4,1.42-.83.24-1-3.62,2.45-.7Zm2.43,2.42-.82.24-.24-.85.82-.23.24.84Zm-.41-1.43-.82.23-.63-2.22.82-.23.63,2.22Z" transform="translate(-62.7 45.41)" fill="#6649ec"/><rect x="208.96" y="469.9" width="7.98" height="7.98" transform="translate(-184.58 122.06) rotate(-15.93)" fill="#6649ec"/><path d="M197.8,485.1l3.48.35.91,3.38,3.36-1,2.14,2.77,2.71-2.21,3,1.74-3.95-13.84-.73.21-.2-.67.73-.21-.22-.78-1,.29-.21-.74,1-.29-3.54-12.41-1.66,3.08-3.47-.44-.36,3.48-3.37.92,1,3.35-2.77,2.14,2.21,2.71-1.74,3,3.08,1.66Zm6.89-9.81,2.46-.7,1,3.62-.84.24-.4-1.43-1.34.38-.19-.67,1.33-.39-.22-.78-1.62.47Zm-.57,4.08-.24-.85.81-.23.25.85-.82.23Zm-.41-1.44-.63-2.21.81-.24.64,2.22-.82.23Z" transform="translate(-62.7 45.41)" fill="#6649ec"/><rect x="201.39" y="472.45" width="7.98" height="7.98" transform="translate(470.94 923.61) rotate(164.07)" fill="#6649ec"/><path d="M241.59,476.23l1.74-3-3.08-1.66.44-3.47-3.48-.36-.92-3.37-3.35,1-2.14-2.77-2.71,2.21-3-1.74,3.54,12.41,1-.29.21.74-1,.29.23.78.73-.21.19.68-.73.2,3.95,13.84,1.66-3.08,3.47.44.35-3.48,3.38-.92-1-3.35,2.77-2.14ZM233,475l-1.62.46.23.78,1.33-.38.19.68-1.33.38.41,1.42-.84.24-1-3.62,2.45-.7Zm2.43,2.42-.81.23-.25-.84.82-.23.24.84ZM235,476l-.81.23-.64-2.22.82-.23L235,476Z" transform="translate(-62.7 45.41)" fill="#6649ec"/><rect x="228.69" y="471.24" width="7.98" height="7.98" transform="translate(-184.19 127.52) rotate(-15.93)" fill="#6649ec"/><path d="M217.53,486.44l3.48.35.92,3.38,3.35-1,2.14,2.77,2.71-2.21,3,1.74-3.95-13.84-.73.21-.2-.67L229,477l-.23-.78-1,.29-.21-.74,1-.29L225.05,463l-1.66,3.08-3.47-.44-.36,3.48-3.37.92,1,3.35-2.77,2.14,2.21,2.71-1.74,3L218,483Zm6.89-9.81,2.46-.7,1,3.62-.83.24-.41-1.43-1.34.38-.19-.67,1.34-.39-.23-.78-1.62.47Zm-.57,4.08-.24-.85.82-.23.24.85-.82.23Zm-.41-1.44-.63-2.21.81-.24.64,2.22-.82.23Z" transform="translate(-62.7 45.41)" fill="#6649ec"/><rect x="221.12" y="473.79" width="7.98" height="7.98" transform="translate(510.01 920.83) rotate(164.07)" fill="#6649ec"/><path d="M260.07,475.27l1.53-3.15-3.18-1.45.21-3.49-3.5-.12L254,463.75,250.71,465l-2.32-2.62-2.56,2.39-3.15-1.53,4.38,12.14,1-.36.26.72-1,.36.28.76.71-.26.24.67-.71.25L252.7,491l1.45-3.19,3.49.21.12-3.49,3.31-1.15-1.23-3.27,2.62-2.33Zm-8.68-.66-1.58.57.27.76,1.31-.47.24.67-1.31.47.51,1.39-.82.3-1.28-3.54,2.41-.87Zm2.59,2.26-.8.28-.3-.82.8-.29.3.83Zm-.51-1.41-.79.29-.78-2.17.79-.29.78,2.17Z" transform="translate(-62.7 45.41)" fill="#6649ec"/><rect x="247.13" y="470.88" width="7.98" height="7.98" transform="matrix(0.94, -0.34, 0.34, 0.94, -208.74, 158.58)" fill="#6649ec"/><path d="M236.76,487.08l3.49.12,1.15,3.31,3.28-1.23L247,491.9l2.55-2.39L252.7,491l-4.87-13.54-.72.26-.24-.66.72-.26-.28-.76-1,.36-.26-.72,1-.36-4.38-12.14-1.45,3.18-3.49-.21-.12,3.5-3.31,1.14,1.23,3.28-2.62,2.32,2.39,2.56-1.53,3.15,3.19,1.45ZM243,476.83l2.4-.86,1.27,3.53-.81.3-.51-1.4-1.3.47-.24-.66,1.3-.47-.27-.76-1.59.57Zm-.3,4.11-.3-.83.8-.29.3.83-.8.29Zm-.51-1.41-.78-2.17.8-.29.78,2.17-.8.29Z" transform="translate(-62.7 45.41)" fill="#6649ec"/><rect x="239.75" y="473.93" width="7.98" height="7.98" transform="translate(572.29 890.4) rotate(160.2)" fill="#6649ec"/><path d="M280.25,475.82l1.53-3.15-3.18-1.45.21-3.49-3.5-.12-1.14-3.31-3.28,1.23-2.32-2.62L266,465.3l-3.15-1.53,4.38,12.14,1-.36.26.72-1,.36.28.76.71-.25.24.66-.71.26,4.87,13.53,1.45-3.18,3.49.2.12-3.49,3.31-1.15L280,480.7l2.62-2.32Zm-8.68-.66-1.58.57.27.77,1.31-.48.24.67-1.31.47.5,1.39-.81.3-1.28-3.54,2.41-.87Zm2.59,2.26-.8.28-.3-.82.8-.29.3.83Zm-.51-1.41-.79.29-.78-2.17.79-.29.78,2.17Z" transform="translate(-62.7 45.41)" fill="#6649ec"/><rect x="267.31" y="471.43" width="7.98" height="7.98" transform="translate(-207.73 165.45) rotate(-19.8)" fill="#6649ec"/><path d="M256.94,487.63l3.49.12,1.15,3.31,3.27-1.23,2.33,2.62,2.55-2.39,3.15,1.53L268,478.06l-.72.25-.24-.66.72-.26-.28-.76-1,.36-.26-.72,1-.36-4.38-12.14L261.41,467l-3.49-.21-.12,3.49-3.31,1.15,1.23,3.27L253.1,477l2.39,2.56L254,482.69l3.19,1.45Zm6.22-10.25,2.4-.86,1.27,3.54-.82.29-.5-1.4-1.3.48-.24-.67,1.3-.47-.27-.76-1.59.57Zm-.3,4.11-.3-.83.8-.29.3.83-.8.29Zm-.51-1.41-.78-2.17.8-.28.78,2.16-.8.29Z" transform="translate(-62.7 45.41)" fill="#6649ec"/><rect x="259.93" y="474.48" width="7.98" height="7.98" transform="translate(611.64 884.64) rotate(160.2)" fill="#6649ec"/><path d="M299,476l1.53-3.15-3.19-1.45.21-3.49-3.5-.12-1.14-3.31-3.28,1.23-2.32-2.62-2.55,2.39-3.15-1.53L286,476.08l1-.36.25.72-1,.35.27.77.72-.26.24.66-.72.26,4.88,13.53,1.45-3.18,3.49.21.12-3.5,3.31-1.14-1.23-3.28,2.62-2.32Zm-8.68-.66-1.59.58.28.76,1.31-.47.23.66-1.3.47.5,1.4-.82.29-1.27-3.54,2.4-.86Zm2.59,2.26-.8.29-.3-.83.8-.29.3.83Zm-.51-1.41-.8.29-.78-2.17.8-.28.78,2.16Z" transform="translate(-62.7 45.41)" fill="#6649ec"/><rect x="286.02" y="471.59" width="7.98" height="7.98" transform="translate(-206.68 171.8) rotate(-19.8)" fill="#6649ec"/><path d="M275.65,487.79l3.5.12,1.14,3.31,3.28-1.23,2.32,2.62,2.56-2.39,3.15,1.53-4.88-13.53-.71.26-.24-.67.71-.25-.27-.77-1,.36-.26-.72,1-.35-4.37-12.15-1.45,3.19-3.49-.21-.12,3.5-3.31,1.14,1.23,3.28-2.62,2.32,2.39,2.56-1.53,3.14,3.18,1.45Zm6.22-10.24,2.4-.87,1.28,3.54-.82.29-.5-1.39-1.31.47-.24-.66,1.31-.48-.27-.76-1.59.57Zm-.29,4.1-.3-.83.8-.28.29.82-.79.29Zm-.51-1.41-.78-2.16.8-.29.78,2.17-.8.28Z" transform="translate(-62.7 45.41)" fill="#6649ec"/><rect x="278.65" y="474.65" width="7.98" height="7.98" transform="translate(648.02 878.61) rotate(160.2)" fill="#6649ec"/><path d="M317.32,475.06l1.27-3.26-3.3-1.18-.08-3.5-3.5.17-1.41-3.2-3.16,1.49-2.53-2.41-2.36,2.59L299,464.5l5.37,11.74,1-.44.32.69-1,.44.33.74.69-.32.3.64-.69.32,6,13.08,1.18-3.29L316,488l-.17-3.49,3.2-1.42-1.49-3.16,2.41-2.53Zm-8.7.07-1.53.7.33.73,1.27-.57.29.64-1.26.57.61,1.35-.79.37L306,475.49l2.32-1.06Zm2.76,2-.77.35-.36-.8.77-.35.36.8Zm-.62-1.36-.77.35-1-2.09.77-.36,1,2.1Z" transform="translate(-62.7 45.41)" fill="#6649ec"/><rect x="304.38" y="471.42" width="7.98" height="7.98" transform="translate(-232.45 216.67) rotate(-24.57)" fill="#6649ec"/><path d="M295.07,488.77l3.49-.17,1.42,3.2,3.16-1.5,2.53,2.42,2.35-2.59,3.27,1.26-6-13.08-.7.31-.29-.64.69-.31-.33-.74-1,.44-.31-.69,1-.44L299,464.5l-1.18,3.29-3.5.08.17,3.5-3.2,1.41,1.5,3.17-2.42,2.53,2.6,2.35-1.27,3.26,3.3,1.18ZM300.41,478l2.33-1.06,1.56,3.42-.79.36-.62-1.35-1.26.58-.29-.64,1.26-.58-.34-.74-1.53.7Zm0,4.11-.37-.8.78-.35.36.8-.77.35Zm-.62-1.36-1-2.09.77-.35,1,2.09-.77.35Z" transform="translate(-62.7 45.41)" fill="#6649ec"/><rect x="297.28" y="475.07" width="7.98" height="7.98" transform="translate(711.74 834.9) rotate(155.43)" fill="#6649ec"/><path d="M337.49,474l1.26-3.26-3.29-1.18-.08-3.5-3.5.17-1.41-3.2-3.17,1.5-2.53-2.42-2.35,2.59-3.26-1.26,5.37,11.74,1-.44.31.69-1,.44.34.74.69-.32.29.64-.69.32,6,13.08,1.18-3.29,3.5-.08-.17-3.5,3.2-1.41-1.49-3.17,2.41-2.53Zm-8.7.07-1.54.7.34.74,1.26-.58.3.64-1.27.58.62,1.35-.79.36-1.56-3.42,2.32-1.06Zm2.76,2-.77.35-.37-.8.78-.35.36.8Zm-.62-1.36-.77.36-1-2.1.77-.35,1,2.09Z" transform="translate(-62.7 45.41)" fill="#6649ec"/><rect x="324.54" y="470.38" width="7.98" height="7.98" transform="translate(-230.19 224.96) rotate(-24.57)" fill="#6649ec"/><path d="M315.24,487.73l3.49-.17,1.42,3.2,3.16-1.49,2.53,2.41,2.35-2.59,3.26,1.26-6-13.08-.69.32-.29-.64.69-.32-.34-.74-1,.44-.32-.69,1-.44-5.37-11.74L318,466.75l-3.5.09.17,3.49-3.2,1.42,1.5,3.16-2.42,2.53,2.59,2.35-1.26,3.26,3.3,1.18ZM320.58,477l2.32-1.06,1.57,3.42-.79.36-.62-1.35-1.26.58-.29-.64,1.26-.58-.34-.74-1.53.71Zm.05,4.12-.37-.8L321,480l.37.8-.77.36Zm-.62-1.36-1-2.1.77-.35,1,2.09-.77.36Z" transform="translate(-62.7 45.41)" fill="#6649ec"/><rect x="317.44" y="474.04" width="7.98" height="7.98" transform="translate(749.82 824.53) rotate(155.43)" fill="#6649ec"/><path d="M356.06,471.54l1.26-3.26L354,467.1l-.08-3.5-3.5.17-1.41-3.2-3.17,1.5-2.53-2.42-2.35,2.6L337.73,461l5.37,11.74,1-.44.31.69-1,.44.34.74.69-.31.29.64-.69.31,6,13.09,1.18-3.3,3.5-.08-.17-3.5,3.2-1.41-1.49-3.16,2.41-2.54Zm-8.7.07-1.54.7.34.74,1.26-.58.3.64-1.27.58.62,1.35-.79.36L344.72,472l2.32-1.06Zm2.76,2-.77.36-.37-.8.78-.36.36.8Zm-.62-1.35-.77.35-1-2.1.77-.35,1,2.1Z" transform="translate(-62.7 45.41)" fill="#6649ec"/><rect x="343.11" y="467.9" width="7.98" height="7.98" transform="translate(-227.48 232.46) rotate(-24.57)" fill="#6649ec"/><path d="M333.81,485.25l3.49-.17,1.42,3.2,3.16-1.49,2.53,2.41,2.35-2.59,3.26,1.27-6-13.09-.69.32-.29-.64.69-.32-.34-.74-1,.44-.32-.69,1-.44L337.73,461l-1.18,3.3-3.5.08.17,3.49-3.2,1.42,1.5,3.16L329.1,475l2.59,2.35-1.26,3.27,3.29,1.18Zm5.34-10.73,2.32-1.06,1.57,3.42-.79.36-.62-1.34-1.26.57-.29-.64,1.26-.58-.34-.73-1.53.7Zm.05,4.12-.37-.8.77-.35.37.8-.77.35Zm-.62-1.36-1-2.1.77-.35,1,2.1-.77.35Z" transform="translate(-62.7 45.41)" fill="#6649ec"/><rect x="336.01" y="471.56" width="7.98" height="7.98" transform="translate(784.25 812.08) rotate(155.43)" fill="#6649ec"/><path d="M374.09,466.58l.91-3.38-3.4-.83-.45-3.47-3.46.54-1.74-3-3,1.83-2.77-2.14-2.06,2.82-3.38-.91,6.57,11.11.91-.54.39.66-.91.54.41.69.66-.38.36.6-.66.39,7.33,12.38.82-3.4,3.47-.45-.54-3.46,3-1.74-1.82-3,2.13-2.77Zm-8.65,1-1.45.86.41.69,1.2-.7.36.6-1.2.71.76,1.28-.75.44-1.91-3.24,2.19-1.3Zm3,1.73-.73.43-.44-.76.73-.43.44.76Zm-.76-1.29-.73.43-1.17-2,.73-.43,1.17,2Z" transform="translate(-62.7 45.41)" fill="#6649ec"/><rect x="361.23" y="463.87" width="7.98" height="7.98" transform="translate(-250.04 296.58) rotate(-30.61)" fill="#6649ec"/><path d="M353.4,482.55l3.46-.54,1.74,3,3-1.82,2.77,2.13,2.07-2.82,3.38.91-7.33-12.38-.65.39-.36-.61.65-.39-.41-.69-.91.53-.39-.65.91-.54L354.75,458l-.83,3.4-3.47.45.54,3.46-3,1.74,1.82,3-2.14,2.77,2.83,2.07-.92,3.37,3.4.83Zm4.19-11.23,2.2-1.3,1.91,3.23-.75.45-.75-1.28-1.2.71-.35-.61,1.19-.71-.41-.69L358,472Zm.48,4.08-.45-.75.73-.43.45.75-.73.43Zm-.76-1.28-1.18-2,.73-.44,1.18,2-.73.43Z" transform="translate(-62.7 45.41)" fill="#6649ec"/><rect x="354.55" y="468.26" width="7.98" height="7.98" transform="translate(844.89 741.52) rotate(149.39)" fill="#6649ec"/><path d="M392.13,463.21l.63-3.44-3.46-.54-.73-3.42-3.4.82-2-2.88-2.83,2.06-2.94-1.89-1.82,3-3.44-.63,7.47,10.53.86-.61.44.62-.86.61.47.66.62-.44.41.58-.62.44,8.32,11.72.55-3.45,3.42-.74-.83-3.4,2.88-2L393.22,468l1.9-2.94Zm-8.53,1.7-1.38,1,.47.67,1.13-.81.41.58-1.13.8.86,1.21-.71.5-2.18-3.06,2.08-1.48Zm3.09,1.48-.69.49-.51-.72.69-.49.51.72Zm-.86-1.22-.69.49-1.34-1.88.69-.49,1.34,1.88Z" transform="translate(-62.7 45.41)" fill="#6649ec"/><rect x="379.41" y="461.24" width="7.98" height="7.98" transform="translate(-261.25 353.26) rotate(-35.37)" fill="#6649ec"/><path d="M372.84,480.85l3.4-.82,2,2.88,2.83-2.07,2.94,1.9,1.82-3,3.44.62-8.32-11.72-.62.44-.41-.58.62-.44-.47-.66-.86.61-.44-.62.86-.61-7.47-10.53-.54,3.46-3.43.74.83,3.4-2.88,2,2.06,2.82-1.9,2.94,3,1.83-.63,3.44,3.46.54Zm3.24-11.54,2.08-1.48,2.18,3.07-.71.5-.86-1.21-1.13.8-.4-.57,1.13-.8-.47-.67-1.38,1Zm.82,4-.51-.72.69-.49.51.72-.69.49Zm-.87-1.22-1.33-1.88.69-.49,1.34,1.88-.7.49Z" transform="translate(-62.7 45.41)" fill="#6649ec"/><rect x="373.12" y="466.17" width="7.98" height="7.98" transform="translate(894.08 680.6) rotate(144.63)" fill="#6649ec"/><path d="M411.75,458.41l.63-3.44-3.46-.54-.74-3.42-3.4.82-2-2.88L400,451,397,449.12l-1.83,3-3.44-.63L399.23,462l.87-.61.44.62-.86.61.46.66.62-.44.41.58-.62.44,8.33,11.72.54-3.45,3.42-.74L412,468l2.88-2-2.06-2.83,1.89-2.94Zm-8.54,1.7-1.37,1,.47.67,1.13-.81.41.58-1.14.8.86,1.21-.7.5L400.69,461l2.08-1.48Zm3.1,1.48-.69.49-.51-.72.69-.49.51.72Zm-.87-1.22-.69.49L403.42,459l.69-.49,1.33,1.88Z" transform="translate(-62.7 45.41)" fill="#6649ec"/><rect x="399.02" y="456.44" width="7.98" height="7.98" transform="translate(-254.85 363.73) rotate(-35.37)" fill="#6649ec"/><path d="M392.46,476.05l3.4-.82,2,2.88,2.83-2.07,2.94,1.9,1.82-3,3.44.62-8.33-11.72-.62.44-.41-.58.62-.44-.46-.66-.87.61-.44-.62.86-.61-7.47-10.53-.54,3.46-3.42.74.82,3.4-2.88,2,2.07,2.82-1.9,2.94,3,1.83-.63,3.44,3.45.54Zm3.24-11.54,2.08-1.48L400,466.1l-.71.5-.86-1.21-1.13.8-.41-.57,1.13-.8-.47-.67-1.37,1Zm.81,4-.5-.72.69-.49.51.72-.7.49Zm-.86-1.22-1.33-1.88L395,465l1.33,1.88-.69.49Z" transform="translate(-62.7 45.41)" fill="#6649ec"/><rect x="392.74" y="461.37" width="7.98" height="7.98" transform="translate(926.91 660.53) rotate(144.63)" fill="#6649ec"/><path d="M429.52,452.5l.63-3.45-3.45-.54-.74-3.42-3.4.83-2-2.88-2.83,2.06-2.94-1.9-1.82,3-3.44-.63L417,456.08l.86-.61.44.62-.86.61.47.67.62-.44.41.57-.62.44,8.33,11.73.54-3.46,3.42-.73-.83-3.4,2.88-2-2.06-2.83,1.9-2.94ZM421,454.19l-1.38,1,.47.66,1.13-.8.41.57-1.13.81.86,1.2-.71.51-2.18-3.07,2.09-1.48Zm3.09,1.48-.69.49-.51-.71.7-.49.5.71Zm-.86-1.22-.69.5-1.34-1.88.7-.49,1.33,1.87Z" transform="translate(-62.7 45.41)" fill="#6649ec"/><rect x="416.8" y="450.53" width="7.98" height="7.98" transform="translate(-248.14 372.93) rotate(-35.37)" fill="#6649ec"/><path d="M410.24,470.14l3.4-.83,2,2.88,2.82-2.06,2.94,1.9,1.82-3,3.45.63-8.33-11.73-.62.44-.41-.57.62-.44-.47-.67-.86.62-.44-.63.86-.61-7.47-10.52L409,449l-3.42.73.82,3.4-2.88,2,2.06,2.83-1.9,2.94,3,1.82-.63,3.44,3.46.54Zm3.23-11.55,2.09-1.48,2.17,3.07-.7.5-.86-1.2-1.14.8-.4-.58,1.13-.8-.47-.66-1.37,1Zm.82,4-.51-.72.69-.49.51.72-.69.49Zm-.86-1.22-1.34-1.88.69-.49,1.34,1.88-.69.49Z" transform="translate(-62.7 45.41)" fill="#6649ec"/><rect x="410.51" y="455.45" width="7.98" height="7.98" transform="translate(955.76 639.5) rotate(144.63)" fill="#6649ec"/><path d="M444.69,443.43l.63-3.44-3.45-.54-.74-3.42-3.4.82-2-2.88L432.91,436l-2.94-1.9-1.82,3-3.44-.63L432.18,447l.86-.62.45.63-.87.61.47.66.62-.44.41.57-.62.44,8.33,11.73.54-3.45,3.42-.74L445,453l2.88-2-2.07-2.83,1.9-2.94Zm-8.53,1.7-1.37,1,.46.66,1.14-.8.4.58-1.13.8.86,1.21-.71.5L433.64,446l2.08-1.47Zm3.1,1.48-.7.49-.5-.72.69-.49.51.72Zm-.87-1.22-.69.49L436.37,444l.69-.49,1.33,1.88Z" transform="translate(-62.7 45.41)" fill="#6649ec"/><rect x="431.97" y="441.46" width="7.98" height="7.98" transform="translate(-240.09 380.04) rotate(-35.37)" fill="#6649ec"/><path d="M425.41,461.07l3.4-.82,2,2.87,2.82-2.06,2.94,1.9,1.83-3,3.44.63-8.33-11.73-.62.44-.41-.57.62-.44-.47-.66-.86.61-.44-.62.86-.61-7.47-10.53-.54,3.46-3.42.74.82,3.4-2.88,2,2.06,2.82-1.89,2.94,3,1.82-.63,3.45,3.46.54Zm3.24-11.54,2.08-1.48,2.18,3.07-.71.5-.86-1.21-1.13.8-.41-.57,1.13-.81-.47-.66-1.37,1Zm.81,4-.51-.72.69-.49.51.72-.69.49Zm-.86-1.22-1.34-1.88L428,450l1.34,1.88-.69.49Z" transform="translate(-62.7 45.41)" fill="#6649ec"/><rect x="425.69" y="446.38" width="7.98" height="7.98" transform="translate(978.05 614.26) rotate(144.63)" fill="#6649ec"/><path d="M462.73,434.49l.63-3.44-3.45-.54-.74-3.42-3.4.82-2-2.88L451,427.09l-2.94-1.9-1.82,3-3.44-.63,7.47,10.53.86-.62.44.63-.86.61.47.66.62-.44.41.57-.62.44,8.33,11.73.54-3.46,3.42-.73-.83-3.4,2.88-2-2.06-2.83,1.9-2.94Zm-8.53,1.7-1.38,1,.47.66,1.13-.8.41.57-1.13.81.86,1.21-.71.5L451.67,437l2.09-1.48Zm3.09,1.48-.69.49-.51-.72.69-.49.51.72Zm-.86-1.22-.69.49-1.34-1.88.69-.49,1.34,1.88Z" transform="translate(-62.7 45.41)" fill="#6649ec"/><rect x="450.01" y="432.52" width="7.98" height="7.98" transform="translate(-231.59 388.83) rotate(-35.37)" fill="#6649ec"/><path d="M443.44,452.13l3.41-.83,2,2.88,2.82-2.06,2.94,1.9,1.82-3,3.45.63-8.33-11.73-.62.44-.41-.57.62-.44-.47-.66-.86.61-.44-.62.86-.61-7.47-10.53-.54,3.46-3.42.73.82,3.41-2.88,2,2.06,2.83-1.9,2.94,3,1.82-.63,3.45,3.46.54Zm3.24-11.54,2.09-1.48,2.17,3.06-.7.51-.86-1.21-1.14.8-.4-.57,1.13-.81-.47-.66-1.37,1Zm.82,4-.51-.72.69-.49.51.72-.69.49Zm-.86-1.22-1.34-1.88L446,441l1.34,1.88-.69.49Z" transform="translate(-62.7 45.41)" fill="#6649ec"/><rect x="443.72" y="437.44" width="7.98" height="7.98" transform="translate(1005.62 587.59) rotate(144.63)" fill="#6649ec"/></svg>