<svg xmlns="http://www.w3.org/2000/svg" width="500" height="197.04" viewBox="0 0 500 197.04"><rect width="500" height="197.04"/><path d="M75.92,279.38a14,14,0,1,0,19.5,3.41A14,14,0,0,0,75.92,279.38Zm13,8a6,6,0,1,1-8.38-1.47A6,6,0,0,1,88.89,287.38Z" transform="translate(0 -163.28)" fill="#7fe4ff" opacity="0.3"/><path d="M121.16,281.05a14,14,0,1,0,19.8.08A14,14,0,0,0,121.16,281.05Zm14.1,14.21a6,6,0,1,1,0-8.5A6,6,0,0,1,135.26,295.26Z" transform="translate(0 -163.28)" fill="#7fe4ff" opacity="0.3"/><path d="M145.53,276.6a20.29,20.29,0,0,0-3.88-3L143,271.3a23,23,0,0,0-6.95-2.81l-.58,2.57a20.73,20.73,0,0,0-7.73-.23l-.42-2.6a22.77,22.77,0,0,0-7.11,2.38l1.22,2.32a20.51,20.51,0,0,0-4.83,3.55l-1.85-1.85a23,23,0,0,0-4.39,6.07l2.36,1.17a20.36,20.36,0,0,0-2.08,7.46l-2.63-.22a23.16,23.16,0,0,0,.61,7.47l2.57-.64a20.23,20.23,0,0,0,3.26,7l-2.14,1.55a24,24,0,0,0,2.32,2.72,23.39,23.39,0,0,0,3,2.55l1.53-2.15a20.46,20.46,0,0,0,7,3.21l-.61,2.57a23.16,23.16,0,0,0,7.47.55l-.23-2.61a20.38,20.38,0,0,0,7.44-2.15l1.19,2.34a23,23,0,0,0,5.77-4.18l.26-.26-1.88-1.84a20.15,20.15,0,0,0,4.27-6.45l2.42,1a22.72,22.72,0,0,0,1.7-7.31l-2.63-.17a20.41,20.41,0,0,0-1-7.67l2.51-.82a23,23,0,0,0-3.46-6.66l-2.11,1.58A20.91,20.91,0,0,0,145.53,276.6Zm-3.3,25.68a15.91,15.91,0,1,1,.08-22.49A15.92,15.92,0,0,1,142.23,302.28Z" transform="translate(0 -163.28)" fill="#fff"/><path d="M103.82,295.59a20.3,20.3,0,0,0,.35-7.73l2.61-.38a22.57,22.57,0,0,0-2.29-7.15l-2.35,1.21a18.54,18.54,0,0,0-1.45-2.45,20.3,20.3,0,0,0-3.31-3.65l1.74-2a22.88,22.88,0,0,0-6.39-3.94l-1,2.44a20.52,20.52,0,0,0-7.58-1.54l0-2.63a22.69,22.69,0,0,0-7.41,1.15l.82,2.49a20.18,20.18,0,0,0-5.37,2.69L70.72,272a22.8,22.8,0,0,0-5.36,5.24l2.13,1.56a20.33,20.33,0,0,0-3.31,7l-2.55-.65a23.52,23.52,0,0,0-.66,7.47l2.64-.2a20.3,20.3,0,0,0,2,7.46L63.27,301a23.24,23.24,0,0,0,1.83,3.07,23,23,0,0,0,2.53,3l1.87-1.86a20.19,20.19,0,0,0,6.4,4.35l-1,2.43a23.08,23.08,0,0,0,7.27,1.79l.21-2.61a20.21,20.21,0,0,0,7.7-.86l.78,2.52a22.87,22.87,0,0,0,6.4-3.16l.3-.21L96,307.36a20.53,20.53,0,0,0,5.3-5.64l2.22,1.39a23,23,0,0,0,2.9-6.91Zm-10.65,8.35a16,16,0,1,1,3.9-22.31A16,16,0,0,1,93.17,303.94Z" transform="translate(0 -163.28)" fill="#fff"/><path d="M26,291.31C26,278.68,33.35,271,43.59,271a14.71,14.71,0,0,1,10.78,4.79l-2.88,3.17a10.5,10.5,0,0,0-7.9-3.53c-7.48,0-12.39,6-12.39,15.8s4.91,16,12.39,16c3.59,0,6.35-1.55,8.8-4.31L55.26,306a15.14,15.14,0,0,1-12.15,5.69C33.41,311.66,26,304.12,26,291.31Z" transform="translate(0 -163.28)" fill="#fff"/><path d="M160,271.67h12.27c8,0,13.77,2.88,13.77,11.08,0,7.84-5.81,11.61-13.77,11.61h-7.18v16.58H160Zm11.55,18.62c6.11,0,9.46-2.51,9.46-7.54s-3.35-7-9.46-7h-6.46v14.54Zm3.65.06,12,20.59h-5.68L171.21,293Z" transform="translate(0 -163.28)" fill="#fff"/><path d="M195.16,271.67h9.69c11.8,0,18.2,7,18.2,19.46s-6.4,19.81-18,19.81h-9.93Zm9.34,35.14c8.91,0,13.34-5.74,13.34-15.68s-4.43-15.32-13.34-15.32h-4.31v31Z" transform="translate(0 -163.28)" fill="#fff"/><path d="M231.55,306.69h9.76V275.92h-9.76v-4.25H256.1v4.25h-9.76v30.77h9.76v4.25H231.55Z" transform="translate(0 -163.28)" fill="#fff"/><path d="M266.69,271.67h5.51l12.57,24.67,3.77,8.14h.12c-.18-3.89-.66-8.32-.66-12.45V271.67h4.79v39.27h-5.51l-12.57-24.66-3.77-8.14h-.12c.18,4,.66,8.2.66,12.27v20.53h-4.79Z" transform="translate(0 -163.28)" fill="#fff"/><path d="M312.79,271.67h5.74l13.23,39.27h-5.38L319.61,289c-1.38-4.36-2.69-8.68-3.89-13.22h-.24c-1.26,4.54-2.51,8.86-3.89,13.22l-6.88,21.91h-5.15ZM306.56,295h18V299h-18Z" transform="translate(0 -163.28)" fill="#fff"/><path d="M349.06,275.92h-13v-4.25h31v4.25h-13v35h-5Z" transform="translate(0 -163.28)" fill="#fff"/><path d="M375.22,306.69H385V275.92h-9.76v-4.25h24.55v4.25H390v30.77h9.76v4.25H375.22Z" transform="translate(0 -163.28)" fill="#fff"/><path d="M408.33,291.13c0-12.69,6.22-20.17,15.08-20.17s15.09,7.48,15.09,20.17c0,12.87-6.23,20.53-15.09,20.53S408.33,304,408.33,291.13Zm25,0c0-9.88-4-15.74-9.88-15.74s-9.87,5.86-9.87,15.74c0,10.06,3.95,16.1,9.87,16.1S433.29,301.19,433.29,291.13Z" transform="translate(0 -163.28)" fill="#fff"/><path d="M446.28,271.67h5.51l12.57,24.67,3.77,8.14h.12c-.18-3.89-.66-8.32-.66-12.45V271.67h4.79v39.27h-5.51L454.3,286.28l-3.77-8.14h-.12c.18,4,.66,8.2.66,12.27v20.53h-4.79Z" transform="translate(0 -163.28)" fill="#fff"/><path d="M29.26,245.88h9.45V216.07H29.26V212H53v4.12H43.58v29.81H53V250H29.26Z" transform="translate(0 -163.28)" fill="#fff"/><path d="M108.31,216.07H95.72V212h30.05v4.12H113.18V250h-4.87Z" transform="translate(0 -163.28)" fill="#fff"/><path d="M175.53,227c3.89-2.26,6.09-5.62,6.09-10l-1.16-4.52,3.19,3.88a5.33,5.33,0,0,1-3.6,1.86,4,4,0,0,1-4.11-4.18,4.23,4.23,0,0,1,4.29-4.52c3.07,0,5.22,2.61,5.22,7.08a14.5,14.5,0,0,1-8.3,13.22Z" transform="translate(0 -163.28)" fill="#fff"/><path d="M201.63,245.07l2.9-3.36a16,16,0,0,0,11.13,4.69c5.22,0,8.24-2.49,8.24-6,0-4.06-3-5.22-6.79-6.84l-5.51-2.44c-3.77-1.51-8.17-4.18-8.17-9.8,0-5.8,5.22-10.09,12.47-10.09a16.56,16.56,0,0,1,11.71,4.7l-2.55,3.13a13.33,13.33,0,0,0-9.34-3.54c-4.41,0-7.36,2.09-7.36,5.51,0,3.65,3.53,5,6.78,6.26l5.34,2.38c4.7,1.86,8.41,4.52,8.41,10.15,0,6-5.11,10.85-13.46,10.85A19.33,19.33,0,0,1,201.63,245.07Z" transform="translate(0 -163.28)" fill="#fff"/><path d="M316.76,212h5.56L335.14,250h-5.22l-6.55-21.23c-1.34-4.23-2.61-8.41-3.77-12.81h-.23c-1.22,4.4-2.44,8.58-3.77,12.81L308.93,250h-5Zm-6,22.56h17.46v4H310.72Z" transform="translate(0 -163.28)" fill="#fff"/><path d="M379.51,212h4.82v33.93h18.79V250H379.51Z" transform="translate(0 -163.28)" fill="#fff"/><path d="M449.11,212h4.81v33.93h18.8V250H449.11Z" transform="translate(0 -163.28)" fill="#fff"/><circle cx="31.47" cy="16.27" r="4.79" fill="#7fe4ff" opacity="0.3"/><circle cx="104.54" cy="33.37" r="2.55" fill="#7fe4ff" opacity="0.3"/><circle cx="180.55" cy="18.91" r="4.79" fill="#7fe4ff" opacity="0.3"/><circle cx="101.99" cy="171.69" r="4.79" fill="#7fe4ff" opacity="0.3"/><circle cx="254.79" cy="54.08" r="4.79" fill="#7fe4ff" opacity="0.3"/><circle cx="308.66" cy="16.27" r="4.79" fill="#7fe4ff" opacity="0.3"/><circle cx="354.89" cy="73.22" r="4.79" fill="#7fe4ff" opacity="0.3"/><circle cx="245.21" cy="165.42" r="4.79" fill="#7fe4ff" opacity="0.3"/><circle cx="427.44" cy="49.29" r="4.79" fill="#7fe4ff" opacity="0.3"/><circle cx="46.58" cy="176.47" r="2.55" fill="#7fe4ff" opacity="0.3"/><circle cx="156.58" cy="186.05" r="2.55" fill="#7fe4ff" opacity="0.3"/><circle cx="137.04" cy="65.89" r="2.55" fill="#7fe4ff" opacity="0.3"/><circle cx="303.87" cy="186.05" r="2.55" fill="#7fe4ff" opacity="0.3"/><circle cx="370.03" cy="31.19" r="2.55" fill="#7fe4ff" opacity="0.3"/><circle cx="476.7" cy="11.48" r="2.55" fill="#7fe4ff" opacity="0.3"/><polyline points="104.54 33.37 180.55 18.91 254.79 54.08 308.66 16.27" fill="none" stroke="#7fe4ff" stroke-miterlimit="10" stroke-width="2" opacity="0.3"/><circle cx="370.03" cy="136.27" r="2.55" fill="#7fe4ff" opacity="0.3"/><circle cx="185.34" cy="91.51" r="2.55" fill="#7fe4ff" opacity="0.3"/><circle cx="259.59" cy="91.51" r="4.79" fill="#7fe4ff" opacity="0.3"/><circle cx="479.25" cy="186.05" r="4.79" fill="#7fe4ff" opacity="0.3"/><circle cx="420.1" cy="95.97" r="2.55" fill="#7fe4ff" opacity="0.3"/><circle cx="70.5" cy="70.67" r="2.55" fill="#7fe4ff" opacity="0.3"/><polyline points="420.1 95.97 427.44 49.29 476.7 11.48 370.03 31.19 308.66 16.27 354.89 73.22" fill="none" stroke="#7fe4ff" stroke-miterlimit="10" stroke-width="2" opacity="0.3"/><path d="M159.13,349.33" transform="translate(0 -163.28)" fill="none" stroke="#7fe4ff" stroke-miterlimit="10" stroke-width="2" opacity="0.3"/><path d="M254.79,217.36" transform="translate(0 -163.28)" fill="none" stroke="#7fe4ff" stroke-miterlimit="10" stroke-width="2" opacity="0.3"/><path d="M31.47,179.55l73.07,17.1L137,229.17,70.5,234l-56,56.84,32.13,48.95L102,335l54.59,14.36,88.63-20.63,58.66,20.63" transform="translate(0 -163.28)" fill="none" stroke="#7fe4ff" stroke-miterlimit="10" stroke-width="2" opacity="0.3"/><line x1="254.79" y1="54.08" x2="185.34" y2="91.51" fill="none" stroke="#7fe4ff" stroke-miterlimit="10" stroke-width="2" opacity="0.3"/><polyline points="245.21 165.42 259.59 91.51 301.32 111.54" fill="none" stroke="#7fe4ff" stroke-miterlimit="10" stroke-width="2" opacity="0.3"/><circle cx="422.65" cy="165.42" r="4.79" fill="#7fe4ff" opacity="0.3"/><polyline points="479.25 186.05 422.65 165.42 303.87 186.05 370.03 136.27" fill="none" stroke="#7fe4ff" stroke-miterlimit="10" stroke-width="2" opacity="0.3"/><circle cx="201.81" cy="127.86" r="4.79" fill="#7fe4ff" opacity="0.3"/><circle cx="301.32" cy="111.54" r="2.55" fill="#7fe4ff" opacity="0.3"/><circle cx="14.45" cy="127.51" r="2.55" fill="#7fe4ff" opacity="0.3"/><circle cx="107.09" cy="101.41" r="2.55" fill="#7fe4ff" opacity="0.3"/><path d="M93.12,362.78" transform="translate(0 -163.28)" fill="none" stroke="#7fe4ff" stroke-miterlimit="10" stroke-width="2"/><path d="M49.13,339.75" transform="translate(0 -163.28)" fill="none" stroke="#7fe4ff" stroke-miterlimit="10" stroke-width="2"/><line x1="70.5" y1="70.67" x2="107.09" y2="101.41" fill="none" stroke="#7fe4ff" stroke-miterlimit="10" stroke-width="2" opacity="0.3"/><circle cx="476.7" cy="65.89" r="2.55" fill="#7fe4ff" opacity="0.3"/><line x1="427.44" y1="49.29" x2="476.7" y2="65.89" fill="#7fe4ff" stroke="#7fe4ff" stroke-miterlimit="10" stroke-width="2" opacity="0.3"/><line x1="156.58" y1="186.05" x2="201.81" y2="127.86" fill="#7fe4ff" stroke="#7fe4ff" stroke-miterlimit="10" stroke-width="2" opacity="0.3"/></svg>