<?xml version="1.0" encoding="utf-8"?>
<!-- Generator: Adobe Illustrator 24.1.0, SVG Export Plug-In . SVG Version: 6.00 Build 0)  -->
<svg version="1.1" id="Layer_1" xmlns="http://www.w3.org/2000/svg" xmlns:xlink="http://www.w3.org/1999/xlink" x="0px" y="0px"
	 viewBox="0 0 500 500" style="enable-background:new 0 0 500 500;" xml:space="preserve">
<style type="text/css">
	.st0{fill:#D3EDEF;}
	.st1{fill:#FFFFFF;stroke:#00C97D;stroke-width:5;stroke-miterlimit:10;}
	.st2{fill:#00C97D;stroke:#00C97D;stroke-width:5;stroke-miterlimit:10;}
	.st3{fill:#FFFFFF;stroke:#FFFFFF;stroke-width:15;stroke-linecap:round;stroke-miterlimit:10;}
	.st4{fill:#00C97D;}
	.st5{fill:#F2F2F2;}
	.st6{opacity:0.8;fill:#0CAAEF;}
	.st7{opacity:0.8;fill:#118DEA;}
	.st8{opacity:0.8;fill:#343A3A;}
	.st9{opacity:0.8;fill:#1E2323;}
	.st10{opacity:0.8;fill:#F2F2F2;}
	.st11{opacity:0.8;fill:#CCCCCC;}
	.st12{fill:#009468;}
	.st13{fill:#34BE71;}
	.st14{fill:#00A07D;}
	.st15{fill:#00827E;}
	.st16{fill:#4F6E6E;}
	.st17{opacity:0.8;}
	.st18{fill:#91C6C4;}
	.st19{fill:#97CECE;}
	.st20{fill:#A5D3D3;}
	.st21{fill:#A6DADD;}
	.st22{fill:#0CAAEF;}
	.st23{fill:#118DEA;}
	.st24{fill:#E8F7F7;}
	.st25{fill:#C5E7E8;}
	.st26{fill:#EDF7F7;}
	.st27{fill:#6C5F59;}
	.st28{fill:#805F59;}
	.st29{fill:#52C883;}
	.st30{fill:#FFFFFF;}
	.st31{opacity:0.6;}
	.st32{fill:#36B294;}
</style>
<path class="st0" d="M199.9,196.1c0,0.3-0.4,0.6-1.1,0.6h-35.1c-0.5,0-1.1-0.2-1.1-0.6l0,0c0-0.3,0.4-0.6,1.1-0.6h35.2
	C199.5,195.6,199.9,195.8,199.9,196.1L199.9,196.1z"/>
<path class="st1" d="M426,311.9H73.8c-31.3-1.5-55.8-28-55-58.6c0.7-29.5,24.8-54.3,55-55.7c117.4,0,234.8,0,352.1,0
	c30,2.5,53.2,28.1,52.9,57.9C478.5,284.8,455.5,309.5,426,311.9z"/>
<path class="st2" d="M73.8,197.6h175v114.3h-175c-31.3-1.5-55.8-28-55-58.6C19.6,223.8,43.6,199.1,73.8,197.6z"/>
<path class="st3" d="M67.7,222.8c-2,0.3-7.9,1.4-12.6,6.4c-2.7,2.8-4,5.8-4.6,7.7"/>
<line class="st3" x1="96.8" y1="220.9" x2="223.9" y2="220.9"/>
<g>
	<path class="st4" d="M271.7,254.5h-4.4v-2.8h12v2.8H275v11.8h-3.3V254.5z"/>
	<path class="st4" d="M281.4,263.2c0-2.5,2-3.7,7.3-4.1c-0.1-1-0.9-1.6-2.3-1.6c-1.1,0-2.1,0.4-3.4,1l-1.2-2.1
		c1.5-0.9,3.3-1.5,5.2-1.5c3.1,0,5,1.6,5,5v6.3h-2.7l-0.2-1.2H289c-1.1,0.8-2.5,1.5-3.9,1.5C282.8,266.6,281.4,265.1,281.4,263.2z
		 M288.7,263v-1.8c-3.3,0.2-4.1,0.9-4.1,1.8c0,0.7,0.6,1.1,1.5,1.1C287.1,264,287.9,263.6,288.7,263z"/>
	<path class="st4" d="M295.1,250.7h3.3v9h0.1l4.1-4.4h3.6l-7.7,8.3v2.8h-3.3V250.7z M299.7,261.3l1.9-2l4.9,7.1h-3.6L299.7,261.3z"
		/>
	<path class="st4" d="M308,260.8c0-3.6,2.8-5.8,5.8-5.8c3.4,0,5.2,2.3,5.2,5.3c0,0.6-0.1,1.2-0.1,1.5h-8.4v-2.2h6.2l-0.5,0.6
		c0-1.8-0.8-2.7-2.2-2.7c-1.6,0-2.7,1.1-2.7,3.3c0,2.3,1.2,3.3,3.4,3.3c1,0,1.9-0.3,2.8-0.8l1.1,2c-1.3,0.8-2.9,1.3-4.4,1.3
		C310.7,266.6,308,264.4,308,260.8z"/>
	<path class="st4" d="M337.4,261.7v-3.9h-2.8v-2.4l2.9-0.1l0.4-3.4h2.7v3.4h4.7v2.6h-4.7v3.9c0,1.7,0.7,2.3,2.3,2.3
		c0.8,0,1.5-0.2,2.2-0.4l0.6,2.4c-1,0.3-2.1,0.6-3.6,0.6C338.7,266.6,337.4,264.6,337.4,261.7z"/>
	<path class="st4" d="M348.5,250.7h3.3v3.8l-0.2,2.1h0.1c0.8-0.8,2-1.7,3.7-1.7c2.5,0,3.6,1.7,3.6,4.5v6.8h-3.3v-6.4
		c0-1.5-0.4-2.1-1.6-2.1c-0.9,0-1.5,0.4-2.2,1.2v7.4h-3.3V250.7z"/>
	<path class="st4" d="M361.5,260.8c0-3.6,2.8-5.8,5.8-5.8c3.4,0,5.2,2.3,5.2,5.3c0,0.6-0.1,1.2-0.1,1.5H364v-2.2h6.2l-0.5,0.6
		c0-1.8-0.8-2.7-2.2-2.7c-1.6,0-2.7,1.1-2.7,3.3c0,2.3,1.2,3.3,3.4,3.3c1,0,1.9-0.3,2.8-0.8l1.1,2c-1.3,0.8-2.9,1.3-4.4,1.3
		C364.2,266.6,361.5,264.4,361.5,260.8z"/>
	<path class="st4" d="M267.7,285.9c0-4.9,3-7.6,6.7-7.6c2,0,3.3,0.9,4.2,1.8l-1.8,2c-0.6-0.6-1.3-1-2.4-1c-1.9,0-3.3,1.8-3.3,4.7
		c0,3,1.2,4.7,3.5,4.7c0.5,0,1.1-0.2,1.4-0.4v-2.5h-2.1v-2.7h5.1v6.7c-1,0.9-2.7,1.8-4.5,1.8C270.6,293.3,267.7,290.8,267.7,285.9z"
		/>
	<path class="st4" d="M281.6,278.5h5.2c3.1,0,5.6,1.1,5.6,4.5c0,3.3-2.5,4.8-5.6,4.8h-1.9v5.2h-3.3V278.5z M286.5,285.2
		c1.7,0,2.7-0.7,2.7-2.2c0-1.4-0.9-1.9-2.7-1.9h-1.6v4.1H286.5z M288.4,284.8l4.6,8.2h-3.7l-3.2-6.1L288.4,284.8z"/>
	<path class="st4" d="M295.5,278.5h9.6v2.8h-6.3v2.9h5.4v2.8h-5.4v3.3h6.6v2.8h-9.9V278.5z"/>
	<path class="st4" d="M308.9,278.5h9.6v2.8h-6.3v2.9h5.4v2.8h-5.4v3.3h6.6v2.8h-9.9V278.5z"/>
	<path class="st4" d="M321.7,278.5h3.4l3.1,7.2l1.2,3.2h0.1c-0.1-1.5-0.5-3.6-0.5-5.3v-5.1h3.1V293h-3.4l-3.1-7.2l-1.2-3.2h-0.1
		c0.1,1.6,0.5,3.6,0.5,5.3v5.2h-3.1V278.5z"/>
	<path class="st4" d="M348.5,282h2.7l0.2,1.1h0.1c0.9-0.8,2.1-1.4,3.3-1.4c2.8,0,4.4,2.2,4.4,5.6c0,3.8-2.3,6-4.8,6
		c-1,0-1.9-0.4-2.7-1.2h-0.1l0.2,1.8v3.2h-3.3V282z M355.9,287.4c0-2-0.7-3-2-3c-0.7,0-1.3,0.3-2,1v4.5c0.6,0.5,1.3,0.7,1.9,0.7
		C354.9,290.6,355.9,289.7,355.9,287.4z"/>
	<path class="st4" d="M366.5,284.6H362V282h7.7V293h-3.3V284.6z M365.8,278.3c0-1.2,0.9-2,2.2-2c1.3,0,2.2,0.8,2.2,2
		c0,1.2-0.9,2-2.2,2C366.7,280.3,365.8,279.5,365.8,278.3z"/>
	<path class="st4" d="M378.3,288.7V280h-3.5v-2.6h6.8v11.4c0,1.4,0.9,1.8,1.8,1.8c0.5,0,1.1-0.1,1.7-0.4l0.7,2.4
		c-1.1,0.4-1.9,0.6-3.3,0.6C379.7,293.3,378.3,291.5,378.3,288.7z"/>
	<path class="st4" d="M391.6,288.7V280h-3.5v-2.6h6.8v11.4c0,1.4,0.9,1.8,1.8,1.8c0.5,0,1.1-0.1,1.7-0.4l0.7,2.4
		c-1.1,0.4-1.9,0.6-3.3,0.6C393.1,293.3,391.6,291.5,391.6,288.7z"/>
	<path class="st4" d="M404.5,290.7c0-1.5,1.1-2.6,2.6-2.6c1.5,0,2.6,1.2,2.6,2.6c0,1.5-1.1,2.6-2.6,2.6
		C405.6,293.3,404.5,292.2,404.5,290.7z"/>
</g>
<path class="st5" d="M363.4,310.8"/>
<path class="st6" d="M102.9,250c0,1.3-1.3,2.2-2.8,2.2c-1.6,0-2.8-1-2.8-2.2c0-1.3,1.3-2.2,2.8-2.2
	C101.6,247.8,102.9,248.7,102.9,250z"/>
<path class="st7" d="M102.1,248.4c1.1,0.9,1.1,2.3,0,3.2c-1.1,0.9-2.9,0.9-4,0"/>
<path class="st6" d="M97,249.2c0,1.3-1.3,2.2-2.8,2.2s-2.8-1-2.8-2.2c0-1.3,1.3-2.2,2.8-2.2S97,247.9,97,249.2z"/>
<path class="st7" d="M96.1,247.6c1.1,0.9,1.1,2.3,0,3.2c-1.1,0.9-2.9,0.9-4,0"/>
<path class="st6" d="M108.9,249.2c0,1.3-1.3,2.2-2.8,2.2s-2.8-1-2.8-2.2c0-1.3,1.3-2.2,2.8-2.2S108.9,247.9,108.9,249.2z"/>
<path class="st7" d="M108,247.6c1.1,0.9,1.1,2.3,0,3.2c-1.1,0.9-2.9,0.9-4,0"/>
<path class="st8" d="M106.7,246c-0.3-1.8-3.2-4.1-6.6-4.1c-3.4,0-6.2,2.3-6.6,4.1c-3.5,0.4-5.9,1.1-5.9,1.8c0,1.2,5.6,2.1,12.5,2.1
	c6.9,0,12.5-1,12.5-2.1C112.5,247.1,110.2,246.4,106.7,246z"/>
<path class="st9" d="M100.1,250c6.9,0,12.5-1,12.5-2.1c0-0.8-2.4-1.4-5.9-1.8c-0.3-1.8-3.2-4.1-6.6-4.1"/>
<circle class="st10" cx="96.8" cy="246.1" r="0.8"/>
<path class="st11" d="M97.4,245.5c0.3,0.3,0.3,0.8,0,1.1c-0.3,0.3-0.8,0.3-1.1,0"/>
<circle class="st10" cx="100.1" cy="246.1" r="0.8"/>
<path class="st11" d="M100.6,245.5c0.3,0.3,0.3,0.8,0,1.1c-0.3,0.3-0.8,0.3-1.1,0"/>
<circle class="st10" cx="103.3" cy="246.1" r="0.8"/>
<path class="st11" d="M103.9,245.5c0.3,0.3,0.3,0.8,0,1.1c-0.3,0.3-0.8,0.3-1.1,0"/>
<g>
	<path class="st12" d="M101.1,270.6c-1.1,0.1-2,0.6-2.6,1.5c-0.2-0.1-0.5-0.1-0.7-0.1c-0.5,0-0.9,0.1-1.4,0.3
		c-0.5-1-1.6-1.7-2.8-1.7c-0.8,0-1.6,0.3-2.2,0.9c-0.3-0.1-0.6-0.2-1-0.2c-0.5,0-0.9,0.1-1.3,0.3c-0.6-0.6-1.4-1-2.3-1
		c-0.6,0-1.2,0.2-1.6,0.5c-0.6-0.6-1.4-1.1-2.3-1.1c-1.7,0-3.1,1.4-3.1,3.1c0,1.7,1.4,3.1,3.1,3.1c0.6,0,1.2-0.2,1.6-0.5
		c0.6,0.6,1.4,1.1,2.3,1.1c0.5,0,0.9-0.1,1.3-0.3c0.6,0.6,2.2,3.4,3.1,3.4c0.8,0,0.7-2.7,1.3-3.3c0.3,0.1,0.6,0.2,1,0.2
		c0.5,0,0.9-0.1,1.4-0.3c0.5,1,1.6,1.7,2.8,1.7c0.7,0,1.3-0.2,1.8-0.6c0.6,0.3,1.2,0.6,2,0.6c0.6,0,1.2-0.2,1.7-0.4
		C102.8,275.3,102.1,272.9,101.1,270.6z"/>
</g>
<g>
	<path class="st12" d="M60.7,270c-0.8,0-1.6,0.3-2.1,0.9c-0.6-0.5-1.3-0.9-2.1-0.9c-0.7,0-1.4,0.3-1.9,0.7c-0.5-0.4-1.2-0.7-1.9-0.7
		c-1,0-1.9,0.5-2.4,1.2c-0.3-0.1-0.6-0.1-0.9-0.1c-0.5,0-0.9,0.1-1.3,0.3c-0.6-0.5-1.4-0.9-2.2-0.9c-0.9,0-1.7,0.4-2.3,1
		c-0.4-0.1-1-0.2-1.7-0.4c-1.2-0.3-1.9-0.4-2.8-0.5c-1.4-0.2-1.3,0.1-2.5-0.1c-1.9-0.2-2.1-0.8-3.2-0.6c-1.2,0.2-1.1,0.8-2.3,0.9
		c-1.2,0.1-1.7-0.2-2.7-0.2c-0.9-0.1-2.3,0.2-4,1.5c0.3,1.2,0.8,2.6,1.4,4.2c0.6,1.3,1.2,2.5,1.8,3.5c2.2-0.8,5.4-1.8,8.1-1.7
		c0.5,0,3,0.1,5.5,0.4c0.4,0,0.5,0.1,0.8,0.1c1.2,0,3.4,0.9,4.1,0c0.3,0.1,0.5-0.5,0.9-0.5c0.6,0,0.2-1,0.6-1.3
		c0.5,0.4,1.2,0.7,1.9,0.7c1,0,1.9-0.5,2.4-1.2c0.3,0.1,0.6,0.1,0.9,0.1c0.7,0,1.4-0.3,1.9-0.7c0.5,0.4,1.2,0.7,1.9,0.7
		c0.8,0,1.6-0.3,2.1-0.9c0.6,0.5,1.3,0.9,2.1,0.9c1.7,0,3.1-1.4,3.1-3.1C63.8,271.4,62.4,270,60.7,270z"/>
</g>
<g>
	<path class="st13" d="M43.9,299.9c7.5-0.5,17.6,5.9,26.5,5.9c17.8,0,20.2-6.6,29-6.6c2.7-4.7,4.2-10,4.2-15.8
		c-24.5-0.2-49-0.4-73.6-0.6c1.7,3.3,4.2,7.2,7.7,11.2C39.9,296.4,42,298.3,43.9,299.9z"/>
</g>
<g>
	<path class="st14" d="M42.1,298.3c10.3,0.5,21.4,0.7,33.2,0.2c8.9-0.3,17.4-0.9,25.4-1.8c1.9-4.1,3-8.6,3-13.4
		c-23,2.2-46.1,4.3-69.1,6.5c0.6,0.8,1.2,1.6,1.9,2.4C38.3,294.6,40.2,296.6,42.1,298.3z"/>
</g>
<g>
	<path class="st15" d="M37.8,294c3.7,3.9,13.1,2.3,25.6,1.5c2.9-0.2,11.5-2,28.7-0.7c4.2,0.3,7.4,0.1,9.5-0.2
		c1.3-3.5,2.1-7.3,2.1-11.3c-24.2,0.2-48.5,0.4-72.7,0.7c0.6,1.1,1.4,2.7,2.6,4.5C33.6,288.5,35.7,291.7,37.8,294z"/>
</g>
<g>
	<path class="st16" d="M101.2,295.6c0.4-0.9,0.7-1.9,1-2.9l-0.4-9.4h-0.3L101.2,295.6z"/>
</g>
<g>
	<path class="st16" d="M42.1,298.3c-0.1-4.8-0.2-9.6-0.4-14.4h-0.3c-0.1,4.5-0.2,9-0.3,13.5C41.5,297.7,41.8,298,42.1,298.3z"/>
</g>
<g>
	<path class="st14" d="M100.7,274.8c-1.1,0-2,1.3-2.8,3c-0.3,1.8-0.5,3.6-0.5,5.4c0,2.1,0.2,4.1,0.6,6c0.8,0.5,1.7,0.9,2.7,0.9
		c0.9,0,1.7-0.3,2.4-0.7c0.4-2,0.6-4.1,0.6-6.2c0-2.2-0.2-4.3-0.6-6.4C102.4,275.6,101.6,274.8,100.7,274.8z"/>
</g>
<g>
	<path class="st14" d="M36.8,289.7c0.5,0.3,2.9,1.4,5.7,0.4c2.3-0.8,4.1-2.7,4.7-4.7c1.4-4.4-1.7-10.5-6.2-10.8
		c-2.7-0.1-5.6,2-7,5.1c-1.6,2.5-2.1,5.2-1,6.8C33.4,287.3,34.4,288.5,36.8,289.7z"/>
</g>
<g>
	<polygon class="st15" points="70.3,296.9 69,296.9 69.3,282.9 69.7,282.9 	"/>
</g>
<g>
	<polygon class="st15" points="66.5,297.2 65.2,297.2 65.5,283.3 65.9,283.3 	"/>
</g>
<g>
	<polygon class="st15" points="74.5,296.9 73.4,296.9 73.7,284.9 74,284.9 	"/>
</g>
<g>
	<polygon class="st15" points="72.8,296.2 71.7,296.2 72,284.3 72.3,284.3 	"/>
</g>
<g>
	<polygon class="st15" points="80,296.9 78.9,296.9 79.2,284.9 79.4,284.9 	"/>
</g>
<g>
	<polygon class="st15" points="91,296.4 89.9,296.4 90.2,284.5 90.5,284.5 	"/>
</g>
<g>
	<polygon class="st15" points="96.7,296.2 95.6,296.2 95.9,284.3 96.1,284.3 	"/>
</g>
<g>
	<polygon class="st15" points="99.2,295.9 98.1,295.9 98.4,283.9 98.7,283.9 	"/>
</g>
<g>
	<polygon class="st15" points="47.3,296.6 46.2,296.6 46.4,284.6 46.7,284.6 	"/>
</g>
<g>
	<polygon class="st15" points="43.9,296.4 42.8,296.4 43.1,284.5 43.4,284.5 	"/>
</g>
<g class="st17">
	<path class="st18" d="M204.5,270.5c0,1-0.8,1.7-1.7,1.7h-10.4c-1,0-1.7-0.8-1.7-1.7v-7.7c0-1,0.8-1.7,1.7-1.7h10.4
		c1,0,1.7,0.8,1.7,1.7V270.5z"/>
	<g>
		<path class="st19" d="M213.7,261.5c0,0.4-0.8,0.7-1.7,0.7h-10.4c-1,0-1.7-0.3-1.7-0.7v-3c0-0.4,0.8-0.7,1.7-0.7H212
			c1,0,1.7,0.3,1.7,0.7V261.5z"/>
		<path class="st19" d="M223.3,260.7h-30c-1,0-1.7,0.3-1.7,0.7v16.1c0,0.4,0.8,0.7,1.7,0.7h30c1,0,1.7-0.3,1.7-0.7v-16.1
			C225.1,261,224.3,260.7,223.3,260.7z"/>
	</g>
	<path class="st20" d="M225.1,261.3c0-0.4-0.8-0.7-1.7-0.7h-30c-1,0-1.7,0.3-1.7,0.7v16.1"/>
	<path class="st18" d="M223.3,278.1c1,0,1.7-0.3,1.7-0.7v-16.1c0-0.4-0.8-0.7-1.7-0.7h-30c-1,0-1.7,0.3-1.7,0.7"/>
	<path class="st20" d="M225.1,267c0-1-0.8-1.7-1.7-1.7h-30c-1,0-1.7,0.8-1.7,1.7"/>
	<path class="st21" d="M222.3,273.8c0,0.5-0.4,2.1-1.1,2.1h-25.8c-0.5,0-1.1-1.5-1.1-2.1l0,0c0-0.5,0.4-1.1,1.1-1.1h25.8
		C221.9,272.7,222.3,273.1,222.3,273.8L222.3,273.8z"/>
	<path class="st22" d="M222.3,273.8c0,0.5-0.4,1.1-1.1,1.1h-25.8c-0.5,0-1.1-0.4-1.1-1.1l0,0c0-0.5,0.4-1.1,1.1-1.1h25.8
		C221.9,272.7,222.3,273.1,222.3,273.8L222.3,273.8z"/>
	<path class="st23" d="M194.4,273.8c0-0.5,0.4-1.1,1.1-1.1h25.8c0.5,0,1.1,0.4,1.1,1.1l0,0c0,0.5-0.4,1.1-1.1,1.1"/>
	<path class="st0" d="M196.4,243.5h-30c-1,0-1.7,0.4-1.7,0.9v32.8c0,0.5,0.8,0.9,1.7,0.9h30c1,0,1.7-0.4,1.7-0.9v-32.8
		C198,243.9,197.2,243.5,196.4,243.5z"/>
	<path class="st24" d="M198,244.4c0-0.5-0.8-0.9-1.7-0.9h-29.9c-1,0-1.7,0.4-1.7,0.9v32.8"/>
	<path class="st25" d="M196.4,278.1c1,0,1.7-0.4,1.7-0.9v-32.8c0-0.5-0.8-0.9-1.7-0.9h-30c-1,0-1.7,0.4-1.7,0.9"/>
	<path class="st26" d="M198,245.3c0-1-0.8-1.7-1.7-1.7h-29.9c-1,0-1.7,0.8-1.7,1.7"/>
	<path class="st21" d="M195.3,251.6c0,0.5-0.4,2.1-1.1,2.1h-25.7c-0.5,0-1.1-1.5-1.1-2.1l0,0c0-0.5,0.4-1.1,1.1-1.1h25.8
		C194.8,250.6,195.3,251.1,195.3,251.6L195.3,251.6z"/>
	<path class="st22" d="M195.3,251.6c0,0.5-0.4,1.1-1.1,1.1h-25.7c-0.5,0-1.1-0.4-1.1-1.1l0,0c0-0.5,0.4-1.1,1.1-1.1h25.8
		C194.8,250.6,195.3,251.1,195.3,251.6L195.3,251.6z"/>
	<path class="st23" d="M167.4,251.6c0-0.5,0.4-1.1,1.1-1.1h25.8c0.5,0,1.1,0.4,1.1,1.1l0,0c0,0.5-0.4,1.1-1.1,1.1"/>
	<path class="st21" d="M195.3,257.2c0,0.5-0.4,2.1-1.1,2.1h-25.7c-0.5,0-1.1-1.5-1.1-2.1l0,0c0-0.5,0.4-1.1,1.1-1.1h25.8
		C194.8,256.1,195.3,256.6,195.3,257.2L195.3,257.2z"/>
	<path class="st22" d="M195.3,257.2c0,0.5-0.4,1.1-1.1,1.1h-25.7c-0.5,0-1.1-0.4-1.1-1.1l0,0c0-0.5,0.4-1.1,1.1-1.1h25.8
		C194.8,256.1,195.3,256.6,195.3,257.2L195.3,257.2z"/>
	<path class="st23" d="M167.4,257.2c0-0.5,0.4-1.1,1.1-1.1h25.8c0.5,0,1.1,0.4,1.1,1.1l0,0c0,0.5-0.4,1.1-1.1,1.1"/>
	<path class="st21" d="M195.3,262.7c0,0.5-0.4,2.1-1.1,2.1h-25.7c-0.5,0-1.1-1.5-1.1-2.1l0,0c0-0.5,0.4-1.1,1.1-1.1h25.8
		C194.8,261.6,195.3,262.1,195.3,262.7L195.3,262.7z"/>
	<path class="st22" d="M195.3,262.7c0,0.5-0.4,1.1-1.1,1.1h-25.7c-0.5,0-1.1-0.4-1.1-1.1l0,0c0-0.5,0.4-1.1,1.1-1.1h25.8
		C194.8,261.6,195.3,262.1,195.3,262.7L195.3,262.7z"/>
	<path class="st23" d="M167.4,262.7c0-0.5,0.4-1.1,1.1-1.1h25.8c0.5,0,1.1,0.4,1.1,1.1l0,0c0,0.5-0.4,1.1-1.1,1.1"/>
	<path class="st21" d="M195.3,268.2c0,0.5-0.4,2.1-1.1,2.1h-25.7c-0.5,0-1.1-1.5-1.1-2.1l0,0c0-0.5,0.4-1.1,1.1-1.1h25.8
		C194.8,267.1,195.3,267.6,195.3,268.2L195.3,268.2z"/>
	<path class="st22" d="M195.3,268.2c0,0.5-0.4,1.1-1.1,1.1h-25.7c-0.5,0-1.1-0.4-1.1-1.1l0,0c0-0.5,0.4-1.1,1.1-1.1h25.8
		C194.8,267.1,195.3,267.6,195.3,268.2L195.3,268.2z"/>
	<path class="st23" d="M167.4,268.2c0-0.5,0.4-1.1,1.1-1.1h25.8c0.5,0,1.1,0.4,1.1,1.1l0,0c0,0.5-0.4,1.1-1.1,1.1"/>
	<path class="st21" d="M195.3,273.8c0,0.5-0.4,2.1-1.1,2.1h-25.7c-0.5,0-1.1-1.5-1.1-2.1l0,0c0-0.5,0.4-1.1,1.1-1.1h25.8
		C194.8,272.7,195.3,273.1,195.3,273.8L195.3,273.8z"/>
	<path class="st22" d="M195.3,273.8c0,0.5-0.4,1.1-1.1,1.1h-25.7c-0.5,0-1.1-0.4-1.1-1.1l0,0c0-0.5,0.4-1.1,1.1-1.1h25.8
		C194.8,272.7,195.3,273.1,195.3,273.8L195.3,273.8z"/>
	<path class="st23" d="M167.4,273.8c0-0.5,0.4-1.1,1.1-1.1h25.8c0.5,0,1.1,0.4,1.1,1.1l0,0c0,0.5-0.4,1.1-1.1,1.1"/>
	<g>
		<path class="st24" d="M217.7,263.9c0,0.1,0.1,0.2,0.2,0.2l0,0c0.1,0,0.2-0.1,0.2-0.2v-16.5c0-0.1-0.1-0.2-0.2-0.2l0,0
			c-0.1,0-0.2,0.1-0.2,0.2V263.9z"/>
		<circle class="st24" cx="218.1" cy="246.6" r="1.5"/>
		<path class="st24" d="M221.6,263.9c0,0.1,0.1,0.2,0.2,0.2l0,0c0.1,0,0.2-0.1,0.2-0.2v-10.7c0-0.1-0.1-0.2-0.2-0.2l0,0
			c-0.1,0-0.2,0.1-0.2,0.2V263.9z"/>
		<circle class="st24" cx="221.8" cy="252.1" r="1.5"/>
	</g>
</g>
<g>
	<polygon class="st15" points="63.9,296.9 62.6,296.9 62.9,282.9 63.2,282.9 	"/>
</g>
<g>
	<polygon class="st15" points="59.5,296.9 58.2,296.9 58.5,282.9 58.9,282.9 	"/>
</g>
<g>
	<polygon class="st15" points="56.4,296.9 55.1,296.9 55.4,282.9 55.7,282.9 	"/>
</g>
<g>
	<polygon class="st15" points="51.9,296.7 50.6,296.7 50.9,282.7 51.2,282.7 	"/>
</g>
<g>
	<polygon class="st16" points="75.3,298.6 74,298.6 74.3,284.6 74.6,284.6 	"/>
</g>
<g>
	<polygon class="st16" points="78.2,298.3 77,298.3 77.3,284.4 77.6,284.4 	"/>
</g>
<g>
	<polygon class="st16" points="83,298.3 81.7,298.3 82,284.4 82.3,284.4 	"/>
</g>
<g>
	<polygon class="st16" points="86.9,298 85.6,298 86,284.1 86.3,284.1 	"/>
</g>
<g>
	<polygon class="st16" points="91.8,297.6 90.5,297.6 90.8,283.6 91.1,283.6 	"/>
</g>
<g>
	<polygon class="st16" points="97.4,296.9 96.1,296.9 96.4,282.9 96.8,282.9 	"/>
</g>
<g>
	<polygon class="st16" points="99.9,297.4 98.7,297.4 99,283.5 99.3,283.5 	"/>
</g>
<g>
	<polygon class="st16" points="48.5,298 47.3,298 47.6,284.1 47.9,284.1 	"/>
</g>
<g>
	<polygon class="st16" points="44.6,298.3 43.4,298.3 43.7,284.4 44,284.4 	"/>
</g>
<g>
	<polygon class="st27" points="63.2,301.1 61.5,301.1 61.9,282.1 62.4,282.1 	"/>
</g>
<g>
	<polygon class="st27" points="68.6,301.1 66.8,301.1 67.2,282.1 67.7,282.1 	"/>
</g>
<g>
	<polygon class="st27" points="76.4,301 74.6,301 75,281.9 75.5,281.9 	"/>
</g>
<g>
	<polygon class="st27" points="81.2,301 79.4,301 79.9,281.9 80.3,281.9 	"/>
</g>
<g>
	<polygon class="st27" points="89.7,301.1 87.9,301.1 88.4,282.1 88.8,282.1 	"/>
</g>
<g>
	<polygon class="st27" points="94.5,300.5 92.7,300.5 93.2,281.5 93.6,281.5 	"/>
</g>
<g>
	<polygon class="st27" points="55.7,300 54,300 54.4,280.9 54.9,280.9 	"/>
</g>
<g>
	<polygon class="st16" points="52.7,298.3 51.5,298.3 51.8,284.4 52.1,284.4 	"/>
</g>
<g>
	<polygon class="st16" points="60.7,298.4 59.4,298.4 59.7,284.5 60,284.5 	"/>
</g>
<g>
	<polygon class="st16" points="65.9,298.6 64.6,298.6 64.9,284.6 65.2,284.6 	"/>
</g>
<g>
	<polygon class="st16" points="71.1,298.6 69.8,298.6 70.1,284.6 70.5,284.6 	"/>
</g>
<g>
	<polygon class="st27" points="46.7,300.1 45,300.1 45.4,281.1 45.8,281.1 	"/>
</g>
<g>
	<g>
		<path class="st13" d="M100.8,288.3c0,3.5-2.8,6.3-6.3,6.3s-6.3-2.8-6.3-6.3c0-3.5,2.8-14.1,6.3-14.1
			C98,274.2,100.8,284.8,100.8,288.3z"/>
	</g>
	<g>
		<polygon class="st28" points="94.2,289.7 93.9,302.3 95.8,302.3 95.1,289.7 		"/>
	</g>
	<g>
		<polygon class="st28" points="94.5,291.6 97.4,289.3 97.7,289.9 94.5,292.8 		"/>
	</g>
	<g>
		<path class="st29" d="M94.5,274.2c-0.9,0-1.7,0.7-2.4,1.7c0.2-0.1,0.5-0.1,0.7-0.1c3.5,0,6.3,10.6,6.3,14.1c0,1.4-0.5,2.7-1.3,3.8
			c1.8-1.1,3-3.1,3-5.3C100.8,284.8,98,274.2,94.5,274.2z"/>
	</g>
</g>
<g>
	<g>
		<path class="st13" d="M55.7,287.7c0,3.6-2.9,6.5-6.5,6.5c-3.6,0-6.5-2.9-6.5-6.5s2.9-14.6,6.5-14.6
			C52.8,273.1,55.7,284.1,55.7,287.7z"/>
	</g>
	<g>
		<polygon class="st28" points="48.9,289.2 48.6,302.3 50.5,302.3 49.9,289.2 		"/>
	</g>
	<g>
		<polygon class="st28" points="49.2,291.2 52.2,288.8 52.6,289.4 49.2,292.4 		"/>
	</g>
	<g>
		<path class="st29" d="M49.2,273.1c-0.9,0-1.7,0.7-2.5,1.8c0.2-0.1,0.5-0.2,0.7-0.2c3.6,0,6.5,11,6.5,14.6c0,1.5-0.5,2.8-1.3,3.9
			c1.9-1.1,3.1-3.2,3.1-5.5C55.7,284.1,52.8,273.1,49.2,273.1z"/>
	</g>
</g>
<g>
	<path class="st30" d="M66.9,263.4c-0.4,0-0.7,0.1-1.1,0.2c-1.1-1.6-2.9-2.6-4.9-2.6s-3.8,1-4.9,2.6c-0.3-0.1-0.7-0.2-1.1-0.2
		c-2,0-3.6,1.6-3.6,3.6h19.1C70.5,265,68.9,263.4,66.9,263.4z"/>
</g>
<g class="st31">
	<path class="st30" d="M84.6,264.8c-0.2,0-0.5,0-0.7,0.1c-0.7-1-1.8-1.6-3.1-1.6s-2.4,0.6-3.1,1.6c-0.2-0.1-0.4-0.1-0.7-0.1
		c-1.3,0-2.3,1-2.3,2.3h12.2C86.9,265.8,85.9,264.8,84.6,264.8z"/>
</g>
<g>
	<path class="st14" d="M77.2,281.1c-0.1-0.4-0.2-0.8-0.2-1.2c0-2.7,2.2-4.9,4.9-4.9c0.3,0,0.6,0,0.8,0.1c0.9-0.5,1.9-0.8,2.9-0.8
		c3.1,0,5.7,2.6,5.7,5.7c0,0.1,0,0.3,0,0.4c1.4,1.6,2.3,3.7,2.3,6.1c0,5-4.1,9.1-9.1,9.1s-9.1-4.1-9.1-9.1
		C75.5,284.4,76.1,282.6,77.2,281.1z"/>
</g>
<g>
	<polygon class="st28" points="84.6,290.9 88.1,288 88.6,288.2 84.6,291.8 	"/>
</g>
<g>
	<g>
		<path class="st14" d="M66.2,279c0.1-0.4,0.2-0.9,0.2-1.3c0-3-2.4-5.4-5.4-5.4c-0.3,0-0.6,0-0.9,0.1c-1-0.6-2.1-0.9-3.3-0.9
			c-3.5,0-6.3,2.8-6.3,6.3c0,0.2,0,0.3,0,0.5c-1.6,1.8-2.5,4.1-2.5,6.7c0,5.6,4.5,10.1,10.1,10.1S68,290.3,68,284.8
			C68,282.6,67.3,280.6,66.2,279z"/>
	</g>
	<g>
		<g>
			<path class="st32" d="M66.2,279c0.1-0.4,0.2-0.9,0.2-1.3c0-3-2.4-5.4-5.4-5.4c-0.3,0-0.6,0-0.9,0.1c-1-0.6-2.1-0.9-3.3-0.9
				c-2.6,0-4.8,1.6-5.8,3.8c1.1-1.3,2.8-2.1,4.6-2.1c1.2,0,2.2,0.3,3.2,0.9c0.3,0,0.6-0.1,0.9-0.1c2.9,0,5.3,2.4,5.3,5.3
				c0,0.4-0.1,0.9-0.2,1.3c1.1,1.6,1.8,3.5,1.8,5.6c0,3.1-1.4,5.8-3.7,7.6c3.1-1.7,5.1-5,5.1-8.8C68,282.6,67.3,280.6,66.2,279z"/>
		</g>
	</g>
	<g>
		<g>
			<polygon class="st28" points="58.9,302.3 57.1,302.3 57.5,283.3 58,283.3 			"/>
		</g>
		<g>
			<polygon class="st28" points="57.7,290.6 53.8,287.4 53.3,287.7 57.7,291.6 			"/>
		</g>
		<g>
			<polygon class="st28" points="58,288.9 61.9,285.7 62.4,286 58,289.9 			"/>
		</g>
	</g>
</g>
<g>
	<g>
		<path class="st13" d="M81.3,274.3c0.1-0.5,0.2-1,0.2-1.6c0-3.6-2.9-6.5-6.5-6.5c-0.4,0-0.7,0-1.1,0.1c-1.1-0.7-2.5-1.1-3.9-1.1
			c-4.2,0-7.5,3.4-7.5,7.5c0,0.2,0,0.4,0,0.6c-1.9,2.1-3,4.9-3,8c0,6.7,5.4,12.1,12.1,12.1c6.7,0,12.1-5.4,12.1-12.1
			C83.5,278.6,82.7,276.2,81.3,274.3z"/>
	</g>
	<g>
		<g>
			<g>
				<path class="st29" d="M81.3,274.3c0.1-0.5,0.2-1,0.2-1.6c0-3.6-2.9-6.5-6.5-6.5c-0.4,0-0.7,0-1.1,0.1c-1.1-0.7-2.5-1.1-3.9-1.1
					c-3.1,0-5.8,1.9-6.9,4.5c1.3-1.5,3.3-2.5,5.6-2.5c1.4,0,2.7,0.4,3.8,1.1c0.4-0.1,0.7-0.1,1.1-0.1c3.5,0,6.4,2.8,6.4,6.3
					c0,0.5-0.1,1-0.2,1.5c1.4,1.9,2.2,4.2,2.2,6.7c0,3.7-1.7,7-4.4,9.1c3.7-2.1,6.2-6,6.2-10.5C83.5,278.6,82.7,276.2,81.3,274.3z"
					/>
			</g>
		</g>
		<g>
			<g>
				<path class="st29" d="M61.3,275c0-0.1,0-0.1,0-0.2c-0.1,0.2-0.2,0.4-0.4,0.6C61,275.3,61.2,275.1,61.3,275z"/>
			</g>
		</g>
	</g>
	<g>
		<g>
			<polygon class="st28" points="72.6,302.3 70.5,302.3 71,281.1 71.5,281.1 			"/>
		</g>
		<g>
			<polygon class="st28" points="71.2,289.2 66.4,285.4 65.9,285.7 71.2,290.4 			"/>
		</g>
		<g>
			<polygon class="st28" points="71.5,284.6 68.3,282 67.9,282.2 71.5,285.4 			"/>
		</g>
		<g>
			<polygon class="st28" points="71.5,287.2 76.2,283.4 76.8,283.7 71.5,288.4 			"/>
		</g>
	</g>
</g>
<g class="st31">
	<path class="st30" d="M65.2,259.4c0-1.4,1.1-2.5,2.5-2.5c0.2,0,0.4,0,0.6,0.1c0.7-0.7,1.6-1.2,2.6-1.2c2,0,3.6,1.6,3.6,3.6H65.2z"
		/>
</g>
<g>
	<path class="st30" d="M78.2,259.9c0-0.8-0.7-1.5-1.5-1.5c-0.1,0-0.2,0-0.4,0c-0.4-0.4-1-0.7-1.6-0.7c-1.2,0-2.2,1-2.2,2.2
		L78.2,259.9L78.2,259.9z"/>
</g>
<g>
	<path class="st30" d="M84.6,263.3c0-1,0.8-1.8,1.8-1.8c0.1,0,0.3,0,0.4,0.1c0.5-0.5,1.1-0.8,1.9-0.8c1.4,0,2.5,1.1,2.5,2.5H84.6z"
		/>
</g>
<g>
	<path class="st12" d="M145.5,273.1c-1.1,0.1-2,0.6-2.6,1.5c-0.2-0.1-0.5-0.1-0.7-0.1c-0.5,0-0.9,0.1-1.4,0.3
		c-0.5-1-1.6-1.7-2.8-1.7c-0.8,0-1.6,0.3-2.2,0.9c-0.3-0.1-0.6-0.2-1-0.2c-0.5,0-0.9,0.1-1.3,0.3c-0.6-0.6-1.4-1-2.3-1
		c-0.6,0-1.2,0.2-1.6,0.5c-0.6-0.6-1.4-1.1-2.3-1.1c-1.7,0-3.1,1.4-3.1,3.1c0,1.7,1.4,3.1,3.1,3.1c0.6,0,1.2-0.2,1.6-0.5
		c0.6,0.6,1.4,1.1,2.3,1.1c0.5,0,0.9-0.1,1.3-0.3c0.6,0.6,2.2,3.4,3.1,3.4c0.8,0,0.7-2.7,1.3-3.3c0.3,0.1,0.6,0.2,1,0.2
		c0.5,0,0.9-0.1,1.4-0.3c0.5,1,1.6,1.7,2.8,1.7c0.7,0,1.3-0.2,1.8-0.6c0.6,0.3,1.2,0.6,2,0.6c0.6,0,1.2-0.2,1.7-0.4
		C147.1,277.8,146.4,275.4,145.5,273.1z"/>
</g>
<g>
	<path class="st12" d="M107,269.2c-0.9,0-1.7,0.4-2.3,1.1c-0.6-0.7-1.4-1.1-2.3-1.1c-0.8,0-1.5,0.3-2,0.9c-0.6-0.5-1.3-0.9-2-0.9
		c-1.1,0-2,0.6-2.6,1.5c-0.3-0.1-0.6-0.2-0.9-0.2c-0.5,0-1,0.2-1.4,0.4c-0.6-0.7-1.5-1.1-2.4-1.1c-1,0-1.9,0.5-2.5,1.3
		c-0.5-0.3-1.1-0.5-1.8-0.5c0,0-0.1,0-0.1,0c-1,2.8-1.7,5.8-2.1,8.8c0.6,0.5,1.4,0.8,2.2,0.8c1.3,0,3.7,1.2,4.4,0
		c0.3,0.1,0.6-0.7,0.9-0.7c0.6,0,0.2-1.3,0.7-1.7c0.6,0.5,1.3,0.9,2.1,0.9c1.1,0,2-0.6,2.6-1.5c0.3,0.1,0.6,0.2,0.9,0.2
		c0.8,0,1.5-0.3,2-0.9c0.6,0.5,1.3,0.9,2,0.9c0.9,0,1.7-0.4,2.3-1.1c0.6,0.7,1.4,1.1,2.3,1.1c1.9,0,3.4-1.8,3.4-4.1
		C110.4,271,108.9,269.2,107,269.2z"/>
</g>
<g>
	<path class="st13" d="M88.3,302.4c7.5-0.5,17.6,5.9,26.5,5.9c17.8,0,20.2-6.6,29-6.6c2.7-4.7,4.2-10,4.2-15.8H83.6
		C83.6,291.9,85.3,297.6,88.3,302.4z"/>
</g>
<g>
	<path class="st14" d="M87.2,300.5c7.7-0.3,21.8-1,32.4,0.6c9,1.3,19,0,25.4-1.8c1.9-4.1,3-8.6,3-13.4H83.6
		C83.6,291.1,84.9,296.1,87.2,300.5z"/>
</g>
<g>
	<path class="st15" d="M85.2,295.6c4.9,2.6,13,3.4,22.6,2.4c10.5-1.1,21.1-1.3,28.7-0.7c4.2,0.3,7.4,0.1,9.5-0.2
		c1.3-3.5,2.1-7.3,2.1-11.3H83.6C83.6,289.3,84.2,292.5,85.2,295.6z"/>
</g>
<g>
	<path class="st16" d="M145.6,298.1c0.4-0.9,0.7-1.9,1-2.9l-0.4-9.4h-0.3L145.6,298.1z"/>
</g>
<g>
	<path class="st16" d="M86.7,299.5l-0.6-13h-0.3l-0.2,10.3C85.9,297.6,86.3,298.6,86.7,299.5z"/>
</g>
<g>
	<path class="st14" d="M145,277.2c-1.1,0-2,1.3-2.8,3c-0.3,1.8-0.5,3.6-0.5,5.4c0,2.1,0.2,4.1,0.6,6c0.8,0.5,1.7,0.9,2.7,0.9
		c0.9,0,1.7-0.3,2.4-0.7c0.4-2,0.6-4.1,0.6-6.2c0-2.2-0.2-4.3-0.6-6.4C146.7,278.1,145.9,277.2,145,277.2z"/>
</g>
<g>
	<path class="st14" d="M84,294.8c0.8,0.7,1.7,1.2,2.8,1.2c2.7,0,4.4-4.2,4.9-6.5c1.7-7.5-5.1-16-7-15.3c-0.5,0.2-1,1.3-0.7,4.9
		c-0.3,2.4-0.5,4.9-0.5,7.5C83.4,289.4,83.6,292.2,84,294.8z"/>
</g>
<g>
	<polygon class="st15" points="114.7,299.3 113.4,299.3 113.7,285.4 114,285.4 	"/>
</g>
<g>
	<polygon class="st15" points="110.9,299.7 109.6,299.7 109.9,285.7 110.2,285.7 	"/>
</g>
<g>
	<polygon class="st15" points="118.9,299.3 117.8,299.3 118.1,287.4 118.3,287.4 	"/>
</g>
<g>
	<polygon class="st15" points="117.2,298.7 116.1,298.7 116.4,286.7 116.6,286.7 	"/>
</g>
<g>
	<polygon class="st15" points="124.3,299.3 123.3,299.3 123.5,287.4 123.8,287.4 	"/>
</g>
<g>
	<polygon class="st15" points="135.4,298.9 134.3,298.9 134.6,286.9 134.8,286.9 	"/>
</g>
<g>
	<polygon class="st15" points="141,298.7 139.9,298.7 140.2,286.7 140.5,286.7 	"/>
</g>
<g>
	<polygon class="st15" points="143.6,298.3 142.5,298.3 142.7,286.4 143,286.4 	"/>
</g>
<g>
	<polygon class="st15" points="91.6,299 90.5,299 90.8,287.1 91.1,287.1 	"/>
</g>
<g>
	<polygon class="st15" points="88.3,298.9 87.2,298.9 87.4,286.9 87.7,286.9 	"/>
</g>
<g>
	<polygon class="st15" points="108.2,299.3 106.9,299.3 107.2,285.4 107.6,285.4 	"/>
</g>
<g>
	<polygon class="st15" points="103.9,299.3 102.6,299.3 102.9,285.4 103.2,285.4 	"/>
</g>
<g>
	<polygon class="st15" points="100.7,299.3 99.4,299.3 99.8,285.4 100.1,285.4 	"/>
</g>
<g>
	<polygon class="st15" points="96.2,299.1 94.9,299.1 95.2,285.2 95.6,285.2 	"/>
</g>
<g>
	<polygon class="st16" points="119.6,301 118.3,301 118.6,287.1 119,287.1 	"/>
</g>
<g>
	<polygon class="st16" points="122.6,300.8 121.3,300.8 121.6,286.8 122,286.8 	"/>
</g>
<g>
	<polygon class="st16" points="127.3,300.8 126,300.8 126.3,286.8 126.7,286.8 	"/>
</g>
<g>
	<polygon class="st16" points="131.3,300.5 130,300.5 130.3,286.6 130.6,286.6 	"/>
</g>
<g>
	<polygon class="st16" points="136.1,300 134.8,300 135.1,286.1 135.5,286.1 	"/>
</g>
<g>
	<polygon class="st16" points="141.8,299.3 140.5,299.3 140.8,285.4 141.1,285.4 	"/>
</g>
<g>
	<polygon class="st16" points="144.3,299.9 143,299.9 143.3,285.9 143.7,285.9 	"/>
</g>
<g>
	<polygon class="st16" points="92.9,300.5 91.6,300.5 91.9,286.6 92.3,286.6 	"/>
</g>
<g>
	<polygon class="st16" points="89,300.8 87.7,300.8 88,286.8 88.4,286.8 	"/>
</g>
<g>
	<polygon class="st27" points="107.6,303.6 105.8,303.6 106.3,284.5 106.7,284.5 	"/>
</g>
<g>
	<polygon class="st27" points="112.9,303.6 111.2,303.6 111.6,284.5 112,284.5 	"/>
</g>
<g>
	<polygon class="st27" points="120.7,303.4 119,303.4 119.4,284.4 119.8,284.4 	"/>
</g>
<g>
	<polygon class="st27" points="125.5,303.4 123.8,303.4 124.2,284.4 124.7,284.4 	"/>
</g>
<g>
	<polygon class="st27" points="134,303.6 132.3,303.6 132.7,284.5 133.2,284.5 	"/>
</g>
<g>
	<polygon class="st27" points="100.1,302.4 98.3,302.4 98.8,283.4 99.2,283.4 	"/>
</g>
<g>
	<polygon class="st16" points="97.1,300.8 95.8,300.8 96.1,286.8 96.5,286.8 	"/>
</g>
<g>
	<polygon class="st16" points="105,300.9 103.7,300.9 104.1,286.9 104.4,286.9 	"/>
</g>
<g>
	<polygon class="st16" points="110.2,301 108.9,301 109.3,287.1 109.6,287.1 	"/>
</g>
<g>
	<polygon class="st16" points="115.5,301 114.2,301 114.5,287.1 114.8,287.1 	"/>
</g>
<g>
	<polygon class="st27" points="91.1,302.6 89.3,302.6 89.7,283.5 90.2,283.5 	"/>
</g>
<g>
	<g>
		<path class="st13" d="M100.1,290.2c0,3.6-2.9,6.5-6.5,6.5c-3.6,0-6.5-2.9-6.5-6.5s2.9-14.6,6.5-14.6
			C97.2,275.6,100.1,286.6,100.1,290.2z"/>
	</g>
	<g>
		<polygon class="st28" points="93.3,291.7 92.9,304.8 94.9,304.8 94.2,291.7 		"/>
	</g>
	<g>
		<polygon class="st28" points="93.6,293.7 96.6,291.2 96.9,291.9 93.6,294.9 		"/>
	</g>
	<g>
		<path class="st29" d="M93.6,275.6c-0.9,0-1.7,0.7-2.5,1.8c0.2-0.1,0.5-0.2,0.7-0.2c3.6,0,6.5,11,6.5,14.6c0,1.5-0.5,2.8-1.3,3.9
			c1.9-1.1,3.1-3.2,3.1-5.5C100.1,286.6,97.2,275.6,93.6,275.6z"/>
	</g>
</g>
<g>
	<path class="st30" d="M111.2,264.4c-0.4,0-0.7,0.1-1.1,0.2c-1.1-1.6-2.9-2.6-4.9-2.6s-3.8,1-4.9,2.6c-0.3-0.1-0.7-0.2-1.1-0.2
		c-2,0-3.6,1.6-3.6,3.6h19.1C114.8,266,113.2,264.4,111.2,264.4z"/>
</g>
<g class="st31">
	<path class="st30" d="M129,267.3c-0.2,0-0.5,0-0.7,0.1c-0.7-1-1.8-1.6-3.1-1.6c-1.3,0-2.4,0.6-3.1,1.6c-0.2-0.1-0.4-0.1-0.7-0.1
		c-1.3,0-2.3,1-2.3,2.3h12.2C131.3,268.3,130.3,267.3,129,267.3z"/>
</g>
<g>
	<g>
		<path class="st14" d="M121.5,283.6c-0.1-0.4-0.2-0.8-0.2-1.2c0-2.7,2.2-4.9,4.9-4.9c0.3,0,0.6,0,0.8,0.1c0.9-0.5,1.9-0.8,2.9-0.8
			c3.1,0,5.7,2.6,5.7,5.7c0,0.1,0,0.3,0,0.4c1.4,1.6,2.3,3.7,2.3,6.1c0,5-4.1,9.1-9.1,9.1c-5,0-9.1-4.1-9.1-9.1
			C119.8,286.9,120.5,285.1,121.5,283.6z"/>
	</g>
	<g>
		<g>
			<polygon class="st28" points="129.7,304.8 128.1,304.8 128.5,288.7 128.9,288.7 			"/>
		</g>
		<g>
			<polygon class="st28" points="128.7,294.9 125.1,292 124.7,292.2 128.7,295.8 			"/>
		</g>
		<g>
			<polygon class="st28" points="128.9,291.4 126.5,289.4 126.2,289.6 128.9,292 			"/>
		</g>
		<g>
			<polygon class="st28" points="128.9,293.4 132.5,290.5 132.9,290.7 128.9,294.3 			"/>
		</g>
	</g>
	<g>
		<path class="st32" d="M135.7,282.8c0-0.1,0-0.3,0-0.4c0-3.2-2.5-5.7-5.7-5.7c-1.1,0-2.1,0.3-2.9,0.8c-0.3,0-0.5-0.1-0.8-0.1
			c-1.5,0-2.8,0.7-3.7,1.7c0.5-0.2,1.1-0.3,1.7-0.3c0.3,0,0.6,0,0.8,0.1c0.9-0.5,1.9-0.8,2.9-0.8c3.1,0,5.7,2.6,5.7,5.7
			c0,0.1,0,0.3,0,0.4c1.4,1.6,2.3,3.7,2.3,6.1c0,2.7-1.2,5.1-3,6.8c3-1.5,5-4.6,5-8.2C138,286.5,137.1,284.4,135.7,282.8z"/>
	</g>
</g>
<g>
	<g>
		<path class="st14" d="M110.5,281.4c0.1-0.4,0.2-0.9,0.2-1.3c0-3-2.4-5.4-5.4-5.4c-0.3,0-0.6,0-0.9,0.1c-1-0.6-2.1-0.9-3.3-0.9
			c-3.5,0-6.3,2.8-6.3,6.3c0,0.2,0,0.3,0,0.5c-1.6,1.8-2.5,4.1-2.5,6.7c0,5.6,4.5,10.1,10.1,10.1s10.1-4.5,10.1-10.1
			C112.4,285.1,111.7,283.1,110.5,281.4z"/>
	</g>
	<g>
		<g>
			<path class="st32" d="M110.5,281.4c0.1-0.4,0.2-0.9,0.2-1.3c0-3-2.4-5.4-5.4-5.4c-0.3,0-0.6,0-0.9,0.1c-1-0.6-2.1-0.9-3.3-0.9
				c-2.6,0-4.8,1.6-5.8,3.8c1.1-1.3,2.8-2.1,4.6-2.1c1.2,0,2.2,0.3,3.2,0.9c0.3,0,0.6-0.1,0.9-0.1c2.9,0,5.3,2.4,5.3,5.3
				c0,0.4-0.1,0.9-0.2,1.3c1.1,1.6,1.8,3.5,1.8,5.6c0,3.1-1.4,5.8-3.7,7.6c3.1-1.7,5.1-5,5.1-8.8
				C112.4,285.1,111.7,283.1,110.5,281.4z"/>
		</g>
	</g>
	<g>
		<g>
			<polygon class="st28" points="103.2,304.8 101.5,304.8 101.9,285.7 102.3,285.7 			"/>
		</g>
		<g>
			<polygon class="st28" points="102,293.1 98.1,289.9 97.6,290.1 102,294.1 			"/>
		</g>
		<g>
			<polygon class="st28" points="102.3,291.4 106.2,288.2 106.7,288.5 102.3,292.4 			"/>
		</g>
	</g>
</g>
<g>
	<g>
		<path class="st13" d="M125.7,276.7c0.1-0.5,0.2-1,0.2-1.6c0-3.6-2.9-6.5-6.5-6.5c-0.4,0-0.7,0-1.1,0.1c-1.1-0.7-2.5-1.1-3.9-1.1
			c-4.2,0-7.5,3.4-7.5,7.5c0,0.2,0,0.4,0,0.6c-1.9,2.1-3,4.9-3,8c0,6.7,5.4,12.1,12.1,12.1c6.7,0,12.1-5.4,12.1-12.1
			C127.9,281.1,127.1,278.7,125.7,276.7z"/>
	</g>
	<g>
		<g>
			<g>
				<path class="st29" d="M125.7,276.7c0.1-0.5,0.2-1,0.2-1.6c0-3.6-2.9-6.5-6.5-6.5c-0.4,0-0.7,0-1.1,0.1c-1.1-0.7-2.5-1.1-3.9-1.1
					c-3.1,0-5.8,1.9-6.9,4.5c1.3-1.5,3.3-2.5,5.6-2.5c1.4,0,2.7,0.4,3.8,1.1c0.4-0.1,0.7-0.1,1.1-0.1c3.5,0,6.4,2.8,6.4,6.3
					c0,0.5-0.1,1-0.2,1.5c1.4,1.9,2.2,4.2,2.2,6.7c0,3.7-1.7,7-4.4,9.1c3.7-2.1,6.2-6,6.2-10.5C127.9,281.1,127.1,278.7,125.7,276.7
					z"/>
			</g>
		</g>
		<g>
			<g>
				<path class="st29" d="M105.6,277.4c0-0.1,0-0.1,0-0.2c-0.1,0.2-0.2,0.4-0.4,0.6C105.4,277.7,105.5,277.6,105.6,277.4z"/>
			</g>
		</g>
	</g>
	<g>
		<g>
			<polygon class="st28" points="116.9,304.8 114.8,304.8 115.3,283.5 115.9,283.5 			"/>
		</g>
		<g>
			<polygon class="st28" points="115.5,291.7 110.8,287.9 110.2,288.2 115.5,292.9 			"/>
		</g>
		<g>
			<polygon class="st28" points="115.8,287.1 112.6,284.5 112.2,284.7 115.8,287.9 			"/>
		</g>
		<g>
			<polygon class="st28" points="115.8,289.7 120.5,285.9 121.1,286.2 115.8,290.9 			"/>
		</g>
	</g>
</g>
<g class="st31">
	<path class="st30" d="M109.6,261.8c0-1.4,1.1-2.5,2.5-2.5c0.2,0,0.4,0,0.6,0.1c0.7-0.7,1.6-1.2,2.6-1.2c2,0,3.6,1.6,3.6,3.6H109.6z
		"/>
</g>
<g>
	<path class="st30" d="M122.6,262.3c0-0.8-0.7-1.5-1.5-1.5c-0.1,0-0.2,0-0.4,0c-0.4-0.4-1-0.7-1.6-0.7c-1.2,0-2.2,1-2.2,2.2
		L122.6,262.3L122.6,262.3z"/>
</g>
<g>
	<path class="st30" d="M128.9,265.8c0-1,0.8-1.8,1.8-1.8c0.1,0,0.3,0,0.4,0.1c0.5-0.5,1.1-0.8,1.9-0.8c1.4,0,2.5,1.1,2.5,2.5H128.9z
		"/>
</g>
<g>
	<polygon class="st28" points="85.4,302.3 83.8,302.3 84.2,286.2 84.6,286.2 	"/>
</g>
<g>
	<polygon class="st28" points="84.6,288.9 82.1,286.9 81.8,287.1 84.6,289.5 	"/>
</g>
<g>
	<polygon class="st28" points="84.3,292.4 80.7,289.5 80.3,289.8 84.3,293.3 	"/>
</g>
<g>
	<path class="st12" d="M197.8,272.7c-1.1,0.1-2,0.6-2.6,1.5c-0.2-0.1-0.5-0.1-0.7-0.1c-0.5,0-0.9,0.1-1.4,0.3
		c-0.5-1-1.6-1.7-2.8-1.7c-0.8,0-1.6,0.3-2.2,0.9c-0.3-0.1-0.6-0.2-1-0.2c-0.5,0-0.9,0.1-1.3,0.3c-0.6-0.6-1.4-1-2.3-1
		c-0.6,0-1.2,0.2-1.6,0.5c-0.6-0.6-1.4-1.1-2.3-1.1c-1.7,0-3.1,1.4-3.1,3.1c0,1.7,1.4,3.1,3.1,3.1c0.6,0,1.2-0.2,1.6-0.5
		c0.6,0.6,1.4,1.1,2.3,1.1c0.5,0,0.9-0.1,1.3-0.3c0.6,0.6,2.2,3.4,3.1,3.4c0.8,0,0.7-2.7,1.3-3.3c0.3,0.1,0.6,0.2,1,0.2
		c0.5,0,0.9-0.1,1.4-0.3c0.5,1,1.6,1.7,2.8,1.7c0.7,0,1.3-0.2,1.8-0.6c0.6,0.3,1.2,0.6,2,0.6c0.6,0,1.2-0.2,1.7-0.4
		C199.5,277.4,198.8,274.9,197.8,272.7z"/>
</g>
<g>
	<path class="st12" d="M157.4,272.1c-0.8,0-1.6,0.3-2.1,0.9c-0.6-0.5-1.3-0.9-2.1-0.9c-0.7,0-1.4,0.3-1.9,0.7
		c-0.5-0.4-1.2-0.7-1.9-0.7c-1,0-1.9,0.5-2.4,1.2c-0.3-0.1-0.6-0.1-0.9-0.1c-0.5,0-0.9,0.1-1.3,0.3c-0.6-0.5-1.4-0.9-2.2-0.9
		c-0.9,0-1.7,0.4-2.3,1c-0.5-0.3-1.1-0.4-1.7-0.4c0,0-0.1,0-0.1,0c-0.9,2.2-1.5,4.4-1.9,6.8c0.6,0.4,1.3,0.6,2,0.6
		c1.2,0,3.4,0.9,4.1,0c0.3,0.1,0.5-0.5,0.9-0.5c0.6,0,0.2-1,0.6-1.3c0.5,0.4,1.2,0.7,1.9,0.7c1,0,1.9-0.5,2.4-1.2
		c0.3,0.1,0.6,0.1,0.9,0.1c0.7,0,1.4-0.3,1.9-0.7c0.5,0.4,1.2,0.7,1.9,0.7c0.8,0,1.6-0.3,2.1-0.9c0.6,0.5,1.3,0.9,2.1,0.9
		c1.7,0,3.1-1.4,3.1-3.1C160.5,273.4,159.1,272.1,157.4,272.1z"/>
</g>
<g>
	<path class="st13" d="M140.7,302c7.5-0.5,17.6,5.9,26.5,5.9c17.8,0,20.2-6.6,29-6.6c2.7-4.7,4.2-10,4.2-15.8H136
		C136,291.5,137.7,297.2,140.7,302z"/>
</g>
<g>
	<path class="st14" d="M139.6,300.1c7.7-0.3,21.8-1,32.4,0.6c9,1.3,19,0,25.4-1.8c1.9-4.1,3-8.6,3-13.4H136
		C136,290.7,137.3,295.7,139.6,300.1z"/>
</g>
<g>
	<path class="st15" d="M137.5,295.2c4.9,2.6,13,3.4,22.6,2.4c10.5-1.1,21.1-1.3,28.7-0.7c4.2,0.3,7.4,0.1,9.5-0.2
		c1.3-3.5,2.1-7.3,2.1-11.3H136C136,288.8,136.6,292.1,137.5,295.2z"/>
</g>
<g>
	<path class="st16" d="M197.9,297.7c0.4-0.9,0.7-1.9,1-2.9l-0.4-9.4h-0.3L197.9,297.7z"/>
</g>
<g>
	<path class="st14" d="M197.4,276.8c-1.1,0-2,1.3-2.8,3c-0.3,1.8-0.5,3.6-0.5,5.4c0,2.1,0.2,4.1,0.6,6c0.8,0.5,1.7,0.9,2.7,0.9
		c0.9,0,1.7-0.3,2.4-0.7c0.4-2,0.6-4.1,0.6-6.2c0-2.2-0.2-4.3-0.6-6.4C199.1,277.7,198.3,276.8,197.4,276.8z"/>
</g>
<g>
	<path class="st14" d="M136.6,291.3c0.8,0.5,1.7,0.9,2.7,0.9c2.6,0,4.7-2.1,4.7-4.7c0-2.6-2.1-10.6-4.7-10.6c-1.1,0-2,1.3-2.8,3
		c-0.3,1.8-0.5,3.6-0.5,5.4C136,287.4,136.2,289.4,136.6,291.3z"/>
</g>
<g>
	<polygon class="st15" points="167,298.9 165.8,298.9 166.1,285 166.4,285 	"/>
</g>
<g>
	<polygon class="st15" points="163.2,299.2 162,299.2 162.3,285.3 162.6,285.3 	"/>
</g>
<g>
	<polygon class="st15" points="171.3,298.9 170.2,298.9 170.4,287 170.7,287 	"/>
</g>
<g>
	<polygon class="st15" points="169.6,298.2 168.5,298.2 168.7,286.3 169,286.3 	"/>
</g>
<g>
	<polygon class="st15" points="176.7,298.9 175.6,298.9 175.9,287 176.2,287 	"/>
</g>
<g>
	<polygon class="st15" points="187.8,298.5 186.7,298.5 186.9,286.5 187.2,286.5 	"/>
</g>
<g>
	<polygon class="st15" points="193.4,298.2 192.3,298.2 192.6,286.3 192.9,286.3 	"/>
</g>
<g>
	<polygon class="st15" points="195.9,297.9 194.8,297.9 195.1,286 195.4,286 	"/>
</g>
<g>
	<polygon class="st15" points="144,298.6 142.9,298.6 143.2,286.7 143.4,286.7 	"/>
</g>
<g>
	<polygon class="st15" points="140.6,298.5 139.5,298.5 139.8,286.5 140.1,286.5 	"/>
</g>
<g>
	<polygon class="st15" points="160.6,298.9 159.3,298.9 159.6,285 160,285 	"/>
</g>
<g>
	<polygon class="st15" points="156.2,298.9 155,298.9 155.3,285 155.6,285 	"/>
</g>
<g>
	<polygon class="st15" points="153.1,298.9 151.8,298.9 152.1,285 152.5,285 	"/>
</g>
<g>
	<polygon class="st15" points="148.6,298.7 147.3,298.7 147.6,284.8 148,284.8 	"/>
</g>
<g>
	<polygon class="st16" points="172,300.6 170.7,300.6 171,286.7 171.4,286.7 	"/>
</g>
<g>
	<polygon class="st16" points="175,300.4 173.7,300.4 174,286.4 174.3,286.4 	"/>
</g>
<g>
	<polygon class="st16" points="179.7,300.4 178.4,300.4 178.7,286.4 179.1,286.4 	"/>
</g>
<g>
	<polygon class="st16" points="183.7,300.1 182.4,300.1 182.7,286.2 183,286.2 	"/>
</g>
<g>
	<polygon class="st16" points="188.5,299.6 187.2,299.6 187.5,285.7 187.9,285.7 	"/>
</g>
<g>
	<polygon class="st16" points="194.2,298.9 192.9,298.9 193.2,285 193.5,285 	"/>
</g>
<g>
	<polygon class="st16" points="196.7,299.5 195.4,299.5 195.7,285.5 196,285.5 	"/>
</g>
<g>
	<polygon class="st16" points="145.3,300.1 144,300.1 144.3,286.2 144.6,286.2 	"/>
</g>
<g>
	<polygon class="st16" points="141.4,300.4 140.1,300.4 140.4,286.4 140.7,286.4 	"/>
</g>
<g>
	<polygon class="st27" points="160,303.2 158.2,303.2 158.6,284.1 159.1,284.1 	"/>
</g>
<g>
	<polygon class="st27" points="165.3,303.2 163.5,303.2 164,284.1 164.4,284.1 	"/>
</g>
<g>
	<polygon class="st27" points="173.1,303 171.4,303 171.8,284 172.2,284 	"/>
</g>
<g>
	<polygon class="st27" points="177.9,303 176.2,303 176.6,284 177.1,284 	"/>
</g>
<g>
	<polygon class="st27" points="186.4,303.2 184.7,303.2 185.1,284.1 185.5,284.1 	"/>
</g>
<g>
	<polygon class="st27" points="191.2,302.6 189.5,302.6 189.9,283.6 190.3,283.6 	"/>
</g>
<g>
	<polygon class="st27" points="152.5,302 150.7,302 151.1,283 151.6,283 	"/>
</g>
<g>
	<polygon class="st16" points="149.5,300.4 148.2,300.4 148.5,286.4 148.8,286.4 	"/>
</g>
<g>
	<polygon class="st16" points="157.4,300.4 156.1,300.4 156.4,286.5 156.8,286.5 	"/>
</g>
<g>
	<polygon class="st16" points="162.6,300.6 161.3,300.6 161.6,286.7 162,286.7 	"/>
</g>
<g>
	<polygon class="st16" points="167.8,300.6 166.6,300.6 166.9,286.7 167.2,286.7 	"/>
</g>
<g>
	<polygon class="st27" points="143.4,302.2 141.7,302.2 142.1,283.1 142.6,283.1 	"/>
</g>
<g>
	<g>
		<path class="st13" d="M197.5,290.3c0,3.5-2.8,6.3-6.3,6.3s-6.3-2.8-6.3-6.3c0-3.5,2.8-14.1,6.3-14.1
			C194.7,276.2,197.5,286.9,197.5,290.3z"/>
	</g>
	<g>
		<polygon class="st28" points="190.9,291.8 190.6,304.3 192.5,304.3 191.9,291.8 		"/>
	</g>
	<g>
		<polygon class="st28" points="191.3,293.7 194.1,291.3 194.5,292 191.3,294.8 		"/>
	</g>
	<g>
		<path class="st29" d="M191.3,276.2c-0.9,0-1.7,0.7-2.4,1.7c0.2-0.1,0.5-0.1,0.7-0.1c3.5,0,6.3,10.6,6.3,14.1
			c0,1.4-0.5,2.7-1.3,3.8c1.8-1.1,3-3.1,3-5.3C197.5,286.9,194.7,276.2,191.3,276.2z"/>
	</g>
</g>
<g>
	<g>
		<path class="st13" d="M152.5,289.8c0,3.6-2.9,6.5-6.5,6.5s-6.5-2.9-6.5-6.5c0-3.6,2.9-14.6,6.5-14.6S152.5,286.2,152.5,289.8z"/>
	</g>
	<g>
		<polygon class="st28" points="145.6,291.3 145.3,304.3 147.2,304.3 146.6,291.3 		"/>
	</g>
	<g>
		<polygon class="st28" points="146,293.3 148.9,290.8 149.3,291.5 146,294.5 		"/>
	</g>
	<g>
		<path class="st29" d="M146,275.2c-0.9,0-1.7,0.7-2.5,1.8c0.2-0.1,0.5-0.2,0.7-0.2c3.6,0,6.5,11,6.5,14.6c0,1.5-0.5,2.8-1.3,3.9
			c1.9-1.1,3.1-3.2,3.1-5.5C152.5,286.2,149.6,275.2,146,275.2z"/>
	</g>
</g>
<g>
	<path class="st30" d="M163.6,265.4c-0.4,0-0.7,0.1-1.1,0.2c-1.1-1.6-2.9-2.6-4.9-2.6c-2,0-3.8,1-4.9,2.6c-0.3-0.1-0.7-0.2-1.1-0.2
		c-2,0-3.6,1.6-3.6,3.6h19.1C167.2,267,165.6,265.4,163.6,265.4z"/>
</g>
<g class="st31">
	<path class="st30" d="M181.4,266.9c-0.2,0-0.5,0-0.7,0.1c-0.7-1-1.8-1.6-3.1-1.6c-1.3,0-2.4,0.6-3.1,1.6c-0.2-0.1-0.4-0.1-0.7-0.1
		c-1.3,0-2.3,1-2.3,2.3h12.2C183.7,267.9,182.6,266.9,181.4,266.9z"/>
</g>
<g>
	<path class="st14" d="M173.9,283.2c-0.1-0.4-0.2-0.8-0.2-1.2c0-2.7,2.2-4.9,4.9-4.9c0.3,0,0.6,0,0.8,0.1c0.9-0.5,1.9-0.8,2.9-0.8
		c3.1,0,5.7,2.6,5.7,5.7c0,0.1,0,0.3,0,0.4c1.4,1.6,2.3,3.7,2.3,6.1c0,5-4.1,9.1-9.1,9.1s-9.1-4.1-9.1-9.1
		C172.2,286.5,172.8,284.7,173.9,283.2z"/>
</g>
<g>
	<polygon class="st28" points="181.3,293 184.9,290.1 185.3,290.3 181.3,293.9 	"/>
</g>
<g>
	<g>
		<path class="st14" d="M162.9,281c0.1-0.4,0.2-0.9,0.2-1.3c0-3-2.4-5.4-5.4-5.4c-0.3,0-0.6,0-0.9,0.1c-1-0.6-2.1-0.9-3.3-0.9
			c-3.5,0-6.3,2.8-6.3,6.3c0,0.2,0,0.3,0,0.5c-1.6,1.8-2.5,4.1-2.5,6.7c0,5.6,4.5,10.1,10.1,10.1c5.6,0,10.1-4.5,10.1-10.1
			C164.7,284.7,164.1,282.7,162.9,281z"/>
	</g>
	<g>
		<g>
			<path class="st32" d="M162.9,281c0.1-0.4,0.2-0.9,0.2-1.3c0-3-2.4-5.4-5.4-5.4c-0.3,0-0.6,0-0.9,0.1c-1-0.6-2.1-0.9-3.3-0.9
				c-2.6,0-4.8,1.6-5.8,3.8c1.1-1.3,2.8-2.1,4.6-2.1c1.2,0,2.2,0.3,3.2,0.9c0.3,0,0.6-0.1,0.9-0.1c2.9,0,5.3,2.4,5.3,5.3
				c0,0.4-0.1,0.9-0.2,1.3c1.1,1.6,1.8,3.5,1.8,5.6c0,3.1-1.4,5.8-3.7,7.6c3.1-1.7,5.1-5,5.1-8.8C164.7,284.7,164.1,282.7,162.9,281
				z"/>
		</g>
	</g>
	<g>
		<g>
			<polygon class="st28" points="155.6,304.3 153.8,304.3 154.3,285.3 154.7,285.3 			"/>
		</g>
		<g>
			<polygon class="st28" points="154.4,292.6 150.5,289.5 150,289.7 154.4,293.6 			"/>
		</g>
		<g>
			<polygon class="st28" points="154.7,291 158.6,287.8 159.1,288 154.7,292 			"/>
		</g>
	</g>
</g>
<g>
	<g>
		<path class="st13" d="M178.1,276.3c0.1-0.5,0.2-1,0.2-1.6c0-3.6-2.9-6.5-6.5-6.5c-0.4,0-0.7,0-1.1,0.1c-1.1-0.7-2.5-1.1-3.9-1.1
			c-4.2,0-7.5,3.4-7.5,7.5c0,0.2,0,0.4,0,0.6c-1.9,2.1-3,4.9-3,8c0,6.7,5.4,12.1,12.1,12.1s12.1-5.4,12.1-12.1
			C180.3,280.7,179.5,278.3,178.1,276.3z"/>
	</g>
	<g>
		<g>
			<g>
				<path class="st29" d="M178.1,276.3c0.1-0.5,0.2-1,0.2-1.6c0-3.6-2.9-6.5-6.5-6.5c-0.4,0-0.7,0-1.1,0.1c-1.1-0.7-2.5-1.1-3.9-1.1
					c-3.1,0-5.8,1.9-6.9,4.5c1.3-1.5,3.3-2.5,5.6-2.5c1.4,0,2.7,0.4,3.8,1.1c0.4-0.1,0.7-0.1,1.1-0.1c3.5,0,6.4,2.8,6.4,6.3
					c0,0.5-0.1,1-0.2,1.5c1.4,1.9,2.2,4.2,2.2,6.7c0,3.7-1.7,7-4.4,9.1c3.7-2.1,6.2-6,6.2-10.5C180.3,280.7,179.5,278.3,178.1,276.3
					z"/>
			</g>
		</g>
		<g>
			<g>
				<path class="st29" d="M158,277c0-0.1,0-0.1,0-0.2c-0.1,0.2-0.2,0.4-0.4,0.6C157.8,277.3,157.9,277.2,158,277z"/>
			</g>
		</g>
	</g>
	<g>
		<g>
			<polygon class="st28" points="169.3,304.3 167.2,304.3 167.7,283.1 168.2,283.1 			"/>
		</g>
		<g>
			<polygon class="st28" points="167.9,291.3 163.2,287.5 162.6,287.8 167.9,292.5 			"/>
		</g>
		<g>
			<polygon class="st28" points="168.2,286.7 165,284 164.6,284.3 168.2,287.5 			"/>
		</g>
		<g>
			<polygon class="st28" points="168.2,289.3 172.9,285.5 173.5,285.8 168.2,290.5 			"/>
		</g>
	</g>
</g>
<g class="st31">
	<path class="st30" d="M162,261.4c0-1.4,1.1-2.5,2.5-2.5c0.2,0,0.4,0,0.6,0.1c0.7-0.7,1.6-1.2,2.6-1.2c2,0,3.6,1.6,3.6,3.6H162z"/>
</g>
<g>
	<path class="st30" d="M175,261.9c0-0.8-0.7-1.5-1.5-1.5c-0.1,0-0.2,0-0.4,0c-0.4-0.4-1-0.7-1.6-0.7c-1.2,0-2.2,1-2.2,2.2L175,261.9
		L175,261.9z"/>
</g>
<g>
	<path class="st30" d="M181.3,265.3c0-1,0.8-1.8,1.8-1.8c0.1,0,0.3,0,0.4,0.1c0.5-0.5,1.1-0.8,1.9-0.8c1.4,0,2.5,1.1,2.5,2.5H181.3z
		"/>
</g>
<g>
	<path class="st12" d="M245.2,274.7c-0.8-0.1-2.7-0.3-4.5,0.9c-0.5,0.3-0.9,0.7-1.1,1c-0.2-0.1-0.5-0.1-0.7-0.1
		c-0.5,0-0.9,0.1-1.4,0.3c-0.5-1-1.6-1.7-2.8-1.7c-0.8,0-1.6,0.3-2.2,0.9c-0.3-0.1-0.6-0.2-1-0.2c-0.5,0-0.9,0.1-1.3,0.3
		c-0.6-0.6-1.4-1-2.3-1c-0.6,0-1.2,0.2-1.6,0.5c-0.6-0.6-1.4-1.1-2.3-1.1c-1.7,0-3.1,1.4-3.1,3.1c0,1.7,1.4,3.1,3.1,3.1
		c0.6,0,1.2-0.2,1.6-0.5c0.6,0.6,1.4,1.1,2.3,1.1c0.5,0,0.9-0.1,1.3-0.3c0.6,0.6,2.2,3.4,3.1,3.4c0.8,0,0.7-2.7,1.3-3.3
		c0.3,0.1,0.6,0.2,1,0.2c0.5,0,0.9-0.1,1.4-0.3c0.5,1,1.6,1.7,2.8,1.7c0.7,0,1.3-0.2,1.8-0.6c0.4,0.2,1.1,0.5,2,0.6
		c1.2,0.1,2.1-0.1,2.6-0.3c0-1.4,0-2.7,0-4.1C245.2,277.2,245.2,275.9,245.2,274.7z"/>
</g>
<g>
	<path class="st12" d="M203.8,271.2c-0.9,0-1.7,0.4-2.3,1.1c-0.6-0.7-1.4-1.1-2.3-1.1c-0.8,0-1.5,0.3-2,0.9c-0.6-0.5-1.3-0.9-2-0.9
		c-1.1,0-2,0.6-2.6,1.5c-0.3-0.1-0.6-0.2-0.9-0.2c-0.5,0-1,0.2-1.4,0.4c-0.6-0.7-1.5-1.1-2.4-1.1c-1,0-1.9,0.5-2.5,1.3
		c-0.5-0.3-1.1-0.5-1.8-0.5c0,0-0.1,0-0.1,0c-1,2.8-1.7,5.8-2.1,8.8c0.6,0.5,1.4,0.8,2.2,0.8c1.3,0,3.7,1.2,4.4,0
		c0.3,0.1,0.6-0.7,0.9-0.7c0.6,0,0.2-1.3,0.7-1.7c0.6,0.5,1.3,0.9,2.1,0.9c1.1,0,2-0.6,2.6-1.5c0.3,0.1,0.6,0.2,0.9,0.2
		c0.8,0,1.5-0.3,2-0.9c0.6,0.5,1.3,0.9,2,0.9c0.9,0,1.7-0.4,2.3-1.1c0.6,0.7,1.4,1.1,2.3,1.1c1.9,0,3.4-1.8,3.4-4.1
		C207.1,273,205.6,271.2,203.8,271.2z"/>
</g>
<g>
	<path class="st13" d="M185,304.5c7.5-0.5,17.6,5.9,26.5,5.9c4.2,0,8-0.8,13.4-1.7c8.4-1.4,15.3-3.2,20.1-4.5c0-2.4,0-4.9,0.1-7.4
		c0-2.8,0.1-5.5,0.1-8.3c-21.6-0.2-43.2-0.4-64.9-0.6C180.4,294,182.1,299.6,185,304.5z"/>
</g>
<g>
	<path class="st14" d="M183.9,302.5c10.2,0.5,21,0.7,32.4,0.6c10-0.2,19.6-0.6,28.7-1.3c0.1-4.4,0.1-8.8,0.2-13.2
		c-21.6-0.2-43.2-0.4-64.9-0.6C180.4,293.2,181.7,298.1,183.9,302.5z"/>
</g>
<g>
	<path class="st15" d="M181.9,297.6c4.9,2.6,13,3.4,22.6,2.4c8.6-0.9,13.8-0.6,28.7-0.7c5.1,0,9.2,0,11.9,0.1c0-1.9-0.1-3.9,0-6
		c0-1.9,0.1-3.7,0.2-5.4c-21.6,0-43.2,0-64.9-0.1C180.4,291.3,180.9,294.6,181.9,297.6z"/>
</g>
<g>
	<path class="st16" d="M242.4,303.5c0.3,0,0.7,0,1,0c-0.2-5.2-0.3-10.4-0.5-15.6h-0.3C242.5,293.1,242.4,298.3,242.4,303.5z"/>
</g>
<g>
	<path class="st16" d="M183.4,301.5l-0.6-13h-0.3l-0.2,10.3C182.6,299.7,183,300.6,183.4,301.5z"/>
</g>
<g>
	<path class="st14" d="M241.8,279.3c-0.7,0.1-1.2,0.6-1.5,0.9c-0.5,0.5-0.9,1.3-1.3,2.2c-0.3,1.8-0.5,3.6-0.5,5.4
		c0,2.1,0.2,4.1,0.6,6c0.5,0.4,1.1,0.6,1.8,0.8c0.3,0.1,0.6,0.1,0.9,0.1c0.6,0,1.7,0,3.3-0.5c0.1-2,0.1-4.1,0.2-6.2
		c0-1.9,0-3.7,0-5.5C244.4,280.4,243,279.1,241.8,279.3z"/>
</g>
<g>
	<path class="st14" d="M180.7,296.9c0.8,0.7,1.7,1.2,2.8,1.2c2.7,0,4.4-4.2,4.9-6.5c1.7-7.5-5.1-16-7-15.3c-0.5,0.2-1,1.3-0.7,4.9
		c-0.3,2.4-0.5,4.9-0.5,7.5C180.1,291.5,180.3,294.2,180.7,296.9z"/>
</g>
<g>
	<polygon class="st15" points="211.4,301.4 210.1,301.4 210.4,287.5 210.8,287.5 	"/>
</g>
<g>
	<polygon class="st15" points="207.6,301.7 206.3,301.7 206.6,287.8 207,287.8 	"/>
</g>
<g>
	<polygon class="st15" points="215.6,301.4 214.5,301.4 214.8,289.5 215.1,289.5 	"/>
</g>
<g>
	<polygon class="st15" points="213.9,300.7 212.8,300.7 213.1,288.8 213.4,288.8 	"/>
</g>
<g>
	<polygon class="st15" points="221.1,301.4 220,301.4 220.2,289.5 220.5,289.5 	"/>
</g>
<g>
	<polygon class="st15" points="232.1,300.9 231,300.9 231.3,289 231.6,289 	"/>
</g>
<g>
	<polygon class="st15" points="237.8,300.7 236.7,300.7 236.9,288.8 237.2,288.8 	"/>
</g>
<g>
	<polygon class="st15" points="240.3,300.4 239.2,300.4 239.5,288.5 239.7,288.5 	"/>
</g>
<g>
	<polygon class="st15" points="188.4,301.1 187.3,301.1 187.5,289.2 187.8,289.2 	"/>
</g>
<g>
	<polygon class="st15" points="185,300.9 183.9,300.9 184.2,289 184.4,289 	"/>
</g>
<g>
	<polygon class="st15" points="205,301.4 203.7,301.4 204,287.5 204.3,287.5 	"/>
</g>
<g>
	<polygon class="st15" points="200.6,301.4 199.3,301.4 199.6,287.5 199.9,287.5 	"/>
</g>
<g>
	<polygon class="st15" points="197.5,301.4 196.2,301.4 196.5,287.5 196.8,287.5 	"/>
</g>
<g>
	<polygon class="st15" points="192.9,301.2 191.7,301.2 192,287.3 192.3,287.3 	"/>
</g>
<g>
	<polygon class="st16" points="216.3,303.1 215.1,303.1 215.4,289.1 215.7,289.1 	"/>
</g>
<g>
	<polygon class="st16" points="219.3,302.8 218.1,302.8 218.4,288.9 218.7,288.9 	"/>
</g>
<g>
	<polygon class="st16" points="224,302.8 222.8,302.8 223.1,288.9 223.4,288.9 	"/>
</g>
<g>
	<polygon class="st16" points="228,302.6 226.7,302.6 227,288.6 227.4,288.6 	"/>
</g>
<g>
	<polygon class="st16" points="232.9,302.1 231.6,302.1 231.9,288.2 232.2,288.2 	"/>
</g>
<g>
	<polygon class="st16" points="238.5,301.4 237.2,301.4 237.5,287.5 237.9,287.5 	"/>
</g>
<g>
	<polygon class="st16" points="241,301.9 239.7,301.9 240.1,288 240.4,288 	"/>
</g>
<g>
	<polygon class="st16" points="189.6,302.6 188.3,302.6 188.7,288.6 189,288.6 	"/>
</g>
<g>
	<polygon class="st16" points="185.7,302.8 184.4,302.8 184.8,288.9 185.1,288.9 	"/>
</g>
<g>
	<polygon class="st27" points="204.3,305.6 202.6,305.6 203,286.6 203.4,286.6 	"/>
</g>
<g>
	<polygon class="st27" points="209.6,305.6 207.9,305.6 208.3,286.6 208.8,286.6 	"/>
</g>
<g>
	<polygon class="st27" points="217.5,305.5 215.7,305.5 216.1,286.4 216.6,286.4 	"/>
</g>
<g>
	<polygon class="st27" points="222.3,305.5 220.5,305.5 221,286.4 221.4,286.4 	"/>
</g>
<g>
	<polygon class="st27" points="230.8,305.6 229,305.6 229.4,286.6 229.9,286.6 	"/>
</g>
<g>
	<polygon class="st27" points="235.6,305.1 233.8,305.1 234.2,286 234.7,286 	"/>
</g>
<g>
	<polygon class="st27" points="196.8,304.5 195.1,304.5 195.5,285.4 195.9,285.4 	"/>
</g>
<g>
	<polygon class="st16" points="193.8,302.8 192.5,302.8 192.9,288.9 193.2,288.9 	"/>
</g>
<g>
	<polygon class="st16" points="201.8,302.9 200.5,302.9 200.8,289 201.1,289 	"/>
</g>
<g>
	<polygon class="st16" points="207,303.1 205.7,303.1 206,289.1 206.3,289.1 	"/>
</g>
<g>
	<polygon class="st16" points="212.2,303.1 210.9,303.1 211.2,289.1 211.5,289.1 	"/>
</g>
<g>
	<polygon class="st27" points="187.8,304.6 186.1,304.6 186.5,285.6 186.9,285.6 	"/>
</g>
<g>
	<g>
		<path class="st13" d="M241.9,292.8c0,3.5-2.8,6.3-6.3,6.3s-6.3-2.8-6.3-6.3c0-3.5,2.8-14.1,6.3-14.1
			C239.1,278.7,241.9,289.3,241.9,292.8z"/>
	</g>
	<g>
		<polygon class="st28" points="235.3,294.2 235,306.8 236.8,306.8 236.2,294.2 		"/>
	</g>
	<g>
		<polygon class="st28" points="235.6,296.1 238.5,293.8 238.8,294.4 235.6,297.3 		"/>
	</g>
	<g>
		<path class="st29" d="M235.6,278.7c-0.9,0-1.7,0.7-2.4,1.7c0.2-0.1,0.5-0.1,0.7-0.1c3.5,0,6.3,10.6,6.3,14.1
			c0,1.4-0.5,2.7-1.3,3.8c1.8-1.1,3-3.1,3-5.3C241.9,289.3,239.1,278.7,235.6,278.7z"/>
	</g>
</g>
<g>
	<g>
		<path class="st13" d="M196.8,292.2c0,3.6-2.9,6.5-6.5,6.5s-6.5-2.9-6.5-6.5c0-3.6,2.9-14.6,6.5-14.6S196.8,288.7,196.8,292.2z"/>
	</g>
	<g>
		<polygon class="st28" points="190,293.8 189.7,306.8 191.6,306.8 190.9,293.8 		"/>
	</g>
	<g>
		<polygon class="st28" points="190.3,295.7 193.3,293.3 193.7,294 190.3,296.9 		"/>
	</g>
	<g>
		<path class="st29" d="M190.3,277.6c-0.9,0-1.7,0.7-2.5,1.8c0.2-0.1,0.5-0.2,0.7-0.2c3.6,0,6.5,11,6.5,14.6c0,1.5-0.5,2.8-1.3,3.9
			c1.9-1.1,3.1-3.2,3.1-5.5C196.8,288.7,193.9,277.6,190.3,277.6z"/>
	</g>
</g>
<g>
	<path class="st30" d="M208,266c-0.4,0-0.7,0.1-1.1,0.2c-1.1-1.6-2.9-2.6-4.9-2.6c-2,0-3.8,1-4.9,2.6c-0.3-0.1-0.7-0.2-1.1-0.2
		c-2,0-3.6,1.6-3.6,3.6h19.1C211.6,267.6,209.9,266,208,266z"/>
</g>
<g class="st31">
	<path class="st30" d="M225.7,269.3c-0.2,0-0.5,0-0.7,0.1c-0.7-1-1.8-1.6-3.1-1.6c-1.3,0-2.4,0.6-3.1,1.6c-0.2-0.1-0.4-0.1-0.7-0.1
		c-1.3,0-2.3,1-2.3,2.3H228C228,270.3,227,269.3,225.7,269.3z"/>
</g>
<g>
	<g>
		<path class="st14" d="M218.2,285.6c-0.1-0.4-0.2-0.8-0.2-1.2c0-2.7,2.2-4.9,4.9-4.9c0.3,0,0.6,0,0.8,0.1c0.9-0.5,1.9-0.8,2.9-0.8
			c3.1,0,5.7,2.6,5.7,5.7c0,0.1,0,0.3,0,0.4c1.4,1.6,2.3,3.7,2.3,6.1c0,5-4.1,9.1-9.1,9.1s-9.1-4.1-9.1-9.1
			C216.6,288.9,217.2,287.1,218.2,285.6z"/>
	</g>
	<g>
		<g>
			<polygon class="st28" points="226.5,306.8 224.9,306.8 225.3,290.8 225.7,290.8 			"/>
		</g>
		<g>
			<polygon class="st28" points="225.4,297 221.8,294 221.4,294.3 225.4,297.9 			"/>
		</g>
		<g>
			<polygon class="st28" points="225.6,293.4 223.2,291.5 222.9,291.6 225.6,294 			"/>
		</g>
		<g>
			<polygon class="st28" points="225.6,295.4 229.2,292.5 229.6,292.8 225.6,296.3 			"/>
		</g>
	</g>
	<g>
		<path class="st32" d="M232.4,284.8c0-0.1,0-0.3,0-0.4c0-3.2-2.5-5.7-5.7-5.7c-1.1,0-2.1,0.3-2.9,0.8c-0.3,0-0.5-0.1-0.8-0.1
			c-1.5,0-2.8,0.7-3.7,1.7c0.5-0.2,1.1-0.3,1.7-0.3c0.3,0,0.6,0,0.8,0.1c0.9-0.5,1.9-0.8,2.9-0.8c3.1,0,5.7,2.6,5.7,5.7
			c0,0.1,0,0.3,0,0.4c1.4,1.6,2.3,3.7,2.3,6.1c0,2.7-1.2,5.1-3,6.8c3-1.5,5-4.6,5-8.2C234.7,288.6,233.8,286.5,232.4,284.8z"/>
	</g>
</g>
<g>
	<g>
		<path class="st14" d="M207.3,283.5c0.1-0.4,0.2-0.9,0.2-1.3c0-3-2.4-5.4-5.4-5.4c-0.3,0-0.6,0-0.9,0.1c-1-0.6-2.1-0.9-3.3-0.9
			c-3.5,0-6.3,2.8-6.3,6.3c0,0.2,0,0.3,0,0.5c-1.6,1.8-2.5,4.1-2.5,6.7c0,5.6,4.5,10.1,10.1,10.1c5.6,0,10.1-4.5,10.1-10.1
			C209.1,287.1,208.4,285.1,207.3,283.5z"/>
	</g>
	<g>
		<g>
			<path class="st32" d="M207.3,283.5c0.1-0.4,0.2-0.9,0.2-1.3c0-3-2.4-5.4-5.4-5.4c-0.3,0-0.6,0-0.9,0.1c-1-0.6-2.1-0.9-3.3-0.9
				c-2.6,0-4.8,1.6-5.8,3.8c1.1-1.3,2.8-2.1,4.6-2.1c1.2,0,2.2,0.3,3.2,0.9c0.3,0,0.6-0.1,0.9-0.1c2.9,0,5.3,2.4,5.3,5.3
				c0,0.4-0.1,0.9-0.2,1.3c1.1,1.6,1.8,3.5,1.8,5.6c0,3.1-1.4,5.8-3.7,7.6c3.1-1.7,5.1-5,5.1-8.8
				C209.1,287.1,208.4,285.1,207.3,283.5z"/>
		</g>
	</g>
	<g>
		<g>
			<polygon class="st28" points="199.9,306.8 198.2,306.8 198.6,287.8 199.1,287.8 			"/>
		</g>
		<g>
			<polygon class="st28" points="198.8,295.1 194.8,291.9 194.4,292.2 198.8,296.1 			"/>
		</g>
		<g>
			<polygon class="st28" points="199,293.4 203,290.2 203.4,290.5 199,294.4 			"/>
		</g>
	</g>
</g>
<g>
	<g>
		<path class="st13" d="M222.4,278.8c0.1-0.5,0.2-1,0.2-1.6c0-3.6-2.9-6.5-6.5-6.5c-0.4,0-0.7,0-1.1,0.1c-1.1-0.7-2.5-1.1-3.9-1.1
			c-4.2,0-7.5,3.4-7.5,7.5c0,0.2,0,0.4,0,0.6c-1.9,2.1-3,4.9-3,8c0,6.7,5.4,12.1,12.1,12.1s12.1-5.4,12.1-12.1
			C224.6,283.2,223.8,280.8,222.4,278.8z"/>
	</g>
	<g>
		<g>
			<g>
				<path class="st29" d="M222.4,278.8c0.1-0.5,0.2-1,0.2-1.6c0-3.6-2.9-6.5-6.5-6.5c-0.4,0-0.7,0-1.1,0.1c-1.1-0.7-2.5-1.1-3.9-1.1
					c-3.1,0-5.8,1.9-6.9,4.5c1.3-1.5,3.3-2.5,5.6-2.5c1.4,0,2.7,0.4,3.8,1.1c0.4-0.1,0.7-0.1,1.1-0.1c3.5,0,6.4,2.8,6.4,6.3
					c0,0.5-0.1,1-0.2,1.5c1.4,1.9,2.2,4.2,2.2,6.7c0,3.7-1.7,7-4.4,9.1c3.7-2.1,6.2-6,6.2-10.5C224.6,283.2,223.8,280.8,222.4,278.8
					z"/>
			</g>
		</g>
		<g>
			<g>
				<path class="st29" d="M202.4,279.5c0-0.1,0-0.1,0-0.2c-0.1,0.2-0.2,0.4-0.4,0.6C202.1,279.8,202.2,279.6,202.4,279.5z"/>
			</g>
		</g>
	</g>
	<g>
		<g>
			<polygon class="st28" points="213.6,306.8 211.5,306.8 212.1,285.6 212.6,285.6 			"/>
		</g>
		<g>
			<polygon class="st28" points="212.2,293.8 207.5,289.9 207,290.2 212.2,295 			"/>
		</g>
		<g>
			<polygon class="st28" points="212.6,289.1 209.4,286.5 209,286.7 212.6,289.9 			"/>
		</g>
		<g>
			<polygon class="st28" points="212.6,291.8 217.3,287.9 217.8,288.2 212.6,293 			"/>
		</g>
	</g>
</g>
<g class="st31">
	<path class="st30" d="M206.3,263.9c0-1.4,1.1-2.5,2.5-2.5c0.2,0,0.4,0,0.6,0.1c0.7-0.7,1.6-1.2,2.6-1.2c2,0,3.6,1.6,3.6,3.6H206.3z
		"/>
</g>
<g>
	<path class="st30" d="M219.3,264.4c0-0.8-0.7-1.5-1.5-1.5c-0.1,0-0.2,0-0.4,0c-0.4-0.4-1-0.7-1.6-0.7c-1.2,0-2.2,1-2.2,2.2
		L219.3,264.4L219.3,264.4z"/>
</g>
<g>
	<path class="st30" d="M225.6,267.8c0-1,0.8-1.8,1.8-1.8c0.1,0,0.3,0,0.4,0.1c0.5-0.5,1.1-0.8,1.9-0.8c1.4,0,2.5,1.1,2.5,2.5H225.6z
		"/>
</g>
<g>
	<polygon class="st28" points="182.1,304.3 180.5,304.3 180.9,288.3 181.3,288.3 	"/>
</g>
<g>
	<polygon class="st28" points="181.3,291 178.9,289 178.6,289.2 181.3,291.6 	"/>
</g>
<g>
	<polygon class="st28" points="181,294.5 177.5,291.6 177.1,291.8 181,295.4 	"/>
</g>
<g>
	<polygon class="st27" points="139.7,303 138,303 138.4,287.9 138.8,287.9 	"/>
</g>
<g>
	<path class="st13" d="M39.6,288.2c-0.1,0.5-0.8,4.3-2.5,4.6c-0.5,0.1-1.3-0.1-6-7c-0.8-1.2-1.8-2.9-3.8-6.2c-1.7-2.9-2.4-4.2-1.9-5
		c0.4-0.5,1.3-0.7,3.1-0.9c1-0.1,2.5-0.3,3.3-0.2C35.5,274.4,40.9,281.3,39.6,288.2z"/>
</g>
</svg>
