<svg xmlns="http://www.w3.org/2000/svg" width="465.02" height="119.29" viewBox="0 0 465.02 119.29"><path d="M199.93,196.06c0,.28-.44.56-1.09.56H163.72c-.54,0-1.09-.23-1.09-.56h0c0-.28.44-.56,1.09-.56H199c.54.05,1,.28,1,.56Z" transform="translate(-16.31 -195.14)" fill="#d3edef"/><path d="M426,311.93H73.83c-31.31-1.53-55.76-28-55-58.57.73-29.54,24.77-54.26,55-55.72H426c30,2.5,53.23,28.06,52.86,57.86C478.46,284.78,455.48,309.48,426,311.93Z" transform="translate(-16.31 -195.14)" fill="#fff" stroke="#00c97d" stroke-miterlimit="10" stroke-width="5"/><path d="M73.83,197.64h175V311.93h-175c-31.31-1.53-55.76-28-55-58.57C19.56,223.82,43.6,199.1,73.83,197.64Z" transform="translate(-16.31 -195.14)" fill="#00c97d" stroke="#00c97d" stroke-miterlimit="10" stroke-width="5"/><path d="M67.66,222.81A21.84,21.84,0,0,0,55,229.2a21,21,0,0,0-4.64,7.66" transform="translate(-16.31 -195.14)" fill="#fff" stroke="#fff" stroke-linecap="round" stroke-miterlimit="10" stroke-width="15"/><line x1="80.44" y1="25.78" x2="207.58" y2="25.78" fill="#fff" stroke="#fff" stroke-linecap="round" stroke-miterlimit="10" stroke-width="15"/><path d="M271.74,254.53h-4.36v-2.76h12v2.76H275V266.3h-3.29Z" transform="translate(-16.31 -195.14)" fill="#00c97d"/><path d="M281.43,263.23c0-2.48,2.05-3.74,7.28-4.05-.12-1-.87-1.6-2.35-1.6a7.58,7.58,0,0,0-3.37,1l-1.17-2.15A10.45,10.45,0,0,1,287,255c3.11,0,5,1.62,5,5v6.32h-2.68l-.24-1.25H289a6.78,6.78,0,0,1-3.92,1.52A3.35,3.35,0,0,1,281.43,263.23Zm7.28-.26v-1.81c-3.26.16-4.13.87-4.13,1.81,0,.71.6,1.06,1.52,1.06A4.25,4.25,0,0,0,288.71,263Z" transform="translate(-16.31 -195.14)" fill="#00c97d"/><path d="M295.12,250.68h3.28v9h.09l4.06-4.45h3.59l-7.74,8.28v2.78h-3.28Zm4.6,10.61,1.89-2,4.88,7.05h-3.56Z" transform="translate(-16.31 -195.14)" fill="#00c97d"/><path d="M308,260.76a5.64,5.64,0,0,1,5.75-5.79c3.41,0,5.21,2.3,5.21,5.31a10.11,10.11,0,0,1-.14,1.47h-8.39v-2.2h6.17l-.52.62c0-1.77-.77-2.7-2.22-2.7-1.62,0-2.69,1.09-2.69,3.29s1.25,3.31,3.4,3.31a6.13,6.13,0,0,0,2.85-.77l1.09,2a8.45,8.45,0,0,1-4.38,1.3C310.72,266.57,308,264.44,308,260.76Z" transform="translate(-16.31 -195.14)" fill="#00c97d"/><path d="M337.44,261.72v-3.91h-2.79v-2.44l2.94-.13.42-3.38h2.71v3.38h4.66v2.57h-4.66v3.86c0,1.69.71,2.32,2.32,2.32a6.42,6.42,0,0,0,2.19-.4l.59,2.38a12.16,12.16,0,0,1-3.61.6C338.69,266.57,337.44,264.62,337.44,261.72Z" transform="translate(-16.31 -195.14)" fill="#00c97d"/><path d="M348.53,250.68h3.28v3.81l-.19,2.13h.09a5,5,0,0,1,3.66-1.65c2.48,0,3.59,1.71,3.59,4.5v6.83h-3.29v-6.41c0-1.47-.42-2.12-1.62-2.12a3.08,3.08,0,0,0-2.24,1.15v7.38h-3.28Z" transform="translate(-16.31 -195.14)" fill="#00c97d"/><path d="M361.52,260.76a5.65,5.65,0,0,1,5.76-5.79c3.41,0,5.2,2.3,5.2,5.31a10.41,10.41,0,0,1-.13,1.47H364v-2.2h6.17l-.52.62c0-1.77-.77-2.7-2.22-2.7-1.62,0-2.69,1.09-2.69,3.29s1.25,3.31,3.4,3.31a6.13,6.13,0,0,0,2.85-.77l1.09,2a8.46,8.46,0,0,1-4.39,1.3C364.21,266.57,361.52,264.44,361.52,260.76Z" transform="translate(-16.31 -195.14)" fill="#00c97d"/><path d="M267.67,285.86c0-4.85,2.95-7.61,6.72-7.61a5.77,5.77,0,0,1,4.25,1.85l-1.81,2a3.16,3.16,0,0,0-2.44-1c-1.9,0-3.33,1.75-3.33,4.66s1.18,4.72,3.47,4.72a2.22,2.22,0,0,0,1.41-.43v-2.51h-2.11v-2.68h5.05v6.7a6.92,6.92,0,0,1-4.55,1.76C270.62,293.31,267.67,290.76,267.67,285.86Z" transform="translate(-16.31 -195.14)" fill="#00c97d"/><path d="M281.61,278.52h5.17c3.08,0,5.61,1.07,5.61,4.52s-2.53,4.78-5.61,4.78h-1.87V293h-3.3Zm4.9,6.69c1.73,0,2.65-.75,2.65-2.17s-.92-1.91-2.65-1.91h-1.6v4.08Zm1.94-.37,4.63,8.2h-3.67L286.17,287Z" transform="translate(-16.31 -195.14)" fill="#00c97d"/><path d="M295.5,278.52h9.63v2.75h-6.35v2.92h5.39v2.75h-5.39v3.35h6.57V293H295.5Z" transform="translate(-16.31 -195.14)" fill="#00c97d"/><path d="M308.87,278.52h9.63v2.75h-6.34v2.92h5.38v2.75h-5.38v3.35h6.56V293h-9.85Z" transform="translate(-16.31 -195.14)" fill="#00c97d"/><path d="M321.66,278.52H325l3.05,7.22,1.25,3.19h.07c-.14-1.53-.45-3.56-.45-5.28v-5.13h3.13V293h-3.37l-3-7.23-1.25-3.18h-.07c.14,1.61.45,3.55.45,5.26V293h-3.13Z" transform="translate(-16.31 -195.14)" fill="#00c97d"/><path d="M348.53,282h2.68l.23,1.13h.09a5.09,5.09,0,0,1,3.29-1.39c2.76,0,4.43,2.21,4.43,5.62,0,3.79-2.31,6-4.79,6a3.94,3.94,0,0,1-2.72-1.19h-.08l.15,1.79v3.24h-3.28Zm7.36,5.39c0-2-.65-3-2-3a2.75,2.75,0,0,0-2,1v4.46a2.84,2.84,0,0,0,1.9.73C354.92,290.62,355.89,289.66,355.89,287.37Z" transform="translate(-16.31 -195.14)" fill="#00c97d"/><path d="M366.5,284.56h-4.45V282h7.73V293H366.5Zm-.69-6.31a2.18,2.18,0,0,1,4.36,0,2.19,2.19,0,0,1-4.36,0Z" transform="translate(-16.31 -195.14)" fill="#00c97d"/><path d="M378.25,288.72V280h-3.48v-2.57h6.77v11.42a1.63,1.63,0,0,0,1.8,1.81,4.65,4.65,0,0,0,1.72-.36l.73,2.41a9.14,9.14,0,0,1-3.3.6C379.7,293.31,378.25,291.52,378.25,288.72Z" transform="translate(-16.31 -195.14)" fill="#00c97d"/><path d="M391.62,288.72V280h-3.48v-2.57h6.77v11.42a1.64,1.64,0,0,0,1.8,1.81,4.65,4.65,0,0,0,1.72-.36l.73,2.41a9.14,9.14,0,0,1-3.3.6C393.07,293.31,391.62,291.52,391.62,288.72Z" transform="translate(-16.31 -195.14)" fill="#00c97d"/><path d="M404.51,290.69a2.6,2.6,0,1,1,2.59,2.62A2.54,2.54,0,0,1,404.51,290.69Z" transform="translate(-16.31 -195.14)" fill="#00c97d"/><path d="M363.38,310.78" transform="translate(-16.31 -195.14)" fill="#f2f2f2"/><path d="M102.91,250c0,1.27-1.26,2.24-2.82,2.24A2.59,2.59,0,0,1,97.26,250c0-1.26,1.26-2.23,2.83-2.23S102.91,248.75,102.91,250Z" transform="translate(-16.31 -195.14)" fill="#0caaef" opacity="0.8"/><path d="M102.07,248.41a2,2,0,0,1,0,3.21,3.38,3.38,0,0,1-4,0" transform="translate(-16.31 -195.14)" fill="#118dea" opacity="0.8"/><path d="M97,249.17c0,1.27-1.26,2.24-2.83,2.24a2.59,2.59,0,0,1-2.82-2.24c0-1.27,1.26-2.24,2.82-2.24A2.6,2.6,0,0,1,97,249.17Z" transform="translate(-16.31 -195.14)" fill="#0caaef" opacity="0.8"/><path d="M96.12,247.57a2,2,0,0,1,0,3.2,3.34,3.34,0,0,1-4,0" transform="translate(-16.31 -195.14)" fill="#118dea" opacity="0.8"/><path d="M108.86,249.17c0,1.27-1.26,2.24-2.82,2.24a2.6,2.6,0,0,1-2.83-2.24c0-1.27,1.26-2.24,2.83-2.24A2.59,2.59,0,0,1,108.86,249.17Z" transform="translate(-16.31 -195.14)" fill="#0caaef" opacity="0.8"/><path d="M108,247.57a2,2,0,0,1,0,3.2,3.34,3.34,0,0,1-4,0" transform="translate(-16.31 -195.14)" fill="#118dea" opacity="0.8"/><path d="M106.67,246.05c-.34-1.82-3.17-4.14-6.58-4.14s-6.25,2.32-6.59,4.14c-3.54.38-5.87,1-5.87,1.81,0,1.18,5.58,2.11,12.46,2.11s12.45-1,12.45-2.11C112.54,247.1,110.17,246.43,106.67,246.05Z" transform="translate(-16.31 -195.14)" fill="#343a3a" opacity="0.8"/><path d="M100.09,250c6.87,0,12.45-1,12.45-2.11,0-.76-2.37-1.43-5.87-1.81-.34-1.82-3.17-4.14-6.58-4.14" transform="translate(-16.31 -195.14)" fill="#1e2323" opacity="0.8"/><circle cx="80.53" cy="50.95" r="0.8" fill="#f2f2f2" opacity="0.8"/><path d="M97.38,245.54a.81.81,0,1,1-1.14,1.14" transform="translate(-16.31 -195.14)" fill="#ccc" opacity="0.8"/><circle cx="83.78" cy="50.95" r="0.8" fill="#f2f2f2" opacity="0.8"/><path d="M100.63,245.54a.81.81,0,1,1-1.14,1.14" transform="translate(-16.31 -195.14)" fill="#ccc" opacity="0.8"/><circle cx="87.03" cy="50.95" r="0.8" fill="#f2f2f2" opacity="0.8"/><path d="M103.93,245.54a.86.86,0,0,1,0,1.14.83.83,0,0,1-1.14,0" transform="translate(-16.31 -195.14)" fill="#ccc" opacity="0.8"/><path d="M101.11,270.62a3.79,3.79,0,0,0-2.64,1.46,2.84,2.84,0,0,0-.72-.09,3.05,3.05,0,0,0-1.35.32,3.09,3.09,0,0,0-4.94-.86,2.94,2.94,0,0,0-2.26.12,3.12,3.12,0,0,0-2.28-1,3.09,3.09,0,0,0-1.64.48,3.12,3.12,0,1,0-.68,4.71,3.08,3.08,0,0,0,3.62.76c.57.61,2.23,3.38,3.13,3.38s.74-2.72,1.3-3.26a3.13,3.13,0,0,0,1,.17,3.09,3.09,0,0,0,1.36-.32,3.1,3.1,0,0,0,4.56,1.18,3.84,3.84,0,0,0,2,.56,3.67,3.67,0,0,0,1.71-.43A31.6,31.6,0,0,0,101.11,270.62Z" transform="translate(-16.31 -195.14)" fill="#009468"/><path d="M60.67,270a3.07,3.07,0,0,0-2.15.87,3.08,3.08,0,0,0-4.05-.21,3.07,3.07,0,0,0-4.32.52,2.86,2.86,0,0,0-2.2.18,3.22,3.22,0,0,0-2.21-.87,3.31,3.31,0,0,0-2.32,1c-.39-.1-1-.25-1.66-.41a24.87,24.87,0,0,0-2.82-.55c-1.38-.16-1.28.07-2.49-.07-1.91-.22-2.1-.78-3.22-.61s-1.1.79-2.27.92a12.68,12.68,0,0,1-2.71-.23A5.91,5.91,0,0,0,24.2,272a28.3,28.3,0,0,0,1.43,4.16,29.35,29.35,0,0,0,1.8,3.48,23.18,23.18,0,0,1,8.1-1.67c.5,0,3,.15,5.45.42a5.68,5.68,0,0,0,.78.08c1.25,0,3.41.95,4.08,0,.31.1.54-.54.88-.54.59,0,.17-1,.65-1.31a3.06,3.06,0,0,0,4.34-.5,3.09,3.09,0,0,0,.86.14,3.06,3.06,0,0,0,1.9-.66,3.08,3.08,0,0,0,4.05-.21,3.07,3.07,0,0,0,2.15.87,3.12,3.12,0,0,0,0-6.24Z" transform="translate(-16.31 -195.14)" fill="#009468"/><path d="M43.92,300c7.5-.52,17.56,5.89,26.54,5.89,17.85,0,20.22-6.65,29-6.65a32.1,32.1,0,0,0,4.22-15.79l-73.56-.63A58,58,0,0,0,37.84,294,58.93,58.93,0,0,0,43.92,300Z" transform="translate(-16.31 -195.14)" fill="#34be71"/><path d="M42.09,298.33c10.27.52,21.36.66,33.17.22,8.94-.32,17.43-.95,25.42-1.77a31.86,31.86,0,0,0,3-13.38l-69.13,6.5c.58.79,1.2,1.6,1.87,2.41A60.69,60.69,0,0,0,42.09,298.33Z" transform="translate(-16.31 -195.14)" fill="#00a07d"/><path d="M37.84,294c3.69,3.93,13.14,2.33,25.58,1.52a127.51,127.51,0,0,1,28.69-.69,46.39,46.39,0,0,0,9.45-.15,32,32,0,0,0,2.12-11.27L31,284.07a45.9,45.9,0,0,0,2.61,4.47A50.53,50.53,0,0,0,37.84,294Z" transform="translate(-16.31 -195.14)" fill="#00827e"/><path d="M101.21,295.62c.39-.93.74-1.89,1-2.87l-.43-9.35h-.34Z" transform="translate(-16.31 -195.14)" fill="#4f6e6e"/><path d="M42.09,298.33,41.74,284h-.33l-.26,13.5Z" transform="translate(-16.31 -195.14)" fill="#4f6e6e"/><path d="M100.7,274.77c-1.06,0-2,1.31-2.81,3a32.56,32.56,0,0,0-.47,5.44,32.14,32.14,0,0,0,.57,6,4.7,4.7,0,0,0,2.71.86,4.61,4.61,0,0,0,2.38-.67,32.33,32.33,0,0,0,0-12.55C102.36,275.64,101.55,274.77,100.7,274.77Z" transform="translate(-16.31 -195.14)" fill="#00a07d"/><path d="M36.83,289.68a7.76,7.76,0,0,0,5.7.44,7.54,7.54,0,0,0,4.73-4.72c1.41-4.37-1.72-10.54-6.2-10.77-2.75-.14-5.56,2-7.05,5.14-1.55,2.5-2.07,5.24-1,6.84A9.1,9.1,0,0,0,36.83,289.68Z" transform="translate(-16.31 -195.14)" fill="#00a07d"/><polygon points="54.01 101.73 52.73 101.73 53.03 87.8 53.37 87.8 54.01 101.73" fill="#00827e"/><polygon points="50.2 102.04 48.92 102.04 49.23 88.11 49.56 88.11 50.2 102.04" fill="#00827e"/><polygon points="58.22 101.73 57.13 101.73 57.39 89.8 57.67 89.8 58.22 101.73" fill="#00827e"/><polygon points="56.53 101.04 55.44 101.04 55.7 89.11 55.99 89.11 56.53 101.04" fill="#00827e"/><polygon points="63.69 101.73 62.59 101.73 62.85 89.8 63.14 89.8 63.69 101.73" fill="#00827e"/><polygon points="74.73 101.27 73.63 101.27 73.89 89.33 74.18 89.33 74.73 101.27" fill="#00827e"/><polygon points="80.38 101.04 79.29 101.04 79.55 89.11 79.83 89.11 80.38 101.04" fill="#00827e"/><polygon points="82.9 100.73 81.8 100.73 82.07 88.8 82.35 88.8 82.9 100.73" fill="#00827e"/><polygon points="30.96 101.42 29.86 101.42 30.12 89.48 30.41 89.48 30.96 101.42" fill="#00827e"/><polygon points="27.6 101.27 26.51 101.27 26.77 89.33 27.05 89.33 27.6 101.27" fill="#00827e"/><g opacity="0.8"><path d="M204.55,270.48a1.72,1.72,0,0,1-1.75,1.74H192.45a1.72,1.72,0,0,1-1.75-1.74v-7.74a1.73,1.73,0,0,1,1.75-1.75H202.8a1.73,1.73,0,0,1,1.75,1.75Z" transform="translate(-16.31 -195.14)" fill="#91c6c4"/><path d="M213.71,261.46c0,.37-.76.67-1.75.67H201.61c-1,0-1.75-.3-1.75-.67v-3c0-.38.76-.67,1.75-.67H212c1,0,1.75.29,1.75.67Z" transform="translate(-16.31 -195.14)" fill="#97cece"/><path d="M223.31,260.67h-30c-1,0-1.75.29-1.75.66v16.06c0,.37.77.67,1.75.67h30c1,0,1.74-.3,1.74-.67V261.33C225.05,261,224.29,260.67,223.31,260.67Z" transform="translate(-16.31 -195.14)" fill="#97cece"/><path d="M225.05,261.33c0-.37-.76-.66-1.74-.66h-30c-1,0-1.75.29-1.75.66v16.06" transform="translate(-16.31 -195.14)" fill="#a5d3d3"/><path d="M223.31,278.06c1,0,1.74-.3,1.74-.67V261.33c0-.37-.76-.66-1.74-.66h-30c-1,0-1.75.29-1.75.66" transform="translate(-16.31 -195.14)" fill="#91c6c4"/><path d="M225.05,267a1.72,1.72,0,0,0-1.74-1.75h-30a1.73,1.73,0,0,0-1.75,1.75" transform="translate(-16.31 -195.14)" fill="#a5d3d3"/><path d="M222.32,273.75c0,.55-.43,2.07-1.09,2.07H195.39c-.55,0-1.09-1.52-1.09-2.07h0a1.1,1.1,0,0,1,1.09-1.09h25.84a1,1,0,0,1,1.09,1.09Z" transform="translate(-16.31 -195.14)" fill="#a6dadd"/><path d="M222.32,273.75a1.09,1.09,0,0,1-1.09,1.09H195.39a1.09,1.09,0,0,1-1.09-1.09h0a1.1,1.1,0,0,1,1.09-1.09h25.84a1,1,0,0,1,1.09,1.09Z" transform="translate(-16.31 -195.14)" fill="#0caaef"/><path d="M194.41,273.75a1.09,1.09,0,0,1,1.09-1.09h25.84a1.09,1.09,0,0,1,1.09,1.09h0a1.09,1.09,0,0,1-1.09,1.09" transform="translate(-16.31 -195.14)" fill="#118dea"/><path d="M196.37,243.54h-30c-1,0-1.74.4-1.74.9v32.77c0,.51.76.9,1.74.9h30c1,0,1.75-.39,1.75-.9V244.44C198,243.94,197.24,243.54,196.37,243.54Z" transform="translate(-16.31 -195.14)" fill="#d3edef"/><path d="M198,244.44c0-.5-.77-.9-1.75-.9H166.38c-1,0-1.74.4-1.74.9v32.77" transform="translate(-16.31 -195.14)" fill="#e8f7f7"/><path d="M196.37,278.11c1,0,1.75-.39,1.75-.9V244.44c0-.5-.77-.9-1.75-.9h-30c-1,0-1.74.4-1.74.9" transform="translate(-16.31 -195.14)" fill="#c5e7e8"/><path d="M198,245.29a1.73,1.73,0,0,0-1.75-1.75H166.38a1.72,1.72,0,0,0-1.74,1.75" transform="translate(-16.31 -195.14)" fill="#edf7f7"/><path d="M195.28,251.61c0,.55-.44,2.08-1.09,2.08H168.45c-.54,0-1.09-1.53-1.09-2.08h0a1.1,1.1,0,0,1,1.09-1.09H194.3a1.17,1.17,0,0,1,1,1.09Z" transform="translate(-16.31 -195.14)" fill="#a6dadd"/><path d="M195.28,251.61a1.09,1.09,0,0,1-1.09,1.09H168.45a1.09,1.09,0,0,1-1.09-1.09h0a1.1,1.1,0,0,1,1.09-1.09H194.3a1.17,1.17,0,0,1,1,1.09Z" transform="translate(-16.31 -195.14)" fill="#0caaef"/><path d="M167.36,251.61a1.1,1.1,0,0,1,1.09-1.09H194.3a1.1,1.1,0,0,1,1.09,1.09h0a1.09,1.09,0,0,1-1.09,1.09" transform="translate(-16.31 -195.14)" fill="#118dea"/><path d="M195.28,257.18c0,.54-.44,2.07-1.09,2.07H168.45c-.54,0-1.09-1.53-1.09-2.07h0a1.1,1.1,0,0,1,1.09-1.1H194.3a1.08,1.08,0,0,1,1,1.1Z" transform="translate(-16.31 -195.14)" fill="#a6dadd"/><path d="M195.28,257.18a1.1,1.1,0,0,1-1.09,1.09H168.45a1.1,1.1,0,0,1-1.09-1.09h0a1.1,1.1,0,0,1,1.09-1.1H194.3a1.08,1.08,0,0,1,1,1.1Z" transform="translate(-16.31 -195.14)" fill="#0caaef"/><path d="M167.36,257.18a1.1,1.1,0,0,1,1.09-1.1H194.3a1.1,1.1,0,0,1,1.09,1.1h0a1.1,1.1,0,0,1-1.09,1.09" transform="translate(-16.31 -195.14)" fill="#118dea"/><path d="M195.28,262.74c0,.54-.44,2.07-1.09,2.07H168.45c-.54,0-1.09-1.53-1.09-2.07h0a1.09,1.09,0,0,1,1.09-1.09H194.3a1,1,0,0,1,1,1.09Z" transform="translate(-16.31 -195.14)" fill="#a6dadd"/><path d="M195.28,262.74a1.1,1.1,0,0,1-1.09,1.09H168.45a1.1,1.1,0,0,1-1.09-1.09h0a1.09,1.09,0,0,1,1.09-1.09H194.3a1,1,0,0,1,1,1.09Z" transform="translate(-16.31 -195.14)" fill="#0caaef"/><path d="M167.36,262.74a1.09,1.09,0,0,1,1.09-1.09H194.3a1.09,1.09,0,0,1,1.09,1.09h0a1.1,1.1,0,0,1-1.09,1.09" transform="translate(-16.31 -195.14)" fill="#118dea"/><path d="M195.28,268.19c0,.54-.44,2.07-1.09,2.07H168.45c-.54,0-1.09-1.53-1.09-2.07h0a1.09,1.09,0,0,1,1.09-1.09H194.3a1.07,1.07,0,0,1,1,1.09Z" transform="translate(-16.31 -195.14)" fill="#a6dadd"/><path d="M195.28,268.19a1.1,1.1,0,0,1-1.09,1.09H168.45a1.1,1.1,0,0,1-1.09-1.09h0a1.09,1.09,0,0,1,1.09-1.09H194.3a1.07,1.07,0,0,1,1,1.09Z" transform="translate(-16.31 -195.14)" fill="#0caaef"/><path d="M167.36,268.19a1.09,1.09,0,0,1,1.09-1.09H194.3a1.09,1.09,0,0,1,1.09,1.09h0a1.1,1.1,0,0,1-1.09,1.09" transform="translate(-16.31 -195.14)" fill="#118dea"/><path d="M195.28,273.75c0,.55-.44,2.07-1.09,2.07H168.45c-.54,0-1.09-1.52-1.09-2.07h0a1.1,1.1,0,0,1,1.09-1.09H194.3a1,1,0,0,1,1,1.09Z" transform="translate(-16.31 -195.14)" fill="#a6dadd"/><path d="M195.28,273.75a1.09,1.09,0,0,1-1.09,1.09H168.45a1.1,1.1,0,0,1-1.09-1.09h0a1.1,1.1,0,0,1,1.09-1.09H194.3a1,1,0,0,1,1,1.09Z" transform="translate(-16.31 -195.14)" fill="#0caaef"/><path d="M167.36,273.75a1.1,1.1,0,0,1,1.09-1.09H194.3a1.1,1.1,0,0,1,1.09,1.09h0a1.09,1.09,0,0,1-1.09,1.09" transform="translate(-16.31 -195.14)" fill="#118dea"/><path d="M217.74,263.94a.23.23,0,0,0,.22.21h0a.23.23,0,0,0,.22-.21V247.47a.24.24,0,0,0-.22-.22h0a.24.24,0,0,0-.22.22Z" transform="translate(-16.31 -195.14)" fill="#e8f7f7"/><circle cx="201.76" cy="51.45" r="1.53" fill="#e8f7f7"/><path d="M221.56,263.94a.23.23,0,0,0,.22.21h0a.23.23,0,0,0,.22-.21V253.25a.24.24,0,0,0-.22-.22h0a.24.24,0,0,0-.22.22Z" transform="translate(-16.31 -195.14)" fill="#e8f7f7"/><circle cx="205.47" cy="56.91" r="1.53" fill="#e8f7f7"/></g><polygon points="47.56 101.73 46.28 101.73 46.59 87.8 46.92 87.8 47.56 101.73" fill="#00827e"/><polygon points="43.19 101.73 41.91 101.73 42.22 87.8 42.55 87.8 43.19 101.73" fill="#00827e"/><polygon points="40.06 101.73 38.78 101.73 39.09 87.8 39.42 87.8 40.06 101.73" fill="#00827e"/><polygon points="35.55 101.53 34.28 101.53 34.58 87.6 34.92 87.6 35.55 101.53" fill="#00827e"/><polygon points="58.95 103.41 57.67 103.41 57.98 89.48 58.31 89.48 58.95 103.41" fill="#4f6e6e"/><polygon points="61.94 103.16 60.66 103.16 60.97 89.23 61.3 89.23 61.94 103.16" fill="#4f6e6e"/><polygon points="66.65 103.16 65.37 103.16 65.68 89.23 66.01 89.23 66.65 103.16" fill="#4f6e6e"/><polygon points="70.61 102.89 69.33 102.89 69.64 88.96 69.97 88.96 70.61 102.89" fill="#4f6e6e"/><polygon points="75.46 102.42 74.18 102.42 74.49 88.49 74.82 88.49 75.46 102.42" fill="#4f6e6e"/><polygon points="81.11 101.73 79.83 101.73 80.14 87.8 80.47 87.8 81.11 101.73" fill="#4f6e6e"/><polygon points="83.63 102.27 82.35 102.27 82.66 88.33 82.99 88.33 83.63 102.27" fill="#4f6e6e"/><polygon points="32.23 102.89 30.95 102.89 31.26 88.96 31.59 88.96 32.23 102.89" fill="#4f6e6e"/><polygon points="28.33 103.16 27.05 103.16 27.36 89.23 27.69 89.23 28.33 103.16" fill="#4f6e6e"/><polygon points="46.92 105.97 45.17 105.97 45.59 86.92 46.05 86.92 46.92 105.97" fill="#6c5f59"/><polygon points="52.25 105.97 50.5 105.97 50.92 86.92 51.38 86.92 52.25 105.97" fill="#6c5f59"/><polygon points="60.06 105.81 58.31 105.81 58.73 86.77 59.19 86.77 60.06 105.81" fill="#6c5f59"/><polygon points="64.89 105.81 63.14 105.81 63.56 86.77 64.01 86.77 64.89 105.81" fill="#6c5f59"/><polygon points="73.38 105.97 71.63 105.97 72.05 86.92 72.5 86.92 73.38 105.97" fill="#6c5f59"/><polygon points="78.18 105.4 76.43 105.4 76.85 86.36 77.31 86.36 78.18 105.4" fill="#6c5f59"/><polygon points="39.42 104.82 37.68 104.82 38.1 85.78 38.55 85.78 39.42 104.82" fill="#6c5f59"/><polygon points="36.43 103.16 35.15 103.16 35.46 89.23 35.79 89.23 36.43 103.16" fill="#4f6e6e"/><polygon points="44.36 103.25 43.08 103.25 43.39 89.32 43.72 89.32 44.36 103.25" fill="#4f6e6e"/><polygon points="49.56 103.41 48.28 103.41 48.59 89.48 48.92 89.48 49.56 103.41" fill="#4f6e6e"/><polygon points="54.79 103.41 53.52 103.41 53.82 89.48 54.15 89.48 54.79 103.41" fill="#4f6e6e"/><polygon points="30.41 104.97 28.66 104.97 29.08 85.93 29.54 85.93 30.41 104.97" fill="#6c5f59"/><path d="M100.79,288.26a6.25,6.25,0,0,1-12.5,0c0-3.45,2.8-14.07,6.25-14.07S100.79,284.81,100.79,288.26Z" transform="translate(-16.31 -195.14)" fill="#34be71"/><polygon points="77.9 94.57 77.61 107.15 79.44 107.15 78.82 94.57 77.9 94.57" fill="#805f59"/><polygon points="78.23 96.47 81.09 94.13 81.44 94.76 78.23 97.63 78.23 96.47" fill="#805f59"/><path d="M94.54,274.19a3.33,3.33,0,0,0-2.43,1.71,1.89,1.89,0,0,1,.69-.14c3.46,0,6.26,10.61,6.26,14.06a6.22,6.22,0,0,1-1.28,3.78,6.26,6.26,0,0,0,3-5.34C100.79,284.81,98,274.19,94.54,274.19Z" transform="translate(-16.31 -195.14)" fill="#52c883"/><path d="M55.73,287.72a6.49,6.49,0,0,1-13,0c0-3.58,2.91-14.6,6.49-14.6S55.73,284.14,55.73,287.72Z" transform="translate(-16.31 -195.14)" fill="#34be71"/><polygon points="32.6 94.09 32.29 107.15 34.19 107.15 33.55 94.09 32.6 94.09" fill="#805f59"/><polygon points="32.93 96.06 35.91 93.64 36.27 94.29 32.93 97.27 32.93 96.06" fill="#805f59"/><path d="M49.24,273.12a3.45,3.45,0,0,0-2.52,1.77,2.06,2.06,0,0,1,.72-.15c3.59,0,6.49,11,6.49,14.6a6.52,6.52,0,0,1-1.32,3.93,6.49,6.49,0,0,0,3.12-5.55C55.73,284.14,52.83,273.12,49.24,273.12Z" transform="translate(-16.31 -195.14)" fill="#52c883"/><path d="M66.88,263.35a3.81,3.81,0,0,0-1.07.18,6,6,0,0,0-9.8,0,3.82,3.82,0,0,0-1.08-.18,3.59,3.59,0,0,0-3.58,3.59H70.47A3.59,3.59,0,0,0,66.88,263.35Z" transform="translate(-16.31 -195.14)" fill="#fff"/><g opacity="0.6"><path d="M84.64,264.8a2.21,2.21,0,0,0-.68.12,3.79,3.79,0,0,0-6.24,0,2.16,2.16,0,0,0-.68-.12,2.28,2.28,0,0,0-2.28,2.28H86.92A2.28,2.28,0,0,0,84.64,264.8Z" transform="translate(-16.31 -195.14)" fill="#fff"/></g><path d="M77.16,281.11A4.83,4.83,0,0,1,77,279.9a4.92,4.92,0,0,1,4.9-4.94,4.61,4.61,0,0,1,.84.07,5.55,5.55,0,0,1,2.94-.84,5.69,5.69,0,0,1,5.66,5.71c0,.14,0,.28,0,.42a9.06,9.06,0,1,1-14.17.79Z" transform="translate(-16.31 -195.14)" fill="#00a07d"/><polygon points="68.25 95.76 71.81 92.86 72.24 93.1 68.25 96.67 68.25 95.76" fill="#805f59"/><path d="M66.17,279a5.84,5.84,0,0,0,.17-1.33,5.45,5.45,0,0,0-5.45-5.45,5.64,5.64,0,0,0-.93.09,6.27,6.27,0,0,0-9.55,5.36c0,.16,0,.31,0,.46a10.05,10.05,0,1,0,15.74.87Z" transform="translate(-16.31 -195.14)" fill="#00a07d"/><path d="M66.17,279a5.84,5.84,0,0,0,.17-1.33,5.45,5.45,0,0,0-5.45-5.45,5.64,5.64,0,0,0-.93.09,6.25,6.25,0,0,0-9,2.86,6.12,6.12,0,0,1,7.8-1.22,5.27,5.27,0,0,1,6.19,5.17,4.94,4.94,0,0,1-.17,1.28,9.63,9.63,0,0,1-1.88,13.16A10,10,0,0,0,66.17,279Z" transform="translate(-16.31 -195.14)" fill="#36b294"/><polygon points="42.55 107.15 40.81 107.15 41.23 88.11 41.68 88.11 42.55 107.15" fill="#805f59"/><polygon points="41.38 95.45 37.45 92.25 36.98 92.52 41.38 96.44 41.38 95.45" fill="#805f59"/><polygon points="41.65 93.77 45.57 90.58 46.05 90.84 41.65 94.77 41.65 93.77" fill="#805f59"/><path d="M81.33,274.28a6.43,6.43,0,0,0,.21-1.6A6.54,6.54,0,0,0,75,266.14a6.74,6.74,0,0,0-1.11.1A7.47,7.47,0,0,0,70,265.13a7.55,7.55,0,0,0-7.55,7.55,5.25,5.25,0,0,0,0,.56,12.08,12.08,0,1,0,18.89,1Z" transform="translate(-16.31 -195.14)" fill="#34be71"/><path d="M81.33,274.28a6.43,6.43,0,0,0,.21-1.6A6.54,6.54,0,0,0,75,266.14a6.74,6.74,0,0,0-1.11.1A7.47,7.47,0,0,0,70,265.13,7.58,7.58,0,0,0,63,269.68a7.35,7.35,0,0,1,9.37-1.46,6.31,6.31,0,0,1,7.43,6.21,6.08,6.08,0,0,1-.2,1.54,11.45,11.45,0,0,1,2.16,6.71,11.6,11.6,0,0,1-4.41,9.09,12.05,12.05,0,0,0,4-17.49Z" transform="translate(-16.31 -195.14)" fill="#52c883"/><path d="M61.28,275a.86.86,0,0,0,0-.16c-.13.2-.24.41-.36.62C61,275.27,61.15,275.11,61.28,275Z" transform="translate(-16.31 -195.14)" fill="#52c883"/><polygon points="56.25 107.15 54.15 107.15 54.66 85.91 55.2 85.91 56.25 107.15" fill="#805f59"/><polygon points="54.85 94.1 50.13 90.27 49.56 90.58 54.85 95.3 54.85 94.1" fill="#805f59"/><polygon points="55.16 89.45 51.96 86.85 51.58 87.06 55.16 90.27 55.16 89.45" fill="#805f59"/><polygon points="55.16 92.09 59.88 88.25 60.45 88.57 55.16 93.29 55.16 92.09" fill="#805f59"/><g opacity="0.6"><path d="M65.25,259.37a2.53,2.53,0,0,1,2.53-2.53,2.35,2.35,0,0,1,.6.08,3.6,3.6,0,0,1,6.26,2.45Z" transform="translate(-16.31 -195.14)" fill="#fff"/></g><path d="M78.25,259.87a1.53,1.53,0,0,0-1.53-1.53,1.5,1.5,0,0,0-.37.05,2.17,2.17,0,0,0-3.78,1.48Z" transform="translate(-16.31 -195.14)" fill="#fff"/><path d="M84.56,263.28a1.78,1.78,0,0,1,1.77-1.78,2,2,0,0,1,.43.06,2.52,2.52,0,0,1,1.85-.82,2.54,2.54,0,0,1,2.54,2.54Z" transform="translate(-16.31 -195.14)" fill="#fff"/><path d="M145.46,273.09a3.83,3.83,0,0,0-2.64,1.46,2.84,2.84,0,0,0-.72-.09,3.08,3.08,0,0,0-1.35.32A3.1,3.1,0,0,0,138,273a3.14,3.14,0,0,0-2.16.87,3.33,3.33,0,0,0-1-.16,3.13,3.13,0,0,0-1.3.29,3.08,3.08,0,0,0-3.92-.52,3.09,3.09,0,0,0-2.32-1,3.12,3.12,0,1,0,1.65,5.76,3.06,3.06,0,0,0,3.61.76c.57.61,2.23,3.38,3.13,3.38s.75-2.72,1.31-3.26a3,3,0,0,0,1,.17,3.08,3.08,0,0,0,1.35-.32,3.12,3.12,0,0,0,2.78,1.74,3,3,0,0,0,1.78-.57,3.67,3.67,0,0,0,3.69.14A32.13,32.13,0,0,0,145.46,273.09Z" transform="translate(-16.31 -195.14)" fill="#009468"/><path d="M107,269.17a3.08,3.08,0,0,0-2.32,1.13,3,3,0,0,0-2.32-1.13,3,3,0,0,0-2,.86,3,3,0,0,0-2-.86,3.18,3.18,0,0,0-2.62,1.54,2.7,2.7,0,0,0-.93-.18,2.83,2.83,0,0,0-1.45.41,3.2,3.2,0,0,0-2.38-1.13,3.29,3.29,0,0,0-2.51,1.25,3.41,3.41,0,0,0-1.79-.53h-.11a48.71,48.71,0,0,0-2.09,8.84,3.48,3.48,0,0,0,2.2.8c1.35,0,3.68,1.24,4.41,0,.33.13.58-.71.94-.71.64,0,.18-1.34.7-1.7a3,3,0,0,0,2.08.89,3.2,3.2,0,0,0,2.62-1.54,2.61,2.61,0,0,0,.93.18,3,3,0,0,0,2-.86,3,3,0,0,0,2,.86,3,3,0,0,0,2.32-1.13A3.08,3.08,0,0,0,107,277.3c1.87,0,3.37-1.82,3.37-4.06S108.91,269.17,107,269.17Z" transform="translate(-16.31 -195.14)" fill="#009468"/><path d="M88.28,302.42c7.5-.52,17.56,5.89,26.54,5.89,17.84,0,20.21-6.65,29-6.65A32,32,0,0,0,148,285.87H83.62A32,32,0,0,0,88.28,302.42Z" transform="translate(-16.31 -195.14)" fill="#34be71"/><path d="M87.19,300.47c7.67-.32,21.82-1,32.43.55A66.08,66.08,0,0,0,145,299.25a32,32,0,0,0,3-13.38H83.62A32,32,0,0,0,87.19,300.47Z" transform="translate(-16.31 -195.14)" fill="#00a07d"/><path d="M85.17,295.59c4.9,2.64,13,3.39,22.6,2.39a168.72,168.72,0,0,1,28.69-.69,46.51,46.51,0,0,0,9.46-.15A32,32,0,0,0,148,285.87H83.62A31.85,31.85,0,0,0,85.17,295.59Z" transform="translate(-16.31 -195.14)" fill="#00827e"/><path d="M145.56,298.09c.39-.93.74-1.89,1-2.87l-.43-9.35h-.34Z" transform="translate(-16.31 -195.14)" fill="#4f6e6e"/><path d="M86.69,299.46l-.6-13h-.33l-.23,10.26C85.88,297.63,86.26,298.55,86.69,299.46Z" transform="translate(-16.31 -195.14)" fill="#4f6e6e"/><path d="M145.05,277.23c-1.05,0-2,1.32-2.81,3a32.56,32.56,0,0,0-.47,5.44,32.14,32.14,0,0,0,.57,6,4.7,4.7,0,0,0,2.71.86,4.61,4.61,0,0,0,2.38-.67,32.43,32.43,0,0,0,.6-6.2,31.66,31.66,0,0,0-.63-6.35C146.71,278.11,145.91,277.23,145.05,277.23Z" transform="translate(-16.31 -195.14)" fill="#00a07d"/><path d="M84,294.82A4.07,4.07,0,0,0,86.75,296c2.66,0,4.35-4.21,4.86-6.47,1.71-7.55-5.11-16-7-15.29-.54.21-1,1.3-.74,4.9a58.38,58.38,0,0,0,.1,15.68Z" transform="translate(-16.31 -195.14)" fill="#00a07d"/><polygon points="98.36 104.2 97.08 104.2 97.39 90.27 97.72 90.27 98.36 104.2" fill="#00827e"/><polygon points="94.55 104.51 93.28 104.51 93.58 90.58 93.92 90.58 94.55 104.51" fill="#00827e"/><polygon points="102.58 104.2 101.48 104.2 101.74 92.27 102.03 92.27 102.58 104.2" fill="#00827e"/><polygon points="100.89 103.51 99.79 103.51 100.06 91.58 100.34 91.58 100.89 103.51" fill="#00827e"/><polygon points="108.04 104.2 106.95 104.2 107.21 92.27 107.49 92.27 108.04 104.2" fill="#00827e"/><polygon points="119.08 103.73 117.99 103.73 118.25 91.8 118.53 91.8 119.08 103.73" fill="#00827e"/><polygon points="124.73 103.51 123.64 103.51 123.9 91.58 124.19 91.58 124.73 103.51" fill="#00827e"/><polygon points="127.25 103.2 126.16 103.2 126.42 91.27 126.7 91.27 127.25 103.2" fill="#00827e"/><polygon points="75.31 103.89 74.22 103.89 74.48 91.95 74.76 91.95 75.31 103.89" fill="#00827e"/><polygon points="71.95 103.73 70.86 103.73 71.12 91.8 71.41 91.8 71.95 103.73" fill="#00827e"/><polygon points="91.91 104.2 90.63 104.2 90.94 90.27 91.27 90.27 91.91 104.2" fill="#00827e"/><polygon points="87.55 104.2 86.27 104.2 86.58 90.27 86.91 90.27 87.55 104.2" fill="#00827e"/><polygon points="84.42 104.2 83.14 104.2 83.44 90.27 83.78 90.27 84.42 104.2" fill="#00827e"/><polygon points="79.91 104 78.63 104 78.94 90.07 79.27 90.07 79.91 104" fill="#00827e"/><polygon points="103.31 105.88 102.03 105.88 102.34 91.95 102.67 91.95 103.31 105.88" fill="#4f6e6e"/><polygon points="106.29 105.63 105.02 105.63 105.32 91.69 105.65 91.69 106.29 105.63" fill="#4f6e6e"/><polygon points="111 105.63 109.72 105.63 110.03 91.69 110.36 91.69 111 105.63" fill="#4f6e6e"/><polygon points="114.97 105.36 113.69 105.36 114 91.43 114.33 91.43 114.97 105.36" fill="#4f6e6e"/><polygon points="119.81 104.89 118.53 104.89 118.84 90.95 119.17 90.95 119.81 104.89" fill="#4f6e6e"/><polygon points="125.47 104.2 124.19 104.2 124.49 90.27 124.83 90.27 125.47 104.2" fill="#4f6e6e"/><polygon points="127.98 104.73 126.7 104.73 127.01 90.8 127.34 90.8 127.98 104.73" fill="#4f6e6e"/><polygon points="76.58 105.36 75.3 105.36 75.61 91.43 75.94 91.43 76.58 105.36" fill="#4f6e6e"/><polygon points="72.69 105.63 71.41 105.63 71.72 91.69 72.05 91.69 72.69 105.63" fill="#4f6e6e"/><polygon points="91.27 108.44 89.53 108.44 89.94 89.39 90.4 89.39 91.27 108.44" fill="#6c5f59"/><polygon points="96.6 108.44 94.86 108.44 95.28 89.39 95.73 89.39 96.6 108.44" fill="#6c5f59"/><polygon points="104.41 108.28 102.67 108.28 103.09 89.23 103.54 89.23 104.41 108.28" fill="#6c5f59"/><polygon points="109.24 108.28 107.49 108.28 107.91 89.23 108.37 89.23 109.24 108.28" fill="#6c5f59"/><polygon points="117.73 108.44 115.98 108.44 116.4 89.39 116.86 89.39 117.73 108.44" fill="#6c5f59"/><polygon points="83.78 107.29 82.03 107.29 82.45 88.25 82.9 88.25 83.78 107.29" fill="#6c5f59"/><polygon points="80.78 105.63 79.5 105.63 79.81 91.69 80.14 91.69 80.78 105.63" fill="#4f6e6e"/><polygon points="88.71 105.72 87.44 105.72 87.74 91.79 88.07 91.79 88.71 105.72" fill="#4f6e6e"/><polygon points="93.92 105.88 92.64 105.88 92.94 91.95 93.28 91.95 93.92 105.88" fill="#4f6e6e"/><polygon points="99.15 105.88 97.87 105.88 98.17 91.95 98.51 91.95 99.15 105.88" fill="#4f6e6e"/><polygon points="74.76 107.44 73.02 107.44 73.44 88.4 73.89 88.4 74.76 107.44" fill="#6c5f59"/><path d="M100.09,290.19a6.5,6.5,0,0,1-13,0c0-3.58,2.91-14.6,6.49-14.6S100.09,286.61,100.09,290.19Z" transform="translate(-16.31 -195.14)" fill="#34be71"/><polygon points="76.95 96.56 76.64 109.62 78.55 109.62 77.9 96.56 76.95 96.56" fill="#805f59"/><polygon points="77.29 98.53 80.26 96.11 80.62 96.76 77.29 99.73 77.29 98.53" fill="#805f59"/><path d="M93.59,275.59a3.47,3.47,0,0,0-2.52,1.77,1.87,1.87,0,0,1,.73-.15c3.58,0,6.49,11,6.49,14.6A6.44,6.44,0,0,1,97,295.73a6.47,6.47,0,0,0,3.13-5.54C100.09,286.61,97.18,275.59,93.59,275.59Z" transform="translate(-16.31 -195.14)" fill="#52c883"/><path d="M111.24,264.38a3.49,3.49,0,0,0-1.08.18,6,6,0,0,0-9.8,0,3.48,3.48,0,0,0-1.07-.18A3.58,3.58,0,0,0,95.7,268h19.12A3.58,3.58,0,0,0,111.24,264.38Z" transform="translate(-16.31 -195.14)" fill="#fff"/><g opacity="0.6"><path d="M129,267.27a2.26,2.26,0,0,0-.68.12,3.78,3.78,0,0,0-6.23,0,2.25,2.25,0,0,0-3,2.16h12.17A2.29,2.29,0,0,0,129,267.27Z" transform="translate(-16.31 -195.14)" fill="#fff"/></g><path d="M121.51,283.58a5.34,5.34,0,0,1-.15-1.21,4.93,4.93,0,0,1,4.91-4.95,4.58,4.58,0,0,1,.83.08,5.57,5.57,0,0,1,2.94-.84,5.68,5.68,0,0,1,5.66,5.71c0,.14,0,.28,0,.42a9.06,9.06,0,1,1-14.17.79Z" transform="translate(-16.31 -195.14)" fill="#00a07d"/><polygon points="113.42 109.62 111.84 109.62 112.22 93.56 112.63 93.56 113.42 109.62" fill="#805f59"/><polygon points="112.36 99.75 108.79 96.85 108.37 97.09 112.36 100.66 112.36 99.75" fill="#805f59"/><polygon points="112.6 96.24 110.18 94.27 109.89 94.43 112.6 96.85 112.6 96.24" fill="#805f59"/><polygon points="112.6 98.23 116.17 95.33 116.6 95.57 112.6 99.14 112.6 98.23" fill="#805f59"/><path d="M135.68,282.79c0-.14,0-.28,0-.42a5.68,5.68,0,0,0-5.66-5.71,5.57,5.57,0,0,0-2.94.84,4.58,4.58,0,0,0-.83-.08,4.85,4.85,0,0,0-3.67,1.69,4.79,4.79,0,0,1,1.65-.31,4.6,4.6,0,0,1,.84.08A5.55,5.55,0,0,1,128,278a5.68,5.68,0,0,1,5.66,5.71c0,.14,0,.28,0,.42a9.14,9.14,0,0,1-.73,12.84,9.15,9.15,0,0,0,2.74-14.22Z" transform="translate(-16.31 -195.14)" fill="#36b294"/><path d="M110.52,281.44a5.33,5.33,0,0,0,.17-1.33,5.45,5.45,0,0,0-5.45-5.45,4.7,4.7,0,0,0-.92.09,6.2,6.2,0,0,0-3.27-.93,6.29,6.29,0,0,0-6.29,6.29c0,.16,0,.31,0,.46a10.06,10.06,0,1,0,15.73.87Z" transform="translate(-16.31 -195.14)" fill="#00a07d"/><path d="M110.52,281.44a5.33,5.33,0,0,0,.17-1.33,5.45,5.45,0,0,0-5.45-5.45,4.7,4.7,0,0,0-.92.09,6.2,6.2,0,0,0-3.27-.93,6.3,6.3,0,0,0-5.77,3.79,6.12,6.12,0,0,1,7.8-1.22,5.27,5.27,0,0,1,6.19,5.17,5.41,5.41,0,0,1-.16,1.28A9.63,9.63,0,0,1,107.23,296a10,10,0,0,0,3.29-14.56Z" transform="translate(-16.31 -195.14)" fill="#36b294"/><polygon points="86.91 109.62 85.16 109.62 85.58 90.58 86.03 90.58 86.91 109.62" fill="#805f59"/><polygon points="85.74 97.92 81.81 94.72 81.34 94.99 85.74 98.91 85.74 97.92" fill="#805f59"/><polygon points="86 96.24 89.93 93.05 90.4 93.31 86 97.24 86 96.24" fill="#805f59"/><path d="M125.68,276.75a6.5,6.5,0,0,0-6.33-8.14,6.74,6.74,0,0,0-1.11.1,7.54,7.54,0,0,0-11.48,6.44c0,.19,0,.37,0,.56a12.08,12.08,0,1,0,18.89,1Z" transform="translate(-16.31 -195.14)" fill="#34be71"/><path d="M125.68,276.75a6.5,6.5,0,0,0-6.33-8.14,6.74,6.74,0,0,0-1.11.1,7.53,7.53,0,0,0-10.85,3.44,7.36,7.36,0,0,1,9.36-1.47,7.61,7.61,0,0,1,1.08-.09,6.33,6.33,0,0,1,6.36,6.31,6.57,6.57,0,0,1-.2,1.54,11.56,11.56,0,0,1-2.26,15.8,12.07,12.07,0,0,0,6.17-10.53A12,12,0,0,0,125.68,276.75Z" transform="translate(-16.31 -195.14)" fill="#52c883"/><path d="M105.63,277.43v-.17c-.13.21-.25.42-.37.63C105.39,277.73,105.5,277.58,105.63,277.43Z" transform="translate(-16.31 -195.14)" fill="#52c883"/><polygon points="100.61 109.62 98.51 109.62 99.01 88.38 99.56 88.38 100.61 109.62" fill="#805f59"/><polygon points="99.2 96.57 94.48 92.73 93.92 93.05 99.2 97.77 99.2 96.57" fill="#805f59"/><polygon points="99.51 91.92 96.31 89.32 95.93 89.53 99.51 92.73 99.51 91.92" fill="#805f59"/><polygon points="99.51 94.56 104.23 90.72 104.8 91.04 99.51 95.75 99.51 94.56" fill="#805f59"/><g opacity="0.6"><path d="M109.6,261.84a2.53,2.53,0,0,1,2.53-2.53,2.49,2.49,0,0,1,.61.08,3.6,3.6,0,0,1,6.25,2.45Z" transform="translate(-16.31 -195.14)" fill="#fff"/></g><path d="M122.6,262.34a1.52,1.52,0,0,0-1.53-1.53,1.5,1.5,0,0,0-.37.05,2.13,2.13,0,0,0-1.59-.71,2.19,2.19,0,0,0-2.19,2.19Z" transform="translate(-16.31 -195.14)" fill="#fff"/><path d="M128.91,265.75a1.78,1.78,0,0,1,1.77-1.78,2,2,0,0,1,.43.06,2.53,2.53,0,0,1,4.39,1.72Z" transform="translate(-16.31 -195.14)" fill="#fff"/><polygon points="69.07 107.15 67.48 107.15 67.87 91.09 68.28 91.09 69.07 107.15" fill="#805f59"/><polygon points="68.25 93.77 65.83 91.8 65.53 91.96 68.25 94.38 68.25 93.77" fill="#805f59"/><polygon points="68.01 97.28 64.44 94.38 64.01 94.62 68.01 98.19 68.01 97.28" fill="#805f59"/><path d="M197.84,272.67a3.83,3.83,0,0,0-2.64,1.46,3.38,3.38,0,0,0-.72-.09,3.05,3.05,0,0,0-1.35.32,3.09,3.09,0,0,0-4.94-.86,2.94,2.94,0,0,0-2.26.12,3.12,3.12,0,0,0-2.28-1,3.09,3.09,0,0,0-1.64.48,3.09,3.09,0,0,0-2.32-1.05,3.12,3.12,0,0,0,0,6.24,3,3,0,0,0,1.64-.48,3.12,3.12,0,0,0,2.32,1.05,3,3,0,0,0,1.3-.29c.57.61,2.23,3.39,3.13,3.39s.74-2.72,1.31-3.26a3,3,0,0,0,1,.16,3.08,3.08,0,0,0,1.35-.32,3.1,3.1,0,0,0,4.56,1.18,3.8,3.8,0,0,0,2,.56,3.76,3.76,0,0,0,1.71-.42A31.53,31.53,0,0,0,197.84,272.67Z" transform="translate(-16.31 -195.14)" fill="#009468"/><path d="M157.4,272.05a3.12,3.12,0,0,0-2.15.87,3.12,3.12,0,0,0-2.15-.87,3.08,3.08,0,0,0-1.9.66,3.05,3.05,0,0,0-1.89-.66,3.11,3.11,0,0,0-2.43,1.18,2.86,2.86,0,0,0-2.2.18,3.25,3.25,0,0,0-4.53.1,3.58,3.58,0,0,0-1.66-.42l-.1,0a32,32,0,0,0-1.94,6.78,3.69,3.69,0,0,0,2,.62c1.25,0,3.42.94,4.09,0,.3.09.53-.55.87-.55.59,0,.17-1,.65-1.31a3.07,3.07,0,0,0,1.92.68,3.12,3.12,0,0,0,2.43-1.17,3,3,0,0,0,2.75-.53,3.09,3.09,0,0,0,4.05-.2,3.12,3.12,0,1,0,2.15-5.38Z" transform="translate(-16.31 -195.14)" fill="#009468"/><path d="M140.65,302c7.5-.52,17.56,5.89,26.54,5.89,17.85,0,20.22-6.65,29-6.65a32.07,32.07,0,0,0,4.22-15.79H136A32.11,32.11,0,0,0,140.65,302Z" transform="translate(-16.31 -195.14)" fill="#34be71"/><path d="M139.57,300.06c7.67-.32,21.82-1,32.42.55a66.1,66.1,0,0,0,25.43-1.78,32,32,0,0,0,3-13.38H136A32.19,32.19,0,0,0,139.57,300.06Z" transform="translate(-16.31 -195.14)" fill="#00a07d"/><path d="M137.55,295.18c4.9,2.64,13,3.39,22.6,2.38a167.57,167.57,0,0,1,28.69-.68,47.1,47.1,0,0,0,9.46-.16,32.18,32.18,0,0,0,2.11-11.27H136A32.28,32.28,0,0,0,137.55,295.18Z" transform="translate(-16.31 -195.14)" fill="#00827e"/><path d="M197.94,297.68c.39-.94.74-1.9,1-2.88l-.43-9.35h-.34Z" transform="translate(-16.31 -195.14)" fill="#4f6e6e"/><path d="M197.43,276.82c-1.06,0-2,1.31-2.81,3a32.59,32.59,0,0,0-.47,5.45,32,32,0,0,0,.57,6,4.66,4.66,0,0,0,5.09.2,32.38,32.38,0,0,0,0-12.56C199.09,277.7,198.29,276.82,197.43,276.82Z" transform="translate(-16.31 -195.14)" fill="#00a07d"/><path d="M136.57,291.31a4.64,4.64,0,0,0,2.7.86,4.72,4.72,0,0,0,4.72-4.72c0-2.61-2.11-10.63-4.72-10.63-1.05,0-2,1.31-2.8,3a32.59,32.59,0,0,0-.47,5.45A32,32,0,0,0,136.57,291.31Z" transform="translate(-16.31 -195.14)" fill="#00a07d"/><polygon points="150.74 103.79 149.46 103.79 149.77 89.86 150.1 89.86 150.74 103.79" fill="#00827e"/><polygon points="146.93 104.09 145.66 104.09 145.96 90.16 146.29 90.16 146.93 104.09" fill="#00827e"/><polygon points="154.95 103.79 153.86 103.79 154.12 91.86 154.41 91.86 154.95 103.79" fill="#00827e"/><polygon points="153.26 103.09 152.17 103.09 152.43 91.16 152.72 91.16 153.26 103.09" fill="#00827e"/><polygon points="160.42 103.79 159.32 103.79 159.59 91.86 159.87 91.86 160.42 103.79" fill="#00827e"/><polygon points="171.46 103.32 170.36 103.32 170.63 91.39 170.91 91.39 171.46 103.32" fill="#00827e"/><polygon points="177.11 103.09 176.02 103.09 176.28 91.16 176.57 91.16 177.11 103.09" fill="#00827e"/><polygon points="179.63 102.79 178.53 102.79 178.8 90.86 179.08 90.86 179.63 102.79" fill="#00827e"/><polygon points="127.69 103.47 126.59 103.47 126.86 91.54 127.14 91.54 127.69 103.47" fill="#00827e"/><polygon points="124.33 103.32 123.24 103.32 123.5 91.39 123.79 91.39 124.33 103.32" fill="#00827e"/><polygon points="144.29 103.79 143.01 103.79 143.32 89.86 143.65 89.86 144.29 103.79" fill="#00827e"/><polygon points="139.92 103.79 138.65 103.79 138.95 89.86 139.28 89.86 139.92 103.79" fill="#00827e"/><polygon points="136.79 103.79 135.52 103.79 135.82 89.86 136.15 89.86 136.79 103.79" fill="#00827e"/><polygon points="132.29 103.59 131.01 103.59 131.31 89.66 131.65 89.66 132.29 103.59" fill="#00827e"/><polygon points="155.69 105.46 154.41 105.46 154.71 91.53 155.05 91.53 155.69 105.46" fill="#4f6e6e"/><polygon points="158.67 105.21 157.39 105.21 157.7 91.28 158.03 91.28 158.67 105.21" fill="#4f6e6e"/><polygon points="163.38 105.21 162.1 105.21 162.41 91.28 162.74 91.28 163.38 105.21" fill="#4f6e6e"/><polygon points="167.34 104.95 166.07 104.95 166.37 91.02 166.71 91.02 167.34 104.95" fill="#4f6e6e"/><polygon points="172.19 104.47 170.91 104.47 171.22 90.54 171.55 90.54 172.19 104.47" fill="#4f6e6e"/><polygon points="177.84 103.78 176.57 103.78 176.87 89.85 177.2 89.85 177.84 103.78" fill="#4f6e6e"/><polygon points="180.36 104.32 179.08 104.32 179.39 90.39 179.72 90.39 180.36 104.32" fill="#4f6e6e"/><polygon points="128.96 104.95 127.68 104.95 127.99 91.02 128.32 91.02 128.96 104.95" fill="#4f6e6e"/><polygon points="125.06 105.21 123.79 105.21 124.09 91.28 124.42 91.28 125.06 105.21" fill="#4f6e6e"/><polygon points="143.65 108.02 141.9 108.02 142.32 88.98 142.78 88.98 143.65 108.02" fill="#6c5f59"/><polygon points="148.98 108.02 147.24 108.02 147.65 88.98 148.11 88.98 148.98 108.02" fill="#6c5f59"/><polygon points="156.79 107.86 155.05 107.86 155.47 88.82 155.92 88.82 156.79 107.86" fill="#6c5f59"/><polygon points="161.62 107.86 159.87 107.86 160.29 88.82 160.74 88.82 161.62 107.86" fill="#6c5f59"/><polygon points="170.11 108.02 168.36 108.02 168.78 88.98 169.24 88.98 170.11 108.02" fill="#6c5f59"/><polygon points="174.91 107.46 173.16 107.46 173.58 88.41 174.04 88.41 174.91 107.46" fill="#6c5f59"/><polygon points="136.15 106.87 134.41 106.87 134.83 87.83 135.28 87.83 136.15 106.87" fill="#6c5f59"/><polygon points="133.16 105.21 131.88 105.21 132.19 91.28 132.52 91.28 133.16 105.21" fill="#4f6e6e"/><polygon points="141.09 105.3 139.81 105.3 140.12 91.37 140.45 91.37 141.09 105.3" fill="#4f6e6e"/><polygon points="146.29 105.46 145.02 105.46 145.32 91.53 145.66 91.53 146.29 105.46" fill="#4f6e6e"/><polygon points="151.53 105.46 150.25 105.46 150.55 91.53 150.89 91.53 151.53 105.46" fill="#4f6e6e"/><polygon points="127.14 107.03 125.39 107.03 125.81 87.98 126.27 87.98 127.14 107.03" fill="#6c5f59"/><path d="M197.52,290.31a6.25,6.25,0,0,1-12.5,0c0-3.45,2.8-14.06,6.25-14.06S197.52,286.86,197.52,290.31Z" transform="translate(-16.31 -195.14)" fill="#34be71"/><polygon points="174.64 96.62 174.34 109.2 176.17 109.2 175.55 96.62 174.64 96.62" fill="#805f59"/><polygon points="174.96 98.52 177.83 96.19 178.17 96.82 174.96 99.68 174.96 98.52" fill="#805f59"/><path d="M191.27,276.25a3.32,3.32,0,0,0-2.43,1.71,1.73,1.73,0,0,1,.7-.15c3.45,0,6.25,10.61,6.25,14.06a6.2,6.2,0,0,1-1.28,3.78,6.25,6.25,0,0,0,3-5.34C197.52,286.86,194.72,276.25,191.27,276.25Z" transform="translate(-16.31 -195.14)" fill="#52c883"/><path d="M152.46,289.78a6.49,6.49,0,0,1-13,0c0-3.59,2.91-14.61,6.49-14.61S152.46,286.19,152.46,289.78Z" transform="translate(-16.31 -195.14)" fill="#34be71"/><polygon points="129.33 96.14 129.02 109.2 130.92 109.2 130.28 96.14 129.33 96.14" fill="#805f59"/><polygon points="129.66 98.11 132.64 95.69 133 96.34 129.66 99.32 129.66 98.11" fill="#805f59"/><path d="M146,275.17a3.45,3.45,0,0,0-2.52,1.78,1.87,1.87,0,0,1,.72-.16c3.59,0,6.49,11,6.49,14.61a6.45,6.45,0,0,1-1.32,3.92,6.48,6.48,0,0,0,3.12-5.54C152.46,286.19,149.56,275.17,146,275.17Z" transform="translate(-16.31 -195.14)" fill="#52c883"/><path d="M163.61,265.41a3.48,3.48,0,0,0-1.07.18,6,6,0,0,0-9.8,0,3.48,3.48,0,0,0-1.07-.18,3.58,3.58,0,0,0-3.59,3.58H167.2A3.58,3.58,0,0,0,163.61,265.41Z" transform="translate(-16.31 -195.14)" fill="#fff"/><g opacity="0.6"><path d="M181.37,266.85a2.21,2.21,0,0,0-.68.12,3.79,3.79,0,0,0-6.24,0,2.16,2.16,0,0,0-.68-.12,2.29,2.29,0,0,0-2.28,2.28h12.16A2.29,2.29,0,0,0,181.37,266.85Z" transform="translate(-16.31 -195.14)" fill="#fff"/></g><path d="M173.89,283.16a4.75,4.75,0,0,1-.15-1.2,4.92,4.92,0,0,1,4.91-4.95,4.58,4.58,0,0,1,.83.08,5.57,5.57,0,0,1,2.94-.84,5.68,5.68,0,0,1,5.66,5.71c0,.14,0,.28,0,.42a9.05,9.05,0,1,1-14.17.78Z" transform="translate(-16.31 -195.14)" fill="#00a07d"/><polygon points="164.98 97.82 168.55 94.91 168.97 95.15 164.98 98.72 164.98 97.82" fill="#805f59"/><path d="M162.9,281a5.77,5.77,0,0,0,.17-1.33,5.45,5.45,0,0,0-5.45-5.44,5.74,5.74,0,0,0-.93.08,6.28,6.28,0,0,0-9.55,5.36c0,.16,0,.31,0,.47a10,10,0,1,0,15.73.86Z" transform="translate(-16.31 -195.14)" fill="#00a07d"/><path d="M162.9,281a5.77,5.77,0,0,0,.17-1.33,5.45,5.45,0,0,0-5.45-5.44,5.74,5.74,0,0,0-.93.08,6.22,6.22,0,0,0-3.26-.92,6.3,6.3,0,0,0-5.77,3.78,6.12,6.12,0,0,1,7.8-1.22,5.27,5.27,0,0,1,6.19,5.18,4.94,4.94,0,0,1-.17,1.28,9.55,9.55,0,0,1,1.8,5.58,9.66,9.66,0,0,1-3.68,7.58A10.06,10.06,0,0,0,162.9,281Z" transform="translate(-16.31 -195.14)" fill="#36b294"/><polygon points="139.28 109.2 137.54 109.2 137.96 90.16 138.41 90.16 139.28 109.2" fill="#805f59"/><polygon points="138.12 97.5 134.19 94.31 133.72 94.57 138.12 98.5 138.12 97.5" fill="#805f59"/><polygon points="138.38 95.83 142.31 92.63 142.78 92.89 138.38 96.82 138.38 95.83" fill="#805f59"/><path d="M178.06,276.33a6.42,6.42,0,0,0,.21-1.59,6.55,6.55,0,0,0-6.55-6.55,6,6,0,0,0-1.11.11,7.47,7.47,0,0,0-3.92-1.11,7.55,7.55,0,0,0-7.55,7.55c0,.18,0,.37,0,.55a12.08,12.08,0,1,0,18.89,1Z" transform="translate(-16.31 -195.14)" fill="#34be71"/><path d="M178.06,276.33a6.42,6.42,0,0,0,.21-1.59,6.55,6.55,0,0,0-6.55-6.55,6,6,0,0,0-1.11.11,7.52,7.52,0,0,0-10.84,3.44,7.33,7.33,0,0,1,9.36-1.47,6.31,6.31,0,0,1,7.43,6.21,6.49,6.49,0,0,1-.19,1.54,11.56,11.56,0,0,1-2.26,15.8,12.05,12.05,0,0,0,3.95-17.49Z" transform="translate(-16.31 -195.14)" fill="#52c883"/><path d="M158,277a.91.91,0,0,0,0-.17l-.36.62C157.76,277.32,157.88,277.16,158,277Z" transform="translate(-16.31 -195.14)" fill="#52c883"/><polygon points="152.98 109.2 150.89 109.2 151.39 87.96 151.93 87.96 152.98 109.2" fill="#805f59"/><polygon points="151.58 96.16 146.86 92.32 146.29 92.63 151.58 97.35 151.58 96.16" fill="#805f59"/><polygon points="151.89 91.51 148.69 88.91 148.31 89.12 151.89 92.32 151.89 91.51" fill="#805f59"/><polygon points="151.89 94.14 156.61 90.31 157.18 90.62 151.89 95.34 151.89 94.14" fill="#805f59"/><g opacity="0.6"><path d="M162,261.42a2.53,2.53,0,0,1,2.53-2.53,2.49,2.49,0,0,1,.61.08,3.6,3.6,0,0,1,6.25,2.45Z" transform="translate(-16.31 -195.14)" fill="#fff"/></g><path d="M175,261.92a1.54,1.54,0,0,0-1.53-1.53,1.5,1.5,0,0,0-.37.05,2.17,2.17,0,0,0-3.78,1.48Z" transform="translate(-16.31 -195.14)" fill="#fff"/><path d="M181.29,265.33a1.77,1.77,0,0,1,1.77-1.77,2,2,0,0,1,.43.05,2.51,2.51,0,0,1,1.85-.81,2.54,2.54,0,0,1,2.54,2.53Z" transform="translate(-16.31 -195.14)" fill="#fff"/><path d="M245.24,274.71a6.62,6.62,0,0,0-4.53.9,5.52,5.52,0,0,0-1.15,1,3.56,3.56,0,0,0-.73-.09,3.08,3.08,0,0,0-1.35.32,3.09,3.09,0,0,0-4.94-.86,3,3,0,0,0-1-.17,3.17,3.17,0,0,0-1.3.29,3.08,3.08,0,0,0-3.92-.52,3.09,3.09,0,0,0-2.32-1.05,3.12,3.12,0,1,0,1.65,5.76,3.06,3.06,0,0,0,3.61.76c.57.61,2.23,3.39,3.14,3.39s.74-2.72,1.3-3.26a3,3,0,0,0,1,.16,3.05,3.05,0,0,0,1.35-.32,3.1,3.1,0,0,0,4.56,1.18,6.43,6.43,0,0,0,2,.56,6.14,6.14,0,0,0,2.64-.28v-4.08C245.22,277.16,245.23,275.93,245.24,274.71Z" transform="translate(-16.31 -195.14)" fill="#009468"/><path d="M203.78,271.22a3.09,3.09,0,0,0-2.32,1.13,3.11,3.11,0,0,0-2.32-1.13,3,3,0,0,0-2,.86,3,3,0,0,0-2.05-.86,3.2,3.2,0,0,0-2.62,1.54,2.9,2.9,0,0,0-.93-.18A2.93,2.93,0,0,0,190,273a3.09,3.09,0,0,0-4.88.13,3.48,3.48,0,0,0-1.8-.54l-.11,0a48.31,48.31,0,0,0-2.09,8.84,3.54,3.54,0,0,0,2.2.8c1.35,0,3.69,1.23,4.41,0,.33.12.58-.72.94-.72.64,0,.19-1.34.7-1.7a3,3,0,0,0,2.08.89,3.21,3.21,0,0,0,2.62-1.53,2.89,2.89,0,0,0,.93.17,3,3,0,0,0,2.05-.86,3,3,0,0,0,2,.86,3.08,3.08,0,0,0,2.32-1.13,3.06,3.06,0,0,0,2.32,1.13c1.86,0,3.36-1.82,3.36-4.06S205.64,271.22,203.78,271.22Z" transform="translate(-16.31 -195.14)" fill="#009468"/><path d="M185,304.47c7.5-.52,17.56,5.89,26.54,5.89,4.21,0,8-.78,13.36-1.68A193.91,193.91,0,0,0,245,304.17c0-2.44,0-4.89.07-7.36,0-2.78.09-5.54.14-8.3l-64.86-.59A31.92,31.92,0,0,0,185,304.47Z" transform="translate(-16.31 -195.14)" fill="#34be71"/><path d="M183.92,302.52c10.19.52,21,.74,32.43.56,10-.17,19.61-.64,28.68-1.32l.18-13.25-64.86-.59A32,32,0,0,0,183.92,302.52Z" transform="translate(-16.31 -195.14)" fill="#00a07d"/><path d="M181.9,297.65c4.9,2.64,13,3.39,22.6,2.38,8.63-.9,13.84-.56,28.69-.69,5.08,0,9.22,0,11.87.05,0-1.92-.05-3.92,0-6,0-1.87.09-3.68.18-5.44l-64.87-.06A32,32,0,0,0,181.9,297.65Z" transform="translate(-16.31 -195.14)" fill="#00827e"/><path d="M242.36,303.51h1q-.25-7.78-.5-15.59h-.35Q242.47,295.72,242.36,303.51Z" transform="translate(-16.31 -195.14)" fill="#4f6e6e"/><path d="M183.42,301.51l-.6-13h-.33l-.23,10.27C182.61,299.68,183,300.61,183.42,301.51Z" transform="translate(-16.31 -195.14)" fill="#4f6e6e"/><path d="M241.78,279.29a2.7,2.7,0,0,0-1.5.87,9.37,9.37,0,0,0-1.31,2.17,32.47,32.47,0,0,0,.1,11.45,4.73,4.73,0,0,0,1.78.77,4.38,4.38,0,0,0,.93.09,11.72,11.72,0,0,0,3.27-.45q.12-3,.17-6.21c0-1.88,0-3.71,0-5.51C244.42,280.4,243,279.12,241.78,279.29Z" transform="translate(-16.31 -195.14)" fill="#00a07d"/><path d="M180.69,296.88a4.11,4.11,0,0,0,2.79,1.17c2.66,0,4.35-4.21,4.86-6.47,1.71-7.54-5.11-16-7-15.29-.54.21-1,1.3-.74,4.9a58.92,58.92,0,0,0-.48,7.46A59.94,59.94,0,0,0,180.69,296.88Z" transform="translate(-16.31 -195.14)" fill="#00a07d"/><polygon points="195.09 106.26 193.81 106.26 194.12 92.33 194.45 92.33 195.09 106.26" fill="#00827e"/><polygon points="191.29 106.56 190.01 106.56 190.31 92.63 190.65 92.63 191.29 106.56" fill="#00827e"/><polygon points="199.31 106.26 198.21 106.26 198.48 94.32 198.76 94.32 199.31 106.26" fill="#00827e"/><polygon points="197.62 105.56 196.53 105.56 196.79 93.63 197.07 93.63 197.62 105.56" fill="#00827e"/><polygon points="204.77 106.26 203.68 106.26 203.94 94.32 204.22 94.32 204.77 106.26" fill="#00827e"/><polygon points="215.81 105.79 214.72 105.79 214.98 93.86 215.26 93.86 215.81 105.79" fill="#00827e"/><polygon points="221.47 105.56 220.37 105.56 220.63 93.63 220.92 93.63 221.47 105.56" fill="#00827e"/><polygon points="223.98 105.26 222.89 105.26 223.15 93.33 223.44 93.33 223.98 105.26" fill="#00827e"/><polygon points="172.04 105.94 170.95 105.94 171.21 94.01 171.49 94.01 172.04 105.94" fill="#00827e"/><polygon points="168.69 105.79 167.59 105.79 167.85 93.86 168.14 93.86 168.69 105.79" fill="#00827e"/><polygon points="188.64 106.26 187.37 106.26 187.67 92.33 188 92.33 188.64 106.26" fill="#00827e"/><polygon points="184.28 106.26 183 106.26 183.31 92.33 183.64 92.33 184.28 106.26" fill="#00827e"/><polygon points="181.15 106.26 179.87 106.26 180.18 92.33 180.51 92.33 181.15 106.26" fill="#00827e"/><polygon points="176.64 106.06 175.36 106.06 175.67 92.13 176 92.13 176.64 106.06" fill="#00827e"/><polygon points="200.04 107.93 198.76 107.93 199.07 94 199.4 94 200.04 107.93" fill="#4f6e6e"/><polygon points="203.03 107.68 201.75 107.68 202.05 93.75 202.39 93.75 203.03 107.68" fill="#4f6e6e"/><polygon points="207.73 107.68 206.46 107.68 206.76 93.75 207.1 93.75 207.73 107.68" fill="#4f6e6e"/><polygon points="211.7 107.42 210.42 107.42 210.73 93.48 211.06 93.48 211.7 107.42" fill="#4f6e6e"/><polygon points="216.54 106.94 215.26 106.94 215.57 93.01 215.9 93.01 216.54 106.94" fill="#4f6e6e"/><polygon points="222.2 106.25 220.92 106.25 221.23 92.32 221.56 92.32 222.2 106.25" fill="#4f6e6e"/><polygon points="224.71 106.79 223.44 106.79 223.74 92.86 224.07 92.86 224.71 106.79" fill="#4f6e6e"/><polygon points="173.31 107.42 172.03 107.42 172.34 93.48 172.67 93.48 173.31 107.42" fill="#4f6e6e"/><polygon points="169.42 107.68 168.14 107.68 168.45 93.75 168.78 93.75 169.42 107.68" fill="#4f6e6e"/><polygon points="188 110.49 186.26 110.49 186.68 91.45 187.13 91.45 188 110.49" fill="#6c5f59"/><polygon points="193.34 110.49 191.59 110.49 192.01 91.45 192.46 91.45 193.34 110.49" fill="#6c5f59"/><polygon points="201.15 110.33 199.4 110.33 199.82 91.29 200.27 91.29 201.15 110.33" fill="#6c5f59"/><polygon points="205.97 110.33 204.22 110.33 204.64 91.29 205.1 91.29 205.97 110.33" fill="#6c5f59"/><polygon points="214.46 110.49 212.72 110.49 213.13 91.45 213.59 91.45 214.46 110.49" fill="#6c5f59"/><polygon points="219.26 109.92 217.52 109.92 217.94 90.88 218.39 90.88 219.26 109.92" fill="#6c5f59"/><polygon points="180.51 109.34 178.76 109.34 179.18 90.3 179.63 90.3 180.51 109.34" fill="#6c5f59"/><polygon points="177.51 107.68 176.24 107.68 176.54 93.75 176.87 93.75 177.51 107.68" fill="#4f6e6e"/><polygon points="185.44 107.77 184.17 107.77 184.47 93.84 184.81 93.84 185.44 107.77" fill="#4f6e6e"/><polygon points="190.65 107.93 189.37 107.93 189.68 94 190.01 94 190.65 107.93" fill="#4f6e6e"/><polygon points="195.88 107.93 194.6 107.93 194.91 94 195.24 94 195.88 107.93" fill="#4f6e6e"/><polygon points="171.49 109.49 169.75 109.49 170.17 90.45 170.62 90.45 171.49 109.49" fill="#6c5f59"/><path d="M241.87,292.78a6.25,6.25,0,0,1-12.5,0c0-3.45,2.8-14.06,6.25-14.06S241.87,289.33,241.87,292.78Z" transform="translate(-16.31 -195.14)" fill="#34be71"/><polygon points="218.99 99.09 218.69 111.67 220.53 111.67 219.91 99.09 218.99 99.09" fill="#805f59"/><polygon points="219.31 100.99 222.18 98.66 222.53 99.29 219.31 102.15 219.31 100.99" fill="#805f59"/><path d="M235.62,278.72a3.33,3.33,0,0,0-2.43,1.7,1.9,1.9,0,0,1,.7-.14c3.45,0,6.25,10.61,6.25,14.06a6.22,6.22,0,0,1-1.28,3.78,6.22,6.22,0,0,0,3-5.34C241.87,289.33,239.08,278.72,235.62,278.72Z" transform="translate(-16.31 -195.14)" fill="#52c883"/><path d="M196.82,292.24a6.49,6.49,0,1,1-13,0c0-3.58,2.9-14.6,6.49-14.6S196.82,288.66,196.82,292.24Z" transform="translate(-16.31 -195.14)" fill="#34be71"/><polygon points="173.68 98.61 173.37 111.67 175.28 111.67 174.63 98.61 173.68 98.61" fill="#805f59"/><polygon points="174.02 100.58 176.99 98.16 177.35 98.81 174.02 101.79 174.02 100.58" fill="#805f59"/><path d="M190.33,277.64a3.45,3.45,0,0,0-2.53,1.78,1.88,1.88,0,0,1,.73-.16c3.58,0,6.49,11,6.49,14.61a6.46,6.46,0,0,1-1.33,3.92,6.49,6.49,0,0,0,3.13-5.55C196.82,288.66,193.91,277.64,190.33,277.64Z" transform="translate(-16.31 -195.14)" fill="#52c883"/><path d="M208,266a3.43,3.43,0,0,0-1.07.18,6,6,0,0,0-9.81,0A3.43,3.43,0,0,0,196,266a3.58,3.58,0,0,0-3.58,3.58h19.11A3.58,3.58,0,0,0,208,266Z" transform="translate(-16.31 -195.14)" fill="#fff"/><g opacity="0.6"><path d="M225.73,269.32a2.27,2.27,0,0,0-.69.12,3.78,3.78,0,0,0-6.23,0,2.21,2.21,0,0,0-.68-.12,2.28,2.28,0,0,0-2.28,2.28H228A2.28,2.28,0,0,0,225.73,269.32Z" transform="translate(-16.31 -195.14)" fill="#fff"/></g><path d="M218.24,285.63a5.26,5.26,0,0,1-.15-1.2,4.93,4.93,0,0,1,4.91-4.95,5.69,5.69,0,0,1,.83.07,5.66,5.66,0,0,1,8.61,4.88c0,.14,0,.28,0,.41a9.06,9.06,0,1,1-14.17.79Z" transform="translate(-16.31 -195.14)" fill="#00a07d"/><polygon points="210.16 111.67 208.57 111.67 208.95 95.61 209.36 95.61 210.16 111.67" fill="#805f59"/><polygon points="209.09 101.81 205.53 98.91 205.1 99.14 209.09 102.71 209.09 101.81" fill="#805f59"/><polygon points="209.33 98.29 206.91 96.32 206.62 96.48 209.33 98.91 209.33 98.29" fill="#805f59"/><polygon points="209.33 100.28 212.9 97.38 213.33 97.62 209.33 101.19 209.33 100.28" fill="#805f59"/><path d="M232.41,284.84c0-.13,0-.27,0-.41a5.66,5.66,0,0,0-8.61-4.88,5.69,5.69,0,0,0-.83-.07,4.85,4.85,0,0,0-3.67,1.69,4.8,4.8,0,0,1,1.66-.31,5.69,5.69,0,0,1,.83.07,5.65,5.65,0,0,1,8.6,4.87c0,.15,0,.29,0,.42a9.15,9.15,0,0,1-.73,12.85,9.16,9.16,0,0,0,2.74-14.23Z" transform="translate(-16.31 -195.14)" fill="#36b294"/><path d="M207.25,283.49a5.27,5.27,0,0,0,.17-1.33,5.44,5.44,0,0,0-5.45-5.44,5.62,5.62,0,0,0-.92.08,6.28,6.28,0,0,0-9.55,5.36c0,.16,0,.31,0,.46a10.06,10.06,0,1,0,15.73.87Z" transform="translate(-16.31 -195.14)" fill="#00a07d"/><path d="M207.25,283.49a5.27,5.27,0,0,0,.17-1.33,5.44,5.44,0,0,0-5.45-5.44,5.62,5.62,0,0,0-.92.08,6.28,6.28,0,0,0-9,2.86,6.1,6.1,0,0,1,7.79-1.22,5.27,5.27,0,0,1,6.19,5.17,5.49,5.49,0,0,1-.16,1.29A9.62,9.62,0,0,1,204,298.05a10,10,0,0,0,3.29-14.56Z" transform="translate(-16.31 -195.14)" fill="#36b294"/><polygon points="183.64 111.67 181.89 111.67 182.31 92.63 182.77 92.63 183.64 111.67" fill="#805f59"/><polygon points="182.47 99.97 178.54 96.78 178.07 97.04 182.47 100.97 182.47 99.97" fill="#805f59"/><polygon points="182.73 98.3 186.66 95.1 187.13 95.36 182.73 99.29 182.73 98.3" fill="#805f59"/><path d="M222.42,278.8a6.41,6.41,0,0,0,.2-1.59,6.54,6.54,0,0,0-6.54-6.55,6.74,6.74,0,0,0-1.11.1,7.55,7.55,0,0,0-11.47,6.45c0,.18,0,.37,0,.55a12.07,12.07,0,1,0,18.9,1Z" transform="translate(-16.31 -195.14)" fill="#34be71"/><path d="M222.42,278.8a6.41,6.41,0,0,0,.2-1.59,6.54,6.54,0,0,0-6.54-6.55,6.74,6.74,0,0,0-1.11.1,7.55,7.55,0,0,0-10.85,3.44,7.34,7.34,0,0,1,9.36-1.46,6.32,6.32,0,0,1,7.44,6.21,6.5,6.5,0,0,1-.2,1.54,11.56,11.56,0,0,1-2.26,15.8,12.07,12.07,0,0,0,4-17.49Z" transform="translate(-16.31 -195.14)" fill="#52c883"/><path d="M202.37,279.48a.86.86,0,0,1,0-.16c-.13.2-.25.41-.37.62Z" transform="translate(-16.31 -195.14)" fill="#52c883"/><polygon points="197.34 111.67 195.24 111.67 195.74 90.43 196.29 90.43 197.34 111.67" fill="#805f59"/><polygon points="195.93 98.63 191.21 94.79 190.65 95.1 195.93 99.82 195.93 98.63" fill="#805f59"/><polygon points="196.25 93.98 193.04 91.37 192.66 91.59 196.25 94.79 196.25 93.98" fill="#805f59"/><polygon points="196.25 96.61 200.96 92.78 201.53 93.09 196.25 97.81 196.25 96.61" fill="#805f59"/><g opacity="0.6"><path d="M206.33,263.89a2.53,2.53,0,0,1,2.53-2.53,2.49,2.49,0,0,1,.61.08,3.6,3.6,0,0,1,6.25,2.45Z" transform="translate(-16.31 -195.14)" fill="#fff"/></g><path d="M219.33,264.39a1.53,1.53,0,0,0-1.53-1.53,1.42,1.42,0,0,0-.36.05,2.18,2.18,0,0,0-3.79,1.48Z" transform="translate(-16.31 -195.14)" fill="#fff"/><path d="M225.64,267.8a1.78,1.78,0,0,1,1.78-1.77,2,2,0,0,1,.42.05,2.53,2.53,0,0,1,4.39,1.72Z" transform="translate(-16.31 -195.14)" fill="#fff"/><polygon points="165.8 109.2 164.22 109.2 164.6 93.14 165.01 93.14 165.8 109.2" fill="#805f59"/><polygon points="164.98 95.82 162.56 93.85 162.27 94.02 164.98 96.44 164.98 95.82" fill="#805f59"/><polygon points="164.74 99.34 161.17 96.44 160.74 96.67 164.74 100.24 164.74 99.34" fill="#805f59"/><polygon points="123.41 107.87 121.66 107.87 122.08 92.78 122.53 92.78 123.41 107.87" fill="#6c5f59"/><path d="M39.65,288.21c-.08.45-.76,4.33-2.48,4.6-.46.07-1.26-.08-6-7-.84-1.24-1.82-2.89-3.77-6.19-1.72-2.91-2.41-4.19-1.88-5,.36-.54,1.28-.66,3.13-.88A12.65,12.65,0,0,1,32,273.6C35.47,274.42,40.86,281.25,39.65,288.21Z" transform="translate(-16.31 -195.14)" fill="#34be71"/></svg>