<svg xmlns="http://www.w3.org/2000/svg" width="401.41" height="385.96" viewBox="0 0 401.41 385.96"><circle cx="199.04" cy="194.53" r="142.25" fill="#9af4ef"/><path d="M375.33,203.83a16.81,16.81,0,0,0-11.64,6.46,13.4,13.4,0,0,0-3.19-.41,13.55,13.55,0,0,0-6,1.41,13.68,13.68,0,0,0-21.82-3.8,13.08,13.08,0,0,0-10,.54,13.59,13.59,0,0,0-17.31-2.29,13.77,13.77,0,1,0-3,20.8,13.57,13.57,0,0,0,16,3.36c2.52,2.69,9.85,14.93,13.83,14.93,3.7,0,3.28-12,5.75-14.39a13,13,0,0,0,10.22-.67A13.68,13.68,0,0,0,368.36,235a16.39,16.39,0,0,0,16.27.61A141,141,0,0,0,375.33,203.83Z" transform="translate(-45.41 -65.1)" fill="#00c8b4"/><path d="M196.75,201.1a13.73,13.73,0,0,0-9.49,3.83,13.6,13.6,0,0,0-17.87-.92,13.57,13.57,0,0,0-19.08,2.29,12.94,12.94,0,0,0-9.73.79,14.38,14.38,0,0,0-20,.42,16.23,16.23,0,0,0-7.35-1.81c-.15,0-.3,0-.45.05a140.65,140.65,0,0,0-8.55,30,16.24,16.24,0,0,0,9,2.72c5.52,0,15.08,4.18,18,0,1.36.42,2.36-2.42,3.86-2.42,2.62,0,.74-4.54,2.86-5.76a13.59,13.59,0,0,0,19.2-2.19,13.22,13.22,0,0,0,12.18-2.32,13.62,13.62,0,0,0,17.87-.91,13.77,13.77,0,1,0,9.49-23.73Z" transform="translate(-45.41 -65.1)" fill="#00c8b4"/><path d="M102.22,260.27a142.23,142.23,0,0,0,284.46,0Z" transform="translate(-45.41 -65.1)" fill="#52c883"/><path d="M226,176.19H141.24c-2.77,0-4.93,1.11-4.93,2.53v92.62c0,1.42,2.16,2.53,4.93,2.53H226c2.78,0,4.93-1.11,4.93-2.53V178.72C230.61,177.3,228.45,176.19,226,176.19Z" transform="translate(-45.41 -65.1)" fill="#d3edef"/><path d="M230.61,178.72c0-1.42-2.16-2.53-4.93-2.53H141.24c-2.77,0-4.93,1.11-4.93,2.53v92.62" transform="translate(-45.41 -65.1)" fill="#e8f7f7"/><path d="M226,273.87c2.78,0,4.93-1.11,4.93-2.53V178.72c0-1.42-2.15-2.53-4.93-2.53H141.24c-2.77,0-4.93,1.11-4.93,2.53" transform="translate(-45.41 -65.1)" fill="#c5e7e8"/><path d="M230.61,181.12a4.86,4.86,0,0,0-4.93-4.93H141.24a4.86,4.86,0,0,0-4.93,4.93" transform="translate(-45.41 -65.1)" fill="#edf7f7"/><path d="M222.9,199c0,1.54-1.23,5.86-3.08,5.86H147.1c-1.54,0-3.09-4.32-3.09-5.86h0a3.09,3.09,0,0,1,3.09-3.08h73A3.27,3.27,0,0,1,222.9,199Z" transform="translate(-45.41 -65.1)" fill="#a6dadd"/><path d="M222.9,199a3.09,3.09,0,0,1-3.08,3.08H147.1A3.09,3.09,0,0,1,144,199h0a3.09,3.09,0,0,1,3.09-3.08h73A3.27,3.27,0,0,1,222.9,199Z" transform="translate(-45.41 -65.1)" fill="#0caaef"/><path d="M144,199a3.09,3.09,0,0,1,3.09-3.08h73a3.09,3.09,0,0,1,3.08,3.08h0a3.09,3.09,0,0,1-3.08,3.08" transform="translate(-45.41 -65.1)" fill="#118dea"/><path d="M222.9,214.71c0,1.54-1.23,5.85-3.08,5.85H147.1c-1.54,0-3.09-4.31-3.09-5.85h0a3.09,3.09,0,0,1,3.09-3.08h73a3,3,0,0,1,2.77,3.08Z" transform="translate(-45.41 -65.1)" fill="#a6dadd"/><path d="M222.9,214.71a3.09,3.09,0,0,1-3.08,3.08H147.1a3.09,3.09,0,0,1-3.09-3.08h0a3.09,3.09,0,0,1,3.09-3.08h73a3,3,0,0,1,2.77,3.08Z" transform="translate(-45.41 -65.1)" fill="#0caaef"/><path d="M144,214.71a3.09,3.09,0,0,1,3.09-3.08h73a3.09,3.09,0,0,1,3.08,3.08h0a3.09,3.09,0,0,1-3.08,3.08" transform="translate(-45.41 -65.1)" fill="#118dea"/><path d="M222.9,230.42c0,1.54-1.23,5.86-3.08,5.86H147.1c-1.54,0-3.09-4.32-3.09-5.86h0a3.09,3.09,0,0,1,3.09-3.08h73a2.84,2.84,0,0,1,2.77,3.08Z" transform="translate(-45.41 -65.1)" fill="#a6dadd"/><path d="M222.9,230.42a3.09,3.09,0,0,1-3.08,3.08H147.1a3.09,3.09,0,0,1-3.09-3.08h0a3.09,3.09,0,0,1,3.09-3.08h73a2.84,2.84,0,0,1,2.77,3.08Z" transform="translate(-45.41 -65.1)" fill="#0caaef"/><path d="M144,230.42a3.09,3.09,0,0,1,3.09-3.08h73a3.09,3.09,0,0,1,3.08,3.08h0a3.09,3.09,0,0,1-3.08,3.08" transform="translate(-45.41 -65.1)" fill="#118dea"/><path d="M222.9,245.83c0,1.54-1.23,5.86-3.08,5.86H147.1c-1.54,0-3.09-4.32-3.09-5.86h0a3.09,3.09,0,0,1,3.09-3.08h73a3,3,0,0,1,2.77,3.08Z" transform="translate(-45.41 -65.1)" fill="#a6dadd"/><path d="M222.9,245.83a3.09,3.09,0,0,1-3.08,3.08H147.1a3.09,3.09,0,0,1-3.09-3.08h0a3.09,3.09,0,0,1,3.09-3.08h73a3,3,0,0,1,2.77,3.08Z" transform="translate(-45.41 -65.1)" fill="#0caaef"/><path d="M144,245.83a3.09,3.09,0,0,1,3.09-3.08h73a3.09,3.09,0,0,1,3.08,3.08h0a3.09,3.09,0,0,1-3.08,3.08" transform="translate(-45.41 -65.1)" fill="#118dea"/><path d="M222.9,261.55c0,1.54-1.23,5.85-3.08,5.85H147.1c-1.54,0-3.09-4.31-3.09-5.85h0a3.09,3.09,0,0,1,3.09-3.08h73a2.84,2.84,0,0,1,2.77,3.08Z" transform="translate(-45.41 -65.1)" fill="#a6dadd"/><path d="M222.9,261.55a3.09,3.09,0,0,1-3.08,3.08H147.1a3.09,3.09,0,0,1-3.09-3.08h0a3.09,3.09,0,0,1,3.09-3.08h73a2.84,2.84,0,0,1,2.77,3.08Z" transform="translate(-45.41 -65.1)" fill="#0caaef"/><path d="M144,261.55a3.09,3.09,0,0,1,3.09-3.08h73a3.09,3.09,0,0,1,3.08,3.08h0a3.09,3.09,0,0,1-3.08,3.08" transform="translate(-45.41 -65.1)" fill="#118dea"/><path d="M122.8,333.36c33.12-2.29,77.54,26,117.21,26,78.79,0,89.27-29.36,128-29.36a141.5,141.5,0,0,0,18.64-69.75H102.22A141.67,141.67,0,0,0,122.8,333.36Z" transform="translate(-45.41 -65.1)" fill="#34be71"/><path d="M118,324.76c33.88-1.41,96.38-4.5,143.2,2.44,39.64,5.87,84,.06,112.27-7.84a141.4,141.4,0,0,0,13.21-59.09H102.22A141.56,141.56,0,0,0,118,324.76Z" transform="translate(-45.41 -65.1)" fill="#00a07d"/><path d="M109.08,303.23c21.65,11.64,57.38,15,99.81,10.52,46.31-4.85,93-5.66,126.7-3a204.68,204.68,0,0,0,41.77-.68,141,141,0,0,0,9.32-49.77H102.22A141.9,141.9,0,0,0,109.08,303.23Z" transform="translate(-45.41 -65.1)" fill="#00827e"/><path d="M375.79,314.26c1.72-4.13,3.26-8.37,4.59-12.69l-1.89-41.3H377Z" transform="translate(-45.41 -65.1)" fill="#4f6e6e"/><path d="M115.79,320.28l-2.64-57.59h-1.46l-1,45.34C112.2,312.21,113.91,316.29,115.79,320.28Z" transform="translate(-45.41 -65.1)" fill="#4f6e6e"/><path d="M373.52,222.15c-4.65,0-8.93,5.8-12.4,13.43a141.12,141.12,0,0,0,.44,50.58A20.52,20.52,0,0,0,384,287a142.63,142.63,0,0,0-.12-55.44C380.86,226,377.31,222.15,373.52,222.15Z" transform="translate(-45.41 -65.1)" fill="#00a07d"/><path d="M104.71,286.16a20.83,20.83,0,0,0,32.83-17.07c0-11.52-9.35-46.94-20.87-46.94-4.65,0-8.93,5.8-12.4,13.43a141.73,141.73,0,0,0,.44,50.58Z" transform="translate(-45.41 -65.1)" fill="#00a07d"/><polygon points="193.94 254.7 188.3 254.7 189.65 193.18 191.12 193.18 193.94 254.7" fill="#00827e"/><polygon points="177.13 256.05 171.49 256.05 172.85 194.53 174.31 194.53 177.13 256.05" fill="#00827e"/><polygon points="212.56 254.7 207.73 254.7 208.89 202.01 210.15 202.01 212.56 254.7" fill="#00827e"/><polygon points="205.1 251.64 200.27 251.64 201.43 198.95 202.69 198.95 205.1 251.64" fill="#00827e"/><polygon points="236.69 254.7 231.86 254.7 233.02 202.01 234.27 202.01 236.69 254.7" fill="#00827e"/><polygon points="285.44 252.63 280.61 252.63 281.77 199.94 283.03 199.94 285.44 252.63" fill="#00827e"/><polygon points="310.42 251.64 305.58 251.64 306.74 198.95 308 198.95 310.42 251.64" fill="#00827e"/><polygon points="321.53 250.29 316.7 250.29 317.86 197.6 319.11 197.6 321.53 250.29" fill="#00827e"/><polygon points="92.15 253.3 87.32 253.3 88.48 200.61 89.73 200.61 92.15 253.3" fill="#00827e"/><polygon points="77.34 252.63 72.5 252.63 73.66 199.94 74.92 199.94 77.34 252.63" fill="#00827e"/><polygon points="165.46 254.7 159.82 254.7 161.18 193.18 162.64 193.18 165.46 254.7" fill="#00827e"/><polygon points="146.19 254.7 140.54 254.7 141.9 193.18 143.37 193.18 146.19 254.7" fill="#00827e"/><polygon points="132.36 254.7 126.72 254.7 128.07 193.18 129.54 193.18 132.36 254.7" fill="#00827e"/><polygon points="112.46 253.82 106.81 253.82 108.17 192.3 109.64 192.3 112.46 253.82" fill="#00827e"/><polygon points="215.79 262.1 210.15 262.1 211.5 200.59 212.97 200.59 215.79 262.1" fill="#4f6e6e"/><polygon points="228.97 260.98 223.33 260.98 224.69 199.47 226.15 199.47 228.97 260.98" fill="#4f6e6e"/><polygon points="249.77 260.98 244.13 260.98 245.49 199.47 246.95 199.47 249.77 260.98" fill="#4f6e6e"/><polygon points="267.28 259.82 261.63 259.82 262.99 198.3 264.46 198.3 267.28 259.82" fill="#4f6e6e"/><polygon points="288.67 257.71 283.03 257.71 284.38 196.19 285.85 196.19 288.67 257.71" fill="#4f6e6e"/><polygon points="313.64 254.68 308 254.68 309.35 193.16 310.82 193.16 313.64 254.68" fill="#4f6e6e"/><polygon points="324.75 257.04 319.11 257.04 320.46 195.53 321.93 195.53 324.75 257.04" fill="#4f6e6e"/><polygon points="97.76 259.82 92.12 259.82 93.47 198.3 94.94 198.3 97.76 259.82" fill="#4f6e6e"/><polygon points="80.56 260.98 74.92 260.98 76.28 199.47 77.74 199.47 80.56 260.98" fill="#4f6e6e"/><polygon points="162.64 273.39 154.93 273.39 156.78 189.3 158.79 189.3 162.64 273.39" fill="#6c5f59"/><polygon points="186.18 273.39 178.47 273.39 180.32 189.3 182.33 189.3 186.18 273.39" fill="#6c5f59"/><polygon points="220.68 272.69 212.97 272.69 214.82 188.6 216.82 188.6 220.68 272.69" fill="#6c5f59"/><polygon points="241.99 272.69 234.27 272.69 236.12 188.6 238.13 188.6 241.99 272.69" fill="#6c5f59"/><polygon points="279.48 273.39 271.77 273.39 273.62 189.3 275.62 189.3 279.48 273.39" fill="#6c5f59"/><polygon points="300.69 270.9 292.98 270.9 294.83 186.81 296.83 186.81 300.69 270.9" fill="#6c5f59"/><polygon points="129.54 268.33 121.83 268.33 123.68 184.24 125.68 184.24 129.54 268.33" fill="#6c5f59"/><polygon points="116.31 260.98 110.67 260.98 112.02 199.47 113.49 199.47 116.31 260.98" fill="#4f6e6e"/><polygon points="151.34 261.4 145.7 261.4 147.05 199.88 148.52 199.88 151.34 261.4" fill="#4f6e6e"/><polygon points="174.31 262.1 168.67 262.1 170.03 200.59 171.49 200.59 174.31 262.1" fill="#4f6e6e"/><polygon points="197.41 262.1 191.77 262.1 193.13 200.59 194.59 200.59 197.41 262.1" fill="#4f6e6e"/><polygon points="89.73 269 82.02 269 83.87 184.91 85.88 184.91 89.73 269" fill="#6c5f59"/><path d="M296.48,236.82a4.86,4.86,0,0,1-4.93,4.93H262.28a4.87,4.87,0,0,1-4.93-4.93V214.94a4.87,4.87,0,0,1,4.93-4.93h29.27a4.86,4.86,0,0,1,4.93,4.93Z" transform="translate(-45.41 -65.1)" fill="#91c6c4"/><path d="M322.37,211.33c0,1.06-2.16,1.88-4.93,1.88H288.16c-2.77,0-4.93-.82-4.93-1.88V203c0-1.06,2.16-1.89,4.93-1.89h29.28c2.77,0,4.93.83,4.93,1.89Z" transform="translate(-45.41 -65.1)" fill="#97cece"/><path d="M349.49,209.09H264.74c-2.77,0-4.93.82-4.93,1.88v45.38c0,1.06,2.16,1.88,4.93,1.88h84.75c2.77,0,4.93-.82,4.93-1.88V211C354.42,209.91,352.26,209.09,349.49,209.09Z" transform="translate(-45.41 -65.1)" fill="#97cece"/><path d="M354.42,211c0-1.06-2.16-1.88-4.93-1.88H264.74c-2.77,0-4.93.82-4.93,1.88v45.38" transform="translate(-45.41 -65.1)" fill="#a5d3d3"/><path d="M349.49,258.23c2.77,0,4.93-.82,4.93-1.88V211c0-1.06-2.16-1.88-4.93-1.88H264.74c-2.77,0-4.93.82-4.93,1.88" transform="translate(-45.41 -65.1)" fill="#91c6c4"/><path d="M354.42,227a4.86,4.86,0,0,0-4.93-4.93H264.74a4.86,4.86,0,0,0-4.93,4.93" transform="translate(-45.41 -65.1)" fill="#a5d3d3"/><path d="M346.71,246.06c0,1.54-1.23,5.86-3.08,5.86h-73c-1.54,0-3.08-4.32-3.08-5.86h0A3.09,3.09,0,0,1,270.6,243h73a2.91,2.91,0,0,1,3.08,3.08Z" transform="translate(-45.41 -65.1)" fill="#a6dadd"/><path d="M346.71,246.06a3.09,3.09,0,0,1-3.08,3.09h-73a3.09,3.09,0,0,1-3.08-3.09h0A3.09,3.09,0,0,1,270.6,243h73a2.91,2.91,0,0,1,3.08,3.08Z" transform="translate(-45.41 -65.1)" fill="#0caaef"/><path d="M267.83,246.06a3.09,3.09,0,0,1,3.08-3.08h73a3.09,3.09,0,0,1,3.08,3.08h0a3.09,3.09,0,0,1-3.08,3.09" transform="translate(-45.41 -65.1)" fill="#118dea"/><path d="M333.77,218.33a.67.67,0,0,0,.62.62h0a.66.66,0,0,0,.61-.62V171.8a.66.66,0,0,0-.61-.62h0a.67.67,0,0,0-.62.62Z" transform="translate(-45.41 -65.1)" fill="#e8f7f7"/><circle cx="289.28" cy="104.24" r="4.31" fill="#e8f7f7"/><path d="M344.56,218.33a.66.66,0,0,0,.61.62h0a.67.67,0,0,0,.62-.62v-30.2a.67.67,0,0,0-.62-.62h0a.66.66,0,0,0-.61.62Z" transform="translate(-45.41 -65.1)" fill="#e8f7f7"/><circle cx="299.76" cy="119.64" r="4.31" fill="#e8f7f7"/><path d="M373.93,281.74a27.61,27.61,0,0,1-55.21,0c0-15.25,12.36-62.12,27.6-62.12S373.93,266.49,373.93,281.74Z" transform="translate(-45.41 -65.1)" fill="#34be71"/><polygon points="299.48 223.06 298.16 278.62 306.27 278.62 303.52 223.06 299.48 223.06" fill="#805f59"/><polygon points="300.91 231.43 313.57 221.14 315.09 223.92 300.91 236.58 300.91 231.43" fill="#805f59"/><path d="M346.32,219.62c-3.8,0-7.43,2.93-10.73,7.55a8.18,8.18,0,0,1,3.08-.65c15.25,0,27.61,46.87,27.61,62.11a27.41,27.41,0,0,1-5.65,16.68,27.56,27.56,0,0,0,13.3-23.57C373.93,266.49,361.57,219.62,346.32,219.62Z" transform="translate(-45.41 -65.1)" fill="#52c883"/><path d="M175,279.37a28.66,28.66,0,0,1-57.32,0c0-15.83,12.83-64.49,28.66-64.49S175,263.54,175,279.37Z" transform="translate(-45.41 -65.1)" fill="#34be71"/><polygon points="99.39 220.93 98.02 278.62 106.44 278.62 103.59 220.93 99.39 220.93" fill="#805f59"/><polygon points="100.88 229.63 114.02 218.94 115.6 221.82 100.88 234.97 100.88 229.63" fill="#805f59"/><path d="M146.29,214.88c-3.95,0-7.72,3-11.14,7.83a8.38,8.38,0,0,1,3.2-.67C154.18,222,167,270.7,167,286.52a28.5,28.5,0,0,1-5.86,17.32A28.61,28.61,0,0,0,175,279.37C175,263.54,162.12,214.88,146.29,214.88Z" transform="translate(-45.41 -65.1)" fill="#52c883"/><path d="M224.19,171.75a15.74,15.74,0,0,0-4.73.8,26.31,26.31,0,0,0-43.29,0,15.62,15.62,0,0,0-20.56,15H240A15.83,15.83,0,0,0,224.19,171.75Z" transform="translate(-45.41 -65.1)" fill="#fff"/><g opacity="0.6"><path d="M302.62,178.14a10,10,0,0,0-3,.51,16.74,16.74,0,0,0-27.54,0A9.94,9.94,0,0,0,259,188.21h53.71A10.07,10.07,0,0,0,302.62,178.14Z" transform="translate(-45.41 -65.1)" fill="#fff"/></g><path d="M269.58,250.16a21.78,21.78,0,0,1,21-27.18,22.28,22.28,0,0,1,3.68.34,24.72,24.72,0,0,1,13-3.7,25.11,25.11,0,0,1,25,25.21c0,.63-.05,1.24-.1,1.85a40,40,0,1,1-62.57,3.48Z" transform="translate(-45.41 -65.1)" fill="#00a07d"/><polygon points="260.47 278.62 253.47 278.62 255.15 207.68 256.97 207.68 260.47 278.62" fill="#805f59"/><polygon points="255.78 235.05 240.02 222.24 238.13 223.29 255.78 239.04 255.78 235.05" fill="#805f59"/><polygon points="256.83 219.53 246.13 210.83 244.85 211.54 256.83 222.24 256.83 219.53" fill="#805f59"/><polygon points="256.83 228.33 272.58 215.51 274.48 216.56 256.83 232.32 256.83 228.33" fill="#805f59"/><path d="M332.15,246.68c.05-.61.1-1.22.1-1.85a25.11,25.11,0,0,0-25-25.21,24.72,24.72,0,0,0-13,3.7,22.28,22.28,0,0,0-3.68-.34,21.43,21.43,0,0,0-16.18,7.46,21.3,21.3,0,0,1,7.29-1.36,22.28,22.28,0,0,1,3.68.33,24.72,24.72,0,0,1,13-3.69,25.11,25.11,0,0,1,25,25.21c0,.62-.05,1.23-.1,1.85A40.41,40.41,0,0,1,320,309.5a40.42,40.42,0,0,0,12.12-62.82Z" transform="translate(-45.41 -65.1)" fill="#36b294"/><path d="M221,240.71a24,24,0,0,0-23.31-29.92,23.9,23.9,0,0,0-4.08.37,27.71,27.71,0,0,0-42.18,23.68c0,.69,0,1.37.1,2A44.4,44.4,0,1,0,221,240.71Z" transform="translate(-45.41 -65.1)" fill="#00a07d"/><path d="M221,240.71a24,24,0,0,0-23.31-29.92,23.9,23.9,0,0,0-4.08.37,27.69,27.69,0,0,0-39.89,12.64,27,27,0,0,1,34.43-5.38,23.54,23.54,0,0,1,4-.36,23.09,23.09,0,0,1,22.64,28.85,42.5,42.5,0,0,1-8.3,58.11A44.34,44.34,0,0,0,221,240.71Z" transform="translate(-45.41 -65.1)" fill="#36b294"/><polygon points="143.37 278.62 135.65 278.62 137.5 194.53 139.51 194.53 143.37 278.62" fill="#805f59"/><polygon points="138.2 226.95 120.85 212.84 118.77 214 138.2 231.34 138.2 226.95" fill="#805f59"/><polygon points="139.35 219.55 156.7 205.44 158.79 206.59 139.35 223.94 139.35 219.55" fill="#805f59"/><path d="M288,220a28.76,28.76,0,0,0-28-35.94,28.26,28.26,0,0,0-4.9.45A33.29,33.29,0,0,0,204.45,213c0,.82.06,1.63.12,2.44A53.34,53.34,0,1,0,288,220Z" transform="translate(-45.41 -65.1)" fill="#34be71"/><path d="M288,220a28.76,28.76,0,0,0-28-35.94,28.26,28.26,0,0,0-4.9.45A33.27,33.27,0,0,0,207.2,199.7a32.45,32.45,0,0,1,41.35-6.48,28.78,28.78,0,0,1,4.77-.43,27.76,27.76,0,0,1,27.19,34.66,51,51,0,0,1-10,69.79A53.23,53.23,0,0,0,288,220Z" transform="translate(-45.41 -65.1)" fill="#52c883"/><path d="M199.46,223c0-.24,0-.49,0-.73-.57.89-1.09,1.82-1.61,2.75C198.36,224.35,198.88,223.66,199.46,223Z" transform="translate(-45.41 -65.1)" fill="#52c883"/><polygon points="203.85 278.62 194.59 278.62 196.82 184.81 199.22 184.81 203.85 278.62" fill="#805f59"/><polygon points="197.65 221.01 176.81 204.06 174.31 205.45 197.65 226.28 197.65 221.01" fill="#805f59"/><polygon points="199.04 200.48 184.9 188.98 183.2 189.92 199.04 204.06 199.04 200.48" fill="#805f59"/><polygon points="199.04 212.12 219.88 195.17 222.38 196.56 199.04 217.4 199.04 212.12" fill="#805f59"/><g opacity="0.6"><path d="M217,154.14a11.05,11.05,0,0,1,13.85-10.8,15.9,15.9,0,0,1,27.62,10.8Z" transform="translate(-45.41 -65.1)" fill="#fff"/></g><path d="M274.39,156.36a6.76,6.76,0,0,0-6.76-6.76,6.66,6.66,0,0,0-1.62.22,9.62,9.62,0,0,0-16.71,6.54Z" transform="translate(-45.41 -65.1)" fill="#fff"/><path d="M302.24,171.43a7.85,7.85,0,0,1,7.84-7.85,7.75,7.75,0,0,1,1.88.26,11.16,11.16,0,0,1,19.39,7.59Z" transform="translate(-45.41 -65.1)" fill="#fff"/><path d="M254.67,164.94c0,3.72-3.71,6.57-8.3,6.57s-8.3-3-8.3-6.57,3.72-6.56,8.3-6.56S254.67,161.23,254.67,164.94Z" transform="translate(-45.41 -65.1)" fill="#0caaef" opacity="0.8"/><path d="M252.19,160.24a5.79,5.79,0,0,1,0,9.41,9.84,9.84,0,0,1-11.76,0" transform="translate(-45.41 -65.1)" fill="#118dea" opacity="0.8"/><path d="M237.21,162.47c0,3.71-3.72,6.56-8.3,6.56s-8.3-3-8.3-6.56,3.72-6.57,8.3-6.57S237.21,158.88,237.21,162.47Z" transform="translate(-45.41 -65.1)" fill="#0caaef" opacity="0.8"/><path d="M234.73,157.76a5.79,5.79,0,0,1,0,9.41,9.85,9.85,0,0,1-11.77,0" transform="translate(-45.41 -65.1)" fill="#118dea" opacity="0.8"/><path d="M272.13,162.47c0,3.71-3.71,6.56-8.29,6.56s-8.3-3-8.3-6.56,3.71-6.57,8.3-6.57S272.13,158.88,272.13,162.47Z" transform="translate(-45.41 -65.1)" fill="#0caaef" opacity="0.8"/><path d="M269.66,157.76a5.79,5.79,0,0,1,0,9.41,9.85,9.85,0,0,1-11.77,0" transform="translate(-45.41 -65.1)" fill="#118dea" opacity="0.8"/><path d="M265.69,153.3c-1-5.32-9.29-12.14-19.32-12.14S228,148,227.05,153.3c-10.4,1.12-17.21,3.1-17.21,5.33,0,3.47,16.34,6.19,36.53,6.19s36.54-2.85,36.54-6.19C282.91,156.4,276,154.42,265.69,153.3Z" transform="translate(-45.41 -65.1)" fill="#343a3a" opacity="0.8"/><path d="M246.37,164.82c20.19,0,36.54-2.85,36.54-6.19,0-2.23-6.94-4.21-17.22-5.33-1-5.32-9.29-12.14-19.32-12.14" transform="translate(-45.41 -65.1)" fill="#1e2323" opacity="0.8"/><circle cx="191.42" cy="88.33" r="2.35" fill="#f2f2f2" opacity="0.8"/><path d="M238.45,151.82a2.37,2.37,0,1,1-3.35,3.34" transform="translate(-45.41 -65.1)" fill="#ccc" opacity="0.8"/><circle cx="200.96" cy="88.33" r="2.35" fill="#f2f2f2" opacity="0.8"/><path d="M248,151.82a2.36,2.36,0,1,1-3.34,3.34" transform="translate(-45.41 -65.1)" fill="#ccc" opacity="0.8"/><circle cx="210.5" cy="88.33" r="2.35" fill="#f2f2f2" opacity="0.8"/><path d="M257.64,151.82a2.36,2.36,0,1,1-3.34,3.34" transform="translate(-45.41 -65.1)" fill="#ccc" opacity="0.8"/><path d="M200.19,328.84c1.22,1.38.44,4.07-1.74,6s-13.93,10.39-15.16,9,8.54-12.06,10.72-14S199,327.46,200.19,328.84Z" transform="translate(-45.41 -65.1)" fill="blue"/><path d="M204.77,339c1.1,1.48,3.9,1.25,6.24-.51s12.94-11.6,11.83-13.08-13.51,6-15.85,7.74S203.66,337.51,204.77,339Z" transform="translate(-45.41 -65.1)" fill="blue"/><path d="M198.62,348.17c0,2.38-1.94,15.23-4.32,15.23S190,350.55,190,348.17a4.32,4.32,0,1,1,8.64,0Z" transform="translate(-45.41 -65.1)" fill="#97a0a0"/><path d="M213.08,348.17c0,2.38-1.93,15.23-4.32,15.23s-4.31-12.85-4.31-15.23a4.32,4.32,0,1,1,8.63,0Z" transform="translate(-45.41 -65.1)" fill="#97a0a0"/><path d="M213.71,342.46c0,15.44-5.45,10.3-12.18,10.3s-12.18,5.14-12.18-10.3c0-8.82,5.46-16,12.18-16S213.71,333.64,213.71,342.46Z" transform="translate(-45.41 -65.1)" fill="#aeb7b7"/><path d="M201.53,326.48a10.78,10.78,0,0,0-8.28,4.29,5.89,5.89,0,0,0-.26,1.73c0,3.94,3.82,9.06,8.54,9.06s8.54-5.12,8.54-9.06a5.84,5.84,0,0,0-.26-1.73A10.78,10.78,0,0,0,201.53,326.48Z" transform="translate(-45.41 -65.1)" fill="#0caaef" opacity="0.8"/><path d="M199.15,363.48c0,1.83-2.17,2.07-4.85,2.07s-4.86-.24-4.86-2.07,2.18-4.34,4.86-4.34S199.15,361.66,199.15,363.48Z" transform="translate(-45.41 -65.1)" fill="#aeb7b7"/><path d="M199.15,363.48c0,1.83-2.17,2.07-4.85,2.07s-4.86-.24-4.86-2.07" transform="translate(-45.41 -65.1)" fill="#97a0a0"/><path d="M213.62,363.48c0,1.83-2.18,2.07-4.86,2.07s-4.85-.24-4.85-2.07,2.17-4.34,4.85-4.34S213.62,361.66,213.62,363.48Z" transform="translate(-45.41 -65.1)" fill="#aeb7b7"/><path d="M213.62,363.48c0,1.83-2.18,2.07-4.86,2.07s-4.85-.24-4.85-2.07" transform="translate(-45.41 -65.1)" fill="#97a0a0"/><path d="M217.29,319.12c0,7.7-7.06,11.58-15.76,11.58s-15.76-3.88-15.76-11.58,7.06-15.18,15.76-15.18S217.29,311.42,217.29,319.12Z" transform="translate(-45.41 -65.1)" fill="#aeb7b7"/><path d="M217.29,319.12c0,7.7-7.06,11.58-15.76,11.58s-15.76-3.88-15.76-11.58" transform="translate(-45.41 -65.1)" fill="#97a0a0"/><path d="M205,324.55c0,1.25-1.55,2.27-3.47,2.27s-3.47-1-3.47-2.27,1.55-.51,3.47-.51S205,323.29,205,324.55Z" transform="translate(-45.41 -65.1)" fill="#fff"/><path d="M198.68,325.84a4.63,4.63,0,0,0,5.7,0,4.63,4.63,0,0,0-5.7,0Z" transform="translate(-45.41 -65.1)" fill="#fff"/><path d="M197.07,312.69c1.94,1.78,3.44,6.05,1.66,8s-6.62,2.15-8.56.37-1.62-6.12.16-8.06A4.77,4.77,0,0,1,197.07,312.69Z" transform="translate(-45.41 -65.1)" fill="#808e8d"/><path d="M197.07,312.69c1.94,1.78,3.44,6.05,1.66,8s-6.16.83-8.11-.95a4.77,4.77,0,0,1,6.45-7Z" transform="translate(-45.41 -65.1)" fill="#f2f2f2"/><path d="M190.33,313a4.77,4.77,0,0,1,6.74-.3c1.94,1.78,3.44,6.05,1.66,8" transform="translate(-45.41 -65.1)" fill="#e6e6e6"/><path d="M206,312.69c-1.94,1.78-3.44,6.05-1.66,8s6.62,2.15,8.56.37,1.62-6.12-.16-8.06A4.77,4.77,0,0,0,206,312.69Z" transform="translate(-45.41 -65.1)" fill="#808e8d"/><path d="M206,312.69c-1.94,1.78-3.44,6.05-1.66,8s6.16.83,8.1-.95a4.77,4.77,0,1,0-6.44-7Z" transform="translate(-45.41 -65.1)" fill="#f2f2f2"/><path d="M212.73,313a4.77,4.77,0,0,0-6.74-.3c-1.94,1.78-3.44,6.05-1.66,8" transform="translate(-45.41 -65.1)" fill="#e6e6e6"/><path d="M203.9,335.43a2.37,2.37,0,1,1-2.37-2.37A2.37,2.37,0,0,1,203.9,335.43Z" transform="translate(-45.41 -65.1)" fill="#f2f2f2"/><path d="M201.53,333.06a2.37,2.37,0,1,1,0,4.73" transform="translate(-45.41 -65.1)" fill="#e6e6e6"/><path d="M201.53,338.27a2.85,2.85,0,1,1,2.85-2.84A2.85,2.85,0,0,1,201.53,338.27Zm0-4.73a1.89,1.89,0,1,0,1.88,1.89A1.89,1.89,0,0,0,201.53,333.54Z" transform="translate(-45.41 -65.1)" fill="#4a5151"/><g opacity="0.8"><path d="M204,343.65a.49.49,0,0,1-.48.48h-4a.49.49,0,0,1-.48-.48h0a.48.48,0,0,1,.48-.48h4a.48.48,0,0,1,.48.48Z" transform="translate(-45.41 -65.1)" fill="#0caaef"/><path d="M204,345.33a.48.48,0,0,1-.48.48h-4a.48.48,0,0,1-.48-.48h0a.49.49,0,0,1,.48-.48h4a.49.49,0,0,1,.48.48Z" transform="translate(-45.41 -65.1)" fill="#0caaef"/><path d="M204,347a.49.49,0,0,1-.48.48h-4A.49.49,0,0,1,199,347h0a.48.48,0,0,1,.48-.48h4a.48.48,0,0,1,.48.48Z" transform="translate(-45.41 -65.1)" fill="#0caaef"/></g><path d="M203.45,308.65v-4.57a13.56,13.56,0,0,0-1.92-.14,13.81,13.81,0,0,0-1.93.14v4.57a1.93,1.93,0,1,0,3.85,0Z" transform="translate(-45.41 -65.1)" fill="blue"/><path d="M199.6,304.08v3a1.93,1.93,0,0,0,3.86,0v-3a13.37,13.37,0,0,0-3.86,0Z" transform="translate(-45.41 -65.1)" fill="#0caaef" opacity="0.8"/><path d="M191.5,357.75h5.6c.17-.71.34-1.44.48-2.18H191C191.16,356.31,191.32,357,191.5,357.75Z" transform="translate(-45.41 -65.1)" fill="blue"/><path d="M206,357.75h5.6c.18-.71.34-1.44.49-2.18h-6.57C205.62,356.31,205.79,357,206,357.75Z" transform="translate(-45.41 -65.1)" fill="blue"/><path d="M148.2,127.62" transform="translate(-45.41 -65.1)"/><path d="M77.48,160.72l2.72-3.83,18.18,10c2.42,1.35,3.84,2.11,6.58,3.87l.08-.13c-2.3-2.37-3.4-3.58-5.23-5.67l-8.09-9.67L94,152l11.75,4.53c2.6,1,4.08,1.67,7.08,3.07l.12-.17c-2.54-2-3.79-3.05-5.81-4.86L91.66,140.74l2.6-3.67,24,22.94-3,4.24-12.61-5c-1.92-.75-3.71-1.52-5.51-2.43l-.09.12c1.43,1.44,2.81,2.79,4.15,4.35l8.91,10.25-3,4.16Z" transform="translate(-45.41 -65.1)"/><path d="M101.47,129.38l14.46-14.25,2.49,2.53L107,129l7.19,7.3,9.69-9.54,2.49,2.53-9.69,9.54,8.35,8.48,11.83-11.64,2.49,2.53-14.82,14.59Z" transform="translate(-45.41 -65.1)"/><path d="M154.26,109.27c-4.54-8.34-2.45-16.08,4.3-19.77a11.07,11.07,0,0,1,8.84-.71l-.76,3.13a7.88,7.88,0,0,0-6.48.51c-4.94,2.69-6,8.45-2.5,14.89s9,8.82,14,6.13a8.51,8.51,0,0,0,4.26-6l3,1a11.39,11.39,0,0,1-6,8.13C166.48,120,158.87,117.73,154.26,109.27Z" transform="translate(-45.41 -65.1)"/><path d="M182.29,79.56l4.07-1.44,19.23,24.51L201.77,104,191.48,90.15c-2.07-2.75-4.08-5.48-6.07-8.4l-.17.06c.25,3.54.44,6.91.56,10.35l.61,17.25-3.64,1.29Zm1.43,18.06,12.77-4.52,1,2.89-12.77,4.52Z" transform="translate(-45.41 -65.1)"/><path d="M204.2,72.73l4.07-.73,12.59,16.57,3.87,5.53.09,0c-.65-2.86-1.59-6.07-2.14-9.13L220,69.89l3.54-.63,5.23,29.05-4.08.74L212.08,82.47,208.2,77h-.08c.66,3,1.57,6,2.12,9L213,101.15l-3.55.64Z" transform="translate(-45.41 -65.1)"/><path d="M269.32,65.1l9.17,1.53c6.61,1.1,10.73,4.06,9.78,9.74a7.11,7.11,0,0,1-6.85,6.1l0,.2c4.61,1.53,6.95,4.56,6.21,9-1.06,6.37-6.51,8.65-13.76,7.44l-9.92-1.65Zm4.5,30.45c5.52.92,9-.37,9.77-4.76.66-4-2.12-6.13-7.8-7.07l-5.22-.88-2,11.84Zm1.71-15.43c5.52.92,8-.48,8.64-4.08s-1.77-5.22-6.75-6.05l-4.59-.76-1.69,10.16Z" transform="translate(-45.41 -65.1)"/><path d="M295.15,90.84,302,71.61,306,73l-6.85,19.33c-2.25,6.36-.29,9.65,3.39,11s7.37,0,9.62-6.35L319,77.64,322.8,79,316,98.23c-3.14,8.86-8.67,10.71-14.71,8.58S292,99.7,295.15,90.84Z" transform="translate(-45.41 -65.1)"/><path d="M320.15,109.9l7.07,4L340,91.66l-7.07-4,1.76-3.08,17.78,10.2-1.76,3.08-7.07-4.06L330.86,116l7.07,4.06-1.76,3.08L318.38,113Z" transform="translate(-45.41 -65.1)"/><path d="M365.45,104.06l3.17,2.69-18.94,22.3L362,139.53l-2.3,2.71-15.51-13.17Z" transform="translate(-45.41 -65.1)"/><path d="M389.13,125.75l5.12,6.27c6.22,7.64,5.07,15.48-3,22.06s-16.21,6.31-22.31-1.17l-5.24-6.43Zm-17.82,24.59c4.71,5.78,10.77,5.61,17.2.36s7.58-10.95,2.87-16.73l-2.27-2.79L369,147.55Z" transform="translate(-45.41 -65.1)"/><path d="M446.67,240.51l0,5.1-14,4.69-5.29,1.64v.2l5.31,1.51,14,4.56,0,5.1-32.8.22,0-4,16.4-.11c3.2,0,8.81.44,11.61.62v-.15l-6.42-1.81-12.93-4.61,0-3,12.87-4.69,6.39-1.94v-.1c-2.8.32-8.4.76-11.6.78l-16.4.11,0-3.9Z" transform="translate(-45.41 -65.1)"/><path d="M430.08,270.88c10.45,1.77,15.74,7.95,14.5,15.24s-8.27,11.37-18.72,9.6c-10.6-1.8-16-8-14.8-15.29S419.48,269.08,430.08,270.88Zm-3.5,20.55c8.14,1.38,13.52-1.05,14.35-5.93s-3.45-8.95-11.58-10.33c-8.28-1.41-13.81,1-14.64,5.88S418.3,290,426.58,291.43Z" transform="translate(-45.41 -65.1)"/><path d="M419.65,316.4l-19.58,3.51,1.62-4.46,17-2.91Zm19-6.61-3.51,9.64c-2.27,6.24-6.18,10-12.62,7.64-6.15-2.24-7.46-7.87-5.18-14.12l2.05-5.64-13-4.73,1.45-4Zm-17.91,3.76c-1.75,4.79-.73,8.14,3.22,9.57s6.45-.63,8.19-5.42l1.85-5.08-11.42-4.15Z" transform="translate(-45.41 -65.1)"/><path d="M425.24,342.38l-10.3,17.5-3.06-1.8,8.17-13.88-8.84-5.2-6.9,11.72-3.06-1.8,6.9-11.72-10.25-6-8.42,14.31-3.06-1.8L397,325.74Z" transform="translate(-45.41 -65.1)"/><path d="M370.82,373.23l-.06,3.83a13.79,13.79,0,0,0-10,3c-3.46,2.88-4.09,6.2-2.17,8.5,2.24,2.69,4.84,1.83,8.27.79l5-1.42c3.33-1.08,7.72-1.74,10.82,2s2.11,9.57-2.69,13.57a14.33,14.33,0,0,1-10.36,3.35l0-3.49a11.55,11.55,0,0,0,8.14-2.8c2.92-2.43,3.72-5.45,1.84-7.72-2-2.42-5.1-1.35-7.95-.4l-4.85,1.36c-4.14,1.36-8.07,1.64-11.17-2.08-3.33-4-2.6-10,2.93-14.61A16.69,16.69,0,0,1,370.82,373.23Z" transform="translate(-45.41 -65.1)"/><path d="M355,401.75c5.4,9.12,4.11,17.15-2.26,20.92s-14,1-19.43-8.09-4.26-17.41,2.11-21.17S349.56,392.49,355,401.75Zm-17.94,10.62c4.2,7.1,9.54,9.63,13.8,7.11s4.6-8.42.4-15.52-9.69-9.89-14-7.37S332.81,405.14,337.09,412.37Z" transform="translate(-45.41 -65.1)"/><path d="M329.74,434l-3.86,1.51-10.67-27.23-15.08,5.9-1.29-3.3,19-7.42Z" transform="translate(-45.41 -65.1)"/><path d="M291.8,446.27l-4.7,1-17.61-29.8,4.4-.94,9.32,16.74c1.89,3.33,3.71,6.62,5.48,10.13l.19,0c.24-3.93.52-7.67.89-11.48l1.83-19.1,4.21-.89Zm1.05-20.11-14.72,3.12-.71-3.32,14.73-3.12Z" transform="translate(-45.41 -65.1)"/><path d="M252.39,435.54l-10.71-16.77,4.75-.2,9.16,14.64Zm13.33,15.07-10.24.42c-6.65.28-11.59-1.92-11.87-8.77-.27-6.54,4.44-9.89,11.09-10.17l6-.24L260.12,418l4.25-.18Zm-10.28-15.14c-5.1.21-7.81,2.42-7.64,6.62s3,5.73,8.14,5.52l5.39-.22-.5-12.14Z" transform="translate(-45.41 -65.1)"/><path d="M231.39,450.8l-9.82-1.28c-7.19-.93-11.73-4-10.8-11.14.9-6.89,6.22-9.42,13.36-8.49l5.65.73,1.68-12.89,4.16.54Zm-7.21-17.48c-5.65-.73-8.65,1-9.25,5.6s2,6.57,7.57,7.3l5.16.67L229.34,434Z" transform="translate(-45.41 -65.1)"/><path d="M204.83,426l-6.05,19.48-4.06-1.26,6.08-19.57c2-6.45-.08-9.66-3.81-10.82s-7.36.28-9.36,6.72l-6.09,19.57-3.86-1.2,6-19.48c2.79-9,8.25-11,14.36-9.14S207.62,417.05,204.83,426Z" transform="translate(-45.41 -65.1)"/><path d="M166.34,434.31l-4.1-2.1,0-23.12.28-7.49-.09,0c-1.34,3-2.67,6.44-4.24,9.51l-7.73,15.14-3.56-1.82,14.92-29.21,4.09,2.09v23.12l-.29,7.49.09.05c1.39-3.05,2.62-6.35,4.17-9.38l7.8-15.27,3.56,1.81Z" transform="translate(-45.41 -65.1)"/><path d="M135.86,417.44l-3.4-2.54,9.78-13.16-.12-.09-20.82,5-3.85-2.87L145.79,397l6.24-8.39,3.41,2.54Zm1.2-17.19-4,1.13,3-24.67,3.81,2.83Z" transform="translate(-45.41 -65.1)"/><path d="M84.33,377.3l-2.56-3.93L97.71,360.1c2.14-1.75,3.37-2.8,6-4.7l-.08-.12c-3,1.27-4.58,1.85-7.2,2.78l-12,4-2.18-3.35,8.52-9.26c1.88-2.07,3.06-3.19,5.45-5.47l-.11-.17c-2.83,1.61-4.23,2.4-6.65,3.62L71,356.78,68.49,353l30.13-13.93,2.85,4.36-9.31,9.89c-1.4,1.51-2.78,2.89-4.29,4.23l.08.13c1.87-.8,3.63-1.59,5.57-2.26l12.81-4.54,2.79,4.28Z" transform="translate(-45.41 -65.1)"/><path d="M80.21,340.16c-9.75,4.15-17.54,1.82-20.45-5s.82-14,10.57-18.2,17.82-1.94,20.72,4.87S90.1,335.94,80.21,340.16ZM72,321c-7.6,3.24-10.81,8.19-8.87,12.75s7.74,5.67,15.33,2.43,11.08-8.3,9.14-12.86S79.76,317.68,72,321Z" transform="translate(-45.41 -65.1)"/><path d="M52,312.06l-2.26-10c-1.47-6.49-.2-11.75,6.48-13.26,6.39-1.45,10.53,2.59,12,9.07l1.32,5.86L83,300.68l.94,4.15Zm13-12.84c-1.13-5-3.8-7.24-7.89-6.31s-5.09,4-4,9l1.2,5.27,11.85-2.68Zm-.63-3,14.57-13.54,1,4.63L67.25,299Z" transform="translate(-45.41 -65.1)"/><path d="M45.58,276.4l-.17-4.15,29.23-1.15L74,254.91l3.55-.14.8,20.34Z" transform="translate(-45.41 -65.1)"/><path d="M45.52,244.29l1.16-8c1.4-9.75,8-14.21,18.25-12.73s15.62,7.66,14.24,17.22L78,249Zm30.17-3.52c1.06-7.38-3.16-11.73-11.38-12.91s-13.2,1.83-14.26,9.21l-.52,3.56,25.64,3.7Z" transform="translate(-45.41 -65.1)"/><path d="M81.34,213.45A4.05,4.05,0,1,1,86.66,211,4.06,4.06,0,0,1,81.34,213.45Z" transform="translate(-45.41 -65.1)"/><path d="M432.75,185.31l1.73,4.48-26.6,22.15-1.62-4.2,15-11.88c3-2.39,5.94-4.71,9.13-7l-.08-.18c-3.92.39-7.66.71-11.47,1l-19.15,1.25-1.55-4Zm-20,2.18,5.44,14L415,202.75l-5.44-14Z" transform="translate(-45.41 -65.1)"/></svg>