<?xml version="1.0" encoding="utf-8"?>
<!-- Generator: Adobe Illustrator 24.1.0, SVG Export Plug-In . SVG Version: 6.00 Build 0)  -->
<svg version="1.1" id="Layer_1" xmlns="http://www.w3.org/2000/svg" xmlns:xlink="http://www.w3.org/1999/xlink" x="0px" y="0px"
	 viewBox="0 0 500 500" style="enable-background:new 0 0 500 500;" xml:space="preserve">
<style type="text/css">
	.st0{fill:#9AF4EF;}
	.st1{fill:#00C8B4;}
	.st2{fill:#52C883;}
	.st3{fill:#D3EDEF;}
	.st4{fill:#E8F7F7;}
	.st5{fill:#C5E7E8;}
	.st6{fill:#EDF7F7;}
	.st7{fill:#A6DADD;}
	.st8{fill:#0CAAEF;}
	.st9{fill:#118DEA;}
	.st10{fill:#34BE71;}
	.st11{fill:#00A07D;}
	.st12{fill:#00827E;}
	.st13{fill:#4F6E6E;}
	.st14{fill:#6C5F59;}
	.st15{fill:#91C6C4;}
	.st16{fill:#97CECE;}
	.st17{fill:#A5D3D3;}
	.st18{fill:#805F59;}
	.st19{fill:#FFFFFF;}
	.st20{opacity:0.6;}
	.st21{fill:#36B294;}
	.st22{opacity:0.8;fill:#0CAAEF;}
	.st23{opacity:0.8;fill:#118DEA;}
	.st24{opacity:0.8;fill:#343A3A;}
	.st25{opacity:0.8;fill:#1E2323;}
	.st26{opacity:0.8;fill:#F2F2F2;}
	.st27{opacity:0.8;fill:#CCCCCC;}
	.st28{opacity:0.8;}
	.st29{fill:#97A0A0;}
	.st30{fill:#AEB7B7;}
	.st31{fill:#808E8D;}
	.st32{fill:#F2F2F2;}
	.st33{fill:#E6E6E6;}
	.st34{fill:#4A5151;}
</style>
<g>
	<circle class="st0" cx="244.5" cy="259.6" r="142.2"/>
</g>
<g>
	<path class="st1" d="M375.3,203.8c-4.7,0.5-8.9,2.9-11.6,6.5c-1-0.2-2.1-0.4-3.2-0.4c-2.1,0-4.2,0.5-6,1.4
		c-2.3-4.5-6.9-7.7-12.3-7.7c-3.7,0-7.1,1.5-9.5,3.9c-1.3-0.4-2.8-0.7-4.2-0.7c-2.1,0-4,0.5-5.7,1.3c-2.5-2.7-6.1-4.4-10.1-4.4
		c-2.7,0-5.2,0.8-7.3,2.1c-2.5-2.8-6.2-4.6-10.2-4.6c-7.6,0-13.8,6.2-13.8,13.8s6.2,13.8,13.8,13.8c2.7,0,5.2-0.8,7.3-2.1
		c2.5,2.8,6.2,4.6,10.2,4.6c2.1,0,4-0.5,5.7-1.3c2.5,2.7,9.8,14.9,13.8,14.9c3.7,0,3.3-12,5.8-14.4c1.3,0.4,2.8,0.7,4.2,0.7
		c2.1,0,4.2-0.5,6-1.4c2.3,4.5,6.9,7.7,12.3,7.7c2.9,0,5.6-0.9,7.9-2.5c2.5,1.5,5.5,2.5,8.7,2.5c2.7,0,5.3-0.7,7.6-1.9
		C382.7,224.5,379.6,213.9,375.3,203.8z"/>
</g>
<g>
	<path class="st1" d="M196.8,201.1c-3.7,0-7,1.5-9.5,3.8c-2.5-2.4-5.8-3.8-9.5-3.8c-3.2,0-6.1,1.1-8.4,2.9c-2.3-1.8-5.2-2.9-8.4-2.9
		c-4.3,0-8.2,2.1-10.7,5.2c-1.2-0.4-2.5-0.6-3.8-0.6c-2.1,0-4.1,0.5-5.9,1.4c-2.6-2.4-6-3.8-9.7-3.8c-4,0-7.6,1.6-10.3,4.3
		c-2.2-1.1-4.7-1.8-7.3-1.8c-0.2,0-0.3,0-0.5,0c-3.9,9.5-6.8,19.5-8.6,30c2.6,1.7,5.7,2.7,9,2.7c5.5,0,15.1,4.2,18,0
		c1.4,0.4,2.4-2.4,3.9-2.4c2.6,0,0.7-4.5,2.9-5.8c2.3,1.9,5.3,3,8.5,3c4.3,0,8.2-2.1,10.7-5.2c1.2,0.4,2.5,0.6,3.8,0.6
		c3.2,0,6.1-1.1,8.4-2.9c2.3,1.8,5.2,2.9,8.4,2.9c3.7,0,7-1.5,9.5-3.8c2.5,2.4,5.8,3.8,9.5,3.8c7.6,0,13.8-6.2,13.8-13.8
		C210.5,207.3,204.4,201.1,196.8,201.1z"/>
</g>
<g>
	<path class="st2" d="M102.2,260.3c0.3,78.3,63.9,141.6,142.2,141.6s141.9-63.3,142.2-141.6H102.2z"/>
</g>
<g>
	<path class="st3" d="M226,176.2h-84.7c-2.8,0-4.9,1.1-4.9,2.5v92.6c0,1.4,2.2,2.5,4.9,2.5H226c2.8,0,4.9-1.1,4.9-2.5v-92.6
		C230.6,177.3,228.4,176.2,226,176.2z"/>
	<path class="st4" d="M230.6,178.7c0-1.4-2.2-2.5-4.9-2.5h-84.4c-2.8,0-4.9,1.1-4.9,2.5v92.6"/>
	<path class="st5" d="M226,273.9c2.8,0,4.9-1.1,4.9-2.5v-92.6c0-1.4-2.2-2.5-4.9-2.5h-84.7c-2.8,0-4.9,1.1-4.9,2.5"/>
	<path class="st6" d="M230.6,181.1c0-2.8-2.2-4.9-4.9-4.9h-84.4c-2.8,0-4.9,2.2-4.9,4.9"/>
	<path class="st7" d="M222.9,199c0,1.5-1.2,5.9-3.1,5.9h-72.7c-1.5,0-3.1-4.3-3.1-5.9l0,0c0-1.5,1.2-3.1,3.1-3.1h73
		C221.7,196.2,222.9,197.5,222.9,199L222.9,199z"/>
	<path class="st8" d="M222.9,199c0,1.5-1.2,3.1-3.1,3.1h-72.7c-1.5,0-3.1-1.2-3.1-3.1l0,0c0-1.5,1.2-3.1,3.1-3.1h73
		C221.7,196.2,222.9,197.5,222.9,199L222.9,199z"/>
	<path class="st9" d="M144,199c0-1.5,1.2-3.1,3.1-3.1h73c1.5,0,3.1,1.2,3.1,3.1l0,0c0,1.5-1.2,3.1-3.1,3.1"/>
	<path class="st7" d="M222.9,214.7c0,1.5-1.2,5.9-3.1,5.9h-72.7c-1.5,0-3.1-4.3-3.1-5.9l0,0c0-1.5,1.2-3.1,3.1-3.1h73
		C221.7,211.6,222.9,213.2,222.9,214.7L222.9,214.7z"/>
	<path class="st8" d="M222.9,214.7c0,1.5-1.2,3.1-3.1,3.1h-72.7c-1.5,0-3.1-1.2-3.1-3.1l0,0c0-1.5,1.2-3.1,3.1-3.1h73
		C221.7,211.6,222.9,213.2,222.9,214.7L222.9,214.7z"/>
	<path class="st9" d="M144,214.7c0-1.5,1.2-3.1,3.1-3.1h73c1.5,0,3.1,1.2,3.1,3.1l0,0c0,1.5-1.2,3.1-3.1,3.1"/>
	<path class="st7" d="M222.9,230.4c0,1.5-1.2,5.9-3.1,5.9h-72.7c-1.5,0-3.1-4.3-3.1-5.9l0,0c0-1.5,1.2-3.1,3.1-3.1h73
		C221.7,227.3,222.9,228.6,222.9,230.4L222.9,230.4z"/>
	<path class="st8" d="M222.9,230.4c0,1.5-1.2,3.1-3.1,3.1h-72.7c-1.5,0-3.1-1.2-3.1-3.1l0,0c0-1.5,1.2-3.1,3.1-3.1h73
		C221.7,227.3,222.9,228.6,222.9,230.4L222.9,230.4z"/>
	<path class="st9" d="M144,230.4c0-1.5,1.2-3.1,3.1-3.1h73c1.5,0,3.1,1.2,3.1,3.1l0,0c0,1.5-1.2,3.1-3.1,3.1"/>
	<path class="st7" d="M222.9,245.8c0,1.5-1.2,5.9-3.1,5.9h-72.7c-1.5,0-3.1-4.3-3.1-5.9l0,0c0-1.5,1.2-3.1,3.1-3.1h73
		C221.7,242.7,222.9,244.3,222.9,245.8L222.9,245.8z"/>
	<path class="st8" d="M222.9,245.8c0,1.5-1.2,3.1-3.1,3.1h-72.7c-1.5,0-3.1-1.2-3.1-3.1l0,0c0-1.5,1.2-3.1,3.1-3.1h73
		C221.7,242.7,222.9,244.3,222.9,245.8L222.9,245.8z"/>
	<path class="st9" d="M144,245.8c0-1.5,1.2-3.1,3.1-3.1h73c1.5,0,3.1,1.2,3.1,3.1l0,0c0,1.5-1.2,3.1-3.1,3.1"/>
	<path class="st7" d="M222.9,261.5c0,1.5-1.2,5.9-3.1,5.9h-72.7c-1.5,0-3.1-4.3-3.1-5.9l0,0c0-1.5,1.2-3.1,3.1-3.1h73
		C221.7,258.5,222.9,259.7,222.9,261.5L222.9,261.5z"/>
	<path class="st8" d="M222.9,261.5c0,1.5-1.2,3.1-3.1,3.1h-72.7c-1.5,0-3.1-1.2-3.1-3.1l0,0c0-1.5,1.2-3.1,3.1-3.1h73
		C221.7,258.5,222.9,259.7,222.9,261.5L222.9,261.5z"/>
	<path class="st9" d="M144,261.5c0-1.5,1.2-3.1,3.1-3.1h73c1.5,0,3.1,1.2,3.1,3.1l0,0c0,1.5-1.2,3.1-3.1,3.1"/>
</g>
<g>
	<path class="st10" d="M122.8,333.4c33.1-2.3,77.5,26,117.2,26c78.8,0,89.3-29.4,128-29.4c11.7-20.6,18.5-44.4,18.6-69.7H102.2
		C102.3,287,109.9,312,122.8,333.4z"/>
</g>
<g>
	<path class="st11" d="M118,324.8c33.9-1.4,96.4-4.5,143.2,2.4c39.6,5.9,84,0.1,112.3-7.8c8.4-18,13.1-38,13.2-59.1H102.2
		C102.3,283.5,108,305.4,118,324.8z"/>
</g>
<g>
	<path class="st12" d="M109.1,303.2c21.7,11.6,57.4,15,99.8,10.5c46.3-4.8,93-5.7,126.7-3c18.6,1.4,32.8,0.5,41.8-0.7
		c5.9-15.5,9.3-32.2,9.3-49.8H102.2C102.3,275.3,104.7,289.7,109.1,303.2z"/>
</g>
<g>
	<path class="st13" d="M375.8,314.3c1.7-4.1,3.3-8.4,4.6-12.7l-1.9-41.3H377L375.8,314.3z"/>
</g>
<g>
	<path class="st13" d="M115.8,320.3l-2.6-57.6h-1.5l-1,45.3C112.2,312.2,113.9,316.3,115.8,320.3z"/>
</g>
<g>
	<path class="st11" d="M373.5,222.1c-4.6,0-8.9,5.8-12.4,13.4c-1.3,7.8-2.1,15.8-2.1,24c0,9.1,0.9,17.9,2.5,26.5
		c3.4,2.4,7.5,3.8,12,3.8c3.9,0,7.4-1.1,10.5-2.9c1.7-8.9,2.7-18,2.7-27.4c0-9.6-1-19-2.8-28.1C380.9,226,377.3,222.1,373.5,222.1z"
		/>
</g>
<g>
	<path class="st11" d="M104.7,286.2c3.4,2.4,7.5,3.8,12,3.8c11.5,0,20.9-9.3,20.9-20.9c0-11.5-9.3-46.9-20.9-46.9
		c-4.6,0-8.9,5.8-12.4,13.4c-1.3,7.8-2.1,15.8-2.1,24C102.2,268.7,103.1,277.6,104.7,286.2z"/>
</g>
<g>
	<polygon class="st12" points="239.4,319.8 233.7,319.8 235.1,258.3 236.5,258.3 	"/>
</g>
<g>
	<polygon class="st12" points="222.5,321.1 216.9,321.1 218.3,259.6 219.7,259.6 	"/>
</g>
<g>
	<polygon class="st12" points="258,319.8 253.1,319.8 254.3,267.1 255.6,267.1 	"/>
</g>
<g>
	<polygon class="st12" points="250.5,316.7 245.7,316.7 246.8,264 248.1,264 	"/>
</g>
<g>
	<polygon class="st12" points="282.1,319.8 277.3,319.8 278.4,267.1 279.7,267.1 	"/>
</g>
<g>
	<polygon class="st12" points="330.9,317.7 326,317.7 327.2,265 328.4,265 	"/>
</g>
<g>
	<polygon class="st12" points="355.8,316.7 351,316.7 352.2,264 353.4,264 	"/>
</g>
<g>
	<polygon class="st12" points="366.9,315.4 362.1,315.4 363.3,262.7 364.5,262.7 	"/>
</g>
<g>
	<polygon class="st12" points="137.6,318.4 132.7,318.4 133.9,265.7 135.1,265.7 	"/>
</g>
<g>
	<polygon class="st12" points="122.8,317.7 117.9,317.7 119.1,265 120.3,265 	"/>
</g>
<g>
	<polygon class="st12" points="210.9,319.8 205.2,319.8 206.6,258.3 208.1,258.3 	"/>
</g>
<g>
	<polygon class="st12" points="191.6,319.8 186,319.8 187.3,258.3 188.8,258.3 	"/>
</g>
<g>
	<polygon class="st12" points="177.8,319.8 172.1,319.8 173.5,258.3 175,258.3 	"/>
</g>
<g>
	<polygon class="st12" points="157.9,318.9 152.2,318.9 153.6,257.4 155,257.4 	"/>
</g>
<g>
	<polygon class="st13" points="261.2,327.2 255.6,327.2 256.9,265.7 258.4,265.7 	"/>
</g>
<g>
	<polygon class="st13" points="274.4,326.1 268.7,326.1 270.1,264.6 271.6,264.6 	"/>
</g>
<g>
	<polygon class="st13" points="295.2,326.1 289.5,326.1 290.9,264.6 292.4,264.6 	"/>
</g>
<g>
	<polygon class="st13" points="312.7,324.9 307,324.9 308.4,263.4 309.9,263.4 	"/>
</g>
<g>
	<polygon class="st13" points="334.1,322.8 328.4,322.8 329.8,261.3 331.3,261.3 	"/>
</g>
<g>
	<polygon class="st13" points="359.1,319.8 353.4,319.8 354.8,258.3 356.2,258.3 	"/>
</g>
<g>
	<polygon class="st13" points="370.2,322.1 364.5,322.1 365.9,260.6 367.3,260.6 	"/>
</g>
<g>
	<polygon class="st13" points="143.2,324.9 137.5,324.9 138.9,263.4 140.4,263.4 	"/>
</g>
<g>
	<polygon class="st13" points="126,326.1 120.3,326.1 121.7,264.6 123.2,264.6 	"/>
</g>
<g>
	<polygon class="st14" points="208.1,338.5 200.3,338.5 202.2,254.4 204.2,254.4 	"/>
</g>
<g>
	<polygon class="st14" points="231.6,338.5 223.9,338.5 225.7,254.4 227.7,254.4 	"/>
</g>
<g>
	<polygon class="st14" points="266.1,337.8 258.4,337.8 260.2,253.7 262.2,253.7 	"/>
</g>
<g>
	<polygon class="st14" points="287.4,337.8 279.7,337.8 281.5,253.7 283.5,253.7 	"/>
</g>
<g>
	<polygon class="st14" points="324.9,338.5 317.2,338.5 319,254.4 321,254.4 	"/>
</g>
<g>
	<polygon class="st14" points="346.1,336 338.4,336 340.2,251.9 342.2,251.9 	"/>
</g>
<g>
	<polygon class="st14" points="175,333.4 167.2,333.4 169.1,249.3 171.1,249.3 	"/>
</g>
<g>
	<polygon class="st13" points="161.7,326.1 156.1,326.1 157.4,264.6 158.9,264.6 	"/>
</g>
<g>
	<polygon class="st13" points="196.8,326.5 191.1,326.5 192.5,265 193.9,265 	"/>
</g>
<g>
	<polygon class="st13" points="219.7,327.2 214.1,327.2 215.4,265.7 216.9,265.7 	"/>
</g>
<g>
	<polygon class="st13" points="242.8,327.2 237.2,327.2 238.5,265.7 240,265.7 	"/>
</g>
<g>
	<polygon class="st14" points="135.1,334.1 127.4,334.1 129.3,250 131.3,250 	"/>
</g>
<g>
	<path class="st15" d="M296.5,236.8c0,2.8-2.2,4.9-4.9,4.9h-29.3c-2.8,0-4.9-2.2-4.9-4.9v-21.9c0-2.8,2.2-4.9,4.9-4.9h29.3
		c2.8,0,4.9,2.2,4.9,4.9V236.8z"/>
	<g>
		<path class="st16" d="M322.4,211.3c0,1.1-2.2,1.9-4.9,1.9h-29.3c-2.8,0-4.9-0.8-4.9-1.9V203c0-1.1,2.2-1.9,4.9-1.9h29.3
			c2.8,0,4.9,0.8,4.9,1.9V211.3z"/>
		<path class="st16" d="M349.5,209.1h-84.7c-2.8,0-4.9,0.8-4.9,1.9v45.4c0,1.1,2.2,1.9,4.9,1.9h84.7c2.8,0,4.9-0.8,4.9-1.9V211
			C354.4,209.9,352.3,209.1,349.5,209.1z"/>
	</g>
	<path class="st17" d="M354.4,211c0-1.1-2.2-1.9-4.9-1.9h-84.7c-2.8,0-4.9,0.8-4.9,1.9v45.4"/>
	<path class="st15" d="M349.5,258.2c2.8,0,4.9-0.8,4.9-1.9V211c0-1.1-2.2-1.9-4.9-1.9h-84.7c-2.8,0-4.9,0.8-4.9,1.9"/>
	<path class="st17" d="M354.4,227c0-2.8-2.2-4.9-4.9-4.9h-84.7c-2.8,0-4.9,2.2-4.9,4.9"/>
	<path class="st7" d="M346.7,246.1c0,1.5-1.2,5.9-3.1,5.9h-73c-1.5,0-3.1-4.3-3.1-5.9l0,0c0-1.5,1.2-3.1,3.1-3.1h73
		C345.5,243,346.7,244.2,346.7,246.1L346.7,246.1z"/>
	<path class="st8" d="M346.7,246.1c0,1.5-1.2,3.1-3.1,3.1h-73c-1.5,0-3.1-1.2-3.1-3.1l0,0c0-1.5,1.2-3.1,3.1-3.1h73
		C345.5,243,346.7,244.2,346.7,246.1L346.7,246.1z"/>
	<path class="st9" d="M267.8,246.1c0-1.5,1.2-3.1,3.1-3.1h73c1.5,0,3.1,1.2,3.1,3.1l0,0c0,1.5-1.2,3.1-3.1,3.1"/>
	<g>
		<path class="st4" d="M333.8,218.3c0,0.3,0.3,0.6,0.6,0.6l0,0c0.3,0,0.6-0.3,0.6-0.6v-46.5c0-0.3-0.3-0.6-0.6-0.6l0,0
			c-0.3,0-0.6,0.3-0.6,0.6V218.3z"/>
		<circle class="st4" cx="334.7" cy="169.3" r="4.3"/>
		<path class="st4" d="M344.6,218.3c0,0.3,0.3,0.6,0.6,0.6l0,0c0.3,0,0.6-0.3,0.6-0.6v-30.2c0-0.3-0.3-0.6-0.6-0.6l0,0
			c-0.3,0-0.6,0.3-0.6,0.6V218.3z"/>
		<circle class="st4" cx="345.2" cy="184.7" r="4.3"/>
	</g>
</g>
<g>
	<g>
		<path class="st10" d="M373.9,281.7c0,15.2-12.4,27.6-27.6,27.6c-15.2,0-27.6-12.4-27.6-27.6c0-15.2,12.4-62.1,27.6-62.1
			S373.9,266.5,373.9,281.7z"/>
	</g>
	<g>
		<polygon class="st18" points="344.9,288.2 343.6,343.7 351.7,343.7 348.9,288.2 		"/>
	</g>
	<g>
		<polygon class="st18" points="346.3,296.5 359,286.2 360.5,289 346.3,301.7 		"/>
	</g>
	<g>
		<path class="st2" d="M346.3,219.6c-3.8,0-7.4,2.9-10.7,7.5c1-0.4,2-0.7,3.1-0.7c15.2,0,27.6,46.9,27.6,62.1c0,6.3-2.1,12-5.6,16.7
			c8-4.8,13.3-13.6,13.3-23.6C373.9,266.5,361.6,219.6,346.3,219.6z"/>
	</g>
</g>
<g>
	<g>
		<path class="st10" d="M175,279.4c0,15.8-12.8,28.7-28.7,28.7s-28.7-12.8-28.7-28.7c0-15.8,12.8-64.5,28.7-64.5
			S175,263.5,175,279.4z"/>
	</g>
	<g>
		<polygon class="st18" points="144.8,286 143.4,343.7 151.9,343.7 149,286 		"/>
	</g>
	<g>
		<polygon class="st18" points="146.3,294.7 159.4,284 161,286.9 146.3,300.1 		"/>
	</g>
	<g>
		<path class="st2" d="M146.3,214.9c-4,0-7.7,3-11.1,7.8c1.1-0.4,2.1-0.7,3.2-0.7c15.8,0,28.7,48.7,28.7,64.5
			c0,6.5-2.2,12.5-5.9,17.3c8.3-5,13.8-14.1,13.8-24.5C175,263.5,162.1,214.9,146.3,214.9z"/>
	</g>
</g>
<g>
	<path class="st19" d="M224.2,171.7c-1.7,0-3.2,0.3-4.7,0.8c-4.8-6.8-12.7-11.4-21.6-11.4s-16.9,4.5-21.6,11.4
		c-1.5-0.5-3.1-0.8-4.7-0.8c-8.7,0-15.8,7.1-15.8,15.8H240C240,178.8,232.9,171.7,224.2,171.7z"/>
</g>
<g class="st20">
	<path class="st19" d="M302.6,178.1c-1.1,0-2.1,0.2-3,0.5c-3-4.4-8.1-7.2-13.8-7.2s-10.7,2.9-13.8,7.2c-1-0.3-2-0.5-3-0.5
		c-5.6,0-10.1,4.5-10.1,10.1h53.7C312.7,182.7,308.2,178.1,302.6,178.1z"/>
</g>
<g>
	<g>
		<path class="st11" d="M269.6,250.2c-0.4-1.7-0.7-3.5-0.7-5.3c0-12.1,9.7-21.8,21.7-21.8c1.3,0,2.5,0.1,3.7,0.3
			c3.8-2.3,8.2-3.7,13-3.7c13.8,0,25,11.3,25,25.2c0,0.6,0,1.2-0.1,1.9c6.3,7.1,10.1,16.5,10.1,26.7c0,22.3-17.9,40.3-40,40.3
			c-22.1,0-40-18.1-40-40.3C262.2,264.7,265,256.7,269.6,250.2z"/>
	</g>
	<g>
		<g>
			<polygon class="st18" points="305.9,343.7 298.9,343.7 300.6,272.8 302.4,272.8 			"/>
		</g>
		<g>
			<polygon class="st18" points="301.2,300.1 285.4,287.3 283.5,288.4 301.2,304.1 			"/>
		</g>
		<g>
			<polygon class="st18" points="302.2,284.6 291.5,275.9 290.3,276.6 302.2,287.3 			"/>
		</g>
		<g>
			<polygon class="st18" points="302.2,293.4 318,280.6 319.9,281.7 302.2,297.4 			"/>
		</g>
	</g>
	<g>
		<path class="st21" d="M332.2,246.7c0-0.6,0.1-1.2,0.1-1.9c0-13.9-11.2-25.2-25-25.2c-4.8,0-9.2,1.4-13,3.7
			c-1.2-0.2-2.4-0.3-3.7-0.3c-6.5,0-12.2,2.9-16.2,7.5c2.3-0.8,4.7-1.4,7.3-1.4c1.3,0,2.5,0.1,3.7,0.3c3.8-2.3,8.2-3.7,13-3.7
			c13.8,0,25,11.3,25,25.2c0,0.6,0,1.2-0.1,1.9c6.3,7.1,10.1,16.5,10.1,26.7c0,11.9-5.2,22.6-13.3,30c13.2-6.6,22.2-20.3,22.2-36.1
			C342.2,263.1,338.4,253.8,332.2,246.7z"/>
	</g>
</g>
<g>
	<g>
		<path class="st11" d="M221,240.7c0.5-1.9,0.8-3.8,0.8-5.9c0-13.3-10.8-24.1-24.1-24.1c-1.4,0-2.8,0.1-4.1,0.4
			c-4.2-2.6-9.1-4.1-14.4-4.1c-15.3,0-27.8,12.4-27.8,27.8c0,0.7,0.1,1.4,0.1,2c-7,7.8-11.2,18.1-11.2,29.4
			c0,24.5,19.9,44.4,44.4,44.4s44.4-19.9,44.4-44.4C229.2,256.8,226.1,247.9,221,240.7z"/>
	</g>
	<g>
		<g>
			<path class="st21" d="M221,240.7c0.5-1.9,0.8-3.8,0.8-5.9c0-13.3-10.8-24.1-24.1-24.1c-1.4,0-2.8,0.1-4.1,0.4
				c-4.2-2.6-9.1-4.1-14.4-4.1c-11.4,0-21.2,6.9-25.5,16.7c4.9-5.7,12.2-9.3,20.4-9.3c5.1,0,9.9,1.5,14,3.9c1.3-0.2,2.6-0.4,4-0.4
				c12.9,0,23.4,10.4,23.4,23.2c0,2-0.3,3.8-0.7,5.7c5,7,7.9,15.5,7.9,24.7c0,13.5-6.3,25.6-16.2,33.4c13.5-7.6,22.7-22.1,22.7-38.7
				C229.2,256.8,226.1,247.9,221,240.7z"/>
		</g>
	</g>
	<g>
		<g>
			<polygon class="st18" points="188.8,343.7 181.1,343.7 182.9,259.6 184.9,259.6 			"/>
		</g>
		<g>
			<polygon class="st18" points="183.6,292 166.3,277.9 164.2,279.1 183.6,296.4 			"/>
		</g>
		<g>
			<polygon class="st18" points="184.8,284.6 202.1,270.5 204.2,271.7 184.8,289 			"/>
		</g>
	</g>
</g>
<g>
	<g>
		<path class="st10" d="M288,220c0.6-2.3,0.9-4.6,0.9-7c0-16-12.9-28.9-28.9-28.9c-1.7,0-3.3,0.2-4.9,0.4c-5.1-3.1-11-4.9-17.3-4.9
			c-18.4,0-33.3,14.9-33.3,33.3c0,0.8,0.1,1.6,0.1,2.4c-8.3,9.4-13.5,21.8-13.5,35.3c0,29.5,23.9,53.3,53.3,53.3
			s53.3-23.9,53.3-53.3C297.8,239.3,294.2,228.7,288,220z"/>
	</g>
	<g>
		<g>
			<g>
				<path class="st2" d="M288,220c0.6-2.3,0.9-4.6,0.9-7c0-16-12.9-28.9-28.9-28.9c-1.7,0-3.3,0.2-4.9,0.4c-5.1-3.1-11-4.9-17.3-4.9
					c-13.7,0-25.5,8.3-30.6,20.1c5.9-6.8,14.7-11.2,24.5-11.2c6.2,0,11.9,1.7,16.8,4.7c1.6-0.3,3.1-0.4,4.8-0.4
					c15.5,0,28.1,12.5,28.1,27.9c0,2.3-0.3,4.6-0.9,6.8c6,8.4,9.5,18.6,9.5,29.6c0,16.3-7.6,30.7-19.5,40.2
					c16.3-9.1,27.3-26.5,27.3-46.5C297.8,239.3,294.2,228.7,288,220z"/>
			</g>
		</g>
		<g>
			<g>
				<path class="st2" d="M199.5,223c0-0.2,0-0.5,0-0.7c-0.6,0.9-1.1,1.8-1.6,2.8C198.4,224.4,198.9,223.7,199.5,223z"/>
			</g>
		</g>
	</g>
	<g>
		<g>
			<polygon class="st18" points="249.3,343.7 240,343.7 242.2,249.9 244.6,249.9 			"/>
		</g>
		<g>
			<polygon class="st18" points="243.1,286.1 222.2,269.2 219.7,270.5 243.1,291.4 			"/>
		</g>
		<g>
			<polygon class="st18" points="244.5,265.6 230.3,254.1 228.6,255 244.5,269.2 			"/>
		</g>
		<g>
			<polygon class="st18" points="244.5,277.2 265.3,260.3 267.8,261.7 244.5,282.5 			"/>
		</g>
	</g>
</g>
<g class="st20">
	<path class="st19" d="M217,154.1c0-6.2,5-11.2,11.2-11.2c0.9,0,1.8,0.1,2.7,0.4c2.9-3.1,7-5.1,11.7-5.1c8.8,0,15.9,7.1,15.9,15.9
		H217z"/>
</g>
<g>
	<path class="st19" d="M274.4,156.4c0-3.7-3-6.8-6.8-6.8c-0.6,0-1.1,0.1-1.6,0.2c-1.8-1.9-4.3-3.1-7.1-3.1c-5.3,0-9.7,4.3-9.7,9.7
		L274.4,156.4L274.4,156.4z"/>
</g>
<g>
	<path class="st19" d="M302.2,171.4c0-4.3,3.5-7.8,7.8-7.8c0.7,0,1.3,0.1,1.9,0.3c2-2.2,4.9-3.6,8.2-3.6c6.2,0,11.2,5,11.2,11.2
		H302.2z"/>
</g>
<g>
	<path class="st22" d="M254.7,164.9c0,3.7-3.7,6.6-8.3,6.6c-4.6,0-8.3-3-8.3-6.6c0-3.7,3.7-6.6,8.3-6.6
		C251,158.4,254.7,161.2,254.7,164.9z"/>
	<path class="st23" d="M252.2,160.2c3.2,2.6,3.2,6.8,0,9.4c-3.2,2.6-8.4,2.6-11.8,0"/>
	<path class="st22" d="M237.2,162.5c0,3.7-3.7,6.6-8.3,6.6s-8.3-3-8.3-6.6c0-3.7,3.7-6.6,8.3-6.6S237.2,158.9,237.2,162.5z"/>
	<path class="st23" d="M234.7,157.8c3.2,2.6,3.2,6.8,0,9.4c-3.2,2.6-8.4,2.6-11.8,0"/>
	<path class="st22" d="M272.1,162.5c0,3.7-3.7,6.6-8.3,6.6s-8.3-3-8.3-6.6c0-3.7,3.7-6.6,8.3-6.6
		C268.4,155.9,272.1,158.9,272.1,162.5z"/>
	<path class="st23" d="M269.7,157.8c3.2,2.6,3.2,6.8,0,9.4c-3.2,2.6-8.4,2.6-11.8,0"/>
	<path class="st24" d="M265.7,153.3c-1-5.3-9.3-12.1-19.3-12.1s-18.3,6.8-19.3,12.1c-10.4,1.1-17.2,3.1-17.2,5.3
		c0,3.5,16.3,6.2,36.5,6.2c20.2,0,36.5-2.8,36.5-6.2C282.9,156.4,276,154.4,265.7,153.3z"/>
	<path class="st25" d="M246.4,164.8c20.2,0,36.5-2.8,36.5-6.2c0-2.2-6.9-4.2-17.2-5.3c-1-5.3-9.3-12.1-19.3-12.1"/>
	<circle class="st26" cx="236.8" cy="153.4" r="2.4"/>
	<path class="st27" d="M238.4,151.8c0.9,0.9,0.9,2.4,0,3.3c-0.9,0.9-2.4,0.9-3.3,0"/>
	<circle class="st26" cx="246.4" cy="153.4" r="2.4"/>
	<path class="st27" d="M248,151.8c0.9,0.9,0.9,2.4,0,3.3c-0.9,0.9-2.4,0.9-3.3,0"/>
	<circle class="st26" cx="255.9" cy="153.4" r="2.4"/>
	<path class="st27" d="M257.6,151.8c0.9,0.9,0.9,2.4,0,3.3c-0.9,0.9-2.4,0.9-3.3,0"/>
</g>
<g class="st28">
	<path class="st8" d="M200.2,328.8c1.2,1.4,0.4,4.1-1.7,6c-2.2,1.9-13.9,10.4-15.2,9c-1.2-1.4,8.5-12.1,10.7-14
		C196.2,327.9,199,327.5,200.2,328.8z"/>
	<path class="st8" d="M202.9,328.8c-1.2,1.4-0.4,4.1,1.7,6c2.2,1.9,13.9,10.4,15.2,9c1.2-1.4-8.5-12.1-10.7-14
		C206.9,327.9,204.1,327.5,202.9,328.8z"/>
</g>
<g>
	<path class="st29" d="M198.6,348.2c0,2.4-1.9,15.2-4.3,15.2c-2.4,0-4.3-12.9-4.3-15.2s1.9-4.3,4.3-4.3
		C196.7,343.9,198.6,345.8,198.6,348.2z"/>
	<path class="st29" d="M213.1,348.2c0,2.4-1.9,15.2-4.3,15.2c-2.4,0-4.3-12.9-4.3-15.2s1.9-4.3,4.3-4.3
		C211.1,343.9,213.1,345.8,213.1,348.2z"/>
</g>
<path class="st30" d="M213.7,342.5c0,15.4-5.5,10.3-12.2,10.3c-6.7,0-12.2,5.1-12.2-10.3c0-8.8,5.5-16,12.2-16
	C208.3,326.5,213.7,333.6,213.7,342.5z"/>
<path class="st22" d="M201.5,326.5c-3.2,0-6.1,1.6-8.3,4.3c-0.2,0.6-0.3,1.1-0.3,1.7c0,3.9,3.8,9.1,8.5,9.1c4.7,0,8.5-5.1,8.5-9.1
	c0-0.6-0.1-1.2-0.3-1.7C207.6,328.1,204.7,326.5,201.5,326.5z"/>
<path class="st30" d="M199.2,363.5c0,1.8-2.2,2.1-4.9,2.1c-2.7,0-4.9-0.2-4.9-2.1s2.2-4.3,4.9-4.3
	C197,359.1,199.2,361.7,199.2,363.5z"/>
<path class="st29" d="M199.2,363.5c0,1.8-2.2,2.1-4.9,2.1c-2.7,0-4.9-0.2-4.9-2.1"/>
<path class="st30" d="M213.6,363.5c0,1.8-2.2,2.1-4.9,2.1s-4.9-0.2-4.9-2.1s2.2-4.3,4.9-4.3C211.4,359.1,213.6,361.7,213.6,363.5z"
	/>
<path class="st29" d="M213.6,363.5c0,1.8-2.2,2.1-4.9,2.1s-4.9-0.2-4.9-2.1"/>
<path class="st30" d="M217.3,319.1c0,7.7-7.1,11.6-15.8,11.6c-8.7,0-15.8-3.9-15.8-11.6c0-7.7,7.1-15.2,15.8-15.2
	C210.2,303.9,217.3,311.4,217.3,319.1z"/>
<path class="st29" d="M217.3,319.1c0,7.7-7.1,11.6-15.8,11.6c-8.7,0-15.8-3.9-15.8-11.6"/>
<path class="st19" d="M205,324.5c0,1.3-1.6,2.3-3.5,2.3s-3.5-1-3.5-2.3c0-1.3,1.6-0.5,3.5-0.5S205,323.3,205,324.5z"/>
<path class="st19" d="M198.7,325.8c0.6,0.6,1.7,1,2.9,1c1.2,0,2.2-0.4,2.9-1c-0.6-0.6-1.7-1-2.9-1
	C200.3,324.9,199.3,325.3,198.7,325.8z"/>
<path class="st31" d="M197.1,312.7c1.9,1.8,3.4,6,1.7,8c-1.8,1.9-6.6,2.1-8.6,0.4c-1.9-1.8-1.6-6.1,0.2-8.1
	C192.1,311,195.1,310.9,197.1,312.7z"/>
<path class="st32" d="M197.1,312.7c1.9,1.8,3.4,6,1.7,8c-1.8,1.9-6.2,0.8-8.1-1c-1.9-1.8-2.1-4.8-0.3-6.7
	C192.1,311,195.1,310.9,197.1,312.7z"/>
<path class="st33" d="M190.3,313c1.8-1.9,4.8-2.1,6.7-0.3c1.9,1.8,3.4,6,1.7,8"/>
<path class="st31" d="M206,312.7c-1.9,1.8-3.4,6-1.7,8c1.8,1.9,6.6,2.1,8.6,0.4c1.9-1.8,1.6-6.1-0.2-8.1
	C211,311,207.9,310.9,206,312.7z"/>
<path class="st32" d="M206,312.7c-1.9,1.8-3.4,6-1.7,8c1.8,1.9,6.2,0.8,8.1-1c1.9-1.8,2.1-4.8,0.3-6.7
	C211,311,207.9,310.9,206,312.7z"/>
<path class="st33" d="M212.7,313c-1.8-1.9-4.8-2.1-6.7-0.3c-1.9,1.8-3.4,6-1.7,8"/>
<path class="st32" d="M203.9,335.4c0,1.3-1.1,2.4-2.4,2.4c-1.3,0-2.4-1.1-2.4-2.4c0-1.3,1.1-2.4,2.4-2.4
	C202.8,333.1,203.9,334.1,203.9,335.4z"/>
<path class="st33" d="M201.5,333.1c1.3,0,2.4,1.1,2.4,2.4c0,1.3-1.1,2.4-2.4,2.4"/>
<path class="st34" d="M201.5,338.3c-1.6,0-2.8-1.3-2.8-2.8c0-1.6,1.3-2.8,2.8-2.8c1.6,0,2.8,1.3,2.8,2.8
	C204.4,337,203.1,338.3,201.5,338.3z M201.5,333.5c-1,0-1.9,0.8-1.9,1.9c0,1,0.8,1.9,1.9,1.9c1,0,1.9-0.8,1.9-1.9
	C203.4,334.4,202.6,333.5,201.5,333.5z"/>
<g class="st28">
	<path class="st8" d="M204,343.6c0,0.3-0.2,0.5-0.5,0.5h-4c-0.3,0-0.5-0.2-0.5-0.5l0,0c0-0.3,0.2-0.5,0.5-0.5h4
		C203.8,343.2,204,343.4,204,343.6L204,343.6z"/>
	<path class="st8" d="M204,345.3c0,0.3-0.2,0.5-0.5,0.5h-4c-0.3,0-0.5-0.2-0.5-0.5l0,0c0-0.3,0.2-0.5,0.5-0.5h4
		C203.8,344.9,204,345.1,204,345.3L204,345.3z"/>
	<path class="st8" d="M204,347c0,0.3-0.2,0.5-0.5,0.5h-4c-0.3,0-0.5-0.2-0.5-0.5l0,0c0-0.3,0.2-0.5,0.5-0.5h4
		C203.8,346.5,204,346.8,204,347L204,347z"/>
</g>
<path class="st9" d="M203.5,308.7v-4.6c-0.6-0.1-1.3-0.1-1.9-0.1c-0.7,0-1.3,0.1-1.9,0.1v4.6c0,1.1,0.9,1.9,1.9,1.9
	C202.6,310.6,203.5,309.7,203.5,308.7z"/>
<path class="st22" d="M199.6,304.1v3c0,1.1,0.9,1.9,1.9,1.9c1.1,0,1.9-0.9,1.9-1.9v-3c-0.6-0.1-1.3-0.1-1.9-0.1
	C200.9,303.9,200.2,304,199.6,304.1z"/>
<g>
	<path class="st9" d="M191.5,357.8h5.6c0.2-0.7,0.3-1.4,0.5-2.2H191C191.2,356.3,191.3,357,191.5,357.8z"/>
	<path class="st9" d="M206,357.8h5.6c0.2-0.7,0.3-1.4,0.5-2.2h-6.6C205.6,356.3,205.8,357,206,357.8z"/>
</g>
<path d="M148.2,127.6"/>
<g>
	<path d="M77.5,160.7l2.7-3.8l18.2,10c2.4,1.3,3.8,2.1,6.6,3.9l0.1-0.1c-2.3-2.4-3.4-3.6-5.2-5.7l-8.1-9.7L94,152l11.7,4.5
		c2.6,1,4.1,1.7,7.1,3.1l0.1-0.2c-2.5-2-3.8-3.1-5.8-4.9l-15.5-13.8l2.6-3.7l24,22.9l-3,4.2l-12.6-5c-1.9-0.8-3.7-1.5-5.5-2.4
		l-0.1,0.1c1.4,1.4,2.8,2.8,4.1,4.4l8.9,10.3l-3,4.2L77.5,160.7z"/>
	<path d="M101.5,129.4l14.5-14.2l2.5,2.5L107,129l7.2,7.3l9.7-9.5l2.5,2.5l-9.7,9.5l8.3,8.5l11.8-11.6l2.5,2.5l-14.8,14.6
		L101.5,129.4z"/>
</g>
<g>
	<path d="M154.3,109.3c-4.5-8.3-2.5-16.1,4.3-19.8c3.1-1.7,6.4-1.5,8.8-0.7l-0.8,3.1c-2.1-0.7-4.3-0.7-6.5,0.5
		c-4.9,2.7-6,8.4-2.5,14.9c3.6,6.5,9,8.8,14,6.1c2.4-1.3,3.6-3.3,4.3-6l3,1c-0.7,3.5-2.5,6.3-6,8.1
		C166.5,120,158.9,117.7,154.3,109.3z"/>
	<path d="M182.3,79.6l4.1-1.4l19.2,24.5l-3.8,1.4l-10.3-13.8c-2.1-2.8-4.1-5.5-6.1-8.4l-0.2,0.1c0.2,3.5,0.4,6.9,0.6,10.4l0.6,17.3
		l-3.6,1.3L182.3,79.6z M183.7,97.6l12.8-4.5l1,2.9l-12.8,4.5L183.7,97.6z"/>
	<path d="M204.2,72.7l4.1-0.7l12.6,16.6l3.9,5.5l0.1,0c-0.7-2.9-1.6-6.1-2.1-9.1L220,69.9l3.5-0.6l5.2,29.1l-4.1,0.7l-12.6-16.6
		l-3.9-5.5l-0.1,0c0.7,2.9,1.6,6,2.1,9l2.7,15.2l-3.5,0.6L204.2,72.7z"/>
</g>
<g>
	<path d="M269.3,65.1l9.2,1.5c6.6,1.1,10.7,4.1,9.8,9.7c-0.5,3.2-2.8,5.8-6.8,6.1l0,0.2c4.6,1.5,6.9,4.6,6.2,9
		c-1.1,6.4-6.5,8.6-13.8,7.4l-9.9-1.7L269.3,65.1z M273.8,95.6c5.5,0.9,9-0.4,9.8-4.8c0.7-4-2.1-6.1-7.8-7.1l-5.2-0.9l-2,11.8
		L273.8,95.6z M275.5,80.1c5.5,0.9,8-0.5,8.6-4.1c0.6-3.5-1.8-5.2-6.7-6l-4.6-0.8l-1.7,10.2L275.5,80.1z"/>
	<path d="M295.2,90.8l6.8-19.2l4,1.4l-6.8,19.3c-2.3,6.4-0.3,9.7,3.4,11c3.7,1.3,7.4,0,9.6-6.4l6.8-19.3l3.8,1.4L316,98.2
		c-3.1,8.9-8.7,10.7-14.7,8.6C295.2,104.7,292,99.7,295.2,90.8z"/>
	<path d="M320.2,109.9l7.1,4.1L340,91.7l-7.1-4.1l1.8-3.1l17.8,10.2l-1.8,3.1l-7.1-4.1L330.9,116l7.1,4.1l-1.8,3.1L318.4,113
		L320.2,109.9z"/>
	<path d="M365.5,104.1l3.2,2.7L349.7,129l12.3,10.5l-2.3,2.7l-15.5-13.2L365.5,104.1z"/>
	<path d="M389.1,125.7l5.1,6.3c6.2,7.6,5.1,15.5-3,22.1c-8.1,6.6-16.2,6.3-22.3-1.2l-5.2-6.4L389.1,125.7z M371.3,150.3
		c4.7,5.8,10.8,5.6,17.2,0.4c6.4-5.2,7.6-11,2.9-16.7l-2.3-2.8L369,147.6L371.3,150.3z"/>
</g>
<g>
	<path d="M446.7,240.5l0,5.1l-14,4.7l-5.3,1.6l0,0.2l5.3,1.5l14,4.6l0,5.1l-32.8,0.2l0-4l16.4-0.1c3.2,0,8.8,0.4,11.6,0.6l0-0.2
		l-6.4-1.8l-12.9-4.6l0-3l12.9-4.7l6.4-1.9l0-0.1c-2.8,0.3-8.4,0.8-11.6,0.8l-16.4,0.1l0-3.9L446.7,240.5z"/>
	<path d="M430.1,270.9c10.4,1.8,15.7,7.9,14.5,15.2c-1.2,7.3-8.3,11.4-18.7,9.6c-10.6-1.8-16-8-14.8-15.3
		C412.3,273.1,419.5,269.1,430.1,270.9z M426.6,291.4c8.1,1.4,13.5-1.1,14.3-5.9s-3.4-9-11.6-10.3c-8.3-1.4-13.8,1-14.6,5.9
		C413.9,285.9,418.3,290,426.6,291.4z"/>
	<path d="M419.6,316.4l-19.6,3.5l1.6-4.5l17-2.9L419.6,316.4z M438.6,309.8l-3.5,9.6c-2.3,6.2-6.2,10-12.6,7.6
		c-6.2-2.2-7.5-7.9-5.2-14.1l2.1-5.6l-13-4.7l1.5-4L438.6,309.8z M420.7,313.5c-1.7,4.8-0.7,8.1,3.2,9.6c4,1.5,6.5-0.6,8.2-5.4
		l1.8-5.1l-11.4-4.2L420.7,313.5z"/>
	<path d="M425.2,342.4l-10.3,17.5l-3.1-1.8l8.2-13.9l-8.8-5.2l-6.9,11.7l-3.1-1.8l6.9-11.7l-10.3-6l-8.4,14.3l-3.1-1.8l10.6-17.9
		L425.2,342.4z"/>
</g>
<g>
	<path d="M370.8,373.2l-0.1,3.8c-3.5-0.3-7.1,0.7-10,3c-3.5,2.9-4.1,6.2-2.2,8.5c2.2,2.7,4.8,1.8,8.3,0.8l5-1.4
		c3.3-1.1,7.7-1.7,10.8,2c3.2,3.8,2.1,9.6-2.7,13.6c-3.2,2.6-7,3.7-10.4,3.3l0-3.5c2.9,0.1,5.5-0.6,8.1-2.8c2.9-2.4,3.7-5.4,1.8-7.7
		c-2-2.4-5.1-1.4-8-0.4l-4.8,1.4c-4.1,1.4-8.1,1.6-11.2-2.1c-3.3-4-2.6-10,2.9-14.6C362.3,374,366.7,372.9,370.8,373.2z"/>
	<path d="M355,401.7c5.4,9.1,4.1,17.2-2.3,20.9c-6.4,3.8-14,1-19.4-8.1c-5.5-9.3-4.3-17.4,2.1-21.2S349.6,392.5,355,401.7z
		 M337.1,412.4c4.2,7.1,9.5,9.6,13.8,7.1c4.3-2.5,4.6-8.4,0.4-15.5c-4.3-7.2-9.7-9.9-14-7.4C333.1,399.1,332.8,405.1,337.1,412.4z"
		/>
	<path d="M329.7,434l-3.9,1.5l-10.7-27.2l-15.1,5.9l-1.3-3.3l18.9-7.4L329.7,434z"/>
	<path d="M291.8,446.3l-4.7,1l-17.6-29.8l4.4-0.9l9.3,16.7c1.9,3.3,3.7,6.6,5.5,10.1l0.2,0c0.2-3.9,0.5-7.7,0.9-11.5l1.8-19.1
		l4.2-0.9L291.8,446.3z M292.9,426.2l-14.7,3.1l-0.7-3.3l14.7-3.1L292.9,426.2z"/>
	<path d="M252.4,435.5l-10.7-16.8l4.7-0.2l9.2,14.6L252.4,435.5z M265.7,450.6l-10.2,0.4c-6.6,0.3-11.6-1.9-11.9-8.8
		c-0.3-6.5,4.4-9.9,11.1-10.2l6-0.2l-0.6-13.8l4.2-0.2L265.7,450.6z M255.4,435.5c-5.1,0.2-7.8,2.4-7.6,6.6c0.2,4.3,3,5.7,8.1,5.5
		l5.4-0.2l-0.5-12.1L255.4,435.5z"/>
	<path d="M231.4,450.8l-9.8-1.3c-7.2-0.9-11.7-4-10.8-11.1c0.9-6.9,6.2-9.4,13.4-8.5l5.7,0.7l1.7-12.9l4.2,0.5L231.4,450.8z
		 M224.2,433.3c-5.7-0.7-8.7,1-9.3,5.6c-0.6,4.7,2,6.6,7.6,7.3l5.2,0.7l1.7-12.9L224.2,433.3z"/>
	<path d="M204.8,426l-6.1,19.5l-4.1-1.3l6.1-19.6c2-6.4-0.1-9.7-3.8-10.8c-3.8-1.2-7.4,0.3-9.4,6.7l-6.1,19.6l-3.9-1.2l6.1-19.5
		c2.8-9,8.2-11,14.4-9.1C204.2,412.2,207.6,417,204.8,426z"/>
	<path d="M166.3,434.3l-4.1-2.1l0-23.1l0.3-7.5l-0.1,0c-1.3,3-2.7,6.4-4.2,9.5l-7.7,15.1l-3.6-1.8l14.9-29.2l4.1,2.1l0,23.1
		l-0.3,7.5l0.1,0c1.4-3.1,2.6-6.4,4.2-9.4l7.8-15.3l3.6,1.8L166.3,434.3z"/>
	<path d="M135.9,417.4l-3.4-2.5l9.8-13.2l-0.1-0.1l-20.8,5l-3.9-2.9l28.3-6.8l6.2-8.4l3.4,2.5L135.9,417.4z M137.1,400.3l-4,1.1
		l3-24.7l3.8,2.8L137.1,400.3z"/>
</g>
<g>
	<path d="M84.3,377.3l-2.6-3.9l15.9-13.3c2.1-1.8,3.4-2.8,6-4.7l-0.1-0.1c-3,1.3-4.6,1.9-7.2,2.8l-12,4l-2.2-3.4l8.5-9.3
		c1.9-2.1,3.1-3.2,5.5-5.5l-0.1-0.2c-2.8,1.6-4.2,2.4-6.7,3.6l-18.6,9.4l-2.5-3.8l30.1-13.9l2.8,4.4l-9.3,9.9
		c-1.4,1.5-2.8,2.9-4.3,4.2l0.1,0.1c1.9-0.8,3.6-1.6,5.6-2.3l12.8-4.5l2.8,4.3L84.3,377.3z"/>
	<path d="M80.2,340.2c-9.8,4.2-17.5,1.8-20.4-5s0.8-14,10.6-18.2c9.9-4.2,17.8-1.9,20.7,4.9S90.1,335.9,80.2,340.2z M72,321
		c-7.6,3.2-10.8,8.2-8.9,12.7s7.7,5.7,15.3,2.4c7.7-3.3,11.1-8.3,9.1-12.9C85.7,318.7,79.8,317.7,72,321z"/>
	<path d="M52,312.1l-2.3-10c-1.5-6.5-0.2-11.7,6.5-13.3c6.4-1.4,10.5,2.6,12,9.1l1.3,5.9l13.5-3.1l0.9,4.1L52,312.1z M65,299.2
		c-1.1-5-3.8-7.2-7.9-6.3c-4.2,0.9-5.1,4-4,9l1.2,5.3l11.8-2.7L65,299.2z M64.4,296.2l14.6-13.5l1,4.6L67.2,299L64.4,296.2z"/>
	<path d="M45.6,276.4l-0.2-4.1l29.2-1.1L74,254.9l3.5-0.1l0.8,20.3L45.6,276.4z"/>
	<path d="M45.5,244.3l1.2-8c1.4-9.8,8-14.2,18.3-12.7c10.3,1.5,15.6,7.7,14.2,17.2L78,249L45.5,244.3z M75.7,240.8
		c1.1-7.4-3.2-11.7-11.4-12.9c-8.2-1.2-13.2,1.8-14.3,9.2l-0.5,3.6l25.6,3.7L75.7,240.8z"/>
	<path d="M81.3,213.4c-2.4-0.8-3.5-3.1-2.7-5.2c0.7-2.1,2.9-3.3,5.3-2.5c2.4,0.8,3.5,3.1,2.7,5.2C85.9,213.1,83.8,214.3,81.3,213.4z
		"/>
</g>
<g>
	<path d="M432.8,185.3l1.7,4.5l-26.6,22.2l-1.6-4.2l15-11.9c3-2.4,5.9-4.7,9.1-7l-0.1-0.2c-3.9,0.4-7.7,0.7-11.5,1l-19.1,1.2l-1.6-4
		L432.8,185.3z M412.7,187.5l5.4,14l-3.2,1.2l-5.4-14L412.7,187.5z"/>
</g>
</svg>
